<svg xmlns="http://www.w3.org/2000/svg" xmlns:xlink="http://www.w3.org/1999/xlink" width="142" height="142" viewBox="0 0 142 142">
  <defs>
    <clipPath id="clip-path">
      <rect id="Rectangle_380618" data-name="Rectangle 380618" width="112.879" height="92.749" fill="none"/>
    </clipPath>
    <clipPath id="clip-path-3">
      <rect id="Rectangle_380606" data-name="Rectangle 380606" width="13.557" height="30.627" fill="none"/>
    </clipPath>
    <clipPath id="clip-path-4">
      <rect id="Rectangle_380607" data-name="Rectangle 380607" width="51.606" height="56.658" fill="none"/>
    </clipPath>
    <clipPath id="clip-path-5">
      <rect id="Rectangle_380608" data-name="Rectangle 380608" width="20.812" height="29.903" fill="none"/>
    </clipPath>
    <clipPath id="clip-path-6">
      <rect id="Rectangle_380609" data-name="Rectangle 380609" width="47.846" height="31.93" fill="none"/>
    </clipPath>
    <clipPath id="clip-path-7">
      <rect id="Rectangle_380610" data-name="Rectangle 380610" width="59.294" height="37.479" fill="none"/>
    </clipPath>
    <clipPath id="clip-path-8">
      <rect id="Rectangle_380611" data-name="Rectangle 380611" width="58.532" height="54.211" fill="none"/>
    </clipPath>
    <clipPath id="clip-path-9">
      <rect id="Rectangle_380612" data-name="Rectangle 380612" width="64.501" height="42.784" fill="none"/>
    </clipPath>
    <clipPath id="clip-path-10">
      <rect id="Rectangle_380613" data-name="Rectangle 380613" width="53.894" height="57.904" fill="none"/>
    </clipPath>
    <clipPath id="clip-path-11">
      <rect id="Rectangle_380614" data-name="Rectangle 380614" width="25.526" height="11.286" fill="none"/>
    </clipPath>
    <clipPath id="clip-path-12">
      <rect id="Rectangle_380615" data-name="Rectangle 380615" width="14.762" height="13.895" fill="none"/>
    </clipPath>
    <clipPath id="clip-path-13">
      <rect id="Rectangle_380616" data-name="Rectangle 380616" width="6.51" height="5.518" fill="none"/>
    </clipPath>
  </defs>
  <g id="Group_1083590" data-name="Group 1083590" transform="translate(-1039.999 -3706.774)">
    <g id="Group_1015274" data-name="Group 1015274" transform="translate(11 -3315.226)">
      <g id="Group_1015037" data-name="Group 1015037" transform="translate(1028.999 7022)">
        <g id="Group_159183" data-name="Group 159183" transform="translate(0 0)">
          <g id="Group_1015569" data-name="Group 1015569">
            <g id="Group_1015568" data-name="Group 1015568">
              <path id="Union_12" data-name="Union 12" d="M101.655,135.059a71.06,71.06,0,1,1,23.7-18.381L135.108,142Z" fill="#a3bfe4"/>
              <path id="Path_606158" data-name="Path 606158" d="M55.281,0A55.281,55.281,0,1,1,0,55.281,55.281,55.281,0,0,1,55.281,0Z" transform="translate(15.831 15.83)" fill="#fffbe5"/>
            </g>
          </g>
        </g>
      </g>
    </g>
    <g id="Group_1083589" data-name="Group 1083589" transform="translate(1054.061 3735.528)">
      <g id="Group_1083586" data-name="Group 1083586" clip-path="url(#clip-path)">
        <g id="Group_1083585" data-name="Group 1083585" transform="translate(0)">
          <g id="Group_1083584" data-name="Group 1083584" clip-path="url(#clip-path)">
            <path id="Path_838293" data-name="Path 838293" d="M126.87,595.927V584.419a4.987,4.987,0,0,0-.236-1.536,9.363,9.363,0,0,0-5.084-5.975c.128-5.3-2.131-8.133-5.83-9.473-.318-6.439-3.049-9.946-7.141-11.805,0,0-2.623-8.891-23.173-6.121a54.1,54.1,0,0,0-10.138,2.326,41.788,41.788,0,0,0-8.418,3.886c-6.264,3.833-8.625,7.853-8.625,7.853A12.885,12.885,0,0,0,53.3,561.96c-8.121-1.294-21.582.391-27.572,1.612C18.217,565.1,17,570.544,17,570.544a54.212,54.212,0,0,0-.673,15.8l47.559,8.412,57.254,10.126,4.221.746c1.664-2.344,1.507-9.7,1.507-9.7" transform="translate(-15.017 -547.954)" fill="#27dbcf"/>
            <g id="Group_1083553" data-name="Group 1083553" transform="translate(38.278 7.766)" opacity="0.3">
              <g id="Group_1083552" data-name="Group 1083552" transform="translate(0)">
                <g id="Group_1083551" data-name="Group 1083551" clip-path="url(#clip-path-3)">
                  <path id="Path_838294" data-name="Path 838294" d="M612.725,850.842l0,0c-6.264,3.833-8.625,7.853-8.625,7.853a12.889,12.889,0,0,0-4.929-1.612c.05.982.154,2.113.242,3.53.292,4.763,2.915,12.243,2.915,12.243l4.775,8.613c-1.618-4.387.064-8.535,4.4-12.493-7.2,4.512-8.841-7.984,1.227-18.131" transform="translate(-599.168 -850.839)" fill="#262f6a"/>
                </g>
              </g>
            </g>
            <g id="Group_1083556" data-name="Group 1083556" transform="translate(60.251 1.019)" opacity="0.3">
              <g id="Group_1083555" data-name="Group 1083555">
                <g id="Group_1083554" data-name="Group 1083554" clip-path="url(#clip-path-4)">
                  <path id="Path_838295" data-name="Path 838295" d="M994.7,595.927V584.419a4.987,4.987,0,0,0-.236-1.536,9.363,9.363,0,0,0-5.084-5.975c.128-5.3-2.131-8.133-5.83-9.473-.318-6.439-3.049-9.946-7.141-11.805,0,0-2.623-8.891-23.173-6.121a54.1,54.1,0,0,0-10.138,2.326C973.088,546.144,967.133,565,967.133,565l21.841,39.885,4.221.746c1.664-2.344,1.507-9.7,1.507-9.7" transform="translate(-943.1 -548.973)" fill="#262f6a"/>
                </g>
              </g>
            </g>
            <path id="Path_838296" data-name="Path 838296" d="M1261.667,77.4c4.366,2.671,4.33,5.928,4.33,5.928,1.749,12.34-1.091,18.535-1.091,18.535s-6.2-9.5-6.779-9.936-11.66-11.66-12.1-12.1-.292-4.081,0-4.227,6.8-3.644,6.8-3.644" transform="translate(-1166.168 -13.713)" fill="#198bfd"/>
            <g id="Group_1083559" data-name="Group 1083559" transform="translate(79.586 58.249)" opacity="0.3">
              <g id="Group_1083558" data-name="Group 1083558">
                <g id="Group_1083557" data-name="Group 1083557" clip-path="url(#clip-path-5)">
                  <path id="Path_838297" data-name="Path 838297" d="M1261.667,77.4c4.366,2.671,4.33,5.928,4.33,5.928,1.749,12.34-1.091,18.535-1.091,18.535s-6.2-9.5-6.779-9.936-11.66-11.66-12.1-12.1-.292-4.081,0-4.227,6.8-3.644,6.8-3.644" transform="translate(-1245.754 -71.962)" fill="#262f6a"/>
                </g>
              </g>
            </g>
            <path id="Path_838298" data-name="Path 838298" d="M63.89,752.425a14.52,14.52,0,0,0-1.452-6.337l-.009-.017c-3.871-6.646-5.3-15.8-5.3-15.8a16.311,16.311,0,0,1,1.093-9.036c-5.757-3.789-25-1.53-32.5,0a14,14,0,0,0-4,1.428A9.328,9.328,0,0,0,17,728.211a54.5,54.5,0,0,0-.679,15.743v.006c0,.035.006.052.006.052l40.386,7.144Z" transform="translate(-15.019 -705.621)" fill="#e1e1f4"/>
            <g id="Group_1083562" data-name="Group 1083562" transform="translate(1.025 14.875)" opacity="0.7">
              <g id="Group_1083561" data-name="Group 1083561">
                <g id="Group_1083560" data-name="Group 1083560" clip-path="url(#clip-path-6)">
                  <path id="Path_838299" data-name="Path 838299" d="M63.89,751.091c-.012-.262-.029-.519-.05-.772l-4.865-.86-40.386-7.144s0-.018-.006-.053v-.006a54.5,54.5,0,0,1,.679-15.743,9.329,9.329,0,0,1,4.725-5.544,14,14,0,0,1,4-1.428c.6-.122,1.28-.251,2.017-.379-1.647.248-3.1.5-4.276.743a14,14,0,0,0-4,1.428A9.328,9.328,0,0,0,17,726.877a54.5,54.5,0,0,0-.679,15.743v.006c0,.035.006.052.006.052l40.386,7.144Z" transform="translate(-16.044 -719.161)" fill="#fff"/>
                </g>
              </g>
            </g>
            <path id="Path_838300" data-name="Path 838300" d="M79.6,356.366a5.175,5.175,0,0,0-.659-1.877L66.4,332.962l-.009-.017L65.135,330.8l-2.97-5.1A9.929,9.929,0,0,0,53,320.816c-5.9.364-11.627.968-17.148,1.848q-5.754.9-11.211,2.233a5.971,5.971,0,0,0-.612.186,5.162,5.162,0,0,0-.784.353.063.063,0,0,1-.015.009,5.587,5.587,0,0,0-2.1,2.011,5.806,5.806,0,0,0-.839,3.373v.006a5.684,5.684,0,0,0,1.044,2.932l20.116,28.476a5.922,5.922,0,0,0,5.36,2.483l28.129-2.481a5.118,5.118,0,0,0,3.644-2v0a5.2,5.2,0,0,0,1.029-3.88" transform="translate(-18.978 -292.495)" fill="#fff"/>
            <g id="Group_1083565" data-name="Group 1083565" transform="translate(1.295 34.775)" opacity="0.7">
              <g id="Group_1083564" data-name="Group 1083564">
                <g id="Group_1083563" data-name="Group 1083563" clip-path="url(#clip-path-7)">
                  <path id="Path_838301" data-name="Path 838301" d="M79.427,351.733v0a5.118,5.118,0,0,1-3.644,2l-28.129,2.481a5.922,5.922,0,0,1-5.361-2.484L22.178,325.254a5.685,5.685,0,0,1-1.044-2.932v-.006a5.629,5.629,0,0,1,.111-1.519c-.044.061-.085.122-.122.187a5.806,5.806,0,0,0-.839,3.372v.006a5.685,5.685,0,0,0,1.044,2.932L41.443,355.77a5.922,5.922,0,0,0,5.36,2.483l28.129-2.481a5.119,5.119,0,0,0,3.644-2v0a5.234,5.234,0,0,0,.991-2.236c-.044.067-.09.131-.14.2" transform="translate(-20.273 -320.798)" fill="#fff"/>
                </g>
              </g>
            </g>
            <g id="Group_1083568" data-name="Group 1083568" transform="translate(2.145 13.54)" opacity="0.3">
              <g id="Group_1083567" data-name="Group 1083567">
                <g id="Group_1083566" data-name="Group 1083566" clip-path="url(#clip-path-8)">
                  <path id="Path_838302" data-name="Path 838302" d="M92.056,441.62a5.176,5.176,0,0,0-.659-1.877L78.849,418.216l-.009-.018c-3.871-6.646-5.3-15.8-5.3-15.8a16.311,16.311,0,0,1,1.093-9.036c-5.757-3.789-25-1.53-32.5,0a14,14,0,0,0-4,1.428c18.545-3.02,33.74-3.393,29.711,11.421-.044.16-.087.324-.137.487,0,0-4.46-.341-19.413,1.216-.015,0-.026,0-.041,0-6.13.638-9.7,1.554-11.782,2.416-.289.12-.548.236-.784.353a.065.065,0,0,1-.015.009c-2.189,1.093-2.1,2.011-2.1,2.011,13.286-3.53,26.485-1.1,39.552,10.575,6,5.352,11.963,12.654,17.9,22.214a5.2,5.2,0,0,0,1.029-3.88" transform="translate(-33.574 -391.289)" fill="#262f6a"/>
                </g>
              </g>
            </g>
            <path id="Path_838303" data-name="Path 838303" d="M774.535,46.331c1.895-4.591-.219-9.4-5.83-11.149,1.385-4.882-2.2-9.269-8.016-9.838,2.09-3.693-.554-10.325-9.182-9.328-14.574,1.361-41.823,5.06-37.448,20.978l.1.175L727.97,60.862a5.176,5.176,0,0,1,.659,1.877,51.357,51.357,0,0,1,10.709,5.818c4.518,3.425,7.36,11.66,10.494,16.834s9.619,6.194,14.21,4.372,4.591-10.494,0-16.178a61.076,61.076,0,0,0-10.494-9.911S769,62.29,774.025,60.541s7.943-9.473.51-14.21" transform="translate(-668.002 1.132)" fill="#27dbcf"/>
            <g id="Group_1083571" data-name="Group 1083571" transform="translate(46.536 17.048)" opacity="0.3">
              <g id="Group_1083570" data-name="Group 1083570">
                <g id="Group_1083569" data-name="Group 1083569" clip-path="url(#clip-path-9)">
                  <path id="Path_838304" data-name="Path 838304" d="M788.424,545.672c1.895-4.591-.219-9.4-5.83-11.149,1.385-4.882-2.2-9.269-8.016-9.838,2.09-3.693-.554-10.325-9.182-9.328-11.928,1.113-32.346,3.8-36.969,13.458,6.608-7.7,24.505-10.01,35.366-11.024,8.628-1,10.616,4.512,8.526,8.205,5.206.509,9.278,5.2,8.947,9.439a2.157,2.157,0,0,0,1.248,2.109c3.931,1.84,5.609,5.423,4.776,9.089a2.4,2.4,0,0,0,.81,2.4c3.36,2.767,3.8,6.253,2.655,9.008,2.959-3.058,3.521-8.64-2.332-12.368" transform="translate(-728.427 -515.256)" fill="#262f6a"/>
                </g>
              </g>
            </g>
            <g id="Group_1083574" data-name="Group 1083574" transform="translate(45.589 33.828)" opacity="0.7">
              <g id="Group_1083573" data-name="Group 1083573">
                <g id="Group_1083572" data-name="Group 1083572" clip-path="url(#clip-path-10)">
                  <path id="Path_838305" data-name="Path 838305" d="M749.839,66.57c-3.134-5.174-5.976-13.409-10.494-16.834a51.358,51.358,0,0,0-10.709-5.818,5.175,5.175,0,0,0-.659-1.877L714.166,18.349l-.1-.175a13.224,13.224,0,0,1-.42-2.259,11.752,11.752,0,0,0,.42,4.3l.1.175,13.811,23.692a5.175,5.175,0,0,1,.659,1.877,51.357,51.357,0,0,1,10.709,5.818c4.518,3.425,7.36,11.66,10.494,16.833s9.619,6.194,14.21,4.372c2.548-1.011,3.682-4.13,3.4-7.678-.224,2.658-1.355,4.827-3.4,5.637-4.591,1.822-11.077.8-14.21-4.372" transform="translate(-713.598 -15.915)" fill="#fff"/>
                </g>
              </g>
            </g>
            <g id="Group_1083577" data-name="Group 1083577" transform="translate(85.509 53.57)" opacity="0.7">
              <g id="Group_1083576" data-name="Group 1083576">
                <g id="Group_1083575" data-name="Group 1083575" clip-path="url(#clip-path-11)">
                  <path id="Path_838306" data-name="Path 838306" d="M1363.921,436.611a7.683,7.683,0,0,1-4.938,6.063c-3.744,1.3-14.311,2.556-19.464,3.111a1.175,1.175,0,0,0-.617,2.077l.042.034c4.506-.461,16.221-1.853,20.04-3.182a7.61,7.61,0,0,0,4.938-8.1" transform="translate(-1338.469 -436.611)" fill="#fff"/>
                </g>
              </g>
            </g>
            <path id="Path_838307" data-name="Path 838307" d="M38.719,304.833q-.343,0-.688.021a164,164,0,0,0-28.537,4.107,6.749,6.749,0,0,0-3.9,10.452L25.7,347.888a6.978,6.978,0,0,0,6.283,2.912l28.13-2.482a6.192,6.192,0,0,0,4.805-9.287l-16.78-28.786a10.859,10.859,0,0,0-9.424-5.411m-7.338,43.953a4.923,4.923,0,0,1-4.01-2.075L7.256,318.236a4.709,4.709,0,0,1,2.719-7.293,161.994,161.994,0,0,1,28.18-4.053,8.844,8.844,0,0,1,8.225,4.381l16.78,28.786a4.152,4.152,0,0,1-3.222,6.227l-28.129,2.482c-.143.013-.286.019-.428.019" transform="translate(-4.073 -277.551)" fill="#262f6a"/>
            <path id="Path_838308" data-name="Path 838308" d="M738.194,0a15.419,15.419,0,0,0-1.768.1c-12.95,1.208-30.886,3.816-36.852,12.448a11.28,11.28,0,0,0-1.464,9.815,1.02,1.02,0,0,0,1.968-.541,9.208,9.208,0,0,1,1.175-8.114c6.115-8.847,28.146-10.9,35.385-11.578,4.889-.562,7.022,1.468,7.859,2.73a4.988,4.988,0,0,1,.34,5.079,1.02,1.02,0,0,0,.789,1.518,8.53,8.53,0,0,1,6.347,3.372A6,6,0,0,1,752.76,20a1.02,1.02,0,0,0,.678,1.252,8.193,8.193,0,0,1,5.185,4.124,6.96,6.96,0,0,1,.006,5.663,1.02,1.02,0,0,0,.395,1.249c2.884,1.838,4.3,4.313,3.99,6.971a6.626,6.626,0,0,1-4.288,5.415c-4.852,1.688-20.079,3.067-20.233,3.081a1.02,1.02,0,0,0-.5,1.845,60.528,60.528,0,0,1,10.294,9.722c2.621,3.246,3.823,7.906,2.923,11.334a4.554,4.554,0,0,1-2.506,3.255c-4.131,1.639-10.077.81-12.961-3.952-.944-1.559-1.861-3.4-2.832-5.355-2.263-4.548-4.6-9.25-7.917-11.764a51.788,51.788,0,0,0-10.958-5.955,1.02,1.02,0,0,0-.736,1.9,50.648,50.648,0,0,1,10.46,5.678c2.934,2.224,5.166,6.709,7.323,11.046.99,1.991,1.926,3.871,2.914,5.5,3.465,5.722,10.552,6.74,15.459,4.792a6.488,6.488,0,0,0,3.727-4.633c1.071-4.079-.259-9.357-3.31-13.134a59.946,59.946,0,0,0-8.627-8.5c4.646-.477,14.275-1.587,18.152-2.936A8.706,8.706,0,0,0,765.04,39.5c.374-3.2-1.164-6.245-4.237-8.465a8.839,8.839,0,0,0-.333-6.521,9.911,9.911,0,0,0-5.534-4.893,8.011,8.011,0,0,0-1.277-5.939,10.179,10.179,0,0,0-6.492-4.052,7.155,7.155,0,0,0-.969-5.895c-1.6-2.418-4.465-3.736-8-3.736" transform="translate(-653.038 16.031)" fill="#262f6a"/>
            <path id="Path_838309" data-name="Path 838309" d="M1404.669,649.569l-17.715,4.787,18.138-2.791a1.021,1.021,0,1,0-.422-2" transform="translate(-1298.346 -603.103)" fill="#262f6a"/>
            <path id="Path_838310" data-name="Path 838310" d="M1294.191,818.387l-19.023,5.151,19.454-3.156a1.021,1.021,0,1,0-.43-1.994" transform="translate(-1193.703 -783.07)" fill="#262f6a"/>
            <path id="Path_838311" data-name="Path 838311" d="M1230.607,975.816l-14.753,4.922,15.27-2.948a1.022,1.022,0,1,0-.517-1.974" transform="translate(-1138.178 -950.326)" fill="#262f6a"/>
            <path id="Path_838312" data-name="Path 838312" d="M77.753,533.016a56.313,56.313,0,0,0-7.5.543c-17.789,2.4-25.368,10.99-27.367,13.729-6.836-3.27-24.833-1.193-32.383.346-8.061,1.644-9.457,7.5-9.512,7.749,0,.012-.005.023-.007.035A54.686,54.686,0,0,0,.3,571.548a1.02,1.02,0,0,0,2.021-.283,53.676,53.676,0,0,1,.662-15.448c.078-.314,1.31-4.834,7.926-6.183,8.509-1.735,26.553-3.56,31.736-.148a1.02,1.02,0,0,0,1.44-.336c.063-.107,6.69-10.909,26.438-13.57,19.253-2.593,22.036,5.33,22.062,5.41a1.049,1.049,0,0,0,.553.629c4.192,1.9,6.272,5.377,6.545,10.926a1.02,1.02,0,0,0,.671.909c3.627,1.316,5.266,4.014,5.158,8.49a1.021,1.021,0,0,0,.575.943,8.373,8.373,0,0,1,4.557,5.372,3.934,3.934,0,0,1,.187,1.222v11.507c.058,2.738-.249,7.607-1.319,9.112a1.02,1.02,0,1,0,1.663,1.183c1.811-2.545,1.713-9.528,1.7-10.316V569.482a5.966,5.966,0,0,0-.287-1.854,10.386,10.386,0,0,0-5.028-6.277c-.055-4.717-2.029-7.93-5.876-9.566-.439-5.78-2.839-9.663-7.321-11.845-.743-1.635-4.113-6.924-16.607-6.924" transform="translate(0 -533.016)" fill="#262f6a"/>
            <path id="Path_838313" data-name="Path 838313" d="M1479.883,56.009a1.02,1.02,0,0,0-.534,1.891c3.758,2.3,3.841,4.948,3.843,5.06a1.269,1.269,0,0,0,.01.141c1.677,11.832-.983,17.909-1.01,17.969a1.02,1.02,0,0,0,1.856.848c.121-.264,2.937-6.591,1.182-19.047-.027-.628-.383-4-4.816-6.711a1.016,1.016,0,0,0-.531-.15" transform="translate(-1384.383 6.659)" fill="#262f6a"/>
            <path id="Path_838314" data-name="Path 838314" d="M650.8,1066.581a16.367,16.367,0,0,0-.625,7.2,18.254,18.254,0,0,0,.444,2.291,16.843,16.843,0,0,1,1.081-6.67,12.87,12.87,0,0,1,.675-1.487,4.694,4.694,0,0,1,.249-.424,1.031,1.031,0,1,0-1.825-.912" transform="translate(-608.5 -1051.419)" fill="#262f6a"/>
            <path id="Path_838315" data-name="Path 838315" d="M1448.52,1169.269l1.02,10.445,1.02-10.445a1.024,1.024,0,1,0-2.04,0" transform="translate(-1355.978 -1161.594)" fill="#262f6a"/>
            <path id="Path_838316" data-name="Path 838316" d="M1560.322,935.583l.4,5.368.617,8.2,1.02-13.567a1.022,1.022,0,1,0-2.04,0" transform="translate(-1460.638 -916.103)" fill="#262f6a"/>
            <path id="Path_838317" data-name="Path 838317" d="M1651.542,862.073l1.02,8.793,1.02-8.793a1.026,1.026,0,1,0-2.04,0" transform="translate(-1546.029 -833.119)" fill="#262f6a"/>
            <g id="Group_1083580" data-name="Group 1083580" transform="translate(50.547 27.043)" opacity="0.25">
              <g id="Group_1083579" data-name="Group 1083579">
                <g id="Group_1083578" data-name="Group 1083578" clip-path="url(#clip-path-12)">
                  <path id="Path_838318" data-name="Path 838318" d="M797.652,823.241a15.522,15.522,0,0,1,6.912-7.136,2.726,2.726,0,0,0-1.4-5.111c-8.746.2-15.162,5.407-10.244,12.714a2.713,2.713,0,0,0,4.73-.467" transform="translate(-791.215 -810.994)" fill="#fff"/>
                </g>
              </g>
            </g>
            <g id="Group_1083583" data-name="Group 1083583" transform="translate(67.182 23.717)" opacity="0.25">
              <g id="Group_1083582" data-name="Group 1083582" transform="translate(0)">
                <g id="Group_1083581" data-name="Group 1083581" clip-path="url(#clip-path-13)">
                  <path id="Path_838319" data-name="Path 838319" d="M1058.109,996.932a3.3,3.3,0,1,0-3.255,2.759,3.038,3.038,0,0,0,3.255-2.759" transform="translate(-1051.599 -994.173)" fill="#fff"/>
                </g>
              </g>
            </g>
          </g>
        </g>
      </g>
    </g>
  </g>
</svg>
