<svg id="Group_1084164" data-name="Group 1084164" xmlns="http://www.w3.org/2000/svg" xmlns:xlink="http://www.w3.org/1999/xlink" width="254" height="218.605" viewBox="0 0 254 218.605">
  <defs>
    <clipPath id="clip-path">
      <rect id="Rectangle_381003" data-name="Rectangle 381003" width="254" height="218.605" fill="none"/>
    </clipPath>
  </defs>
  <g id="Group_1084163" data-name="Group 1084163" clip-path="url(#clip-path)">
    <path id="Path_839419" data-name="Path 839419" d="M88.931,167.733s9.665-15.64,7.176-31.17a51.647,51.647,0,0,0-13.115-26.617c-1.58-1.863-21.093-21.683-22.783-31.127S61.775,60.383,64.7,52.155,80.534,26.334,80.534,26.334h95.455S158.823,38.092,155.6,54.325s-.651,23.887,9.9,32.742,23.407,15.042,27.082,26.366-21.844,54.3-21.844,54.3Z" transform="translate(16.057 7.078)" fill="#fff"/>
    <path id="Path_839420" data-name="Path 839420" d="M67.731,94.023s.973,7.552.948,9.863.973,4.085-2.413,4.887-9.44,1.454-11.654,1.063-7.012-2.171-7.606-5.438-.78-4.948-.78-4.948l-2.9-.074s-7-8.742-8.007-10.3-1.734-1.915-1.488-3.095a67.535,67.535,0,0,1,1.96-7.558c.68-1.654,1.034-3.339,2.423-3.989s8.625-2.719,10.1-3.457,2.1-3.006,2.97-4.13a7.446,7.446,0,0,1,4.982-2.564c2.149-.157,6.892-.1,9.956,2.309a15.453,15.453,0,0,1,5.546,9.555c.443,3.309-2.508,6.212-2.508,6.212l-1.18.4Z" transform="translate(9.08 17.264)" fill="#1a1a1a"/>
    <path id="Path_839421" data-name="Path 839421" d="M153.282,93.65s1.028,2.189,7.671.831l.409,1.757.3,1.661-2.053,2.378-1.878,3.353a4.481,4.481,0,0,1-3.926-1.4c-1.619-1.986-.527-8.583-.527-8.583" transform="translate(41.1 25.17)" fill="#fff"/>
    <path id="Path_839422" data-name="Path 839422" d="M63.034,89.328s.716,3.056-2.222,2.961a3.964,3.964,0,0,0-2.366-1.029,8.268,8.268,0,0,0-3.83.336,21.271,21.271,0,0,0-5.676,3.858c-.264.235-2.455-1.6-2.455-1.6a25.821,25.821,0,0,1-.808-5.728,57.114,57.114,0,0,1,1.19-9.145c.315-.974.256-1.458,1.214-1.642s9.936-1.072,11.435-.96,5.316.053,5.316.053v2.777s4.309-.584,3.984,5.926c-.358,7.151-4.6,5.56-4.6,5.56l-.9-.206Z" transform="translate(12.276 20.526)" fill="#fff"/>
    <path id="Path_839423" data-name="Path 839423" d="M44.766,90.048a11.28,11.28,0,0,0,1.427-5.065c-.029-2.591-.971-4.356-2.6-4.479s-5.659.145-5.8,4.318S43.082,90.3,43.082,90.3s.3,3.6-.872,4.636l-1.595,7.641s8.379,7.836,12.7,7.049,4.353-4.329,4.353-4.329-4.134.4-5.977-.326-4.727-2.521-5.61-4.523-1.314-10.4-1.314-10.4" transform="translate(10.156 21.631)" fill="#fff"/>
    <path id="Path_839424" data-name="Path 839424" d="M106.553,154.664l2.581,1.444a58.086,58.086,0,0,1,6.573-2.628,4.851,4.851,0,0,1,4.154.811,3.382,3.382,0,0,0,1.364.546,12.423,12.423,0,0,1,3.528-1.566c1.509-.264,4.668,1.257,4.668,1.257l1.517-.584s4.609,11.725,5.555,12.845l-5.773,2.944a9.028,9.028,0,0,1-4.862,4.927,18.841,18.841,0,0,1-5.912,1.581s-4.106.988-5.258.438a22.629,22.629,0,0,1-5.552-4.8,18.117,18.117,0,0,1-1.651-3.291l-1.426-1.473-3.985-1.723Z" transform="translate(27.434 41.185)" fill="#fff"/>
    <path id="Path_839425" data-name="Path 839425" d="M169.088,105.811a13.908,13.908,0,0,1-4.136.8c-1.528-.108-1.849-2.342-1.849-2.342l-.678-4.391s-4.354.658-6.528,0-3.926-2.232-4.418-6.5-.256-14.932-.256-14.932l17.183.775s-.4-3.325.751-4.466c0,0,.473.67.088,4.131s-.669,7.931-.991,8.776a31.622,31.622,0,0,0-1.529,9.22c.161,3.38.7,6.945,2.362,8.926" transform="translate(40.628 20.092)" fill="#fff"/>
    <path id="Path_839426" data-name="Path 839426" d="M64.344,100.753a197.559,197.559,0,0,1,2.65,20.2c.557,9.039.962,31.455-.307,39.1,0,0-3.671-17.4-5.009-23.756-1.618-7.7-6.076-19.7-9.586-27.6s-4.8-10.665-4.8-10.665l-4.411,5.311s-8.782,1.04-15.872,5.7-12.431,11.336-13.7,20.463.688,55.833.688,55.833H90.655l-.813-15.264s7.616,8.94,33.14,16.962l9.555-22.673s-20.305-9.305-26.664-14.3-10-13.345-13.077-18.669c-3.034-5.239-7.6-14.81-15.637-22.137-1.819-1.656-4.706-4.57-8.114-5.572l-3.229-3.042Z" transform="translate(3.46 26.348)" fill="#b0c0d2"/>
    <path id="Path_839427" data-name="Path 839427" d="M68,81s1.745-.7,1.162-4.8-2.192-7.681-5.119-9.336-5.694-3.357-10.135-2.044c-3.47,1.026-3.022,3.848-4.347,5.161s-4.342,2.7-8.694,3.351-4.575,2.562-5.737,6.732a37.348,37.348,0,0,0-1.4,6.91c-.079.742,9.612,12.363,9.612,12.363a5.628,5.628,0,0,0,.763-4.545,5.06,5.06,0,0,1-4.929-5.241c-.009-2.238,1.237-4.562,3.563-4.684,2.634-.142,4.172,1.226,4.429,3.32a9.847,9.847,0,0,1-1.375,6.475s1.25,10,1.311,10.3,3.884,4.593,7.016,4.773,11.215.31,11.591-1.438a19.334,19.334,0,0,0,1.006-7.015A51.2,51.2,0,0,0,66.326,94a2.065,2.065,0,0,1-2.274,1.592A2.867,2.867,0,0,0,62,94.513c-1.5-.307-.79-.32-3.506.178s-6.579,4.3-6.579,4.3-4.466-1.436-4.778-2.154c-.514-1.186-.032-5.175-.032-5.175s.084-6.7.282-8.39c.374-3.2,3.839-2.808,3.839-2.808L65.3,79.514l2.767.223Z" transform="translate(9.066 17.298)" fill="#1a1a1a"/>
    <path id="Path_839428" data-name="Path 839428" d="M191.157,116.4s-2.541-2.654-4.189-2.648-5.871,1.887-9.579,0-8.18-3.96-9.4-9.913a27.237,27.237,0,0,1,.678-12.632c.409-1.651,1.666-15.067,1.666-15.067s-1.91,3.192-1.208,5.382L150.4,80.986s-1.341-4.753.1-7.739c.764-1.587,3.711-4.83,12.206-5.985s18.872,5.4,19.214,6.218-.265,7.1-.265,11.279.147,11.977,5.75,14c0,0,6.917,2.907,6.9,8.944s-3.152,8.694-3.152,8.694" transform="translate(40.27 18.041)" fill="#fff"/>
    <path id="Path_839429" data-name="Path 839429" d="M189.882,115.823s-2.45-2.351-4.1-2.345-4.683,1.525-8.393-.363-5.749-3.547-6.972-9.5a27.242,27.242,0,0,1,.676-12.632c.317-1.284-.2-10.537-.439-14.572a.733.733,0,0,0-1.351-.348,7.637,7.637,0,0,0-1.089,5.236l-16.285-.353s.518-6.792,1-7.677,3.624-6,12.2-6.093c8.126-.089,15.723,5.428,16.066,6.244s-.326,8.8-.326,12.987,1.413,11.4,5.632,12.129c0,0,7.226,3.177,6.891,9.206a13.327,13.327,0,0,1-3.509,8.082" transform="translate(40.834 18.054)" fill="#1a1a1a"/>
    <path id="Path_839430" data-name="Path 839430" d="M132.547,184.325s-6.929-11.975-8.14-18.315l14.426-5.045s-.265-5.915.011-11.074c1.269-23.608,4.909-28.552,6.65-32.343s6.3-8.288,10.8-13.47c1.543-1.78,5.373-3.456,5.373-3.456a6.944,6.944,0,0,0,1.42,1.218,8.478,8.478,0,0,0,2.281,0s-1.587,8.961-3.881,23.215c0,0,1.663-3.667,10.418-12.985a38.727,38.727,0,0,1,4.792-3.659s3.427-.345,6-4.568a10.4,10.4,0,0,0,8.034.887,5.572,5.572,0,0,1,6.724,2.1s6.665,6.36,6.858,14.787-1.871,13.49-1.871,13.49l-3.948,30.115,3.346,19.1-56.3.317.4-3.357Z" transform="translate(33.436 27.043)" fill="#33ece0"/>
    <path id="Path_839431" data-name="Path 839431" d="M92.267,130.076a11.451,11.451,0,0,1-1.321,5.618l24.4.216a7.788,7.788,0,0,0,1.377-5.834Z" transform="translate(24.443 34.96)" fill="#983333"/>
    <path id="Path_839432" data-name="Path 839432" d="M154.047,94.062s1.04,1.614,7.684.256l.41,1.759.3,1.661-2.531,1.879-2.09,2.911a2.4,2.4,0,0,1-3.128-.787c-1.618-1.988-.648-7.679-.648-7.679" transform="translate(41.325 25.28)" fill="#1a1a1a"/>
    <path id="Path_839433" data-name="Path 839433" d="M168.426,99.844s-2.9,1.473-4.436.685-1.512-3.57-1.512-3.57a13.067,13.067,0,0,0-4.965,5.865s-1.3,6.879-2.238,12.712c-.867,5.418-1.643,10.5-1.643,10.5a47.088,47.088,0,0,1,8.227-10.71c4.968-4.875,6.983-5.934,6.983-5.934s4.59-1.082,5.857-4.344c0,0-4.856-2.865-6.273-5.207" transform="translate(41.291 26.059)" fill="#fff"/>
    <path id="Path_839434" data-name="Path 839434" d="M50.073,104.835l-2.246,5.13L49.8,114.37l.827,13.311s1.963,6.982,3.339,13.155,2.148,10.016,2.148,10.016.419-3.9.49-12.261c.067-8.19-.3-11.958-.3-11.958L51.725,113.7l.927-4.951Z" transform="translate(12.854 28.176)" fill="#ffce26"/>
    <path id="Path_839435" data-name="Path 839435" d="M129.8,72.877c-.108,13.761,17.681,14.208,17.681,14.208-10.07-4.409-6.07-14.208-6.07-14.208Z" transform="translate(34.886 19.587)" fill="#a3bfe4"/>
    <path id="Path_839436" data-name="Path 839436" d="M149.984,81.721a9.071,9.071,0,0,0,9.072-9.072V49.043a9.071,9.071,0,0,0-9.072-9.072H106.472A9.071,9.071,0,0,0,97.4,49.043V72.649a9.071,9.071,0,0,0,9.072,9.072h43.512Z" transform="translate(26.178 10.743)" fill="#a3bfe4"/>
    <path id="Path_839437" data-name="Path 839437" d="M114.3,62.024H82.514a6.624,6.624,0,0,0-6.625,6.624v17.24a6.627,6.627,0,0,0,6.625,6.627c-.1,0,2.819,7.156-4.536,10.376,0,0,12.993-.326,12.913-10.376h23.4a6.626,6.626,0,0,0,6.624-6.627V68.648a6.624,6.624,0,0,0-6.624-6.624" transform="translate(20.396 16.67)" fill="#ffce26"/>
    <path id="Path_839438" data-name="Path 839438" d="M43.91,28.069a1.116,1.116,0,1,1,1.118-1.117,1.117,1.117,0,0,1-1.118,1.117" transform="translate(11.501 6.944)" fill="#3a3a3a"/>
    <path id="Path_839439" data-name="Path 839439" d="M37.083,28.139a1.174,1.174,0,1,1,1.175-1.174,1.174,1.174,0,0,1-1.175,1.174" transform="translate(9.651 6.932)" fill="#3a3a3a"/>
    <path id="Path_839440" data-name="Path 839440" d="M30.224,28.034a1.088,1.088,0,1,1,1.087-1.087,1.087,1.087,0,0,1-1.087,1.087" transform="translate(7.831 6.95)" fill="#3a3a3a"/>
    <path id="Path_839441" data-name="Path 839441" d="M43.922,34.98A1.175,1.175,0,1,1,45.1,33.8a1.175,1.175,0,0,1-1.176,1.176" transform="translate(11.489 8.77)" fill="#3a3a3a"/>
    <path id="Path_839442" data-name="Path 839442" d="M37.1,35.049a1.232,1.232,0,1,1,1.231-1.233A1.235,1.235,0,0,1,37.1,35.049" transform="translate(9.638 8.758)" fill="#3a3a3a"/>
    <path id="Path_839443" data-name="Path 839443" d="M30.237,34.944A1.145,1.145,0,1,1,31.381,33.8a1.145,1.145,0,0,1-1.144,1.146" transform="translate(7.819 8.776)" fill="#3a3a3a"/>
    <path id="Path_839444" data-name="Path 839444" d="M43.9,41.713a1.087,1.087,0,1,1,1.087-1.087A1.088,1.088,0,0,1,43.9,41.713" transform="translate(11.507 10.627)" fill="#3a3a3a"/>
    <path id="Path_839445" data-name="Path 839445" d="M37.077,41.786a1.146,1.146,0,1,1,1.144-1.147,1.148,1.148,0,0,1-1.144,1.147" transform="translate(9.657 10.614)" fill="#3a3a3a"/>
    <path id="Path_839446" data-name="Path 839446" d="M30.221,41.689a1.067,1.067,0,1,1,1.068-1.067,1.069,1.069,0,0,1-1.068,1.067" transform="translate(7.835 10.631)" fill="#3a3a3a"/>
    <path id="Path_839447" data-name="Path 839447" d="M159.043,92.3c-1.693,0-3.134-1.122-3.292-2.124a1.417,1.417,0,0,1,.3-1.174,1.954,1.954,0,0,1,2.064-.417,3.682,3.682,0,0,0,.917.222c.449-.169.54-.212.875-1.07a1.915,1.915,0,0,1,1.661-1.328,1.42,1.42,0,0,1,1.071.513,2.464,2.464,0,0,1,.32,2.082,3.969,3.969,0,0,1-3.915,3.3m-1.682-3.063a.936.936,0,0,0-.719.272.652.652,0,0,0-.122.544,2.628,2.628,0,0,0,2.524,1.468,3.186,3.186,0,0,0,3.153-2.673,1.812,1.812,0,0,0-.14-1.41c-.452-.51-1.141-.148-1.425.584-.388.993-.575,1.2-1.019,1.415-.349.164-.629.252-1.741-.114a1.693,1.693,0,0,0-.511-.085" transform="translate(41.854 23.224)" fill="#1a1a1a"/>
    <path id="Path_839448" data-name="Path 839448" d="M158.43,99.683a8.661,8.661,0,0,1-2.645-.367,5.971,5.971,0,0,1-3.886-4.24c-1.13-3.451-1.071-7.123-1.011-10.672.028-1.8.044-3.273.057-4.385.019-1.791.019-1.791.036-1.855a.389.389,0,1,1,.754.192c.006.02,0,.709-.011,1.671-.013,1.114-.029,2.587-.049,3.92-.065,3.955-.124,7.559.965,10.886a5.239,5.239,0,0,0,3.383,3.742,9.353,9.353,0,0,0,3.648.273,40.458,40.458,0,0,0,4.55-.608.4.4,0,0,1,.458.3.392.392,0,0,1-.306.459,41,41,0,0,1-4.637.62c-.461.038-.894.058-1.3.058" transform="translate(40.546 20.929)" fill="#1a1a1a"/>
    <path id="Path_839449" data-name="Path 839449" d="M156.631,89.554c-1.049-.233-3.325-.842-3.662-1.713a.714.714,0,0,1,.089-.683c3.062-4.394,3.608-7.227,3.613-7.256a.383.383,0,0,1,.453-.311.389.389,0,0,1,.312.452c-.022.121-.57,3.01-3.74,7.561a7.7,7.7,0,0,0,3.022,1.182.389.389,0,0,1-.088.768" transform="translate(41.099 21.39)" fill="#1a1a1a"/>
    <path id="Path_839450" data-name="Path 839450" d="M151.332,80.238c-.406-.209-.439-.449-.311-.619.043-.058,1.136-1.455,3.884-.676a.39.39,0,0,1,.269.48.4.4,0,0,1-.48.27c-2.211-.638-3.022.355-3.054.4a.393.393,0,0,1-.308.148" transform="translate(40.571 21.154)" fill="#1a1a1a"/>
    <path id="Path_839451" data-name="Path 839451" d="M162.654,81.368a4.858,4.858,0,0,0-4.457-1.734.4.4,0,0,1-.421-.354.389.389,0,0,1,.355-.421c3.569-.321,4.81,1.841,4.862,1.932a.391.391,0,0,1-.151.529.4.4,0,0,1-.188.048" transform="translate(42.404 21.186)" fill="#1a1a1a"/>
    <path id="Path_839452" data-name="Path 839452" d="M159.6,83.764a.486.486,0,0,0,.5-.481v-1.4a.481.481,0,0,0-.481-.481.487.487,0,0,0-.5.481v1.4a.482.482,0,0,0,.481.481" transform="translate(42.766 21.877)" fill="#1a1a1a"/>
    <path id="Path_839453" data-name="Path 839453" d="M152.932,83.586a.488.488,0,0,0,.5-.481V81.7a.491.491,0,0,0-.982,0v1.4a.482.482,0,0,0,.48.481" transform="translate(40.973 21.829)" fill="#1a1a1a"/>
    <path id="Path_839454" data-name="Path 839454" d="M190.721,116.314c-.412-.223-.438-.468-.3-.636,2.866-3.536,3.947-6.827,3.211-9.78-1.151-4.613-6.391-6.881-6.443-6.9-7.28-1.4-6.161-17.241-5.336-23.983a2.333,2.333,0,0,0-.032-.756c-.22-1-1.073-1.5-1.978-2.021-7.7-4.466-14.856-5.722-21.32-3.758-3.429,1.042-7.613,3.04-8.063,6.631-.61,4.876.6,5.778.609,5.787a.4.4,0,0,1,.114.532.378.378,0,0,1-.513.136c-.173-.1-1.662-1.111-.982-6.552.4-3.169,3.374-5.685,8.606-7.279,6.68-2.027,14.046-.746,21.9,3.81a4.12,4.12,0,0,1,2.383,2.549,3.02,3.02,0,0,1,.043,1.012c-.62,5.1-2.113,21.815,4.791,23.154.307.121,5.728,2.47,6.972,7.455.8,3.2-.334,6.723-3.364,10.461a.389.389,0,0,1-.3.143" transform="translate(40.183 17.953)" fill="#1a1a1a"/>
    <path id="Path_839455" data-name="Path 839455" d="M167.675,109.782a5.429,5.429,0,0,1-1.228-.142c-2.281-.53-3.2-2.68-3.447-4.9-.077.166-.162.329-.259.492-.608,1.019-2.26,2.44-4.083,1.93-2.454-.689-2.326-3.14-2.272-4.186.043-.822.558-1.805,1.677-3.268a10.124,10.124,0,0,1,3.211-2.96c.661-.228.865-.1.913.109a.39.39,0,0,1-.288.468,9.114,9.114,0,0,0-3.218,2.857,7.321,7.321,0,0,0-1.515,2.751c-.077,1.474-.011,3,1.7,3.479,1.465.412,2.793-.886,3.2-1.578a7.476,7.476,0,0,0,.82-2.737c.079-.471.157-.954.28-1.449a.392.392,0,0,1,.462-.287.386.386,0,0,1,.3.454c-.556,2.862-.3,7.369,2.694,8.066,4.03.952,7.133-4,7.162-4.05a.382.382,0,0,1,.535-.127.388.388,0,0,1,.128.534c-.127.2-2.852,4.543-6.775,4.543" transform="translate(42.025 25.97)" fill="#1a1a1a"/>
    <path id="Path_839456" data-name="Path 839456" d="M144.506,156.527a.39.39,0,0,1-.389-.386l-.127-10.532c-.523-1.026-4.911-10.016-2.872-18.349a80.376,80.376,0,0,1,8.024-18.945.388.388,0,1,1,.671.391,79.555,79.555,0,0,0-7.939,18.74c-2.052,8.38,2.8,17.791,2.847,17.886.044.176.175,10.8.175,10.8a.391.391,0,0,1-.386.395Z" transform="translate(37.783 29.059)" fill="#1a1a1a"/>
    <path id="Path_839457" data-name="Path 839457" d="M135.725,161.877a.39.39,0,0,1-.389-.388c0-.213-.033-21.333,2.619-32.587a45.038,45.038,0,0,1,20.631-28.513.389.389,0,0,1,.357.691,44.23,44.23,0,0,0-20.23,28c-2.631,11.166-2.6,32.195-2.6,32.4a.391.391,0,0,1-.388.392Z" transform="translate(36.373 26.969)" fill="#1a1a1a"/>
    <path id="Path_839458" data-name="Path 839458" d="M156.956,104.336a3.965,3.965,0,0,1-2.749-1.04c-1.747-1.625-2.168-4.934-1.248-9.839a.374.374,0,0,1,.453-.31.388.388,0,0,1,.312.453c-1.078,5.751-.047,8.135,1.006,9.12a3.4,3.4,0,0,0,2.994.756.389.389,0,0,1,.2.754,4.113,4.113,0,0,1-.964.107" transform="translate(40.982 25.031)" fill="#1a1a1a"/>
    <path id="Path_839459" data-name="Path 839459" d="M147.653,187.09c-.428-.508-.3-.718-.091-.769,12.193-2.921,21.821-5.227,27.342-10.291,4.432-4.063,17.694-24.929,21.2-35.267,1-2.94,5.386-18.085-6.143-27.39-2.144-1.736-3.565-1.411-5.368-1.006-2.217.5-4.977,1.129-9.926-1.784-9.863-5.8-7.016-16.989-5.8-21.767l.17-.676a78.707,78.707,0,0,0,1-8.431c-.386.311-18.6-.009-18.6-.009a.39.39,0,0,1,.006-.78l17.778.313a9.536,9.536,0,0,1,1.289-5.322c.7.679-.013,11.562-.714,14.414l-.174.683c-1.172,4.609-3.917,15.4,5.443,20.905,4.684,2.754,7.169,2.189,9.36,1.7,1.841-.417,3.586-.813,6.029,1.158,11.931,9.63,7.416,25.219,6.391,28.246-3.611,10.658-16.811,31.375-21.408,35.589-5.669,5.2-15.384,7.529-27.686,10.477a.446.446,0,0,1-.09.01M170.284,76.455a7.886,7.886,0,0,0-.252,3.106c.1-1.106.187-2.2.252-3.106" transform="translate(39.607 19.865)" fill="#1a1a1a"/>
    <path id="Path_839460" data-name="Path 839460" d="M153.633,125.032c-.37-.546,1.067-10.909,3.514-22.417a.4.4,0,0,1,.461-.3.39.39,0,0,1,.3.462c-1.837,8.645-3.106,16.64-3.625,20.107a54.854,54.854,0,0,1,14.483-15.375.39.39,0,0,1,.445.639,55.068,55.068,0,0,0-15.247,16.7.385.385,0,0,1-.331.187" transform="translate(41.275 27.497)" fill="#1a1a1a"/>
    <path id="Path_839461" data-name="Path 839461" d="M166.416,49.247c-.266-.1-22.518-20.7-22.518-20.7a.389.389,0,0,1,.528-.572l22.252,20.6a.388.388,0,0,1-.261.675" transform="translate(38.641 7.492)" fill="#1a1a1a"/>
    <path id="Path_839462" data-name="Path 839462" d="M148.745,20.369c-.443-.4-.369-.638-.179-.736L173.5,6.747a.389.389,0,0,1,.359.69L148.923,20.324a.389.389,0,0,1-.179.044" transform="translate(39.889 1.802)" fill="#1a1a1a"/>
    <path id="Path_839463" data-name="Path 839463" d="M135.418,14.733a.389.389,0,0,1-.387-.345L133.395.434a.386.386,0,0,1,.34-.43.382.382,0,0,1,.433.341L135.805,14.3a.391.391,0,0,1-.341.43c-.017,0-.032,0-.046,0" transform="translate(35.851 0)" fill="#1a1a1a"/>
    <path id="Path_839464" data-name="Path 839464" d="M50.749,127.545a.389.389,0,0,1-.387-.362L49.354,113.44l-1.8-4.257a.39.39,0,0,1,.207-.511.384.384,0,0,1,.509.206l1.828,4.318c.03.126,1.042,13.932,1.042,13.932a.389.389,0,0,1-.359.415l-.029,0" transform="translate(12.772 29.198)" fill="#1a1a1a"/>
    <path id="Path_839465" data-name="Path 839465" d="M49.327,112.974c-.424-.523-.287-.73-.077-.771l3.579-.719a.4.4,0,0,1,.457.3.387.387,0,0,1-.3.457l-3.578.721a.39.39,0,0,1-.076.009" transform="translate(13.183 29.961)" fill="#1a1a1a"/>
    <path id="Path_839466" data-name="Path 839466" d="M57.089,126.275c-.364-.252-5.287-13.234-5.287-13.234-.019-.213.953-5.117.953-5.117a.388.388,0,1,1,.761.152l-.949,4.793,4.885,12.878a.387.387,0,0,1-.225.5.382.382,0,0,1-.138.027" transform="translate(13.922 28.922)" fill="#1a1a1a"/>
    <path id="Path_839467" data-name="Path 839467" d="M46.395,115.233c-.351-.117-.442-.346-.358-.543l4.748-11.043c.679-.062,7.148,9.525,7.148,9.525a.389.389,0,0,1-.645.436l-6.071-9L46.751,115a.391.391,0,0,1-.357.237" transform="translate(12.365 27.856)" fill="#1a1a1a"/>
    <path id="Path_839468" data-name="Path 839468" d="M61.009,161.254c-.33-.184-22.83-36.407-22.83-36.407-.036-.339,2.418-7.066,2.418-7.066l-6.072-2.024a.388.388,0,0,1-.258-.447l2.479-12.022c.089-.176,4.571-5.347,4.571-5.347.645.086,1.453,1.608,2.864,4.724,2.151,4.76,5.316,12.113,8.2,20.109,5.309,14.73,8.716,36.129,9,37.913.042.39-.133.566-.348.566ZM38.939,124.6l21.376,34.41c-.964-5.765-4.117-23.339-8.666-35.968-2.874-7.972-6.033-15.306-8.177-20.05-.936-2.069-1.6-3.428-1.944-4.1l-4.04,4.66L35.1,115.128l6.122,2.04c.244.5-2.283,7.429-2.283,7.429" transform="translate(9.208 26.323)" fill="#1a1a1a"/>
    <path id="Path_839469" data-name="Path 839469" d="M55.922,160.736a.4.4,0,0,1-.387-.42c.014-.19,1.483-19.09.792-32.329-.25-4.779-.6-9.336-1.032-13.541a124.981,124.981,0,0,0-2.095-14.1.388.388,0,1,1,.756-.178,124.811,124.811,0,0,1,2.11,14.195c.438,4.22.787,8.786,1.038,13.578a279.51,279.51,0,0,1-.514,28.323l8.635-32.917-3.44-6.471c.075-.463,3.319-3.55,3.319-3.55l-7.651-10.307a.389.389,0,0,1,.625-.462l7.854,10.583a.388.388,0,0,1-.044.513l-3.277,3.12,3.372,6.344c.033.282-9.687,37.327-9.687,37.327a.391.391,0,0,1-.376.291" transform="translate(14.295 26.842)" fill="#1a1a1a"/>
    <path id="Path_839470" data-name="Path 839470" d="M109.372,167.319H.388a.39.39,0,0,1,0-.779H109.372a.39.39,0,0,1,0,.779" transform="translate(0 44.76)" fill="#1a1a1a"/>
    <path id="Path_839471" data-name="Path 839471" d="M216.673,167.319H137.825a.39.39,0,0,1,0-.779h78.849a.39.39,0,1,1,0,.779" transform="translate(36.937 44.76)" fill="#1a1a1a"/>
    <path id="Path_839472" data-name="Path 839472" d="M62.1,90.8a2.712,2.712,0,0,1-2.262-1.332l-.372-.593a11.6,11.6,0,0,1-.919-4.408c.1-3.427,1.765-6.113,3.789-6.113a2.447,2.447,0,0,1,1.051.252,3.683,3.683,0,0,1,1.453,1.44,9.547,9.547,0,0,1-.261,9.19A3.1,3.1,0,0,1,62.1,90.8m.279-11.665c-1.591,0-2.969,2.453-3.053,5.354a10.306,10.306,0,0,0,.771,3.867,5.893,5.893,0,0,0,.388.685,1.939,1.939,0,0,0,1.572.979A2.363,2.363,0,0,0,63.938,88.8a8.781,8.781,0,0,0,.237-8.35A2.959,2.959,0,0,0,63.041,79.3a1.565,1.565,0,0,0-.66-.169" transform="translate(15.735 21.058)" fill="#1a1a1a"/>
    <path id="Path_839473" data-name="Path 839473" d="M54.512,91.123a3.322,3.322,0,0,1-2.775-1.983,8.66,8.66,0,0,1-.929-4.351c.1-3.428,1.826-6.112,3.928-6.112,2.211.066,3.806,2.847,3.7,6.335-.1,3.427-1.827,6.11-3.929,6.11m.272-11.665c-1.7,0-3.112,2.4-3.2,5.353a7.876,7.876,0,0,0,.835,3.957,2.582,2.582,0,0,0,2.044,1.576c1.7,0,3.114-2.4,3.2-5.354s-1.231-5.484-2.879-5.532Z" transform="translate(13.654 21.146)" fill="#1a1a1a"/>
    <path id="Path_839474" data-name="Path 839474" d="M56.6,84.419c-.337-.1-.44-.326-.364-.528A2.35,2.35,0,0,1,58.384,82.3c1.222.039,1.549,1.535,1.562,1.6a.389.389,0,0,1-.761.162c0-.009-.214-.964-.827-.987-.976,0-1.391,1.076-1.394,1.087a.392.392,0,0,1-.364.252" transform="translate(15.108 22.12)" fill="#1a1a1a"/>
    <path id="Path_839475" data-name="Path 839475" d="M53.009,84.027l-8.574-.237a.39.39,0,0,1-.378-.4.359.359,0,0,1,.4-.379l8.564.237a.39.39,0,0,1-.011.779" transform="translate(11.841 22.309)" fill="#1a1a1a"/>
    <path id="Path_839476" data-name="Path 839476" d="M58.417,93.713c-4.521-.264-4.686-3.748-4.686-3.783a.386.386,0,0,1,.373-.4.4.4,0,0,1,.4.373c0,.114.161,2.813,3.932,3.034a.389.389,0,0,1-.023.778" transform="translate(14.441 24.062)" fill="#1a1a1a"/>
    <path id="Path_839477" data-name="Path 839477" d="M59.449,88.621c-.428-.272-.426-.516-.272-.666a1.691,1.691,0,0,1,1.979-.273.39.39,0,0,1-.4.666.933.933,0,0,0-1.032.161.386.386,0,0,1-.272.112" transform="translate(15.879 23.511)" fill="#1a1a1a"/>
    <path id="Path_839478" data-name="Path 839478" d="M48.91,96.232c-.587,0-2.6-1.9-2.692-2.274a24.6,24.6,0,0,1-.7-6.377c.59-7.019,1.266-10.008,2.346-10.447,1.557-.632,6.033-1.1,10.644-1.12a64,64,0,0,1,6.585.2.388.388,0,0,1,.329.4l-.162,3.041a.388.388,0,0,1-.388.368.393.393,0,0,1-.388-.411l.142-2.672c-.67-.056-2.414-.188-6.114-.147-5.125.017-9.087.547-10.353,1.061-.4.164-1.179,1.638-1.854,9.66a23.907,23.907,0,0,0,.669,6.25,11.426,11.426,0,0,0,1.837,1.624c1.2-1.194,4-3.966,7.029-4.324a.388.388,0,1,1,.091.77c-2.767.33-5.519,3.059-6.422,3.955-.345.344-.407.406-.547.438a.191.191,0,0,1-.048,0" transform="translate(12.224 20.43)" fill="#1a1a1a"/>
    <path id="Path_839479" data-name="Path 839479" d="M56.391,110.4a20.141,20.141,0,0,1-2.176-.1c-3.662-.4-7.388-4.113-7.7-6.142-.266-1.746-.912-9.12-.941-9.433a8.633,8.633,0,0,0,1.32-6.113c-.379-2.346-1.6-3.389-3.709-3.2a3.691,3.691,0,0,0-2.695,1.262,5.323,5.323,0,0,0-.676,4.112c.535,3.691,4.306,3.768,4.467,3.768a.392.392,0,0,1,.384.368c.009.137.194,3.405-.952,4.9-.7-.105-8.56-10.405-9.785-11.835-.619-.721-.4-2.008-.252-2.86a32.108,32.108,0,0,1,1.2-4.89,20.015,20.015,0,0,1,2.213-5.258c.716-1.035,2.361-1.463,3.683-1.807.293-.076.567-.148.806-.221.52-.156,1.045-.308,1.569-.462,1.28-.373,2.606-.756,3.87-1.226a6.256,6.256,0,0,0,1.873-.986,5.7,5.7,0,0,0,1.335-2.041A8.287,8.287,0,0,1,51.3,66.4c1.811-2.165,5.513-2.705,8.126-2.516a14.936,14.936,0,0,1,9.455,4.48c.962,1.007,3.659,5.248,3.361,9.291a7.141,7.141,0,0,1-2.88,5.3.388.388,0,1,1-.476-.614,6.4,6.4,0,0,0,2.579-4.74c.282-3.818-2.371-7.885-3.147-8.695a14.134,14.134,0,0,0-8.95-4.244c-2.619-.185-5.954.423-7.472,2.241a7.436,7.436,0,0,0-.96,1.668,6.4,6.4,0,0,1-1.534,2.3,6.908,6.908,0,0,1-2.1,1.12c-1.293.481-2.633.869-3.926,1.246-.521.15-1.043.3-1.563.459-.247.075-.53.148-.832.227-1.2.311-2.687.7-3.239,1.495a18.078,18.078,0,0,0-2.021,4.767,32.062,32.062,0,0,0-1.222,4.8c-.16.938-.351,2.053.03,2.494,1.1,1.289,7.281,9.366,8.845,11.413A9.386,9.386,0,0,0,43.9,95.3a5.192,5.192,0,0,1-4.858-4.41,6.023,6.023,0,0,1,.836-4.7,4.437,4.437,0,0,1,3.233-1.556c2.507-.233,4.1,1.1,4.547,3.856a8.511,8.511,0,0,1-1.3,6.317c.1,1.078.68,7.647.924,9.232.247,1.62,3.578,5.112,7.014,5.489,3.814.424,12.315-.521,13.629-1.752.968-.906.189-7.5-.23-11.043-.127-1.064-.236-1.993-.294-2.664a.388.388,0,0,1,.353-.421.4.4,0,0,1,.423.354c.057.665.166,1.586.291,2.642.681,5.759,1.151,10.614-.009,11.7-1.4,1.307-7.935,2.054-12.071,2.054" transform="translate(9.008 17.159)" fill="#1a1a1a"/>
    <path id="Path_839480" data-name="Path 839480" d="M40.136,100.313a.4.4,0,0,1-.381-.466l1.581-8.019a.39.39,0,0,1,.764.154L40.518,100a.391.391,0,0,1-.382.313" transform="translate(10.683 24.597)" fill="#1a1a1a"/>
    <path id="Path_839481" data-name="Path 839481" d="M57.814,91.576a.389.389,0,0,1-.027-.776,2.1,2.1,0,0,0,1.646-.7c.527-.749.162-2.05-.1-3-.443-1.577-1.92-5.819-1.935-5.863a.389.389,0,0,1,.736-.255c.06.174,1.5,4.3,1.936,5.863.32,1.147.742,2.656,0,3.7a2.811,2.811,0,0,1-2.228,1.025l-.028,0" transform="translate(15.42 21.694)" fill="#1a1a1a"/>
    <path id="Path_839482" data-name="Path 839482" d="M41.357,87.54c-.44-.325-.406-.567-.236-.7l2.237-1.7-3.11-2.826a.389.389,0,0,1,.523-.577l3.455,3.139c-.025.6-2.633,2.587-2.633,2.587a.394.394,0,0,1-.236.081" transform="translate(10.783 21.94)" fill="#1a1a1a"/>
    <path id="Path_839483" data-name="Path 839483" d="M57.532,103.2c-.251-.093-3.329-2.7-3.329-2.7a.389.389,0,0,1,.5-.593l3.077,2.61a.39.39,0,0,1-.252.686" transform="translate(14.531 26.825)" fill="#1a1a1a"/>
    <path id="Path_839484" data-name="Path 839484" d="M52.537,105.532c-4.54,0-12.32-6.719-12.656-7.012a.39.39,0,0,1,.511-.589c.082.072,8.234,7.1,12.415,6.812a3.977,3.977,0,0,0,3.994-3.934.39.39,0,1,1,.779-.005,4.815,4.815,0,0,1-4.712,4.716c-.109.009-.218.013-.331.013" transform="translate(10.683 26.295)" fill="#1a1a1a"/>
    <path id="Path_839485" data-name="Path 839485" d="M56.8,88.756a8.072,8.072,0,0,0-2.417-.2.387.387,0,1,1-.03-.774A7.017,7.017,0,0,1,56.941,88a.39.39,0,0,1-.138.754" transform="translate(14.508 23.588)" fill="#1a1a1a"/>
    <path id="Path_839486" data-name="Path 839486" d="M124.72,167.351c-.444-.36-.391-.6-.209-.718,1.469-.94,3.1-1.873,3.119-1.882l2.8-1.111a.392.392,0,0,1,.5.218.387.387,0,0,1-.218.5l-2.747,1.087c.009,0-1.595.916-3.035,1.838a.405.405,0,0,1-.211.062" transform="translate(33.428 43.973)" fill="#1a1a1a"/>
    <path id="Path_839487" data-name="Path 839487" d="M117.068,155.448c-.42-.259-.435-.492-.282-.645a19.013,19.013,0,0,1,2.761-1.667c1.134-.481,3.1-.141,6.016,1.037l1.4-.547a.389.389,0,1,1,.282.724l-1.547.6c-3.712-1.4-5.207-1.369-5.854-1.1a17.522,17.522,0,0,0-2.529,1.524,1.1,1.1,0,0,1-.25.072" transform="translate(31.364 41.101)" fill="#1a1a1a"/>
    <path id="Path_839488" data-name="Path 839488" d="M118.455,174.8a3.243,3.243,0,0,1-2.2-.936,10.45,10.45,0,0,1-2.89-4.405,2.71,2.71,0,0,1,.943-2.994,2.18,2.18,0,0,1,2.128-.056,2.485,2.485,0,0,1,.948-1.878,2.4,2.4,0,0,1,2.418-.318,2.2,2.2,0,0,1,.8-1.637,2.231,2.231,0,0,1,2.694-.35c1.5.726,4.207,3.14,4.729,4.867a2.467,2.467,0,0,1-.406,2.479,3.642,3.642,0,0,1-2.052,1.314,3.724,3.724,0,0,1-1.588,1.955c-1.665,1.165-2.676,1.026-3.149.907a3.489,3.489,0,0,1-1.415.884,2.858,2.858,0,0,1-.964.167m-3.1-7.89a1,1,0,0,0-.6.19,1.938,1.938,0,0,0-.655,2.116,9.735,9.735,0,0,0,2.7,4.1,2.451,2.451,0,0,0,1.651.71,2.188,2.188,0,0,0,.708-.123,2.374,2.374,0,0,0,1.214-.821.394.394,0,0,1,.528-.128s.882.477,2.634-.746c1.248-.875,1.314-1.677,1.314-1.686a.4.4,0,0,1,.39-.373,2.611,2.611,0,0,0,1.784-1.073,1.689,1.689,0,0,0,.256-1.757c-.44-1.463-2.968-3.735-4.32-4.389a1.467,1.467,0,0,0-1.857.246,1.539,1.539,0,0,0-.477,1.563c-1.575-.082-1.988-.138-2.8.43-.782.548-.615,1.888-.613,1.9-.647.343-1.235-.157-1.863-.157" transform="translate(30.433 43.521)" fill="#1a1a1a"/>
    <path id="Path_839489" data-name="Path 839489" d="M107.567,166.484a4.046,4.046,0,0,1-1.8-1.592l-3.852-1.663a.39.39,0,0,1,.308-.717l3.988,1.723a4.523,4.523,0,0,0,1.544,1.52.389.389,0,0,1-.188.73" transform="translate(27.328 43.669)" fill="#1a1a1a"/>
    <path id="Path_839490" data-name="Path 839490" d="M125.365,163.247a9.571,9.571,0,0,1-6.677-3.3c-.66.653-2.317,2.049-4.03,1.824a.39.39,0,0,1-.335-.436.4.4,0,0,1,.436-.335c1.793.245,3.624-1.86,3.641-1.879,2.917,2.669,5.66,3.473,7.3,3.334a2.175,2.175,0,0,0,1.738-.82c-.117-.939-7.493-6.672-10.146-7.788-1.794-.743-7.054,1.654-8.931,2.644a22.457,22.457,0,0,1-2.951-1.446.389.389,0,1,1,.379-.679l2.4,1.34c1.285-.666,7.1-3.549,9.405-2.573,2.129.891,9.994,6.557,10.554,8.319a.7.7,0,0,1-.049.6,2.905,2.905,0,0,1-2.336,1.182c-.126.011-.259.015-.4.015" transform="translate(28.277 41.103)" fill="#1a1a1a"/>
    <path id="Path_839491" data-name="Path 839491" d="M51.945,53.014c-.322-.082-.435-.3-.37-.506,5.65-17.884,17.362-33.429,17.48-33.583.31-.156,97.676-.156,97.676-.156.1.793-11.9,9.2-17.926,25.011a.386.386,0,0,1-.5.227.391.391,0,0,1-.225-.5,57.919,57.919,0,0,1,17.491-23.957H69.559c-1.228,1.657-11.934,16.391-17.244,33.193a.386.386,0,0,1-.37.273" transform="translate(13.857 5.044)" fill="#1a1a1a"/>
    <path id="Path_839492" data-name="Path 839492" d="M141.657,144.348H99.741a.39.39,0,0,1,0-.779h41.916a.39.39,0,0,1,0,.779" transform="translate(26.702 38.586)" fill="#1a1a1a"/>
    <path id="Path_839493" data-name="Path 839493" d="M83.229,135.376a.4.4,0,0,1-.387-.43c2.106-19.94-7.2-33.4-17.763-46.55a.388.388,0,1,1,.605-.486c10.672,13.284,20.069,26.883,17.93,47.116a.389.389,0,0,1-.386.35" transform="translate(17.468 23.588)" fill="#1a1a1a"/>
    <path id="Path_839494" data-name="Path 839494" d="M110.858,37.412H69.6a.39.39,0,0,1,0-.779h41.259a.39.39,0,0,1,0,.779" transform="translate(18.601 9.846)" fill="#1a1a1a"/>
    <path id="Path_839495" data-name="Path 839495" d="M98.746,51.911H64.569a.39.39,0,0,1,0-.779H98.746a.39.39,0,0,1,0,.779" transform="translate(17.249 13.742)" fill="#1a1a1a"/>
    <path id="Path_839496" data-name="Path 839496" d="M76.226,65.41H64.216a.39.39,0,0,1,0-.78h12.01a.39.39,0,0,1,0,.78" transform="translate(17.154 17.37)" fill="#1a1a1a"/>
    <path id="Path_839497" data-name="Path 839497" d="M159.612,95.156H95.969a.39.39,0,0,1,0-.779h63.642a.39.39,0,0,1,0,.779" transform="translate(25.689 25.365)" fill="#1a1a1a"/>
    <path id="Path_839498" data-name="Path 839498" d="M151.033,109.653H103.551a.39.39,0,0,1,0-.779h47.482a.39.39,0,1,1,0,.779" transform="translate(27.726 29.261)" fill="#1a1a1a"/>
    <path id="Path_839499" data-name="Path 839499" d="M114.512,135.365H90.073c-.325-.606,1.1-3.2,1.026-6.1.39-.4,24.877-.4,24.877-.4a.388.388,0,0,1,.386.34c.02.157.468,3.877-1.568,6.041a.383.383,0,0,1-.282.123m-23.811-.78H114.34c1.345-1.557,1.335-4.044,1.28-4.944H91.88a12.819,12.819,0,0,1-1.179,4.944" transform="translate(24.195 34.633)" fill="#1a1a1a"/>
    <path id="Path_839500" data-name="Path 839500" d="M111.258,186.4c-.337-.08-23.533-6.676-33.4-17.176a.39.39,0,0,1,.568-.533c9.082,9.662,29.746,16,32.61,16.849l9.276-22.158c-2.85-1.274-21.094-9.526-27.693-14.946-3.522-2.893-6.853-8.894-10.707-15.846C75.747,121.48,68.08,107.656,56.722,102.61a.389.389,0,1,1,.316-.711c11.6,5.152,19.333,19.1,25.552,30.313,3.816,6.881,7.113,12.822,10.519,15.62,6.933,5.692,27.654,14.9,27.863,14.99a.391.391,0,0,1,.2.506l-9.555,22.829a.392.392,0,0,1-.359.24" transform="translate(15.183 27.378)" fill="#1a1a1a"/>
    <path id="Path_839501" data-name="Path 839501" d="M75.856,179.368a.389.389,0,0,1-.388-.373c-.239-5.4-.532-10.984-.9-17.065-.959-16.014-6.565-39.508-6.622-39.743a.389.389,0,1,1,.756-.183c.058.237,5.678,23.8,6.642,39.878.365,6.086.657,11.671.9,17.079a.387.387,0,0,1-.372.4l-.018,0" transform="translate(18.26 32.71)" fill="#1a1a1a"/>
    <path id="Path_839502" data-name="Path 839502" d="M14.084,184.688a.391.391,0,0,1-.39-.377c-.582-18.6-1.193-43.163-.78-54.573.381-10.546,8.445-24.159,29.921-27.82a.389.389,0,0,1,.132.768c-21.018,3.584-28.906,16.828-29.275,27.082-.412,11.387.2,35.933.782,54.519a.392.392,0,0,1-.377.4Z" transform="translate(3.435 27.39)" fill="#1a1a1a"/>
    <path id="Path_839503" data-name="Path 839503" d="M33.182,178.7a.391.391,0,0,1-.39-.37c-.916-19.017-1.863-44.327-1.863-53.766a.389.389,0,1,1,.778,0c0,9.428.947,34.722,1.864,53.728a.389.389,0,0,1-.37.406l-.019,0" transform="translate(8.313 33.374)" fill="#1a1a1a"/>
    <path id="Path_839504" data-name="Path 839504" d="M123.838,170.394c-.293-.133-5.279-5.822-5.279-5.822a.388.388,0,0,1,.585-.511l4.986,5.687a.39.39,0,0,1-.292.647" transform="translate(31.838 44.058)" fill="#1a1a1a"/>
    <path id="Path_839505" data-name="Path 839505" d="M120.027,172.661c-.33-.181-4.2-6.346-4.2-6.346a.389.389,0,0,1,.658-.415l3.875,6.164a.39.39,0,0,1-.124.537.36.36,0,0,1-.206.061" transform="translate(31.113 44.539)" fill="#1a1a1a"/>
    <path id="Path_839506" data-name="Path 839506" d="M113.223,175.794a3.049,3.049,0,0,1-2.364-.913,2.276,2.276,0,0,1-.519-1.686,2.662,2.662,0,0,1-1.946-.952,2.572,2.572,0,0,1-.3-2.628,2.888,2.888,0,0,1-1.517-.874,2.459,2.459,0,0,1-.349-2.544c1.105-1.811,6.633-6.089,8.081-6.86a.389.389,0,1,1,.367.685c-1.539.822-6.811,4.985-7.783,6.58a1.744,1.744,0,0,0,.282,1.641,2.488,2.488,0,0,0,1.529.69c-.2,1.436-.193,2.135.322,2.859.5.705,1.762.647,1.775.643.367.574.091,1.237.666,1.963a2.486,2.486,0,0,0,2.124.6,15.131,15.131,0,0,0,4.4-1.4.393.393,0,0,1,.506.213.387.387,0,0,1-.211.507,15.773,15.773,0,0,1-4.616,1.451c-.154.015-.3.022-.447.022" transform="translate(28.492 42.811)" fill="#1a1a1a"/>
    <path id="Path_839507" data-name="Path 839507" d="M108.19,169.224c-.439-.324-.407-.566-.239-.7l9.47-7.346a.389.389,0,1,1,.477.614l-9.47,7.346a.385.385,0,0,1-.239.084" transform="translate(28.982 43.297)" fill="#1a1a1a"/>
    <path id="Path_839508" data-name="Path 839508" d="M109.877,171.014c-.444-.382-.379-.619-.193-.726l4.852-2.771a.388.388,0,1,1,.386.674l-4.853,2.77a.365.365,0,0,1-.192.053" transform="translate(29.441 45.008)" fill="#1a1a1a"/>
    <path id="Path_839509" data-name="Path 839509" d="M145.975,168.4c-.374-.151-.443-.388-.34-.576a21.658,21.658,0,0,0,1.568-3.587l.565-1.488a.4.4,0,0,1,.5-.227.392.392,0,0,1,.225.5l-.563,1.488a22.066,22.066,0,0,1-1.615,3.686.387.387,0,0,1-.341.2" transform="translate(39.13 43.675)" fill="#1a1a1a"/>
    <path id="Path_839510" data-name="Path 839510" d="M186.292,178.109a.388.388,0,0,1-.383-.322l-3.4-19.089c.161-1.379,3.992-31,4.135-31.972a.389.389,0,1,1,.769.114c-.138.943-3.931,30.256-4.127,31.783l3.391,19.029a.391.391,0,0,1-.381.457" transform="translate(49.051 33.97)" fill="#1a1a1a"/>
    <path id="Path_839511" data-name="Path 839511" d="M132.64,181.208c-5.612-8-8.487-18.5-8.515-18.6a.388.388,0,0,1,.255-.472l11.884-3.834c6.17-2,12.549-4.056,18.86-5.982,3-.911,6.4-2.252,8.888-5.286a39.134,39.134,0,0,0,4.253-7q.4-.782.809-1.559c2.21-4.183,11.822-20.737,14.548-24.633a.389.389,0,0,1,.638.444c-2.715,3.882-12.294,20.379-14.5,24.554-.273.515-.539,1.032-.807,1.553a39.878,39.878,0,0,1-4.343,7.132c-2.623,3.195-6.153,4.59-9.262,5.538-6.3,1.921-12.681,3.983-18.849,5.975l-11.527,3.72c.544,1.875,3.259,10.743,7.84,17.627,1.647-.349,10.952-2.338,21-4.749a.39.39,0,0,1,.183.759c-11.034,2.645-21.173,4.785-21.275,4.806a.44.44,0,0,1-.08.009" transform="translate(33.356 30.551)" fill="#1a1a1a"/>
    <path id="Path_839512" data-name="Path 839512" d="M147.567,87.557c-.192-.006-18.179-.619-18.07-14.6a.389.389,0,1,1,.778.005C130.192,83.464,141.058,86,145.61,86.6c-8.006-4.829-4.512-13.69-4.472-13.783a.388.388,0,1,1,.719.292c-.156.387-3.731,9.5,5.866,13.705.184.619.027.746-.156.746" transform="translate(34.804 19.504)" fill="#1a1a1a"/>
    <path id="Path_839513" data-name="Path 839513" d="M134.7,73.349H111.463a.39.39,0,0,1,0-.779H134.7a.39.39,0,1,1,0,.779" transform="translate(29.853 19.504)" fill="#1a1a1a"/>
    <path id="Path_839514" data-name="Path 839514" d="M150.066,82.193a.39.39,0,1,1,0-.779,8.691,8.691,0,0,0,8.682-8.681V49.126a8.692,8.692,0,0,0-8.682-8.682H106.554a8.691,8.691,0,0,0-8.682,8.682V68.035a.388.388,0,1,1-.776,0V49.126a9.471,9.471,0,0,1,9.459-9.461h43.512a9.471,9.471,0,0,1,9.459,9.461V72.733a9.471,9.471,0,0,1-9.459,9.46" transform="translate(26.096 10.66)" fill="#1a1a1a"/>
    <path id="Path_839515" data-name="Path 839515" d="M77.536,96.905a8.394,8.394,0,0,0,4.073-10.62.388.388,0,0,1,.719-.293c.028.067,2.5,6.343-2.933,9.959,3.517-.5,10.724-2.432,10.665-9.81a.389.389,0,1,1,.778,0C90.92,96.448,77.679,96.9,77.546,96.905Z" transform="translate(20.839 23.046)" fill="#1a1a1a"/>
    <path id="Path_839516" data-name="Path 839516" d="M114.378,92.988h-23.3a.39.39,0,0,1,0-.78h23.3a6.242,6.242,0,0,0,6.236-6.236V68.731a6.241,6.241,0,0,0-6.236-6.235H82.6a6.242,6.242,0,0,0-6.236,6.235V85.972A6.242,6.242,0,0,0,82.6,92.208a.39.39,0,0,1,0,.78,7.024,7.024,0,0,1-7.014-7.016V68.731A7.023,7.023,0,0,1,82.6,61.717h31.781a7.023,7.023,0,0,1,7.014,7.014V85.972a7.024,7.024,0,0,1-7.014,7.016" transform="translate(20.314 16.587)" fill="#1a1a1a"/>
    <path id="Path_839517" data-name="Path 839517" d="M163.378,101.852c-.2,0-.4-.006-.6-.025-2.487-.227-2.309-4.071-2.3-4.235l-.608-2.987a.388.388,0,0,1,.3-.458.393.393,0,0,1,.458.306l.615,3.084c.005.128-.142,3.355,1.6,3.514a8.037,8.037,0,0,0,3.915-.778.389.389,0,0,1,.351.694,9.117,9.117,0,0,1-3.739.884" transform="translate(42.966 25.302)" fill="#1a1a1a"/>
    <path id="Path_839518" data-name="Path 839518" d="M141.311,168a.4.4,0,0,1-.386-.436l.4-3.3a.389.389,0,1,1,.771.094l-.4,3.3a.39.39,0,0,1-.386.344" transform="translate(37.875 44.058)" fill="#1a1a1a"/>
    <path id="Path_839519" data-name="Path 839519" d="M50.368,64.261a.391.391,0,0,1-.388-.358,38.155,38.155,0,0,1,.641-10.481.389.389,0,1,1,.759.173,37.244,37.244,0,0,0-.623,10.245.39.39,0,0,1-.354.419l-.034,0" transform="translate(13.401 14.277)" fill="#1a1a1a"/>
    <path id="Path_839520" data-name="Path 839520" d="M147.729,52.136H104.836a.39.39,0,0,1,0-.779h42.893a.39.39,0,0,1,0,.779" transform="translate(28.071 13.803)" fill="#1a1a1a"/>
    <path id="Path_839521" data-name="Path 839521" d="M145.326,61.461h-31.55a.39.39,0,0,1,0-.779h31.55a.39.39,0,0,1,0,.779" transform="translate(30.474 16.309)" fill="#1a1a1a"/>
    <path id="Path_839522" data-name="Path 839522" d="M112.24,70.751H83a.39.39,0,1,1,0-.779H112.24a.39.39,0,1,1,0,.779" transform="translate(22.202 18.806)" fill="#1a1a1a"/>
    <path id="Path_839523" data-name="Path 839523" d="M112.24,77.867H83a.39.39,0,0,1,0-.78H112.24a.39.39,0,0,1,0,.78" transform="translate(22.202 20.718)" fill="#1a1a1a"/>
  </g>
</svg>
