<svg xmlns="http://www.w3.org/2000/svg" xmlns:xlink="http://www.w3.org/1999/xlink" width="505" height="195.009" viewBox="0 0 505 195.009">
  <defs>
    <clipPath id="clip-path">
      <rect id="Rectangle_380930" data-name="Rectangle 380930" width="360.719" height="195.008" fill="none"/>
    </clipPath>
  </defs>
  <g id="Group_1084150" data-name="Group 1084150" transform="translate(-285 -7820.992)">
    <rect id="Rectangle_380914" data-name="Rectangle 380914" width="505" height="195" rx="24" transform="translate(285 7821)" fill="#e3ecf7"/>
    <rect id="Rectangle_380969" data-name="Rectangle 380969" width="422" height="69" rx="34.5" transform="translate(328 7947)" fill="#a3bfe4"/>
    <g id="Group_1084132" data-name="Group 1084132" transform="translate(357 7820.992)">
      <rect id="Rectangle_380924" data-name="Rectangle 380924" width="75.758" height="75.759" transform="translate(227.322 14.957)" fill="#fff198"/>
      <g id="Group_1084131" data-name="Group 1084131">
        <g id="Group_1084130" data-name="Group 1084130" clip-path="url(#clip-path)">
          <path id="Path_838899" data-name="Path 838899" d="M104.692,136.707H7.5a7.4,7.4,0,0,1-7.381-7.381V61.179A7.4,7.4,0,0,1,7.5,53.8h97.2a7.4,7.4,0,0,1,7.381,7.381v68.147a7.4,7.4,0,0,1-7.381,7.381" transform="translate(0.05 23.381)" fill="#fff"/>
          <path id="Path_838900" data-name="Path 838900" d="M128.123,77.337s-10.511.255-17.626,6.331a73.657,73.657,0,0,0-18.019,23.38c-4.262,8.9-8.02,15.759-7.555,23.677s5.1,13.223,12.7,15.3a92.34,92.34,0,0,0,14.075,2.691L111.53,160.7H164.8l-.481-23.962a5.623,5.623,0,0,0,3.951-1.647c1.783-1.767.965-7.15.965-7.15s6.738,4.744,12.5,4.261,9.6-4.7,10.4-7.647a54.966,54.966,0,0,0,1.624-14.791c-.05-7.121-.747-22.516-.747-22.516s-1.194-2.489-9.279-2.875-10.048,2.215-10.048,2.215l-.2,5.2s-2.423-5.528-6.232-8.027-10.547-6.2-17.551-6.259-21.584-.169-21.584-.169" transform="translate(36.892 33.612)" fill="#1a1a1a"/>
          <path id="Path_838901" data-name="Path 838901" d="M143.654,130.956h13.481a5.751,5.751,0,0,0,3.952-1.479c1.59-1.591.964-5.331.964-5.331l.1-29.643a4.231,4.231,0,0,0-1.254-3.027,4.789,4.789,0,0,0-2.955-1.218H106.295s-2.991-.112-4.1,1.476a5.111,5.111,0,0,0-.7,3.581l-.073,26.406s13.805,2.905,20.635,2.98c0,0,1.257-.369,1.753.443s0,.2,0,.2,2.159-.831,2.381-2.6.036-6.6,2.326-6.659,2.759,3.153,2.746,5.7a21.522,21.522,0,0,1-1.2,5.832s-.362,1.392,1.683,1.951,7.842,1.846,11.9,1.389" transform="translate(44.08 39.226)" fill="#b0c0d2"/>
          <path id="Path_838902" data-name="Path 838902" d="M183.038,97.279a35.982,35.982,0,0,0-14.112,14.854c-5.282,10.379-8.265,19.456-8.777,26.713a30.094,30.094,0,0,0,2.479,14.31h51.167l16.076-4.876-6.766-34.109s-3.5-9.083-8.536-13.64A23.121,23.121,0,0,0,202.242,94.7c-1.313-.02-19.2,2.582-19.2,2.582" transform="translate(69.571 41.157)" fill="#33ece0"/>
          <path id="Path_838903" data-name="Path 838903" d="M206.888,150.087h48.067a7.7,7.7,0,0,0,6.974-5.232l11.4-32.921a7.085,7.085,0,0,0-6.974-9.243H218.289a7.325,7.325,0,0,0-6.975,4.82l-11.4,32.921a7.41,7.41,0,0,0,6.975,9.655" transform="translate(86.72 44.63)" fill="#1a1a1a"/>
          <path id="Path_838904" data-name="Path 838904" d="M61.608,67.69l-.28,1.142s.059-.207-.72-.287a1.232,1.232,0,0,0-1.264.92c-.09.321-1.416,5.152-1.416,5.152s.175.968.706.965a3.627,3.627,0,0,0,1.28-.389l-.819,2.643s-1.756-.651-2.753,0c0,0-3.383-1.37-4.82.347,0,0-2.343-1.945-3.315-2.565s-2.343-.757-3.016.254-.422,1.481.74,2.311,4.252,3.446,5.025,4.222a27.1,27.1,0,0,1,2.977,3.337c.027.3-.466.125-.967-.34s-3.353-3.314-4.321-3.4a1.626,1.626,0,0,0-1.656,2.182c.382,1.416,2.265,2.241,3.8,4.195S57,91.538,57.116,91.538,60.8,88.723,63.556,89a7.84,7.84,0,0,1-.519-5.2,9.5,9.5,0,0,1,3.493-4.787s2.71.679,3.875-1.518a3.316,3.316,0,0,0-1.189-4.41,4.2,4.2,0,0,0-1.993-.611s-4.862-1.826-5.615-4.789" transform="translate(19.481 29.419)" fill="#fff"/>
          <path id="Path_838905" data-name="Path 838905" d="M40.712,98.75a6.843,6.843,0,0,1-1.931-3.655c-.483-2.416-.73-6.223-1.445-6.684s-2.447-1.31-2.843.667.719,3.426.551,4.681-.435,1.846-1.244,1.9-1.664-.535-2.777-1.694A38.871,38.871,0,0,1,27.4,89.078c-.943-1.459-2.125-2.592-3.214-1.957a2.474,2.474,0,0,0-1,2.135,1.578,1.578,0,0,0-1.773.129,1.328,1.328,0,0,0-.438,1.75,2.21,2.21,0,0,0-1.547,2.379c-.032,2.08,3.74,6.78,4.763,7.989s4.186,4.7,5.731,5.114a24.3,24.3,0,0,1,4.924-4.212c2.713-1.663,5.866-3.655,5.866-3.655" transform="translate(8.444 37.785)" fill="#fff"/>
          <path id="Path_838906" data-name="Path 838906" d="M115.94,118.628s2.858-1.232,3.67-2.48.963-1.594.961-3.624.4-4.013,2.066-4.256,2.792,1.647,2.73,4.294a29.551,29.551,0,0,1-.865,6.509,1.684,1.684,0,0,0,.867,2.457,14.388,14.388,0,0,0,7.384,1.588,32.347,32.347,0,0,1,5.02.023,4.079,4.079,0,0,1-1.052,1.284s-.713,3.173-3.056,4a20.6,20.6,0,0,1-7.41,1.442c-3.323.077-6.053-.285-7.193-.3s-3.4-.255-3.835-1.822a23.63,23.63,0,0,1-.232-4.863,12.487,12.487,0,0,1,.945-4.252" transform="translate(49.962 47.045)" fill="#fff"/>
          <path id="Path_838907" data-name="Path 838907" d="M163.956,92.965s.3-5.324.148-7.134-.537-2-.148-4.578a38.143,38.143,0,0,0,.737-8.3c-.2-2.8-.643-4.654-1.861-4.47a5.825,5.825,0,0,0-2.186.861,1.664,1.664,0,0,0-1.74-1.766,2.143,2.143,0,0,0-2.261,1.313,2.611,2.611,0,0,0-2.262-1.247c-1.44.132-2.176,1.291-2.249,2.871s-.294,9.773-.294,9.773-.865-.159-1.958-1.614-3.193-3.4-4.869-1.816-1.1,3.043.657,4.731,4.335,3.764,4.9,6.279a32.422,32.422,0,0,1,.647,5.364s8.357,1.569,12.738-.261" transform="translate(62.589 29.367)" fill="#fff"/>
          <path id="Path_838908" data-name="Path 838908" d="M129.166,106.963a4.282,4.282,0,1,1-4.282-4.284,4.283,4.283,0,0,1,4.282,4.284" transform="translate(52.415 44.626)" fill="#fff"/>
          <path id="Path_838909" data-name="Path 838909" d="M191.815,102.515l.26-4.918s3.257-.072,3.9-2.176a18.725,18.725,0,0,0,.958-7.064c-.093-3.361-.2-6.424-.2-6.424l-4.916-5.226s-4.539,6.071-5.9,7.611-2.559,2.6-2.439,4.816,2.419,5.1,3.208,5.873a7.694,7.694,0,0,1,1.085,6.271,15.411,15.411,0,0,1-1.9,3.82s2.377,4.337,4.334,4.026,1.607-6.608,1.607-6.608" transform="translate(79.739 33.337)" fill="#fff"/>
          <path id="Path_838910" data-name="Path 838910" d="M183.094,130.162a29.979,29.979,0,0,1,4.706-2.346c2.116-.746,3.463-1.3,5.188-1.047,0,0,3.06-2.109,5.918-.6a5.168,5.168,0,0,1,2.605-1c1.485-.1,2.838,3.123,2.838,3.123l-.878,4.149s.552,3.729,1.25,4.189l-10.813.387-1.631-2.7a3.158,3.158,0,0,1-2.881,2.308,32.812,32.812,0,0,1-4.229,0s-2.836-3.03-2.072-6.476" transform="translate(79.518 54.403)" fill="#fff"/>
          <path id="Path_838911" data-name="Path 838911" d="M140.108,67.746c-.032-3.374-3.708-2.693-4.426-2.512a9.312,9.312,0,0,0-.3-3.29,24.14,24.14,0,0,1-1.353-3.829,69.314,69.314,0,0,1-7.3,1.064c-4.092.38-7.489-2.733-7.489-2.733a15.673,15.673,0,0,1-1.752,5.74l-.281,2.945c-2.9-.689-4.35.993-4.229,2.614a3.382,3.382,0,0,0,2.036,3.066,4.78,4.78,0,0,0,2.459-.225,14.758,14.758,0,0,1,.324,3.44C117.893,76.836,120.41,79,120.41,79l-.257,3.766-4.236,3.651,3.66,18.515h14.174l3.75-18.346-4.66-3.82-.425-3.489c2.819-2.255,3.172-5.879,3.209-8.737,1.733.951,4.512.442,4.482-2.793" transform="translate(49.099 24.533)" fill="#fff"/>
          <path id="Path_838912" data-name="Path 838912" d="M61.6,81.855s-3.694,2.588-3.7,6.111,1.625,5.792,3.315,6.258,4.9.671,5.979,3.631,1.33,6.82,1.849,8.281a6.727,6.727,0,0,0,5.72,5.037c4.226.719,7.228-1.427,9.256-4.812s2.433-6.493,1.664-10.655a22.779,22.779,0,0,0-3.559-9.483c-2-3.127-4.368-4.741-5.2-5.687s-1.338-.927-.912-2.409,2.653-3.919,2.455-7.1-.511-4.624-7.43-6.535a9.613,9.613,0,0,0-5.629-3.044c-3.947-.8-7.515.09-8.652,2.743a8.449,8.449,0,0,0,.8,7.724c1.3,1.826,4.736,3.4,4.736,3.4s3.535-.016,3.609,3.024a3.463,3.463,0,0,1-4.3,3.513" transform="translate(24.41 26.582)" fill="#e1a6a6"/>
          <path id="Path_838913" data-name="Path 838913" d="M196.45,77.7l5.117,5.249a29.207,29.207,0,0,0-.1-4.39,4.4,4.4,0,0,0-3.667-3.916,39.526,39.526,0,0,0-9.288-.518c-3.983.307-9.289,2.433-9.543,7.682,0,0,1.133,5.262,1.562,8s1.5,7.02.284,8.392-3.942,1.885-5.264,2.336-5.116,5.213-1.571,8.009l3.658-2.281s5.727,2.752,9.16,1.894,5.344-3.6,5.594-4.928.415-4.736-.747-6.812-3.241-3.268-3.351-5.677.306-3.275,1.384-4.378a56.449,56.449,0,0,0,3.849-4.457c1.086-1.423,2.925-4.2,2.925-4.2" transform="translate(74.973 32.175)" fill="#1a1a1a"/>
          <path id="Path_838914" data-name="Path 838914" d="M189.547,91.44l-.26,4.918,3.291.615a4.363,4.363,0,0,0,.875-2.961,5,5,0,0,0-1.184-3.136,16,16,0,0,1-2.723.564" transform="translate(82.267 39.496)" fill="#1a1a1a"/>
          <path id="Path_838915" data-name="Path 838915" d="M226.383,118.953c-1.465,2.536-1.3,5.373.372,6.337s4.208-.311,5.672-2.848,1.3-5.374-.372-6.337-4.209.311-5.672,2.848" transform="translate(97.955 50.321)" fill="#fff"/>
          <path id="Path_838916" data-name="Path 838916" d="M215.139,150.728h-38.1s-1.7-.7-1.255-1.958a2.489,2.489,0,0,1,1.439-1.567l30.788.09a6.221,6.221,0,0,1-1.393-4.43,12.06,12.06,0,0,1,1.25-4.836l11.115-33.089a6.666,6.666,0,0,1,6.232-3.723h49.506l4.1,2.331-50.539-.184s-5.426.737-6.5,4.541L210,142.071a6.328,6.328,0,0,0,.778,4.594,13.828,13.828,0,0,0,4.357,4.063" transform="translate(76.367 43.989)" fill="#fff"/>
          <path id="Path_838917" data-name="Path 838917" d="M183.059,131.064s6.681-3.968,10.1-3.393a5.287,5.287,0,0,1,4.945-.915l-.392-.679a10.889,10.889,0,0,0-6.944-2.978,7.667,7.667,0,0,0-7.714,7.965" transform="translate(79.553 53.5)" fill="#1a1a1a"/>
          <path id="Path_838918" data-name="Path 838918" d="M187.878,133.773s2.066-.849,2.259-2.215l1.341,2.215Z" transform="translate(81.654 57.177)" fill="#1a1a1a"/>
          <rect id="Rectangle_380925" data-name="Rectangle 380925" width="14.17" height="44.011" transform="translate(224.313 42.466)" fill="#1a1a1a"/>
          <rect id="Rectangle_380926" data-name="Rectangle 380926" width="14.17" height="27.387" transform="translate(254.17 53.873)" fill="#fff"/>
          <rect id="Rectangle_380927" data-name="Rectangle 380927" width="14.17" height="17.441" transform="translate(277.474 69.445)" fill="#1a1a1a"/>
          <path id="Path_838919" data-name="Path 838919" d="M123.475,80.783l-3.3,7.39,1.313,2.816-.808,3.366h6.34L125.888,91l1.2-2.6Z" transform="translate(52.231 35.109)" fill="#ffce26"/>
          <path id="Path_838920" data-name="Path 838920" d="M121.909,82.608l2.247,5.232-.7,3.156.7,3.357h2.116L125.136,91l1.2-2.6-3.611-7.611Z" transform="translate(52.983 35.11)" fill="#fff"/>
          <path id="Path_838921" data-name="Path 838921" d="M115.212,61.766c-.9,6.482-6.077,11.267-13.649,12.645-.819.149-1.628.343-2.625.555v7.09H92.466V74.932C83.151,73.9,77.857,69.044,75.9,60.68l10.146-2.449c.267.687.531,1.31.752,1.944C88.541,65.25,94.238,67.72,99.58,65.7a5.538,5.538,0,0,0,3.785-5.09,4.51,4.51,0,0,0-2.951-4.747C97.656,54.7,94.809,53.714,92,52.66c-1.485-.557-3.008-1.036-4.46-1.658-7.3-3.126-10.511-8.358-9.6-15.541.891-7,5.322-11.318,13.171-12.853.318-.062.627-.166,1.136-.3V16.853H98.64l.148,5.377a27.646,27.646,0,0,1,5.09,1.442c5.226,1.829,8.159,5.457,9.829,10.487l-8.982,3.424a48.531,48.531,0,0,0-3.264-4.744,7.21,7.21,0,0,0-7.569-2.079,5.155,5.155,0,0,0-4.122,4.277A4.373,4.373,0,0,0,92.5,40.27c2.36,1.033,4.8,1.908,7.206,2.845,2.02.786,4.089,1.481,6.063,2.354,7.559,3.343,10.53,8.517,9.445,16.3" transform="translate(32.985 7.325)" fill="#ffce26"/>
          <path id="Path_838922" data-name="Path 838922" d="M71.683,82.547S64.62,82.51,60.04,92.292s-9.378,20.974-9.378,20.974L38.994,100.233s-8.743,3.812-12.87,9.336c0,0,6.8,15.332,14.477,21.317s10.407,6.612,16.243,5.155L52.933,158.47H97.528s-2.634-18.518-2.816-22.126-.241-7.926-.241-7.926,3.605,1.614,7.17-1.905,3.631-5.033,3.189-8.055a65.505,65.505,0,0,0-3.842-13.475c-2.354-6.206-3.912-7.915-3.912-7.915s-2.317,5.585-8.131,4.866-6.591-3.766-7.144-6.258-.38-5.149-1.823-7.724-3.576-2.666-5.084-2.871-3.193-1.374-3.209-2.534" transform="translate(11.354 35.876)" fill="#1a1a1a"/>
          <path id="Path_838923" data-name="Path 838923" d="M38.218,119.472a10.817,10.817,0,0,1,18.835-.426,11.349,11.349,0,0,1-9.8,4.093,14.1,14.1,0,0,1-9.032-3.667" transform="translate(16.61 49.441)" fill="#ffce26"/>
          <rect id="Rectangle_380928" data-name="Rectangle 380928" width="6.718" height="6.718" transform="translate(10.038 131.891)" fill="#e1a6a6"/>
          <rect id="Rectangle_380929" data-name="Rectangle 380929" width="6.718" height="6.718" transform="translate(5.977 148.825)" fill="#1a1a1a"/>
          <path id="Path_838924" data-name="Path 838924" d="M115.376,67.14s-2.237-12.295,2.806-12.731c0,0,2.175-3.717,7.522-3.183s8.509,2.224,10.1,6.971a15.83,15.83,0,0,1,.242,8.991l-1.307.185v-2.8l-1.291-4.282a17.6,17.6,0,0,1-8.126,1.163,19.05,19.05,0,0,1-6.913-2.711s-.819,4.764-1.75,5.74l-.281,2.945Z" transform="translate(49.929 22.241)" fill="#636363"/>
          <path id="Path_838925" data-name="Path 838925" d="M189.816,77.868c-.443,2.06-2.7,5.8-4.182,8.106,1.067-1.129,2.511-2.8,3.48-4.073,1.086-1.423,2.925-4.2,2.925-4.2l5.117,5.249a29.207,29.207,0,0,0-.1-4.39,4.4,4.4,0,0,0-3.667-3.915,39.43,39.43,0,0,0-9.288-.519c-.466.036-.954.1-1.448.188.154.009,7.832.466,7.164,3.558" transform="translate(79.383 32.175)" fill="#fff"/>
          <path id="Path_838926" data-name="Path 838926" d="M183.457,102.222c3.433-.859,5.342-3.6,5.592-4.928s.416-4.736-.747-6.812a22.5,22.5,0,0,0-2.139-2.8c.941,2.018,2.161,5.565,1.063,8.811-1.651,4.882-7.037,5.648-7.037,5.648l.6.175a7.6,7.6,0,0,0,2.668-.092" transform="translate(78.313 38.106)" fill="#fff"/>
          <path id="Path_838927" data-name="Path 838927" d="M190.367,91.238c-.037.046,1.512,2.823.349,5.474l1.393.26a4.36,4.36,0,0,0,.874-2.96,4.99,4.99,0,0,0-1.184-3.136s-.727.2-1.432.362" transform="translate(82.736 39.496)" fill="#fff"/>
          <path id="Path_838928" data-name="Path 838928" d="M133.006,64.33v2.806l1.305-.185a15.842,15.842,0,0,0-.241-8.992,8.873,8.873,0,0,0-6.218-6.238c.92.806,4.15,3.873,2.717,6.038-1.656,2.5-11.632,1.954-11.7,1.95a17.88,17.88,0,0,0,4.716,1.5,17.6,17.6,0,0,0,8.127-1.165Z" transform="translate(51.663 22.479)" fill="#fff"/>
          <path id="Path_838929" data-name="Path 838929" d="M65.409,61.446c-3.948-.8-7.517.089-8.654,2.744a8.45,8.45,0,0,0,.8,7.723A9.278,9.278,0,0,0,60,74.042c-.786-1.478-5.261-10.827,6.764-12.239a12.416,12.416,0,0,0-1.357-.357" transform="translate(24.41 26.582)" fill="#fff"/>
          <path id="Path_838930" data-name="Path 838930" d="M61.87,88.216c-5.02-5.169.625-12.559.625-12.559a4.394,4.394,0,0,1-1.419-.072s-3.694,2.589-3.7,6.11S59,87.489,60.689,87.955c.346.1.756.181,1.2.28l-.016-.019" transform="translate(24.935 32.851)" fill="#fff"/>
          <path id="Path_838931" data-name="Path 838931" d="M189.3,71.114H175.134c-.293-.293-.293-27.681-.293-27.681.293-.291,14.464-.291,14.464-.291.294.291.294,27.679.294,27.679a.3.3,0,0,1-.294.293m-13.878-.585h13.586v-26.8H175.426Z" transform="translate(75.988 18.75)" fill="#1a1a1a"/>
          <path id="Path_838932" data-name="Path 838932" d="M172.78,76.15H158.609c-.294-.293-.294-44.3-.294-44.3.294-.293,14.465-.293,14.465-.293.293.293.293,44.3.293,44.3a.294.294,0,0,1-.293.293M158.9,75.565h13.586V32.138H158.9Z" transform="translate(68.806 13.714)" fill="#1a1a1a"/>
          <path id="Path_838933" data-name="Path 838933" d="M120.13,68.773c-1.994,0-3.617-2.041-3.617-4.552s1.623-4.553,3.617-4.553,3.618,2.043,3.618,4.553-1.624,4.552-3.618,4.552m0-8.522c-1.673,0-3.034,1.782-3.034,3.97s1.361,3.968,3.034,3.968,3.033-1.78,3.033-3.968-1.36-3.97-3.033-3.97" transform="translate(50.638 25.932)" fill="#1a1a1a"/>
          <path id="Path_838934" data-name="Path 838934" d="M158.012,131.321H140.535c0-.584,17.476-.584,17.476-.584a3.893,3.893,0,0,0,3.888-3.888V94.51a3.893,3.893,0,0,0-3.888-3.888H105.68a3.894,3.894,0,0,0-3.888,3.888v27.368c-.584,0-.584-27.368-.584-27.368a4.476,4.476,0,0,1,4.472-4.47h52.332a4.475,4.475,0,0,1,4.473,4.47v32.339a4.477,4.477,0,0,1-4.473,4.472" transform="translate(43.986 39.133)" fill="#1a1a1a"/>
          <path id="Path_838935" data-name="Path 838935" d="M124,110.572A4.574,4.574,0,1,1,128.575,106,4.579,4.579,0,0,1,124,110.572m0-8.563a3.99,3.99,0,1,0,3.991,3.99,4,4,0,0,0-3.991-3.99" transform="translate(51.905 44.081)" fill="#1a1a1a"/>
          <path id="Path_838936" data-name="Path 838936" d="M153.835,92.418c-2.014-3.734-3.566-6.073-5.007-7.314-6.377-5.483-12.325-6.41-17.571-7.226-.458-.073-.912-.142-1.36-.215a1.468,1.468,0,0,1,1.45-.363c5.324.829,11.356,1.77,17.858,7.361,1.5,1.294,3.106,3.693,4.891,7.337-.175.41-.218.42-.261.42" transform="translate(56.455 33.574)" fill="#1a1a1a"/>
          <path id="Path_838937" data-name="Path 838937" d="M118.05,149.078c-16.779,0-27-3.462-31.211-10.547-4.417-7.443-2.069-18.558,7.393-34.983a84.654,84.654,0,0,1,14.711-18.836c6.5-5.594,12.54-6.533,17.865-7.362.456-.072.908-.141,1.356-.214a1.453,1.453,0,0,1-1.267.792c-5.246.818-11.194,1.743-17.571,7.226a83.919,83.919,0,0,0-14.586,18.684c-9.346,16.223-11.7,27.151-7.4,34.393,4.284,7.212,15.666,10.666,33.781,10.224,2.468-.056,9.892,0,9.963,0-.077.584-7.493.525-9.949.584q-1.577.039-3.087.039" transform="translate(36.806 33.524)" fill="#1a1a1a"/>
          <path id="Path_838938" data-name="Path 838938" d="M118.772,97.358c-.288-.235-3.948-18.75-3.948-18.75.092-.274,4.33-4.064,4.33-4.064.428.042,6.688,8.359,6.688,8.359l5.934-8.312c.428-.053,4.909,3.737,4.909,3.737.1.278-3.453,18.793-3.453,18.793-.571-.11,2.944-18.458,2.944-18.458l-4.109-3.476-5.981,8.378c-.471.007-6.78-8.375-6.78-8.375l-3.875,3.467,3.628,18.352c-.25.347-.27.349-.287.349" transform="translate(49.904 32.397)" fill="#1a1a1a"/>
          <path id="Path_838939" data-name="Path 838939" d="M118.061,94.713c-.264-.415,6.12-14.085,6.12-14.085.529,0,6.865,13.67,6.865,13.67-.528.245-6.6-12.853-6.6-12.853l-6.119,13.1a.294.294,0,0,1-.264.168" transform="translate(51.308 35.042)" fill="#1a1a1a"/>
          <path id="Path_838940" data-name="Path 838940" d="M121.575,89.122a27.24,27.24,0,0,1-1.585-3.337c.541-.225,1.78,2.752,1.78,2.752l4-.007,1.062-2.568c.542.222-.594,2.971-.594,2.971a42.765,42.765,0,0,1-4.664.189" transform="translate(52.149 37.278)" fill="#1a1a1a"/>
          <path id="Path_838941" data-name="Path 838941" d="M120.548,91.572c-.283-.36.528-3.717.528-3.717.568.138-.244,3.495-.244,3.495a.29.29,0,0,1-.284.222" transform="translate(52.366 38.183)" fill="#1a1a1a"/>
          <path id="Path_838942" data-name="Path 838942" d="M125.254,91.53a24.717,24.717,0,0,1-1.291-3.572c.559-.168,1.571,3.2,1.571,3.2-.225.372-.252.376-.28.376" transform="translate(53.876 38.225)" fill="#1a1a1a"/>
          <path id="Path_838943" data-name="Path 838943" d="M127,68.773c-1.994,0-3.617-2.041-3.617-4.552s1.623-4.553,3.617-4.553,3.62,2.043,3.62,4.553S129,68.773,127,68.773m0-8.522c-1.673,0-3.033,1.782-3.033,3.97s1.36,3.968,3.033,3.968,3.034-1.78,3.034-3.968-1.36-3.97-3.034-3.97" transform="translate(53.624 25.932)" fill="#1a1a1a"/>
          <path id="Path_838944" data-name="Path 838944" d="M124.393,63.452a2.526,2.526,0,0,0-1.713-.762,1.665,1.665,0,0,0-1.075.561c-.435-.393.116-1.079,1.026-1.145a2.588,2.588,0,0,1,1.961.842c-.044.475-.122.5-.2.5" transform="translate(52.786 26.99)" fill="#1a1a1a"/>
          <path id="Path_838945" data-name="Path 838945" d="M130.232,68.8a3.328,3.328,0,0,1-1.535-.374,4.365,4.365,0,0,1,1.707-.217,2.754,2.754,0,0,0,1.653-4.812,2.756,2.756,0,0,0-2.9-.471c.121-.686.488-.772.868-.8a3.367,3.367,0,0,1,2.417.828,3.339,3.339,0,0,1-2,5.836c-.073,0-.142.006-.212.006" transform="translate(55.933 27.003)" fill="#1a1a1a"/>
          <path id="Path_838946" data-name="Path 838946" d="M130.911,66.886c-.179-.06-2.232-1.647-2.232-1.647,0-.468,2.275-2.149,2.275-2.149.346.472-1.613,1.921-1.613,1.921l1.746,1.351c0,.486-.09.524-.176.524" transform="translate(55.926 27.42)" fill="#1a1a1a"/>
          <path id="Path_838947" data-name="Path 838947" d="M116.108,68.805a3.338,3.338,0,1,1,.207-6.67,3.352,3.352,0,0,1,1.1.257,1.284,1.284,0,0,1-1.132.326,2.753,2.753,0,1,0,1.1,5.193,1.131,1.131,0,0,1-1.267.894" transform="translate(49.01 27.003)" fill="#1a1a1a"/>
          <path id="Path_838948" data-name="Path 838948" d="M114.746,66.768c-.179-.524,1.572-1.875,1.572-1.875l-1.961-1.449c.349-.472,2.618,1.209,2.618,1.209.006.468-2.05,2.054-2.05,2.054a.3.3,0,0,1-.179.06" transform="translate(49.701 27.537)" fill="#1a1a1a"/>
          <path id="Path_838949" data-name="Path 838949" d="M118.067,76.359c-.293-.293-.293-4.092-.293-4.092.584,0,.584,3.8.584,3.8a.292.292,0,0,1-.291.293" transform="translate(51.186 31.408)" fill="#1a1a1a"/>
          <path id="Path_838950" data-name="Path 838950" d="M126.971,76.019c-.29-.275-.494-3.7-.494-3.7.581-.033.785,3.391.785,3.391-.278.308-.285.308-.291.308" transform="translate(54.969 31.431)" fill="#1a1a1a"/>
          <path id="Path_838951" data-name="Path 838951" d="M136.09,67.557c1.231-6.391-.766-10.031-1.618-11.585-2.04-3.717-7.327-4.922-11.49-4.186a7.519,7.519,0,0,0-4.515,2.865,4.788,4.788,0,0,0-1.585.811,4.645,4.645,0,0,0-1.515,3.47c-.022,2.532.343,8.258.347,8.314-.588-.02-.953-5.767-.93-8.3A5.141,5.141,0,0,1,116.519,55a3.9,3.9,0,0,1,1.534-.778,7.979,7.979,0,0,1,4.829-3.018c4.374-.769,9.929.527,12.1,4.485a14.935,14.935,0,0,1,1.389,11.643.294.294,0,0,1-.284.221" transform="translate(49.886 22.164)" fill="#1a1a1a"/>
          <path id="Path_838952" data-name="Path 838952" d="M148.54,9.552a4.831,4.831,0,0,1-1.251-.166,4.775,4.775,0,0,1-3.356-5.863,4.776,4.776,0,1,1,4.607,6.03m0-8.971a4.214,4.214,0,1,0,1.108.149,4.229,4.229,0,0,0-1.108-.149" transform="translate(62.481 0)" fill="#1a1a1a"/>
          <path id="Path_838953" data-name="Path 838953" d="M187.779,26.421a22.75,22.75,0,0,1-1.465-1.914,2.953,2.953,0,0,1,1.709,1.463c-.135.435-.188.45-.244.45M184.5,21.965c-.928-.964-1.676-1.8-2.44-2.608a6.026,6.026,0,0,1,2.668,2.13c-.1.453-.164.478-.228.478m-4.632-4.872c-1.023-.826-1.879-1.555-2.743-2.237a5.979,5.979,0,0,1,2.941,1.73c-.037.473-.118.506-.2.506m-5.277-4.162c-1.076-.671-2.029-1.273-2.991-1.833a6.05,6.05,0,0,1,3.155,1.3c.022.491-.069.535-.164.535m-5.8-3.387c-1.123-.519-2.149-.987-3.175-1.413a6.085,6.085,0,0,1,3.3.861c.082.494-.022.552-.129.552m-6.2-2.584c-1.133-.374-2.209-.709-3.29-1.011a6.2,6.2,0,0,1,3.384.442c.139.494.024.57-.095.57m-6.473-1.816c-1.132-.241-2.238-.455-3.351-.64a6.284,6.284,0,0,1,3.413.062c.192.486.072.578-.062.578" transform="translate(66.392 1.864)" fill="#1a1a1a"/>
          <path id="Path_838954" data-name="Path 838954" d="M107.7,23.759a8.575,8.575,0,0,1,1.891-3.1,7.863,7.863,0,0,1-1.658,2.985.29.29,0,0,1-.232.115m4.393-5.089a8.029,8.029,0,0,1,2.247-2.826,7.869,7.869,0,0,1-2.039,2.739.294.294,0,0,1-.208.088m5.035-4.457a7.528,7.528,0,0,1,2.572-2.495,7.858,7.858,0,0,1-2.394,2.435.3.3,0,0,1-.178.06m5.6-3.72a7.1,7.1,0,0,1,2.853-2.115,7.912,7.912,0,0,1-2.709,2.077.3.3,0,0,1-.145.037m6.058-2.908a6.72,6.72,0,0,1,3.074-1.71,7.942,7.942,0,0,1-2.967,1.69.3.3,0,0,1-.108.02m6.393-2.073A6.5,6.5,0,0,1,138.4,4.2a7.88,7.88,0,0,1-3.155,1.3.318.318,0,0,1-.073.009m6.6-1.265a6.4,6.4,0,0,1,3.32-.931,7.641,7.641,0,0,1-3.282.93h-.037m6.7-.516a6.26,6.26,0,0,1,3.367-.59,7.589,7.589,0,0,1-3.36.59Z" transform="translate(46.808 1.361)" fill="#1a1a1a"/>
          <path id="Path_838955" data-name="Path 838955" d="M229.837,119.091a12.969,12.969,0,0,1,1.717-3.183,5.924,5.924,0,0,1-1.488,3.072.294.294,0,0,1-.23.112m3.694-5.614a14.8,14.8,0,0,1,1.221-3.423,5.954,5.954,0,0,1-.963,3.271.294.294,0,0,1-.258.152m2.723-6.137a17.1,17.1,0,0,1,.7-3.581,5.957,5.957,0,0,1-.426,3.386.292.292,0,0,1-.275.2m1.714-6.5a20.2,20.2,0,0,1,.191-3.651,6.025,6.025,0,0,1,.1,3.413.294.294,0,0,1-.29.238m.717-6.682a5.49,5.49,0,0,1-.264-1.94c0-.568-.013-1.136-.033-1.7a2,2,0,0,1,.62,1.7q0,.831-.03,1.661a.293.293,0,0,1-.293.28m-.232-6.715a28.362,28.362,0,0,1-.742-3.575,6.054,6.054,0,0,1,1.031,3.254c-.271.321-.281.321-.29.321m-1.125-6.628a34.592,34.592,0,0,1-1.162-3.453,6.1,6.1,0,0,1,1.445,3.093c-.238.357-.263.36-.283.36m-1.97-6.429c-.674-1.241-1.109-2.281-1.565-3.274a6.016,6.016,0,0,1,1.838,2.878c-.205.389-.24.4-.273.4m-2.8-6.116c-.793-1.136-1.366-2.106-1.958-3.027a5.978,5.978,0,0,1,2.216,2.6c-.162.422-.209.43-.258.43m-3.641-5.647c-.924-1.017-1.645-1.881-2.373-2.678a5.825,5.825,0,0,1,2.605,2.208c-.108.452-.171.471-.232.471m-4.542-4.955c-1.04-.835-1.915-1.534-2.79-2.158a5.523,5.523,0,0,1,2.985,1.648c-.037.476-.116.509-.2.509m-5.483-3.865a26.1,26.1,0,0,0-3.182-1.334,5.163,5.163,0,0,1,3.315.783c.073.495-.027.551-.133.551m-6.351-2.095a16.455,16.455,0,0,0-3.335-.138,4.922,4.922,0,0,1,3.377-.445c.228.476.1.582-.042.582" transform="translate(90.922 22.177)" fill="#1a1a1a"/>
          <path id="Path_838956" data-name="Path 838956" d="M140.825,142.99c-.294-.469-.3-18-.77-24.231,1.057,6.208,1.063,23.762,1.063,23.938a.293.293,0,0,1-.293.293" transform="translate(60.87 51.614)" fill="#1a1a1a"/>
          <path id="Path_838957" data-name="Path 838957" d="M103.512,139.368c-.291-.3-.128-12.276-.128-12.276.585.007.419,11.988.419,11.988a.291.291,0,0,1-.291.288" transform="translate(44.912 55.236)" fill="#1a1a1a"/>
          <path id="Path_838958" data-name="Path 838958" d="M246.543,135.826H14.625c0-.584,231.918-.584,231.918-.584.293.453.161.584,0,.584" transform="translate(6.356 58.778)" fill="#1a1a1a"/>
          <path id="Path_838959" data-name="Path 838959" d="M122.836,136.508c-.291-.293-.291-13.081-.291-13.081.582,0,.582,12.788.582,12.788a.292.292,0,0,1-.291.293" transform="translate(53.26 53.643)" fill="#1a1a1a"/>
          <path id="Path_838960" data-name="Path 838960" d="M134.3,123.491c-.26-.024-.577-.049-.954-.079-4.386-.346-8.575-.888-9.532-2.5a1.417,1.417,0,0,1-.044-1.37c1.044-2.321,1.6-7.681.323-9.907a1.729,1.729,0,0,0-1.341-.98,1.488,1.488,0,0,0-1.229.349c-.954.868-.932,3.179-.92,4.559,0,.235.006.45,0,.638-.03,2.756-4.843,4.8-5.046,4.885-.179-.558,4.434-2.518,4.462-4.892,0-.184,0-.4,0-.625-.016-1.575-.039-3.952,1.11-5a2.061,2.061,0,0,1,1.681-.5,2.306,2.306,0,0,1,1.788,1.268c1.409,2.449.793,8.021-.3,10.44a.844.844,0,0,0,.016.831c.932,1.578,6.638,2.029,9.074,2.218.384.03.7.057.937.08.247.471.119.582-.029.582" transform="translate(50.222 46.962)" fill="#1a1a1a"/>
          <path id="Path_838961" data-name="Path 838961" d="M126.1,122.274a34.82,34.82,0,0,1-5.229-.432c11.586,1.172,14.051-3.149,14.074-3.192.435.432-1.326,3.624-8.844,3.624" transform="translate(52.532 51.567)" fill="#1a1a1a"/>
          <path id="Path_838962" data-name="Path 838962" d="M125.991,125.255c-.882,0-1.773-.032-2.7-.065-.6-.023-1.227-.044-1.879-.059a23.58,23.58,0,0,1-2.516-.2,8.963,8.963,0,0,1-2.426-.493,3.335,3.335,0,0,1-1.577-1.645c.9.466,1.285.878,1.812,1.11a6.912,6.912,0,0,0,1.887.4,25.027,25.027,0,0,0,2.835.238c.654.016,1.28.039,1.887.059,3.361.118,6.015.217,9.572-1.031,1.839-.646,3.566-3,3.566-4.053.585,1.374-1.372,3.9-3.374,4.605a20.255,20.255,0,0,1-7.087,1.129" transform="translate(49.934 51.945)" fill="#1a1a1a"/>
          <path id="Path_838963" data-name="Path 838963" d="M154.917,129.567a10,10,0,0,1-2.546-.316,24.261,24.261,0,0,1-8.809-4.086,45.973,45.973,0,0,0,8.958,3.521c3.492.925,8.229-.436,11.244-3.238,3.642-3.379,3.8-9.054,3.947-14.062.034-1.165.066-2.262.138-3.31.473-6.857-.617-23.648-.627-23.816.594.132,1.687,16.96,1.209,23.856-.07,1.034-.1,2.129-.135,3.285-.148,5.122-.313,10.93-4.133,14.474a14.078,14.078,0,0,1-9.246,3.691" transform="translate(62.394 36.62)" fill="#1a1a1a"/>
          <path id="Path_838964" data-name="Path 838964" d="M147.405,120.595c-2.146-6.15-.727-35.283-.666-36.521.567.331-.892,30.3.944,36.141-.221.376-.25.38-.278.38" transform="translate(63.55 36.54)" fill="#1a1a1a"/>
          <path id="Path_838965" data-name="Path 838965" d="M156.536,87.5c-4.948,0-9.955-.9-9.955-2.614,0-1.01,1.073-1.7,3.282-2.117-1.172.815-2.7,1.278-2.7,2.117s3.565,2.03,9.369,2.03,9.369-1.184,9.369-2.03c0-.618-1.009-1.2-2.7-1.544,2.737-.034,3.287.877,3.287,1.544,0,1.716-5.008,2.614-9.956,2.614" transform="translate(63.706 35.973)" fill="#1a1a1a"/>
          <path id="Path_838966" data-name="Path 838966" d="M151.444,91.012a2.412,2.412,0,0,1-.372-1.333c-.1-2.135-.281-5.707-3.753-8.725-2.47-2.152-3.584-3.763-3.5-5.073a2.584,2.584,0,0,1,1.344-1.971c2.053-1.38,3.541.318,4.848,1.823.953,1.1,1.938,2.234,3.125,2.317a5.272,5.272,0,0,1,4.353,3.493c-.594.07-1.579-2.707-4.394-2.909-1.426-.1-2.493-1.33-3.525-2.518-1.316-1.512-2.45-2.813-4.079-1.722A2.045,2.045,0,0,0,144.4,75.92c-.067,1.1,1.016,2.6,3.307,4.591a11.862,11.862,0,0,1,3.952,9.14c.02.41.039.762.075,1.027-.261.333-.274.334-.287.334" transform="translate(62.503 31.901)" fill="#1a1a1a"/>
          <path id="Path_838967" data-name="Path 838967" d="M149.565,80.641a21.562,21.562,0,0,1-.214-6c.066-1.024.142-2.186.184-3.538a4.719,4.719,0,0,1,.676-2.589,2.768,2.768,0,0,1,2.588-1.076,2.059,2.059,0,0,1,1.671,1.228,2.924,2.924,0,0,1,.136.91,76.661,76.661,0,0,1-.306,10.7c-.133-3.795-.2-8.315-.281-10.679a2.5,2.5,0,0,0-.1-.73,1.479,1.479,0,0,0-1.207-.849,2.193,2.193,0,0,0-2.04.852,4.147,4.147,0,0,0-.554,2.255c-.046,1.359-.121,2.526-.188,3.556a37.588,37.588,0,0,0-.08,5.645c-.277.313-.283.313-.29.313" transform="translate(64.862 29.299)" fill="#1a1a1a"/>
          <path id="Path_838968" data-name="Path 838968" d="M156.493,80.494c.118-3.686.208-7.294-.017-11.049a1.864,1.864,0,0,0-.207-.905,1.648,1.648,0,0,0-1.251-.587,2.1,2.1,0,0,0-2.077,1.324,1.825,1.825,0,0,1,2.1-1.909,2.24,2.24,0,0,1,1.722.851,2.339,2.339,0,0,1,.3,1.189,60.158,60.158,0,0,1-.275,10.83.291.291,0,0,1-.29.257" transform="translate(66.469 29.278)" fill="#1a1a1a"/>
          <path id="Path_838969" data-name="Path 838969" d="M158.789,93.225a58.411,58.411,0,0,0-.218-8.7,13.512,13.512,0,0,1-.088-2.624c.373-2.833,1.053-8.008.643-11.415a2.591,2.591,0,0,0-.508-1.475,1.558,1.558,0,0,0-1.31-.42,1.924,1.924,0,0,0-1.453.689c.05-1.03.759-1.2,1.386-1.27a2.122,2.122,0,0,1,1.8.6,3.068,3.068,0,0,1,.661,1.8c.419,3.48-.267,8.7-.634,11.508a12.613,12.613,0,0,0,.079,2.548,35.892,35.892,0,0,1-.072,8.5.294.294,0,0,1-.291.255" transform="translate(67.737 29.552)" fill="#1a1a1a"/>
          <path id="Path_838970" data-name="Path 838970" d="M117.973,132.959c-1.752,0-2.931-4.754-3.152-9.275-.225-4.559.5-9.454,2.275-9.543a3.817,3.817,0,0,1,1.042.36,1.035,1.035,0,0,1-1.026.224c-.887.044-1.977,3.463-1.707,8.93s1.69,8.776,2.588,8.718c.235-.01,1.419-.321,1.637-5.33.374,4.815-.724,5.87-1.61,5.913h-.047" transform="translate(49.885 49.607)" fill="#1a1a1a"/>
          <path id="Path_838971" data-name="Path 838971" d="M125.727,116.387c-1.044-.1-2.059-.2-3.07-.294-4.106-.39-8.352-.793-12.511-1.572a121.575,121.575,0,0,1-15.89-4.2c6.1,1.39,11.121,2.72,16,3.631,4.133.775,8.367,1.175,12.46,1.564q1.519.142,3.043.294c.245.471.119.582-.029.582" transform="translate(40.965 47.945)" fill="#1a1a1a"/>
          <path id="Path_838972" data-name="Path 838972" d="M53.044,131.7c-10.437,0-21.238-13.823-27.107-27.285a20.767,20.767,0,0,1,5.784-5.591,38.364,38.364,0,0,1,7.252-4.135c.443.2,13.866,13.693,18,21.975C52.581,109.169,40.428,96.745,39,95.3a41.863,41.863,0,0,0-6.954,4,27.2,27.2,0,0,0-5.506,5.037c6.094,13.89,17.412,28.1,27.988,26.672,11.222-1.536,15.973-16.068,21.02-34.9-4.538,19.2-9.362,33.9-20.941,35.481a11.45,11.45,0,0,1-1.567.106" transform="translate(11.273 41.151)" fill="#1a1a1a"/>
          <path id="Path_838973" data-name="Path 838973" d="M43.228,113.647a92.058,92.058,0,0,1,3.29-8.665c5.145-12.243,9.209-21.912,17.406-22.637-7.794,1.275-11.8,10.8-16.868,22.863-1.126,2.681-2.293,5.456-3.561,8.266a.291.291,0,0,1-.267.172" transform="translate(18.787 35.788)" fill="#1a1a1a"/>
          <path id="Path_838974" data-name="Path 838974" d="M61.611,77.918a3.469,3.469,0,0,1-2.861-1.506,8.889,8.889,0,0,1,1.845.736,2.892,2.892,0,1,0-.737-5,2.238,2.238,0,0,1,2.985-.957,3.477,3.477,0,0,1-1.232,6.73" transform="translate(25.534 30.849)" fill="#1a1a1a"/>
          <path id="Path_838975" data-name="Path 838975" d="M61.453,75.78a24.938,24.938,0,0,1-1.783-2.244c.155-.452,2.79-1.215,2.79-1.215.164.564-2.072,1.209-2.072,1.209l1.3,1.786c-.116.446-.176.463-.237.463" transform="translate(25.933 31.432)" fill="#1a1a1a"/>
          <path id="Path_838976" data-name="Path 838976" d="M58.672,84.119a4.492,4.492,0,0,1-3.645-1.892c-1.284-2.04-.244-4.9-.2-5.024l2.341-9.56c.565.139-1.783,9.734-1.783,9.734-.019.059-.994,2.747.136,4.542A3.936,3.936,0,0,0,58.7,83.535c.251.471.122.584-.026.584" transform="translate(23.638 29.398)" fill="#1a1a1a"/>
          <path id="Path_838977" data-name="Path 838977" d="M55.014,75.752c-1.01-.235-1.4-.932-1.214-1.6l1.452-5.173a1.262,1.262,0,0,1,1.554-.872,1.1,1.1,0,0,1,.7.491,1.084,1.084,0,0,1,.056.851c-.463-.516-.554-.677-.912-.779-.832.469-2.284,5.641-2.284,5.641.823.932,1.2.727,1.3.366.407.714-.1,1.079-.651,1.079" transform="translate(23.362 29.578)" fill="#1a1a1a"/>
          <path id="Path_838978" data-name="Path 838978" d="M44.811,142.476c.268-2.016,3.284-19.39,3.62-22.452.221,3.325-2.776,20.559-3.343,22.252a.292.292,0,0,1-.277.2" transform="translate(19.475 52.164)" fill="#1a1a1a"/>
          <path id="Path_838979" data-name="Path 838979" d="M75.681,124.719a4.457,4.457,0,0,1-2.013-.416c.426-.436,4.023,1.367,8.857-4.09C87,115.157,79.65,99.22,76.28,92.6c4.774,8.088,11.23,22.865,6.681,28-3,3.389-5.6,4.119-7.281,4.119" transform="translate(32.017 40.246)" fill="#1a1a1a"/>
          <path id="Path_838980" data-name="Path 838980" d="M76.906,153.757c-.327-.458-4.254-22.185-3.135-33.142a169.836,169.836,0,0,0,1.007-26.548c1.016,6.725.667,15.939-.425,26.608-1.112,10.874,2.8,32.52,2.839,32.738-.252.343-.27.344-.287.344" transform="translate(31.975 40.883)" fill="#1a1a1a"/>
          <path id="Path_838981" data-name="Path 838981" d="M57.316,89.7c-.152-.04-.567-.217-2.275-.664a9.31,9.31,0,0,1-5.294-3.625l-.4-.468a13.171,13.171,0,0,0-1.031-1.029c-.887-.822-1.723-1.6-1.714-2.526a1.893,1.893,0,0,1,.743-1.4,1.638,1.638,0,0,1,1.238-.428c1.36.076,2.825,1.572,3.391,2.212a13.21,13.21,0,0,0,1.336,1.337,32.364,32.364,0,0,0-2.216-2.366l-.623-.627a33.228,33.228,0,0,0-3.145-2.534,20.788,20.788,0,0,1-2.386-1.924,1.743,1.743,0,0,1,.046-2.023,1.929,1.929,0,0,1,2.077-1c1.439.347,3.245,1.918,4.215,2.763.628.072,1.047-.321,1.813-.453a4.114,4.114,0,0,1,3.046.4,2.338,2.338,0,0,1,1.62-.333,8.164,8.164,0,0,1,1.407.423,1.79,1.79,0,0,1-1.511.152,1.9,1.9,0,0,0-1.344.344,5.175,5.175,0,0,0-3.119-.407,1.994,1.994,0,0,0-1.11.585c-.152.143-.384.36-.643.184-.09-.059-.281-.224-.544-.452-.867-.753-2.666-2.323-3.967-2.637a1.372,1.372,0,0,0-1.439.737,1.223,1.223,0,0,0-.109,1.336,21.868,21.868,0,0,0,2.3,1.841,33.082,33.082,0,0,1,3.209,2.589l.624.627c1.618,1.624,2.605,2.65,2.673,3.193-.359.531-.8.726-2.645-1.367a5.323,5.323,0,0,0-2.987-2.016,1.013,1.013,0,0,0-.813.28,1.363,1.363,0,0,0-.552.967c0,.666.74,1.359,1.531,2.093a14.337,14.337,0,0,1,1.076,1.073l.4.473a8.729,8.729,0,0,0,5,3.439,17.133,17.133,0,0,1,2.249.671c.092.495-.014.557-.123.557" transform="translate(19.401 31.549)" fill="#1a1a1a"/>
          <path id="Path_838982" data-name="Path 838982" d="M53.379,78.866a28.456,28.456,0,0,0-4.011-3.687c.475-.374,3.292,1.786,4.255,3.232-.132.439-.189.455-.244.455" transform="translate(21.456 32.655)" fill="#1a1a1a"/>
          <path id="Path_838983" data-name="Path 838983" d="M55.437,77.374a32.762,32.762,0,0,0-2.909-2.42c.412-.422,2.033.76,3.123,1.93-.072.465-.143.491-.214.491" transform="translate(22.829 32.538)" fill="#1a1a1a"/>
          <path id="Path_838984" data-name="Path 838984" d="M76.463,111.7a9.48,9.48,0,0,1-2.82-.423,6.6,6.6,0,0,1-4.292-3.6,19.68,19.68,0,0,1-1.13-4.76c-.053-.354-.106-.71-.164-1.064-.425-2.61-1.108-5.163-3.2-6.177a9.343,9.343,0,0,0-2.02-.628,6.235,6.235,0,0,1-3.2-1.443,6.848,6.848,0,0,1-1.9-5.274,7.711,7.711,0,0,1,4.054-6.6c.1.6-3.348,2.27-3.47,6.621a6.37,6.37,0,0,0,1.726,4.835,5.672,5.672,0,0,0,2.929,1.3,9.789,9.789,0,0,1,2.145.671c2.333,1.13,3.072,3.845,3.522,6.612.057.354.112.712.166,1.07a19.064,19.064,0,0,0,1.09,4.619,6.034,6.034,0,0,0,3.927,3.269,8.387,8.387,0,0,0,6.708-.676,10.226,10.226,0,0,0,3.082-3.271c2.4-3.832,2.813-7.622,1.436-13.078a20.958,20.958,0,0,0-6.816-11.473c-.6-.585-1.221-1.192-1.842-1.852a2.157,2.157,0,0,1-.7-1.313,4.15,4.15,0,0,1,.671-1.993,25.753,25.753,0,0,0,1.232-2.546,9.224,9.224,0,0,0,.58-4.944c-.618-3.429-6.922-4.838-6.985-4.85-3.135-2.736-8.408-4.305-12.035-2.311-3.483,1.918-2.564,6.083-2.554,6.124.006.247.02,4.376,6.443,6.812-7.038-2.044-7.024-6.56-7.02-6.751-.009,0-1.006-4.574,2.849-6.7,3.823-2.11,9.348-.506,12.516,2.267.779.181,6.705,1.667,7.36,5.3a9.766,9.766,0,0,1-.608,5.258,17.942,17.942,0,0,1-.852,1.823,6.157,6.157,0,0,0-1.013,2.472,1.671,1.671,0,0,0,.538.947c.611.65,1.227,1.252,1.823,1.835a21.432,21.432,0,0,1,6.974,11.745c1.423,5.629.986,9.55-1.506,13.533a10.79,10.79,0,0,1-3.264,3.455,8.254,8.254,0,0,1-4.374,1.162" transform="translate(24.294 26.483)" fill="#1a1a1a"/>
          <path id="Path_838985" data-name="Path 838985" d="M38.363,119.853c1.229-4.04,4.892-6.3,9.288-6.3a10.14,10.14,0,0,1,9.477,5.718,11.327,11.327,0,0,0-9.477-5.136c-4.155,0-7.609,2.12-9.017,5.535a.293.293,0,0,1-.271.181" transform="translate(16.673 49.352)" fill="#1a1a1a"/>
          <path id="Path_838986" data-name="Path 838986" d="M.291,77.768C0,77.477,0,60.9,0,60.9a7.313,7.313,0,0,1,7.305-7.3H81.36c0,.582-74.055.582-74.055.582A6.729,6.729,0,0,0,.584,60.9V77.477a.292.292,0,0,1-.293.291" transform="translate(0 23.293)" fill="#1a1a1a"/>
          <path id="Path_838987" data-name="Path 838987" d="M37.088,122.677H7.305A7.312,7.312,0,0,1,0,115.372V86.75c.584,0,.584,28.622.584,28.622a6.728,6.728,0,0,0,6.721,6.721H37.088c.291.456.161.584,0,.584" transform="translate(0 37.703)" fill="#1a1a1a"/>
          <path id="Path_838988" data-name="Path 838988" d="M73.266,127.447a7.689,7.689,0,0,0,6.721-7.305V75.774c.584,0,.584,44.368.584,44.368a7.311,7.311,0,0,1-7.305,7.305" transform="translate(31.842 32.932)" fill="#1a1a1a"/>
          <path id="Path_838989" data-name="Path 838989" d="M124.979,81.368c-9.121,0-9.121-5.931-9.121-15.759v-2.98c.529-.634,1.455-3.68,1.965-5.609a6.476,6.476,0,0,1-1.148-1.35c.538-.235,3.591,4.972,12.835,3.186.7-.136,3.348-.717,3.348-.717.353.241,1.25,3.521,1.674,4.358.03.119.168,3.463.168,3.463,0,9.283,0,15.408-9.722,15.408m-8.539-18.63v2.871c0,9.785,0,15.175,8.539,15.175,9.137,0,9.137-5.261,9.137-14.811l-.132-3.271a37.6,37.6,0,0,1-1.272-3.934c-.693.154-2.522.552-3.09.661-5.951,1.152-9.476-.519-11.306-1.987-.354,1.314-1.251,4.483-1.875,5.3" transform="translate(50.353 24.191)" fill="#1a1a1a"/>
          <path id="Path_838990" data-name="Path 838990" d="M121.887,70.3c-.211-.072-2.095-1.03-1.839-2.521.162-.938,1.1-.918,1.775-.91.59.016.839-.011.865-.181.143-.932.1-6.352.1-6.406.587.219.625,5.515.476,6.494-.106.7-.856.693-1.455.677-.747-.014-1.12.022-1.188.425-.181,1.062,1.379,1.859,1.394,1.868.08.494-.024.552-.131.552" transform="translate(52.164 26.199)" fill="#1a1a1a"/>
          <path id="Path_838991" data-name="Path 838991" d="M123.1,70.14a3.228,3.228,0,0,1-1-.172c.829-.344,1.366-.363,1.776-.618a2.2,2.2,0,0,0,.842-1.393c.571.133.39,1.316-.532,1.888a2.007,2.007,0,0,1-1.086.3" transform="translate(53.065 29.535)" fill="#1a1a1a"/>
          <path id="Path_838992" data-name="Path 838992" d="M95.272,79.932H88.8c-.291-.291-.291-7.154-.291-7.154-9.12-1.086-14.538-5.813-16.564-14.445.217-.351,10.362-2.8,10.362-2.8a1.9,1.9,0,0,1,.6.819c.178.449.349.879.5,1.314A8.8,8.8,0,0,0,88.031,62.8a9.9,9.9,0,0,0,7.777.209,5.238,5.238,0,0,0,3.6-4.838,4.231,4.231,0,0,0-2.773-4.457c-1.965-.826-4.01-1.578-5.99-2.3-.806-.3-1.612-.591-2.414-.892-.515-.194-1.034-.376-1.552-.561-.968-.34-1.967-.694-2.922-1.1-7.418-3.176-10.707-8.509-9.771-15.847.905-7.133,5.416-11.54,13.4-13.1.2-.04.4-.1.65-.168s.252-5.3.252-5.3c.291-.291,6.685-.291,6.685-.291.293.283.433,5.419.433,5.419a33.332,33.332,0,0,1,4.9,1.416c4.992,1.747,8.172,5.137,10.011,10.671-.175.366-9.154,3.79-9.154,3.79A7.093,7.093,0,0,1,99.8,33.765a25.807,25.807,0,0,0-2.225-3.149A6.941,6.941,0,0,0,90.3,28.627a4.842,4.842,0,0,0-3.905,4.044,4.1,4.1,0,0,0,2.555,4.915c1.693.742,3.463,1.413,5.17,2.066.677.257,1.353.512,2.027.775s1.369.521,2.053.776c1.33.492,2.706,1,4.018,1.584,7.671,3.389,10.725,8.665,9.619,16.6-.914,6.559-6.236,11.5-13.887,12.893-.551.1-1.095.221-1.7.353l-.689.149v6.855a.292.292,0,0,1-.291.291m-6.18-.584h5.888v-6.8a2.911,2.911,0,0,1,1.148-.485c.607-.135,1.159-.257,1.714-.357,7.509-1.366,12.523-6,13.414-12.4,1.066-7.639-1.881-12.719-9.275-15.99-1.3-.572-2.664-1.079-3.985-1.568-.69-.257-1.38-.512-2.063-.779s-1.347-.518-2.021-.773c-1.717-.654-3.49-1.33-5.2-2.077a4.679,4.679,0,0,1-2.9-5.549,5.459,5.459,0,0,1,4.34-4.512,7.508,7.508,0,0,1,7.86,2.171,26.191,26.191,0,0,1,2.28,3.221c.285.45.574.9.878,1.359l8.5-3.241c-1.788-5.19-4.832-8.382-9.557-10.037a27.814,27.814,0,0,0-5.027-1.427c-.26-.283-.4-5.377-.4-5.377H88.871v5.159a5.016,5.016,0,0,1-1.371.591c-7.712,1.508-12.065,5.747-12.937,12.6-.9,7.048,2.274,12.173,9.424,15.234.938.4,1.928.753,2.885,1.09.522.185,1.046.37,1.562.564.8.3,1.608.6,2.413.892,1.984.727,4.038,1.479,6.015,2.313a4.778,4.778,0,0,1,3.127,5.038,5.849,5.849,0,0,1-3.972,5.341,10.49,10.49,0,0,1-8.232-.227,9.379,9.379,0,0,1-4.935-5.472c-.148-.426-.317-.849-.491-1.288-.161-.409-9.777,1.912-9.777,1.912,2.031,8.263,7.351,12.761,16.251,13.746.258.29.258,7.121.258,7.121" transform="translate(31.268 6.148)" fill="#1a1a1a"/>
          <path id="Path_838993" data-name="Path 838993" d="M98.706,88.64c21.063-1,38.2-18.492,38.2-39.574A39,39,0,1,0,93.581,87.825,38.544,38.544,0,0,1,58.33,49.066,39.581,39.581,0,1,1,98.711,88.64Z" transform="translate(25.351 4.122)" fill="#1a1a1a"/>
          <path id="Path_838994" data-name="Path 838994" d="M173.867,108.866c-1.212-.657-1.666-2.056-1.422-3.978a5.389,5.389,0,0,1,2.274-4.122,5.469,5.469,0,0,1,.931-.473,13.763,13.763,0,0,1,1.714-.529,6.635,6.635,0,0,0,2.97-1.31,3.14,3.14,0,0,0,.808-2.789,135.91,135.91,0,0,0-2.407-13.689,7.131,7.131,0,0,1,3.3-5.842c4.287-2.884,9.981-2.548,14.99-1.841a4.907,4.907,0,0,1,4.175,2.6,11.165,11.165,0,0,1,.707,6.183c-.4-1.667-.265-4.017-1.229-5.919-.8-1.572-2.069-2.051-3.733-2.287-4.9-.694-10.464-1.026-14.584,1.747a6.552,6.552,0,0,0-3.05,5.256c.123.506,1.268,5.249,2.41,13.709a3.728,3.728,0,0,1-.99,3.3,7.191,7.191,0,0,1-3.221,1.445,13.292,13.292,0,0,0-1.644.5,4.934,4.934,0,0,0-.832.426,4.83,4.83,0,0,0-2.013,3.7c-.122.971-.155,2.7.988,3.361.052.494-.046.545-.146.545" transform="translate(74.919 32.076)" fill="#1a1a1a"/>
          <path id="Path_838995" data-name="Path 838995" d="M166.406,133.112c9.3-8.807,30.49-10.166,30.705-10.179-.178.6-21.173,1.944-30.513,10.107a.3.3,0,0,1-.192.072" transform="translate(72.322 53.428)" fill="#1a1a1a"/>
          <path id="Path_838996" data-name="Path 838996" d="M162.72,152.744a19.292,19.292,0,0,1-2.254-6.061c-.166-.823-.3-1.656-.393-2.472-1.188-10.293,3.018-21,6.285-28.159,4.452-9.748,9.892-16.2,16.636-19.736-6.352,3.987-11.709,10.354-16.1,19.978-3.239,7.094-7.407,17.7-6.235,27.85.09.8.221,1.614.382,2.42a23.912,23.912,0,0,0,1.944,5.757c-.175.412-.218.422-.261.422" transform="translate(69.481 41.86)" fill="#1a1a1a"/>
          <path id="Path_838997" data-name="Path 838997" d="M210.653,115.015a12.569,12.569,0,0,1-1.1-2.161c-4.463-10.311-10.141-15.844-17.865-17.416-.6-.122-2.432-.44-2.432-.44.1-.577,1.938-.255,2.546-.132,7.822,1.591,13.8,7.4,18.288,17.756.108.253.73,1.734.835,1.987-.191.4-.231.406-.268.406" transform="translate(82.251 41.143)" fill="#1a1a1a"/>
          <path id="Path_838998" data-name="Path 838998" d="M190.889,96.077c-.267,0-.549-.011-.854-.039-.978-.083-2.414-.258-3.419-.459a8.915,8.915,0,0,1,3.467-.122,5.99,5.99,0,0,0,2.354-.175,3.359,3.359,0,0,0,2.173-2.407,20.547,20.547,0,0,0,.633-6.771c-.022-1.519-.063-2.75-.1-3.98l-.044-1.305c.57-.555.627,1.287.627,1.287.042,1.234.08,2.468.1,3.7a21.994,21.994,0,0,1-.657,7.253,3.908,3.908,0,0,1-2.554,2.779,5.647,5.647,0,0,1-1.727.24" transform="translate(81.106 35.079)" fill="#1a1a1a"/>
          <path id="Path_838999" data-name="Path 838999" d="M183.736,107.359a18.862,18.862,0,0,1-7.52-1.825c3.648.973,6.694,1.521,9.245,1.106a6.083,6.083,0,0,0,4.717-3.774,8.452,8.452,0,0,0-.749-7.929c-.274-.4-.57-.792-.865-1.184-1.386-1.845-2.823-3.752-1.986-6.4a8.257,8.257,0,0,1,2.067-2.985c.188-.2.374-.4.549-.6,1.228-1.382,2.281-2.676,3.221-3.96,1.825-2.379,2.109-2.988,2.142-3.156.572-.186,1.767,1.427,5.529,5.1a25.689,25.689,0,0,1-5.124-4.556,22.5,22.5,0,0,1-1.941,2.787c-1.083,1.475-2.148,2.783-3.389,4.178-.179.2-.367.4-.559.611a7.813,7.813,0,0,0-1.937,2.76c-.747,2.357.537,4.063,1.9,5.87.3.4.6.8.877,1.205a9.035,9.035,0,0,1,.806,8.487,6.646,6.646,0,0,1-5.157,4.12,11.266,11.266,0,0,1-1.822.143" transform="translate(76.586 33.31)" fill="#1a1a1a"/>
          <path id="Path_839000" data-name="Path 839000" d="M187.7,82.631c.234-.037.39.063.458.9.075.938-.168,1.1-.379,1.095s-.422-.3-.41-.968.026-.983.331-1.03" transform="translate(81.432 35.91)" fill="#1a1a1a"/>
          <path id="Path_839001" data-name="Path 839001" d="M192.207,82.365c.232-.044.392.05.488.888.106.935-.132,1.108-.341,1.106s-.43-.283-.443-.953-.007-.983.3-1.042" transform="translate(83.405 35.793)" fill="#1a1a1a"/>
          <path id="Path_839002" data-name="Path 839002" d="M193.288,81.451a1.977,1.977,0,0,0-1.9-.323c1.09-.892,1.726-.508,2.089-.191-.026.481-.109.514-.191.514" transform="translate(83.181 35.02)" fill="#1a1a1a"/>
          <path id="Path_839003" data-name="Path 839003" d="M189.755,103.1c-1.624,0-4.269-3.226-4.82-3.919,1.823,1.36,4.13,3.641,4.978,3.308.987-.382,1.12-4.053.974-6.281l.258-4.954c.582.033.323,4.951.323,4.951.069,1,.33,6.185-1.343,6.829a1,1,0,0,1-.37.066" transform="translate(80.375 39.661)" fill="#1a1a1a"/>
          <path id="Path_839004" data-name="Path 839004" d="M191.9,96.952c1.7-3.2-.858-5.9-.882-5.925.45-.376,3.341,2.676,1.12,5.8a.29.29,0,0,1-.238.122" transform="translate(83.02 39.548)" fill="#1a1a1a"/>
          <path id="Path_839005" data-name="Path 839005" d="M174.739,134.162c-1.3-10.516,4.39-27.473,4.447-27.644.495.357-5.156,17.2-4.156,27.322-.271.321-.281.321-.291.321" transform="translate(75.86 46.294)" fill="#1a1a1a"/>
          <path id="Path_839006" data-name="Path 839006" d="M190.1,88.816a2.049,2.049,0,0,1-1.2-.356,2.763,2.763,0,0,1-1.02-1.856c.582-.046.687.92,1.356,1.377a1.842,1.842,0,0,0,1.59.142c-.161.648-.453.693-.727.693" transform="translate(81.657 37.638)" fill="#1a1a1a"/>
          <path id="Path_839007" data-name="Path 839007" d="M227.455,125.1a2.73,2.73,0,0,1-1.377-.354,3.307,3.307,0,0,1-1.506-2.816,7.687,7.687,0,0,1,3.912-6.771,3.31,3.31,0,0,1,3.188-.1c1.8,1.043,2.021,4.064.479,6.737-1.185,2.05-3.069,3.308-4.7,3.308m2.823-9.821a3.454,3.454,0,0,0-1.532.4,7.1,7.1,0,0,0-3.591,6.216,2.744,2.744,0,0,0,1.215,2.341c1.524.885,3.894-.346,5.275-2.74s1.261-5.056-.267-5.936a2.171,2.171,0,0,0-1.1-.283" transform="translate(97.598 49.849)" fill="#1a1a1a"/>
          <path id="Path_839008" data-name="Path 839008" d="M204.7,150.695a7.64,7.64,0,0,1-7.252-10.042l11.4-34.4a7.627,7.627,0,0,1,7.252-5.238h48.064a7.78,7.78,0,0,1,1.694.185c.075.03,4.815,2.618,4.815,2.618-.278.514-4.982-2.056-4.982-2.056a7.147,7.147,0,0,0-1.526-.164H216.1a7.051,7.051,0,0,0-6.7,4.838l-11.4,34.4a7.058,7.058,0,0,0,6.7,9.273c.293.453.162.584,0,.584" transform="translate(85.641 43.901)" fill="#1a1a1a"/>
          <path id="Path_839009" data-name="Path 839009" d="M255.043,150.466H206.974a7.7,7.7,0,0,1-7.249-10.044l11.4-32.921a7.612,7.612,0,0,1,7.252-5.014h48.065a7.732,7.732,0,0,1,6.312,3.2,7.006,7.006,0,0,1,.938,6.433l-11.4,32.922a8.03,8.03,0,0,1-7.251,5.427m-36.667-47.4a7.026,7.026,0,0,0-6.7,4.622l-11.4,32.922a7.119,7.119,0,0,0,6.7,9.269h48.068a7.432,7.432,0,0,0,6.7-5.037l11.4-32.922a6.435,6.435,0,0,0-.862-5.9,7.149,7.149,0,0,0-5.836-2.952Z" transform="translate(86.633 44.542)" fill="#1a1a1a"/>
          <path id="Path_839010" data-name="Path 839010" d="M198.783,136.562a11.711,11.711,0,0,0-1.473-3.922c-.159-.314-.311-.607-.432-.864-.132-.281-.263-.613-.4-.968-.78-2.011-1.846-4.766-5.661-4.106a31.292,31.292,0,0,0-7.648,3.333c2.577-2.506,7.318-3.848,7.519-3.9,4.338-.743,5.529,2.387,6.334,4.463.135.343.257.661.383.934.119.25.265.534.425.841.65,1.257,1.46,2.819,1.24,3.955a.293.293,0,0,1-.287.237" transform="translate(79.608 54.77)" fill="#1a1a1a"/>
          <path id="Path_839011" data-name="Path 839011" d="M191.151,134.686a7.333,7.333,0,0,1-2.186-4.343c.587.25.977,2.476,2.392,3.842-.052.472-.128.5-.205.5" transform="translate(82.127 56.649)" fill="#1a1a1a"/>
          <path id="Path_839012" data-name="Path 839012" d="M200.079,136.869a2.933,2.933,0,0,0-.653-2.551,11.9,11.9,0,0,1-1.483-3.072,16.18,16.18,0,0,0-2.4-4.69c-1.621-1.767-5.312.308-5.35.329-.122-.6,3.849-2.826,5.783-.724a16.63,16.63,0,0,1,2.512,4.872,12.046,12.046,0,0,0,1.37,2.9,2.341,2.341,0,0,1,.465,2.809.292.292,0,0,1-.245.132" transform="translate(82.66 54.447)" fill="#1a1a1a"/>
          <path id="Path_839013" data-name="Path 839013" d="M185.277,137.93a8.725,8.725,0,0,1-2.459-7.6,8.54,8.54,0,0,1,9.572-7.354,10.477,10.477,0,0,1,6.268,3.588,13.738,13.738,0,0,0-6.361-3.011,7.97,7.97,0,0,0-8.9,6.869,8.386,8.386,0,0,0,2.1,7.018c-.07.466-.143.492-.214.492" transform="translate(79.407 53.403)" fill="#1a1a1a"/>
          <path id="Path_839014" data-name="Path 839014" d="M199.637,128.937c-.516-.938-1.346-2.935-2.315-3.337-1.459-.611-3.307.872-3.321.888-.285-.522,1.769-2.165,3.546-1.43,1.417.591,2.328,3.38,2.367,3.5-.218.377-.25.382-.277.382" transform="translate(84.303 54.271)" fill="#1a1a1a"/>
          <path id="Path_839015" data-name="Path 839015" d="M196.828,134.509c4.607-18.066.752-29.055.713-29.164.59-.09,4.51,11.058-.432,28.951a.292.292,0,0,1-.281.214" transform="translate(85.544 45.784)" fill="#1a1a1a"/>
          <path id="Path_839016" data-name="Path 839016" d="M27.572,91.918c-.207-.085-19.628-19.506-19.628-19.506.413-.413,19.628,18.8,19.628,18.8l18.37-18.37c.413,0,13.861,13.448,13.861,13.448-.413.413-13.655-12.828-13.655-12.828l-18.37,18.37a.287.287,0,0,1-.207.085" transform="translate(3.453 31.468)" fill="#1a1a1a"/>
          <path id="Path_839017" data-name="Path 839017" d="M67.473,78.6H64.419c0-.584,3.054-.584,3.054-.584.291.453.159.584,0,.584m-6.331,0H57.867c0-.584,3.275-.584,3.275-.584.291.453.161.584,0,.584m-6.55,0H51.315c0-.584,3.277-.584,3.277-.584.291.453.161.584,0,.584m-6.552,0H44.763c0-.584,3.277-.584,3.277-.584.291.453.159.584,0,.584m-6.552,0H38.211c0-.584,3.277-.584,3.277-.584.291.453.161.584,0,.584m-6.553,0H31.658c0-.584,3.277-.584,3.277-.584.293.453.162.584,0,.584m-6.552,0H25.108c0-.584,3.275-.584,3.275-.584.291.453.162.584,0,.584m-6.55,0H18.556c0-.584,3.277-.584,3.277-.584.291.453.159.584,0,.584m-6.553,0H12.005c0-.584,3.274-.584,3.274-.584.293.453.161.584,0,.584m-6.55,0H5.452c0-.584,3.277-.584,3.277-.584.291.453.161.584,0,.584" transform="translate(2.37 33.909)" fill="#1a1a1a"/>
          <path id="Path_839018" data-name="Path 839018" d="M29.894,106.3c-4.053-1.439-10.43-10.821-10.665-13.319a2.182,2.182,0,0,1,1.351-2.311,1.715,1.715,0,0,1,.691-2.041,2.157,2.157,0,0,1,.839-.38,1.78,1.78,0,0,1,1.5.5c.082.119,6.558,17.157,6.558,17.157-.121.364-.2.395-.274.395M22.378,88.81a1.584,1.584,0,0,0-.766.3,1.14,1.14,0,0,0-.376,1.6c-.244.443-1.561.77-1.425,2.225.2,2.143,5.773,10.491,9.56,12.526l-6.2-16.3a1.284,1.284,0,0,0-.8-.34" transform="translate(8.352 38.344)" fill="#1a1a1a"/>
          <path id="Path_839019" data-name="Path 839019" d="M39.734,99.28c-.066-.007-12.312-2.843-12.312-2.843a45.335,45.335,0,0,1-4.35-5.212c-.819-1.122-1.545-2.106-1.366-3.041a1.8,1.8,0,0,1,.9-1.182c1.717-1.062,2.793.471,3.511,1.485.135.192.331.483.568.831a41.1,41.1,0,0,0,2.551,3.522c1.186,1.336,2.835,2.739,3.754,2.658a.734.734,0,0,0,.585-.379,1.946,1.946,0,0,0,.2-1.116,10.2,10.2,0,0,0-.205-1.218c-.323-1.582-.762-3.747.11-4.684a1.567,1.567,0,0,1,1.433-.422,2.252,2.252,0,0,1,1.331.525,2.3,2.3,0,0,1,.557,1.162c.205.861.347,1.785.486,2.674.376,2.433.766,4.949,2.45,6.748-.01.438-.109.492-.211.492m-12.1-3.394,11.325,2.622c-1.337-1.838-1.694-4.142-2.041-6.378-.142-.921-.278-1.79-.479-2.631a1.707,1.707,0,0,0-.395-.875,1.734,1.734,0,0,0-1-.366,1.012,1.012,0,0,0-.931.24c-.667.717-.244,2.795.032,4.17a10.721,10.721,0,0,1,.219,1.3,2.505,2.505,0,0,1-.3,1.46,1.319,1.319,0,0,1-1.031.646c-1.465.092-3.442-1.954-4.238-2.849a42.3,42.3,0,0,1-2.6-3.584c-.231-.343-.426-.634-.56-.823-.981-1.39-1.673-1.984-2.724-1.323a1.232,1.232,0,0,0-.637.795c-.132.684.506,1.549.974,2.182a56.135,56.135,0,0,0,4.378,5.41" transform="translate(9.422 37.656)" fill="#1a1a1a"/>
          <path id="Path_839020" data-name="Path 839020" d="M25.6,97.235a35.461,35.461,0,0,1-2.885-3.29,26.952,26.952,0,0,1-2.394-3.68c.448-.4,1.709,1.94,2.843,3.307,1.4,1.689,2.658,3.182,2.658,3.182-.09.459-.156.481-.222.481" transform="translate(8.833 39.211)" fill="#1a1a1a"/>
          <path id="Path_839021" data-name="Path 839021" d="M12.908,100.143H6.263c-.293-.293-.293-6.938-.293-6.938.293-.291,6.938-.291,6.938-.291.291.291.291,6.936.291,6.936a.293.293,0,0,1-.291.293m-6.354-.584h6.061V93.5H6.554Z" transform="translate(2.595 40.382)" fill="#1a1a1a"/>
          <path id="Path_839022" data-name="Path 839022" d="M12.908,109.579H6.263c-.293-.294-.293-6.938-.293-6.938.293-.293,6.938-.293,6.938-.293.291.293.291,6.936.291,6.936a.293.293,0,0,1-.291.294m-6.354-.585h6.061v-6.061H6.554Z" transform="translate(2.595 44.482)" fill="#1a1a1a"/>
          <path id="Path_839023" data-name="Path 839023" d="M35.606,59.737H16.26c0-.584,19.346-.584,19.346-.584.291.453.161.584,0,.584" transform="translate(7.067 25.709)" fill="#1a1a1a"/>
          <path id="Path_839024" data-name="Path 839024" d="M13.168,59.737H8.088c0-.584,5.08-.584,5.08-.584.291.453.161.584,0,.584" transform="translate(3.515 25.709)" fill="#1a1a1a"/>
          <path id="Path_839025" data-name="Path 839025" d="M39.157,62.823H8.088c0-.582,31.069-.582,31.069-.582.291.453.161.582,0,.582" transform="translate(3.515 27.051)" fill="#1a1a1a"/>
          <path id="Path_839026" data-name="Path 839026" d="M22.359,65.94H8.089c0-.584,14.27-.584,14.27-.584.291.453.161.584,0,.584" transform="translate(3.516 28.405)" fill="#1a1a1a"/>
          <path id="Path_839027" data-name="Path 839027" d="M229.428,96.832l-14.99-.036c0-.584,14.7-.548,14.7-.548V21.072H153.963V81.811c-.587,0-.587-61.03-.587-61.03.293-.291,76.052-.291,76.052-.291.294.291.294,76.05.294,76.05-.142.263-.217.291-.294.291" transform="translate(66.659 8.905)" fill="#1a1a1a"/>
          <path id="Path_839028" data-name="Path 839028" d="M205.83,68.1H191.662c-.294-.293-.294-17.735-.294-17.735.294-.291,14.462-.291,14.462-.291.293.291.293,17.733.293,17.733a.294.294,0,0,1-.293.293m-13.876-.585h13.583V50.659H191.955Z" transform="translate(83.171 21.763)" fill="#1a1a1a"/>
          <path id="Path_839029" data-name="Path 839029" d="M191.858,88.489a3.1,3.1,0,0,0,1.209-2.293,3.942,3.942,0,0,1-2.031-.538,16.743,16.743,0,0,1-.9-3.612,19.239,19.239,0,0,1,1.347,3.242,5.881,5.881,0,0,0,1.894.346,2.112,2.112,0,0,1-1.476,2.852.441.441,0,0,1-.047,0" transform="translate(82.638 35.658)" fill="#1a1a1a"/>
          <path id="Path_839030" data-name="Path 839030" d="M186.5,83.507a2.147,2.147,0,0,1,1.12-2.364,2.433,2.433,0,0,1,2.04-.088c-.793.343-1.32.359-1.757.6a2.767,2.767,0,0,0-1.118,1.624.291.291,0,0,1-.285.228" transform="translate(81.014 35.15)" fill="#1a1a1a"/>
          <path id="Path_839031" data-name="Path 839031" d="M217.024,137.176H177.588a2.054,2.054,0,1,1,0-4.109h30.46c0,.584-30.46.584-30.46.584a1.471,1.471,0,0,0,0,2.942h39.436c.293.452.162.582,0,.582" transform="translate(76.289 57.833)" fill="#1a1a1a"/>
          <path id="Path_839032" data-name="Path 839032" d="M186.906,134.378c3.155-.768,3.315-2.962,3.318-2.985.581.06.387,2.772-3.3,2.985Z" transform="translate(81.232 57.105)" fill="#1a1a1a"/>
        </g>
      </g>
    </g>
  </g>
</svg>
