<svg xmlns="http://www.w3.org/2000/svg" xmlns:xlink="http://www.w3.org/1999/xlink" width="1030" height="239" viewBox="0 0 1030 239">
  <defs>
    <clipPath id="clip-path">
      <rect id="Rectangle_377365" data-name="Rectangle 377365" width="95.037" height="94.654" fill="none"/>
    </clipPath>
    <clipPath id="clip-path-2">
      <rect id="Rectangle_377367" data-name="Rectangle 377367" width="86.608" height="86.294" fill="none"/>
    </clipPath>
    <clipPath id="clip-path-3">
      <circle id="Ellipse_5886" data-name="Ellipse 5886" cx="48" cy="48" r="48" transform="translate(752 638)" fill="#fff198"/>
    </clipPath>
    <clipPath id="clip-path-4">
      <rect id="Rectangle_377375" data-name="Rectangle 377375" width="65.231" height="103.924" fill="none"/>
    </clipPath>
  </defs>
  <g id="Group_1087051" data-name="Group 1087051" transform="translate(-285 -558)">
    <g id="Group_1083524" data-name="Group 1083524">
      <rect id="Rectangle_377368" data-name="Rectangle 377368" width="1030" height="239" transform="translate(285 558)" fill="#fff"/>
      <rect id="Rectangle_377369" data-name="Rectangle 377369" width="505" height="185" transform="translate(285 586)" fill="#e3ecf7"/>
      <rect id="Rectangle_377370" data-name="Rectangle 377370" width="505" height="185" transform="translate(810 585)" fill="#e4fdfb"/>
      <path id="Path_841689" data-name="Path 841689" d="M60.556,12.165a4.447,4.447,0,0,1-1.415,2.959,4.638,4.638,0,0,1-3.167,1.042,4.259,4.259,0,0,1-3.432-1.536,6.178,6.178,0,0,1-1.291-4.109V9.359a6.886,6.886,0,0,1,.6-2.963,4.5,4.5,0,0,1,1.706-1.963,4.75,4.75,0,0,1,2.557-.685A4.367,4.367,0,0,1,59.2,4.823,4.5,4.5,0,0,1,60.556,7.8h-1.6a3.472,3.472,0,0,0-.9-2.1,2.725,2.725,0,0,0-1.938-.649,2.851,2.851,0,0,0-2.395,1.13A5.187,5.187,0,0,0,52.853,9.4v1.171a5.332,5.332,0,0,0,.822,3.132,2.655,2.655,0,0,0,2.3,1.163,3.067,3.067,0,0,0,2.038-.6,3.34,3.34,0,0,0,.942-2.1Zm1.527-.739A5.3,5.3,0,0,1,62.6,9.052a3.87,3.87,0,0,1,1.444-1.627,3.932,3.932,0,0,1,2.113-.573,3.788,3.788,0,0,1,2.968,1.27A4.886,4.886,0,0,1,70.26,11.5v.108a5.351,5.351,0,0,1-.5,2.353,3.813,3.813,0,0,1-1.436,1.623,3.977,3.977,0,0,1-2.146.581,3.778,3.778,0,0,1-2.959-1.27,4.861,4.861,0,0,1-1.133-3.362Zm1.544.183a3.842,3.842,0,0,0,.693,2.4A2.349,2.349,0,0,0,68.035,14a4.2,4.2,0,0,0,.689-2.569,3.836,3.836,0,0,0-.7-2.395,2.23,2.23,0,0,0-1.864-.917,2.205,2.205,0,0,0-1.834.9A4.17,4.17,0,0,0,63.627,11.609ZM76.527,8.4a4.6,4.6,0,0,0-.755-.058,2.024,2.024,0,0,0-2.05,1.287V16H72.186V7.019H73.68L73.7,8.056a2.391,2.391,0,0,1,2.142-1.2,1.569,1.569,0,0,1,.681.116Zm5.752,0a4.6,4.6,0,0,0-.755-.058,2.024,2.024,0,0,0-2.05,1.287V16H77.938V7.019h1.494l.025,1.038a2.391,2.391,0,0,1,2.142-1.2,1.569,1.569,0,0,1,.681.116Zm4.98,7.77a3.924,3.924,0,0,1-2.972-1.2,4.452,4.452,0,0,1-1.146-3.208v-.282a5.39,5.39,0,0,1,.51-2.386,3.982,3.982,0,0,1,1.428-1.644,3.59,3.59,0,0,1,1.988-.594,3.364,3.364,0,0,1,2.723,1.154,5,5,0,0,1,.971,3.3v.639H84.678a3.193,3.193,0,0,0,.776,2.146,2.44,2.44,0,0,0,1.888.818,2.675,2.675,0,0,0,1.378-.332,3.462,3.462,0,0,0,.988-.88l.938.73A3.772,3.772,0,0,1,87.26,16.166Zm-.191-8.052a2.048,2.048,0,0,0-1.561.677,3.288,3.288,0,0,0-.78,1.9h4.5v-.116A2.925,2.925,0,0,0,88.6,8.758,1.928,1.928,0,0,0,87.069,8.114Zm10.7,5.5a1.131,1.131,0,0,0-.469-.967,4.514,4.514,0,0,0-1.635-.594,7.731,7.731,0,0,1-1.851-.6,2.633,2.633,0,0,1-1.013-.83,1.986,1.986,0,0,1-.328-1.146,2.33,2.33,0,0,1,.934-1.868,3.647,3.647,0,0,1,2.386-.764,3.753,3.753,0,0,1,2.478.789,2.5,2.5,0,0,1,.95,2.017H97.677a1.386,1.386,0,0,0-.535-1.087,2.006,2.006,0,0,0-1.349-.457,2.1,2.1,0,0,0-1.312.365,1.15,1.15,0,0,0-.473.955.932.932,0,0,0,.44.838,5.413,5.413,0,0,0,1.59.54,8.283,8.283,0,0,1,1.864.614,2.718,2.718,0,0,1,1.058.859A2.112,2.112,0,0,1,99.3,13.51a2.3,2.3,0,0,1-.963,1.93,4.039,4.039,0,0,1-2.5.726,4.523,4.523,0,0,1-1.909-.382,3.105,3.105,0,0,1-1.3-1.067,2.571,2.571,0,0,1-.469-1.482H93.7a1.59,1.59,0,0,0,.618,1.224,2.4,2.4,0,0,0,1.523.452,2.476,2.476,0,0,0,1.4-.353A1.084,1.084,0,0,0,97.769,13.618Zm11.123-2.009a5.378,5.378,0,0,1-.938,3.3,3.006,3.006,0,0,1-2.54,1.253,3.294,3.294,0,0,1-2.573-1.038v4.325H101.3V7.019h1.4l.075,1a3.163,3.163,0,0,1,2.606-1.162,3.063,3.063,0,0,1,2.561,1.22,5.437,5.437,0,0,1,.942,3.4Zm-1.536-.174a3.968,3.968,0,0,0-.647-2.4,2.086,2.086,0,0,0-1.776-.88,2.257,2.257,0,0,0-2.092,1.237v4.292a2.262,2.262,0,0,0,2.108,1.229,2.076,2.076,0,0,0,1.756-.876A4.332,4.332,0,0,0,107.356,11.435Zm3.08-.008a5.3,5.3,0,0,1,.519-2.374A3.87,3.87,0,0,1,112.4,7.425a3.932,3.932,0,0,1,2.113-.573,3.788,3.788,0,0,1,2.968,1.27,4.886,4.886,0,0,1,1.133,3.378v.108a5.351,5.351,0,0,1-.5,2.353,3.813,3.813,0,0,1-1.436,1.623,3.977,3.977,0,0,1-2.146.581,3.778,3.778,0,0,1-2.959-1.27,4.861,4.861,0,0,1-1.133-3.362Zm1.544.183a3.842,3.842,0,0,0,.693,2.4A2.349,2.349,0,0,0,116.387,14a4.2,4.2,0,0,0,.689-2.569,3.836,3.836,0,0,0-.7-2.395,2.23,2.23,0,0,0-1.864-.917,2.205,2.205,0,0,0-1.834.9A4.17,4.17,0,0,0,111.979,11.609Zm10.011-4.59.05,1.129a3.273,3.273,0,0,1,2.689-1.295q2.847,0,2.872,3.212V16h-1.536V10.057a2.068,2.068,0,0,0-.444-1.436,1.78,1.78,0,0,0-1.357-.465,2.216,2.216,0,0,0-1.312.4,2.706,2.706,0,0,0-.88,1.046V16h-1.536V7.019Zm7.554,4.416a5.261,5.261,0,0,1,.979-3.324,3.333,3.333,0,0,1,5.063-.178V3.25h1.536V16h-1.411l-.075-.963a3.127,3.127,0,0,1-2.565,1.129,3.068,3.068,0,0,1-2.544-1.278,5.321,5.321,0,0,1-.984-3.337Zm1.536.174A3.984,3.984,0,0,0,131.71,14a2.039,2.039,0,0,0,1.743.863,2.24,2.24,0,0,0,2.133-1.312V9.426a2.257,2.257,0,0,0-2.117-1.27,2.049,2.049,0,0,0-1.76.872A4.386,4.386,0,0,0,131.08,11.609Zm12.152,4.557a3.924,3.924,0,0,1-2.972-1.2,4.452,4.452,0,0,1-1.146-3.208v-.282a5.39,5.39,0,0,1,.51-2.386,3.982,3.982,0,0,1,1.428-1.644,3.59,3.59,0,0,1,1.988-.594,3.364,3.364,0,0,1,2.723,1.154,5,5,0,0,1,.971,3.3v.639H140.65a3.193,3.193,0,0,0,.776,2.146,2.44,2.44,0,0,0,1.888.818,2.675,2.675,0,0,0,1.378-.332,3.462,3.462,0,0,0,.988-.88l.938.73A3.772,3.772,0,0,1,143.232,16.166Zm-.191-8.052a2.048,2.048,0,0,0-1.561.677,3.288,3.288,0,0,0-.78,1.9h4.5v-.116a2.925,2.925,0,0,0-.631-1.814A1.928,1.928,0,0,0,143.041,8.114Zm6.923-1.1.05,1.129A3.273,3.273,0,0,1,152.7,6.853q2.847,0,2.872,3.212V16H154.04V10.057a2.068,2.068,0,0,0-.444-1.436,1.78,1.78,0,0,0-1.357-.465,2.216,2.216,0,0,0-1.312.4,2.706,2.706,0,0,0-.88,1.046V16h-1.536V7.019Zm11.53,7.894a2.212,2.212,0,0,0,1.436-.5,1.752,1.752,0,0,0,.681-1.245h1.453a2.785,2.785,0,0,1-.531,1.469,3.5,3.5,0,0,1-1.307,1.112,3.772,3.772,0,0,1-1.731.415,3.7,3.7,0,0,1-2.918-1.224,4.877,4.877,0,0,1-1.083-3.349v-.257A5.407,5.407,0,0,1,157.974,9a3.667,3.667,0,0,1,1.382-1.585,3.926,3.926,0,0,1,2.129-.564,3.6,3.6,0,0,1,2.511.9,3.234,3.234,0,0,1,1.067,2.349H163.61a2.116,2.116,0,0,0-.66-1.432,2.053,2.053,0,0,0-1.465-.56,2.149,2.149,0,0,0-1.814.843,3.957,3.957,0,0,0-.643,2.436v.291a3.878,3.878,0,0,0,.639,2.391A2.16,2.16,0,0,0,161.494,14.913ZM168.458,16h-1.536V7.019h1.536ZM166.8,4.636a.917.917,0,0,1,.228-.631.857.857,0,0,1,.677-.257.87.87,0,0,1,.681.257.907.907,0,0,1,.232.631.877.877,0,0,1-.232.623.886.886,0,0,1-.681.249.872.872,0,0,1-.677-.249A.886.886,0,0,1,166.8,4.636ZM176.46,16a3.226,3.226,0,0,1-.216-.946,3.426,3.426,0,0,1-2.557,1.112,3.17,3.17,0,0,1-2.179-.751,2.43,2.43,0,0,1-.851-1.905,2.539,2.539,0,0,1,1.067-2.179,5.029,5.029,0,0,1,3-.776h1.494V9.849a1.725,1.725,0,0,0-.481-1.282,1.935,1.935,0,0,0-1.419-.477,2.239,2.239,0,0,0-1.378.415,1.223,1.223,0,0,0-.556,1H170.84a2.119,2.119,0,0,1,.477-1.3,3.258,3.258,0,0,1,1.295-.992,4.356,4.356,0,0,1,1.8-.365,3.551,3.551,0,0,1,2.432.776,2.8,2.8,0,0,1,.913,2.137V13.9a5.054,5.054,0,0,0,.315,1.967V16Zm-2.548-1.17a2.7,2.7,0,0,0,1.37-.374,2.259,2.259,0,0,0,.938-.971V11.642h-1.2q-2.822,0-2.822,1.652a1.4,1.4,0,0,0,.481,1.129A1.85,1.85,0,0,0,173.912,14.83ZM110.494,41.269V46H108.9V33.914h4.458a4.478,4.478,0,0,1,3.109,1.013,3.433,3.433,0,0,1,1.125,2.681,3.388,3.388,0,0,1-1.1,2.71,4.678,4.678,0,0,1-3.15.95Zm0-1.3h2.864a2.863,2.863,0,0,0,1.959-.6A2.2,2.2,0,0,0,116,37.62a2.277,2.277,0,0,0-.681-1.73,2.682,2.682,0,0,0-1.868-.674h-2.955ZM123,46.166a3.924,3.924,0,0,1-2.972-1.2,4.452,4.452,0,0,1-1.146-3.208v-.282a5.39,5.39,0,0,1,.51-2.386,3.982,3.982,0,0,1,1.428-1.644,3.59,3.59,0,0,1,1.988-.594,3.364,3.364,0,0,1,2.723,1.154,5,5,0,0,1,.971,3.3v.639h-6.084a3.193,3.193,0,0,0,.776,2.146,2.44,2.44,0,0,0,1.888.818,2.675,2.675,0,0,0,1.378-.332,3.462,3.462,0,0,0,.988-.88l.938.73A3.772,3.772,0,0,1,123,46.166Zm-.191-8.052a2.048,2.048,0,0,0-1.561.677,3.288,3.288,0,0,0-.78,1.9h4.5v-.116a2.925,2.925,0,0,0-.631-1.814A1.928,1.928,0,0,0,122.812,38.114Zm9.812.282a4.6,4.6,0,0,0-.755-.058,2.024,2.024,0,0,0-2.05,1.287V46h-1.536V37.019h1.494l.025,1.038a2.391,2.391,0,0,1,2.142-1.2,1.569,1.569,0,0,1,.681.116ZM135.7,46h-1.536V37.019H135.7Zm-1.66-11.364a.917.917,0,0,1,.228-.631.857.857,0,0,1,.677-.257.87.87,0,0,1,.681.257.907.907,0,0,1,.232.631.877.877,0,0,1-.232.623.886.886,0,0,1-.681.249.872.872,0,0,1-.677-.249A.886.886,0,0,1,134.043,34.636Zm3.71,6.79a5.3,5.3,0,0,1,.519-2.374,3.87,3.87,0,0,1,1.444-1.627,3.932,3.932,0,0,1,2.113-.573,3.788,3.788,0,0,1,2.968,1.27A4.886,4.886,0,0,1,145.93,41.5v.108a5.351,5.351,0,0,1-.5,2.353,3.813,3.813,0,0,1-1.436,1.623,3.977,3.977,0,0,1-2.146.581,3.778,3.778,0,0,1-2.959-1.27,4.861,4.861,0,0,1-1.133-3.362Zm1.544.183a3.842,3.842,0,0,0,.693,2.4A2.349,2.349,0,0,0,143.705,44a4.2,4.2,0,0,0,.689-2.569,3.836,3.836,0,0,0-.7-2.395,2.23,2.23,0,0,0-1.864-.917,2.205,2.205,0,0,0-1.834.9A4.17,4.17,0,0,0,139.3,41.609Zm3.229-8.359h1.859l-2.225,2.44-1.237,0Zm4.956,8.185a5.261,5.261,0,0,1,.979-3.324,3.333,3.333,0,0,1,5.063-.178V33.25h1.536V46h-1.411l-.075-.963a3.127,3.127,0,0,1-2.565,1.129,3.068,3.068,0,0,1-2.544-1.278,5.321,5.321,0,0,1-.984-3.337Zm1.536.174A3.984,3.984,0,0,0,149.648,44a2.039,2.039,0,0,0,1.743.863,2.24,2.24,0,0,0,2.133-1.312V39.426a2.257,2.257,0,0,0-2.117-1.27,2.049,2.049,0,0,0-1.76.872A4.386,4.386,0,0,0,149.018,41.609ZM159.111,46h-1.536V37.019h1.536Zm-1.66-11.364a.917.917,0,0,1,.228-.631.857.857,0,0,1,.677-.257.87.87,0,0,1,.681.257.907.907,0,0,1,.232.631.877.877,0,0,1-.232.623.886.886,0,0,1-.681.249.872.872,0,0,1-.677-.249A.886.886,0,0,1,157.451,34.636Zm7.72,10.276a2.212,2.212,0,0,0,1.436-.5,1.752,1.752,0,0,0,.681-1.245h1.453a2.785,2.785,0,0,1-.531,1.469,3.5,3.5,0,0,1-1.307,1.112,3.772,3.772,0,0,1-1.731.415,3.7,3.7,0,0,1-2.918-1.224,4.877,4.877,0,0,1-1.083-3.349v-.257A5.407,5.407,0,0,1,161.651,39a3.667,3.667,0,0,1,1.382-1.585,3.926,3.926,0,0,1,2.129-.564,3.6,3.6,0,0,1,2.511.9,3.234,3.234,0,0,1,1.067,2.349h-1.453a2.116,2.116,0,0,0-.66-1.432,2.053,2.053,0,0,0-1.465-.56,2.149,2.149,0,0,0-1.814.843,3.957,3.957,0,0,0-.643,2.436v.291a3.878,3.878,0,0,0,.639,2.391A2.16,2.16,0,0,0,165.171,44.913Zm4.889-3.486a5.3,5.3,0,0,1,.519-2.374,3.87,3.87,0,0,1,1.444-1.627,3.932,3.932,0,0,1,2.113-.573,3.788,3.788,0,0,1,2.968,1.27,4.886,4.886,0,0,1,1.133,3.378v.108a5.351,5.351,0,0,1-.5,2.353,3.813,3.813,0,0,1-1.436,1.623,3.977,3.977,0,0,1-2.146.581,3.778,3.778,0,0,1-2.959-1.27,4.861,4.861,0,0,1-1.133-3.362Zm1.544.183a3.842,3.842,0,0,0,.693,2.4A2.349,2.349,0,0,0,176.012,44a4.2,4.2,0,0,0,.689-2.569,3.836,3.836,0,0,0-.7-2.395,2.23,2.23,0,0,0-1.864-.917,2.205,2.205,0,0,0-1.834.9A4.17,4.17,0,0,0,171.6,41.609Zm-29.891,29.5h-2.839V76h-1.6V63.914h4a4.736,4.736,0,0,1,3.142.93,3.345,3.345,0,0,1,1.1,2.706,3.254,3.254,0,0,1-.61,1.967,3.642,3.642,0,0,1-1.7,1.253l2.839,5.13V76h-1.71Zm-2.839-1.3h2.449a2.762,2.762,0,0,0,1.888-.615,2.081,2.081,0,0,0,.7-1.647,2.191,2.191,0,0,0-.668-1.721,2.83,2.83,0,0,0-1.93-.607h-2.44ZM153.052,76a3.226,3.226,0,0,1-.216-.946,3.426,3.426,0,0,1-2.557,1.112,3.17,3.17,0,0,1-2.179-.751,2.43,2.43,0,0,1-.851-1.905,2.539,2.539,0,0,1,1.067-2.179,5.029,5.029,0,0,1,3-.776h1.494v-.706a1.725,1.725,0,0,0-.481-1.282,1.935,1.935,0,0,0-1.419-.477,2.239,2.239,0,0,0-1.378.415,1.223,1.223,0,0,0-.556,1h-1.544a2.119,2.119,0,0,1,.477-1.3,3.258,3.258,0,0,1,1.295-.992,4.356,4.356,0,0,1,1.8-.365,3.551,3.551,0,0,1,2.432.776,2.8,2.8,0,0,1,.913,2.137V73.9a5.054,5.054,0,0,0,.315,1.967V76ZM150.5,74.83a2.7,2.7,0,0,0,1.37-.374,2.259,2.259,0,0,0,.938-.971V71.642h-1.2q-2.822,0-2.822,1.652a1.4,1.4,0,0,0,.481,1.129A1.85,1.85,0,0,0,150.5,74.83Zm5.877-3.4a5.261,5.261,0,0,1,.979-3.324,3.333,3.333,0,0,1,5.063-.178V63.25h1.536V76h-1.411l-.075-.963a3.127,3.127,0,0,1-2.565,1.129,3.068,3.068,0,0,1-2.544-1.278,5.321,5.321,0,0,1-.984-3.337Zm1.536.174A3.984,3.984,0,0,0,158.547,74a2.039,2.039,0,0,0,1.743.863,2.24,2.24,0,0,0,2.133-1.312V69.426a2.257,2.257,0,0,0-2.117-1.27,2.049,2.049,0,0,0-1.76.872A4.386,4.386,0,0,0,157.916,71.609ZM168.01,76h-1.536V67.019h1.536Zm-1.66-11.364a.917.917,0,0,1,.228-.631.857.857,0,0,1,.677-.257.87.87,0,0,1,.681.257.907.907,0,0,1,.232.631.877.877,0,0,1-.232.623.886.886,0,0,1-.681.249.872.872,0,0,1-.677-.249A.886.886,0,0,1,166.35,64.636Zm3.71,6.79a5.3,5.3,0,0,1,.519-2.374,3.87,3.87,0,0,1,1.444-1.627,3.932,3.932,0,0,1,2.113-.573,3.788,3.788,0,0,1,2.968,1.27,4.886,4.886,0,0,1,1.133,3.378v.108a5.351,5.351,0,0,1-.5,2.353,3.813,3.813,0,0,1-1.436,1.623,3.977,3.977,0,0,1-2.146.581,3.778,3.778,0,0,1-2.959-1.27,4.861,4.861,0,0,1-1.133-3.362Zm1.544.183a3.842,3.842,0,0,0,.693,2.4A2.349,2.349,0,0,0,176.012,74a4.2,4.2,0,0,0,.689-2.569,3.836,3.836,0,0,0-.7-2.395,2.23,2.23,0,0,0-1.864-.917,2.205,2.205,0,0,0-1.834.9A4.17,4.17,0,0,0,171.6,71.609ZM113.075,95.217H109.19V106H107.6V95.217h-3.876v-1.3h9.347Zm4.458,10.949a3.924,3.924,0,0,1-2.972-1.2,4.452,4.452,0,0,1-1.146-3.208v-.282a5.39,5.39,0,0,1,.51-2.386,3.982,3.982,0,0,1,1.428-1.644,3.59,3.59,0,0,1,1.988-.594,3.364,3.364,0,0,1,2.723,1.154,5,5,0,0,1,.971,3.3v.639h-6.084a3.193,3.193,0,0,0,.776,2.146,2.44,2.44,0,0,0,1.888.818,2.675,2.675,0,0,0,1.378-.332,3.462,3.462,0,0,0,.988-.88l.938.73A3.772,3.772,0,0,1,117.533,106.166Zm-.191-8.052a2.048,2.048,0,0,0-1.561.677,3.288,3.288,0,0,0-.78,1.9h4.5v-.116a2.925,2.925,0,0,0-.631-1.814A1.929,1.929,0,0,0,117.342,98.114ZM124.48,106h-1.536V93.25h1.536Zm6.184.166a3.924,3.924,0,0,1-2.972-1.2,4.452,4.452,0,0,1-1.146-3.208v-.282a5.39,5.39,0,0,1,.51-2.386,3.982,3.982,0,0,1,1.428-1.644,3.59,3.59,0,0,1,1.988-.594,3.364,3.364,0,0,1,2.723,1.154,5,5,0,0,1,.971,3.3v.639h-6.084a3.193,3.193,0,0,0,.776,2.146,2.44,2.44,0,0,0,1.888.818,2.675,2.675,0,0,0,1.378-.332,3.462,3.462,0,0,0,.988-.88l.938.73A3.772,3.772,0,0,1,130.665,106.166Zm-.191-8.052a2.048,2.048,0,0,0-1.561.677,3.288,3.288,0,0,0-.78,1.9h4.5v-.116A2.925,2.925,0,0,0,132,98.758,1.929,1.929,0,0,0,130.474,98.114Zm8.326,5.8,2.225-6.9h1.569L139.372,106H138.2l-3.254-8.981h1.569ZM145.739,106H144.2V97.019h1.536Zm-1.66-11.364a.917.917,0,0,1,.228-.631.857.857,0,0,1,.677-.257.87.87,0,0,1,.681.257.907.907,0,0,1,.232.631.877.877,0,0,1-.232.623.886.886,0,0,1-.681.249.872.872,0,0,1-.677-.249A.886.886,0,0,1,144.079,94.636Zm9.347,8.981a1.13,1.13,0,0,0-.469-.967,4.514,4.514,0,0,0-1.635-.594,7.731,7.731,0,0,1-1.851-.6,2.633,2.633,0,0,1-1.013-.83,1.986,1.986,0,0,1-.328-1.146,2.33,2.33,0,0,1,.934-1.868,3.647,3.647,0,0,1,2.386-.764,3.753,3.753,0,0,1,2.478.789,2.5,2.5,0,0,1,.95,2.017h-1.544a1.386,1.386,0,0,0-.535-1.087,2.006,2.006,0,0,0-1.349-.457,2.1,2.1,0,0,0-1.312.365,1.15,1.15,0,0,0-.473.955.932.932,0,0,0,.44.838,5.413,5.413,0,0,0,1.59.54,8.283,8.283,0,0,1,1.864.614,2.718,2.718,0,0,1,1.058.859,2.112,2.112,0,0,1,.344,1.224,2.3,2.3,0,0,1-.963,1.93,4.039,4.039,0,0,1-2.5.726,4.523,4.523,0,0,1-1.909-.382,3.105,3.105,0,0,1-1.3-1.067,2.571,2.571,0,0,1-.469-1.482h1.536a1.59,1.59,0,0,0,.618,1.224,2.4,2.4,0,0,0,1.523.452,2.476,2.476,0,0,0,1.4-.353A1.084,1.084,0,0,0,153.425,103.618Zm5.2,2.382h-1.536V97.019h1.536Zm-1.66-11.364a.917.917,0,0,1,.228-.631.857.857,0,0,1,.677-.257.87.87,0,0,1,.681.257.907.907,0,0,1,.232.631.877.877,0,0,1-.232.623.886.886,0,0,1-.681.249.872.872,0,0,1-.677-.249A.886.886,0,0,1,156.97,94.636Zm3.71,6.79a5.3,5.3,0,0,1,.519-2.374,3.87,3.87,0,0,1,1.444-1.627,3.932,3.932,0,0,1,2.113-.573,3.788,3.788,0,0,1,2.968,1.27,4.886,4.886,0,0,1,1.133,3.378v.108a5.351,5.351,0,0,1-.5,2.353,3.813,3.813,0,0,1-1.436,1.623,3.977,3.977,0,0,1-2.146.581,3.778,3.778,0,0,1-2.959-1.27,4.861,4.861,0,0,1-1.133-3.362Zm1.544.183a3.842,3.842,0,0,0,.693,2.4,2.349,2.349,0,0,0,3.715-.012,4.2,4.2,0,0,0,.689-2.569,3.836,3.836,0,0,0-.7-2.395,2.23,2.23,0,0,0-1.864-.917,2.205,2.205,0,0,0-1.834.9A4.17,4.17,0,0,0,162.224,101.609Zm3.229-8.359h1.859l-2.225,2.44-1.237,0Zm6.782,3.769.05,1.129a3.273,3.273,0,0,1,2.689-1.295q2.847,0,2.872,3.212V106h-1.536v-5.943a2.068,2.068,0,0,0-.444-1.436,1.78,1.78,0,0,0-1.357-.465,2.216,2.216,0,0,0-1.312.4,2.706,2.706,0,0,0-.88,1.046V106h-1.536V97.019Z" transform="translate(376 619)" fill="#12263f"/>
      <rect id="Rectangle_377371" data-name="Rectangle 377371" width="190" height="185" transform="translate(810 585)" fill="#33ece0"/>
      <rect id="Rectangle_377372" data-name="Rectangle 377372" width="190" height="185" transform="translate(600 585)" fill="#a3bfe4"/>
      <path id="Path_841688" data-name="Path 841688" d="M8.1,12.414H3.021L2.274,16.7h5.91L7.952,18H.49L2.59,5.914H9.969l-.232,1.3H3.918L3.246,11.11h5.08Zm5.5,1.079H9.662l.224-1.253h3.943Zm3.7-4.482-.191,1a3.512,3.512,0,0,1,2.731-1.162,2.771,2.771,0,0,1,1.448.39,1.914,1.914,0,0,1,.818,1.054,3.708,3.708,0,0,1,2.98-1.444,2.375,2.375,0,0,1,1.984.9A3.232,3.232,0,0,1,27.55,12.1L26.563,18H25.068l.979-5.918a3.127,3.127,0,0,0,0-.789q-.158-1.129-1.478-1.154a2.269,2.269,0,0,0-1.49.51,2.361,2.361,0,0,0-.859,1.382L21.2,18H19.689l1-5.91a1.9,1.9,0,0,0-.278-1.419,1.463,1.463,0,0,0-1.2-.515,2.46,2.46,0,0,0-2.233,1.278L15.838,18h-1.5L15.9,9.019ZM34.374,18a2.012,2.012,0,0,1-.058-.473l.025-.473a3.682,3.682,0,0,1-2.623,1.112,2.684,2.684,0,0,1-1.93-.751,2.274,2.274,0,0,1-.677-1.839,2.765,2.765,0,0,1,1.249-2.229,5.318,5.318,0,0,1,3.067-.8L35,12.555l.1-.714a1.641,1.641,0,0,0-.311-1.274,1.5,1.5,0,0,0-1.183-.486,2.317,2.317,0,0,0-1.365.378A1.607,1.607,0,0,0,31.51,11.5L30,11.509a2.408,2.408,0,0,1,.614-1.4A3.574,3.574,0,0,1,32,9.164a4.478,4.478,0,0,1,1.751-.32,2.978,2.978,0,0,1,2.183.851,2.639,2.639,0,0,1,.656,2.171l-.73,4.449-.042.639a3.133,3.133,0,0,0,.1.9L35.9,18Zm-2.357-1.162a2.62,2.62,0,0,0,1.365-.344,3.458,3.458,0,0,0,1.108-1l.324-1.851-1.137-.008a4.308,4.308,0,0,0-2.175.448,1.651,1.651,0,0,0-.855,1.27,1.286,1.286,0,0,0,.295,1.05A1.4,1.4,0,0,0,32.016,16.838ZM39.562,18H38.067l1.561-8.981h1.494ZM40.8,5.74a.822.822,0,0,1,.635.228.854.854,0,0,1,.253.643.886.886,0,0,1-.888.9.828.828,0,0,1-.639-.224.812.812,0,0,1-.241-.631.942.942,0,0,1,.249-.647A.878.878,0,0,1,40.8,5.74ZM43.646,18H42.151L44.359,5.25h1.5ZM3,43.269V48H1.4V35.914H5.86a4.478,4.478,0,0,1,3.109,1.013,3.433,3.433,0,0,1,1.125,2.681,3.388,3.388,0,0,1-1.1,2.71,4.678,4.678,0,0,1-3.15.95Zm0-1.3H5.86a2.863,2.863,0,0,0,1.959-.6A2.2,2.2,0,0,0,8.5,39.62a2.277,2.277,0,0,0-.681-1.73,2.682,2.682,0,0,0-1.868-.674H3ZM17.34,48a3.226,3.226,0,0,1-.216-.946,3.426,3.426,0,0,1-2.557,1.112,3.17,3.17,0,0,1-2.179-.751,2.43,2.43,0,0,1-.851-1.905A2.539,2.539,0,0,1,12.6,43.331a5.029,5.029,0,0,1,3-.776H17.1v-.706a1.725,1.725,0,0,0-.481-1.282,1.935,1.935,0,0,0-1.419-.477,2.239,2.239,0,0,0-1.378.415,1.223,1.223,0,0,0-.556,1H11.721a2.119,2.119,0,0,1,.477-1.3,3.258,3.258,0,0,1,1.295-.992,4.356,4.356,0,0,1,1.8-.365,3.551,3.551,0,0,1,2.432.776,2.8,2.8,0,0,1,.913,2.137V45.9a5.054,5.054,0,0,0,.315,1.967V48Zm-2.548-1.17a2.7,2.7,0,0,0,1.37-.374,2.259,2.259,0,0,0,.938-.971V43.642H15.9q-2.822,0-2.822,1.652a1.4,1.4,0,0,0,.481,1.129A1.85,1.85,0,0,0,14.792,46.83Zm1.419-11.58h1.859l-2.225,2.44-1.237,0Zm4.466,8.185a5.279,5.279,0,0,1,.971-3.341,3.348,3.348,0,0,1,5.138-.079l.075-1h1.4v8.766a3.654,3.654,0,0,1-1.033,2.748,3.814,3.814,0,0,1-2.777,1,4.619,4.619,0,0,1-1.9-.415,3.272,3.272,0,0,1-1.419-1.137l.8-.921a3,3,0,0,0,2.416,1.22,2.353,2.353,0,0,0,1.747-.631,2.411,2.411,0,0,0,.627-1.776V47.1a3.156,3.156,0,0,1-2.515,1.063,3.068,3.068,0,0,1-2.552-1.27A5.55,5.55,0,0,1,20.677,43.435Zm1.544.174A4.027,4.027,0,0,0,22.844,46a2.023,2.023,0,0,0,1.743.867,2.249,2.249,0,0,0,2.133-1.32v-4.1A2.276,2.276,0,0,0,24.6,40.156a2.041,2.041,0,0,0-1.751.872A4.386,4.386,0,0,0,22.221,43.609ZM32.249,48H30.713V39.019h1.536Zm-1.66-11.364a.917.917,0,0,1,.228-.631.857.857,0,0,1,.677-.257.87.87,0,0,1,.681.257.907.907,0,0,1,.232.631.877.877,0,0,1-.232.623.886.886,0,0,1-.681.249.872.872,0,0,1-.677-.249A.886.886,0,0,1,30.588,36.636Zm5.57,2.382.05,1.129A3.273,3.273,0,0,1,38.9,38.853q2.847,0,2.872,3.212V48H40.234V42.057a2.068,2.068,0,0,0-.444-1.436,1.78,1.78,0,0,0-1.357-.465,2.216,2.216,0,0,0-1.312.4,2.706,2.706,0,0,0-.88,1.046V48H34.706V39.019ZM49.63,48a3.226,3.226,0,0,1-.216-.946,3.426,3.426,0,0,1-2.557,1.112,3.17,3.17,0,0,1-2.179-.751,2.43,2.43,0,0,1-.851-1.905,2.539,2.539,0,0,1,1.067-2.179,5.029,5.029,0,0,1,3-.776H49.39v-.706a1.725,1.725,0,0,0-.481-1.282,1.935,1.935,0,0,0-1.419-.477,2.239,2.239,0,0,0-1.378.415,1.223,1.223,0,0,0-.556,1H44.011a2.119,2.119,0,0,1,.477-1.3,3.258,3.258,0,0,1,1.295-.992,4.356,4.356,0,0,1,1.8-.365,3.551,3.551,0,0,1,2.432.776,2.8,2.8,0,0,1,.913,2.137V45.9a5.054,5.054,0,0,0,.315,1.967V48Zm-2.548-1.17a2.7,2.7,0,0,0,1.37-.374,2.259,2.259,0,0,0,.938-.971V43.642h-1.2q-2.822,0-2.822,1.652a1.4,1.4,0,0,0,.481,1.129A1.85,1.85,0,0,0,47.082,46.83Zm11.48-1.212a1.13,1.13,0,0,0-.469-.967,4.514,4.514,0,0,0-1.635-.594,7.731,7.731,0,0,1-1.851-.6,2.633,2.633,0,0,1-1.013-.83,1.986,1.986,0,0,1-.328-1.146,2.33,2.33,0,0,1,.934-1.868,3.647,3.647,0,0,1,2.386-.764,3.753,3.753,0,0,1,2.478.789,2.5,2.5,0,0,1,.95,2.017H58.471a1.386,1.386,0,0,0-.535-1.087,2.006,2.006,0,0,0-1.349-.457,2.1,2.1,0,0,0-1.312.365,1.15,1.15,0,0,0-.473.955.932.932,0,0,0,.44.838,5.413,5.413,0,0,0,1.59.54,8.283,8.283,0,0,1,1.864.614,2.718,2.718,0,0,1,1.058.859A2.112,2.112,0,0,1,60.1,45.51a2.3,2.3,0,0,1-.963,1.93,4.039,4.039,0,0,1-2.5.726,4.523,4.523,0,0,1-1.909-.382,3.105,3.105,0,0,1-1.3-1.067,2.571,2.571,0,0,1-.469-1.482h1.536a1.59,1.59,0,0,0,.618,1.224,2.4,2.4,0,0,0,1.523.452,2.476,2.476,0,0,0,1.4-.353A1.084,1.084,0,0,0,58.562,45.618Zm14.9.257,2.864-6.856h1.552L73.786,48h-1.22l-.93-6.79L68.4,48h-1.22l-.971-8.981h1.436l.548,6.69,3.188-6.69H72.59Zm8.3,2.291a3.238,3.238,0,0,1-2.623-1.237,4.256,4.256,0,0,1-.8-3.08l.042-.357a5.976,5.976,0,0,1,.793-2.44,4.61,4.61,0,0,1,1.59-1.664,3.709,3.709,0,0,1,2.025-.535,2.856,2.856,0,0,1,2.175.921,3.789,3.789,0,0,1,.863,2.407A7.035,7.035,0,0,1,85.8,43.26l-.091.689H79.837a3.034,3.034,0,0,0,.4,2.075,1.907,1.907,0,0,0,1.648.888,3.2,3.2,0,0,0,2.457-1.2l.863.73a3.951,3.951,0,0,1-1.457,1.274A4.129,4.129,0,0,1,81.763,48.166Zm.955-8.06a2.195,2.195,0,0,0-1.623.631,4.484,4.484,0,0,0-1.1,1.951l4.366.008.033-.133a2.457,2.457,0,0,0-.336-1.739A1.581,1.581,0,0,0,82.717,40.106Zm12.127,3.445a7,7,0,0,1-.755,2.482,4.231,4.231,0,0,1-1.428,1.635,3.249,3.249,0,0,1-1.859.506,2.773,2.773,0,0,1-2.416-1.22L88.08,48H86.693L88.91,35.25h1.5l-.9,4.765a3.3,3.3,0,0,1,2.623-1.162,2.505,2.505,0,0,1,2.017.955,4.2,4.2,0,0,1,.764,2.54,7.824,7.824,0,0,1-.05,1.029Zm-1.428-.866a3.2,3.2,0,0,0-.407-1.853,1.556,1.556,0,0,0-1.32-.676,2.735,2.735,0,0,0-2.374,1.409l-.672,3.9a1.912,1.912,0,0,0,1.868,1.4,2.183,2.183,0,0,0,1.54-.522,3.412,3.412,0,0,0,1-1.555A6.989,6.989,0,0,0,93.417,42.684ZM.49,78l2.1-12.086,3.544.008a4.03,4.03,0,0,1,2.772.83,2.657,2.657,0,0,1,.805,2.316,3.142,3.142,0,0,1-2.183,2.615,2.25,2.25,0,0,1,1.216,1.079,3.016,3.016,0,0,1,.328,1.685,3.526,3.526,0,0,1-1.312,2.594A4.735,4.735,0,0,1,4.69,78Zm2.54-5.653-.755,4.341L4.74,76.7a2.953,2.953,0,0,0,1.893-.6,2.356,2.356,0,0,0,.888-1.632,1.935,1.935,0,0,0-.34-1.524,1.854,1.854,0,0,0-1.436-.58Zm.224-1.278,2.25.008a2.9,2.9,0,0,0,1.781-.541,2.119,2.119,0,0,0,.851-1.489,1.52,1.52,0,0,0-.344-1.331,2.205,2.205,0,0,0-1.5-.491l-2.374-.008ZM12.235,78H10.741l2.208-12.75h1.5Zm7.446-9.147a3.237,3.237,0,0,1,1.934.614,3.49,3.49,0,0,1,1.191,1.648,5.1,5.1,0,0,1,.261,2.3l-.017.183a6.041,6.041,0,0,1-.78,2.37,4.578,4.578,0,0,1-1.61,1.648,3.927,3.927,0,0,1-2.167.556,3.243,3.243,0,0,1-1.93-.614,3.411,3.411,0,0,1-1.183-1.627,5.239,5.239,0,0,1-.266-2.266,6.12,6.12,0,0,1,.755-2.507,4.685,4.685,0,0,1,1.623-1.722A3.881,3.881,0,0,1,19.681,68.853Zm-3.055,4.814a5.1,5.1,0,0,0,0,1.087,2.664,2.664,0,0,0,.585,1.561,1.757,1.757,0,0,0,1.341.606,2.394,2.394,0,0,0,1.378-.369,3.1,3.1,0,0,0,1.063-1.191,5.016,5.016,0,0,0,.556-1.768,7.962,7.962,0,0,0,.025-1.287,2.765,2.765,0,0,0-.606-1.585,1.8,1.8,0,0,0-1.345-.614,2.448,2.448,0,0,0-1.976.913,4.511,4.511,0,0,0-1,2.457Zm7.994-.174a7.32,7.32,0,0,1,.793-2.552,4.146,4.146,0,0,1,1.444-1.6,3.348,3.348,0,0,1,1.864-.494,2.763,2.763,0,0,1,2.357,1.179l.3-1h1.378l-1.494,8.791a4.37,4.37,0,0,1-1.395,2.752,3.928,3.928,0,0,1-2.847.984,4.043,4.043,0,0,1-1.747-.432,3.322,3.322,0,0,1-1.316-1.137l.855-.921a2.695,2.695,0,0,0,3.964.639,3.084,3.084,0,0,0,.984-1.793l.166-.8a3.4,3.4,0,0,1-2.565,1.063,2.641,2.641,0,0,1-1.457-.452,2.751,2.751,0,0,1-.959-1.237,5.056,5.056,0,0,1-.374-1.805A9.279,9.279,0,0,1,24.62,73.493Zm1.453.85a3.16,3.16,0,0,0,.411,1.836,1.553,1.553,0,0,0,1.316.684,2.721,2.721,0,0,0,2.316-1.318l.706-4.12a1.887,1.887,0,0,0-1.8-1.277,2.331,2.331,0,0,0-2,.995,5.183,5.183,0,0,0-.926,2.777ZM39.08,75.568q.125-.93-1.021-1.312L36.5,73.8q-1.976-.681-1.909-2.258A2.487,2.487,0,0,1,35.673,69.6a3.858,3.858,0,0,1,2.411-.743,3.216,3.216,0,0,1,2.212.793,2.511,2.511,0,0,1,.818,2.021l-1.494-.008a1.4,1.4,0,0,0-.423-1.1,1.675,1.675,0,0,0-1.17-.44,2.187,2.187,0,0,0-1.345.382,1.4,1.4,0,0,0-.606.979q-.108.78.955,1.137l.755.208a4.864,4.864,0,0,1,2.191,1.038,1.982,1.982,0,0,1,.6,1.585,2.518,2.518,0,0,1-.548,1.461,3.132,3.132,0,0,1-1.328.95,4.442,4.442,0,0,1-1.768.3,3.5,3.5,0,0,1-2.357-.834,2.579,2.579,0,0,1-.9-2.1l1.5.008a1.592,1.592,0,0,0,.481,1.212,1.84,1.84,0,0,0,1.32.457A2.588,2.588,0,0,0,38.4,76.56,1.325,1.325,0,0,0,39.08,75.568ZM5.835,103.111H3V108h-1.6V95.914h4a4.736,4.736,0,0,1,3.142.93,3.345,3.345,0,0,1,1.1,2.706,3.254,3.254,0,0,1-.61,1.967,3.642,3.642,0,0,1-1.7,1.253l2.839,5.13v.1H8.458ZM3,101.808H5.445a2.762,2.762,0,0,0,1.888-.615,2.081,2.081,0,0,0,.7-1.647,2.191,2.191,0,0,0-.668-1.721,2.829,2.829,0,0,0-1.93-.607H3Zm12.36,6.358a3.924,3.924,0,0,1-2.972-1.2,4.452,4.452,0,0,1-1.146-3.208v-.282a5.39,5.39,0,0,1,.51-2.386,3.982,3.982,0,0,1,1.428-1.644,3.59,3.59,0,0,1,1.988-.594,3.364,3.364,0,0,1,2.723,1.154,5,5,0,0,1,.971,3.3v.639H12.775a3.193,3.193,0,0,0,.776,2.146,2.44,2.44,0,0,0,1.888.818,2.675,2.675,0,0,0,1.378-.332,3.462,3.462,0,0,0,.988-.88l.938.73A3.772,3.772,0,0,1,15.356,108.166Zm-.191-8.052a2.048,2.048,0,0,0-1.561.677,3.288,3.288,0,0,0-.78,1.9h4.5v-.116a2.925,2.925,0,0,0-.631-1.814A1.929,1.929,0,0,0,15.166,100.114Zm5.1,3.32a5.261,5.261,0,0,1,.979-3.324,3.333,3.333,0,0,1,5.063-.178V95.25h1.536V108H26.43l-.075-.963a3.127,3.127,0,0,1-2.565,1.129,3.068,3.068,0,0,1-2.544-1.278,5.321,5.321,0,0,1-.984-3.337Zm1.536.174A3.984,3.984,0,0,0,22.429,106a2.039,2.039,0,0,0,1.743.863,2.24,2.24,0,0,0,2.133-1.312v-4.125a2.257,2.257,0,0,0-2.117-1.27,2.049,2.049,0,0,0-1.76.872A4.386,4.386,0,0,0,21.8,103.609Zm12.152,4.557a3.924,3.924,0,0,1-2.972-1.2,4.452,4.452,0,0,1-1.146-3.208v-.282a5.39,5.39,0,0,1,.51-2.386,3.982,3.982,0,0,1,1.428-1.644,3.59,3.59,0,0,1,1.988-.594,3.364,3.364,0,0,1,2.723,1.154,5,5,0,0,1,.971,3.3v.639H31.369a3.193,3.193,0,0,0,.776,2.146,2.44,2.44,0,0,0,1.888.818,2.675,2.675,0,0,0,1.378-.332,3.462,3.462,0,0,0,.988-.88l.938.73A3.772,3.772,0,0,1,33.95,108.166Zm-.191-8.052a2.048,2.048,0,0,0-1.561.677,3.288,3.288,0,0,0-.78,1.9h4.5v-.116a2.925,2.925,0,0,0-.631-1.814A1.929,1.929,0,0,0,33.759,100.114Zm10.7,5.5a1.13,1.13,0,0,0-.469-.967,4.514,4.514,0,0,0-1.635-.594,7.731,7.731,0,0,1-1.851-.6,2.633,2.633,0,0,1-1.013-.83,1.986,1.986,0,0,1-.328-1.146,2.33,2.33,0,0,1,.934-1.868,3.647,3.647,0,0,1,2.386-.764,3.753,3.753,0,0,1,2.478.789,2.5,2.5,0,0,1,.95,2.017H44.368a1.386,1.386,0,0,0-.535-1.087,2.006,2.006,0,0,0-1.349-.457,2.1,2.1,0,0,0-1.312.365,1.15,1.15,0,0,0-.473.955.932.932,0,0,0,.44.838,5.413,5.413,0,0,0,1.59.54,8.283,8.283,0,0,1,1.864.614,2.718,2.718,0,0,1,1.058.859,2.112,2.112,0,0,1,.344,1.224,2.3,2.3,0,0,1-.963,1.93,4.039,4.039,0,0,1-2.5.726,4.523,4.523,0,0,1-1.909-.382,3.105,3.105,0,0,1-1.3-1.067,2.571,2.571,0,0,1-.469-1.482h1.536a1.59,1.59,0,0,0,.618,1.224,2.4,2.4,0,0,0,1.523.452,2.476,2.476,0,0,0,1.4-.353A1.084,1.084,0,0,0,44.459,105.618Zm12.974,0a1.13,1.13,0,0,0-.469-.967,4.514,4.514,0,0,0-1.635-.594,7.731,7.731,0,0,1-1.851-.6,2.633,2.633,0,0,1-1.013-.83,1.986,1.986,0,0,1-.328-1.146,2.33,2.33,0,0,1,.934-1.868,3.647,3.647,0,0,1,2.386-.764,3.753,3.753,0,0,1,2.478.789,2.5,2.5,0,0,1,.95,2.017H57.342a1.386,1.386,0,0,0-.535-1.087,2.006,2.006,0,0,0-1.349-.457,2.1,2.1,0,0,0-1.312.365,1.15,1.15,0,0,0-.473.955.932.932,0,0,0,.44.838,5.413,5.413,0,0,0,1.59.54,8.283,8.283,0,0,1,1.864.614,2.718,2.718,0,0,1,1.058.859,2.112,2.112,0,0,1,.344,1.224,2.3,2.3,0,0,1-.963,1.93,4.039,4.039,0,0,1-2.5.726,4.523,4.523,0,0,1-1.909-.382,3.105,3.105,0,0,1-1.3-1.067,2.571,2.571,0,0,1-.469-1.482h1.536a1.59,1.59,0,0,0,.618,1.224,2.4,2.4,0,0,0,1.523.452,2.476,2.476,0,0,0,1.4-.353A1.084,1.084,0,0,0,57.433,105.618Zm3.129-2.191a5.3,5.3,0,0,1,.519-2.374,3.87,3.87,0,0,1,1.444-1.627,3.932,3.932,0,0,1,2.113-.573,3.788,3.788,0,0,1,2.968,1.27,4.886,4.886,0,0,1,1.133,3.378v.108a5.351,5.351,0,0,1-.5,2.353,3.813,3.813,0,0,1-1.436,1.623,3.977,3.977,0,0,1-2.146.581A3.778,3.778,0,0,1,61.7,106.9a4.861,4.861,0,0,1-1.133-3.362Zm1.544.183a3.842,3.842,0,0,0,.693,2.4A2.349,2.349,0,0,0,66.514,106a4.2,4.2,0,0,0,.689-2.569,3.836,3.836,0,0,0-.7-2.395,2.23,2.23,0,0,0-1.864-.917,2.205,2.205,0,0,0-1.834.9A4.17,4.17,0,0,0,62.106,103.609Zm12.161,3.3a2.212,2.212,0,0,0,1.436-.5,1.752,1.752,0,0,0,.681-1.245h1.453a2.785,2.785,0,0,1-.531,1.469A3.5,3.5,0,0,1,76,107.751a3.772,3.772,0,0,1-1.731.415,3.7,3.7,0,0,1-2.918-1.224,4.877,4.877,0,0,1-1.083-3.349v-.257A5.407,5.407,0,0,1,70.748,101a3.667,3.667,0,0,1,1.382-1.585,3.926,3.926,0,0,1,2.129-.564,3.6,3.6,0,0,1,2.511.9,3.234,3.234,0,0,1,1.067,2.349H76.384a2.116,2.116,0,0,0-.66-1.432,2.053,2.053,0,0,0-1.465-.56,2.149,2.149,0,0,0-1.814.843,3.957,3.957,0,0,0-.643,2.436v.291a3.878,3.878,0,0,0,.639,2.391A2.16,2.16,0,0,0,74.267,106.913ZM81.231,108H79.7V99.019h1.536Zm-1.66-11.364a.917.917,0,0,1,.228-.631.857.857,0,0,1,.677-.257.87.87,0,0,1,.681.257.907.907,0,0,1,.232.631.877.877,0,0,1-.232.623.886.886,0,0,1-.681.249.872.872,0,0,1-.677-.249A.886.886,0,0,1,79.571,96.636ZM89.233,108a3.226,3.226,0,0,1-.216-.946,3.426,3.426,0,0,1-2.557,1.112,3.17,3.17,0,0,1-2.179-.751,2.43,2.43,0,0,1-.851-1.905,2.539,2.539,0,0,1,1.067-2.179,5.029,5.029,0,0,1,3-.776h1.494v-.706a1.725,1.725,0,0,0-.481-1.282,1.935,1.935,0,0,0-1.419-.477,2.239,2.239,0,0,0-1.378.415,1.223,1.223,0,0,0-.556,1H83.614a2.119,2.119,0,0,1,.477-1.3,3.258,3.258,0,0,1,1.295-.992,4.356,4.356,0,0,1,1.8-.365,3.551,3.551,0,0,1,2.432.776,2.8,2.8,0,0,1,.913,2.137V105.9a5.054,5.054,0,0,0,.315,1.967V108Zm-2.548-1.17a2.7,2.7,0,0,0,1.37-.374,2.259,2.259,0,0,0,.938-.971v-1.843h-1.2q-2.822,0-2.822,1.652a1.4,1.4,0,0,0,.481,1.129A1.85,1.85,0,0,0,86.685,106.83ZM94.6,108H93.068V95.25H94.6Zm6.184.166a3.924,3.924,0,0,1-2.972-1.2,4.452,4.452,0,0,1-1.146-3.208v-.282a5.39,5.39,0,0,1,.51-2.386,3.982,3.982,0,0,1,1.428-1.644,3.59,3.59,0,0,1,1.988-.594,3.364,3.364,0,0,1,2.723,1.154,5,5,0,0,1,.971,3.3v.639H98.207a3.193,3.193,0,0,0,.776,2.146,2.44,2.44,0,0,0,1.888.818,2.675,2.675,0,0,0,1.378-.332,3.462,3.462,0,0,0,.988-.88l.938.73A3.772,3.772,0,0,1,100.788,108.166Zm-.191-8.052a2.048,2.048,0,0,0-1.561.677,3.288,3.288,0,0,0-.78,1.9h4.5v-.116a2.925,2.925,0,0,0-.631-1.814A1.929,1.929,0,0,0,100.6,100.114Zm10.7,5.5a1.131,1.131,0,0,0-.469-.967,4.514,4.514,0,0,0-1.635-.594,7.731,7.731,0,0,1-1.851-.6,2.633,2.633,0,0,1-1.013-.83,1.986,1.986,0,0,1-.328-1.146,2.33,2.33,0,0,1,.934-1.868,3.647,3.647,0,0,1,2.386-.764,3.753,3.753,0,0,1,2.478.789,2.5,2.5,0,0,1,.95,2.017h-1.544a1.386,1.386,0,0,0-.535-1.087,2.006,2.006,0,0,0-1.349-.457,2.1,2.1,0,0,0-1.312.365,1.15,1.15,0,0,0-.473.955.932.932,0,0,0,.44.838,5.413,5.413,0,0,0,1.59.54,8.283,8.283,0,0,1,1.864.614,2.718,2.718,0,0,1,1.058.859,2.112,2.112,0,0,1,.344,1.224,2.3,2.3,0,0,1-.963,1.93,4.039,4.039,0,0,1-2.5.726,4.523,4.523,0,0,1-1.909-.382,3.105,3.105,0,0,1-1.3-1.067,2.571,2.571,0,0,1-.469-1.482h1.536a1.59,1.59,0,0,0,.618,1.224,2.4,2.4,0,0,0,1.523.452,2.476,2.476,0,0,0,1.4-.353A1.084,1.084,0,0,0,111.3,105.618Zm-101,28.547a4.447,4.447,0,0,1-1.415,2.959,4.638,4.638,0,0,1-3.167,1.042,4.259,4.259,0,0,1-3.432-1.536,6.178,6.178,0,0,1-1.291-4.109v-1.162a6.886,6.886,0,0,1,.6-2.963A4.5,4.5,0,0,1,3.3,126.433a4.75,4.75,0,0,1,2.557-.685,4.367,4.367,0,0,1,3.088,1.075,4.5,4.5,0,0,1,1.353,2.976h-1.6a3.472,3.472,0,0,0-.9-2.1,2.725,2.725,0,0,0-1.938-.649,2.851,2.851,0,0,0-2.395,1.13A5.187,5.187,0,0,0,2.59,131.4v1.171a5.332,5.332,0,0,0,.822,3.132,2.655,2.655,0,0,0,2.3,1.163,3.067,3.067,0,0,0,2.038-.6,3.34,3.34,0,0,0,.942-2.1Zm1.527-.739a5.3,5.3,0,0,1,.519-2.374,3.87,3.87,0,0,1,1.444-1.627,3.932,3.932,0,0,1,2.113-.573,3.788,3.788,0,0,1,2.968,1.27A4.886,4.886,0,0,1,20,133.5v.108a5.351,5.351,0,0,1-.5,2.353,3.813,3.813,0,0,1-1.436,1.623,3.977,3.977,0,0,1-2.146.581,3.778,3.778,0,0,1-2.959-1.27,4.861,4.861,0,0,1-1.133-3.362Zm1.544.183a3.842,3.842,0,0,0,.693,2.4A2.349,2.349,0,0,0,17.772,136a4.2,4.2,0,0,0,.689-2.569,3.836,3.836,0,0,0-.7-2.395,2.23,2.23,0,0,0-1.864-.917,2.205,2.205,0,0,0-1.834.9A4.17,4.17,0,0,0,13.364,133.609Zm10-4.59.042,1a3.317,3.317,0,0,1,2.665-1.162,2.568,2.568,0,0,1,2.565,1.444,3.4,3.4,0,0,1,1.166-1.046,3.445,3.445,0,0,1,1.7-.4q2.955,0,3,3.129V138H32.971v-5.927a2.062,2.062,0,0,0-.44-1.44,1.937,1.937,0,0,0-1.478-.477,2.036,2.036,0,0,0-1.419.51,2.071,2.071,0,0,0-.656,1.374V138H27.434v-5.885a1.713,1.713,0,0,0-1.917-1.959,2.055,2.055,0,0,0-2.067,1.287V138H21.914v-8.981Zm19,8.093a3.262,3.262,0,0,1-2.631,1.054,2.792,2.792,0,0,1-2.187-.834,3.611,3.611,0,0,1-.76-2.469v-5.844h1.536v5.8q0,2.042,1.66,2.042a2.3,2.3,0,0,0,2.341-1.312v-6.533h1.536V138H42.4Zm5.279-8.093.05,1.129a3.273,3.273,0,0,1,2.689-1.295q2.847,0,2.872,3.212V138H51.722v-5.943a2.068,2.068,0,0,0-.444-1.436,1.78,1.78,0,0,0-1.357-.465,2.216,2.216,0,0,0-1.312.4,2.706,2.706,0,0,0-.88,1.046V138H46.194v-8.981Zm9.6,8.981H55.707v-8.981h1.536Zm-1.66-11.364a.917.917,0,0,1,.228-.631.857.857,0,0,1,.677-.257.87.87,0,0,1,.681.257.907.907,0,0,1,.232.631.877.877,0,0,1-.232.623.886.886,0,0,1-.681.249.872.872,0,0,1-.677-.249A.886.886,0,0,1,55.582,126.636Zm3.744,6.8a5.261,5.261,0,0,1,.979-3.324,3.333,3.333,0,0,1,5.063-.178V125.25H66.9V138H65.493l-.075-.963a3.127,3.127,0,0,1-2.565,1.129,3.068,3.068,0,0,1-2.544-1.278,5.321,5.321,0,0,1-.984-3.337Zm1.536.174A3.984,3.984,0,0,0,61.492,136a2.039,2.039,0,0,0,1.743.863,2.24,2.24,0,0,0,2.133-1.312v-4.125a2.257,2.257,0,0,0-2.117-1.27,2.049,2.049,0,0,0-1.76.872A4.386,4.386,0,0,0,60.861,133.609ZM74.832,138a3.226,3.226,0,0,1-.216-.946,3.426,3.426,0,0,1-2.557,1.112,3.17,3.17,0,0,1-2.179-.751,2.43,2.43,0,0,1-.851-1.905,2.539,2.539,0,0,1,1.067-2.179,5.029,5.029,0,0,1,3-.776h1.494v-.706a1.725,1.725,0,0,0-.481-1.282,1.935,1.935,0,0,0-1.419-.477,2.239,2.239,0,0,0-1.378.415,1.223,1.223,0,0,0-.556,1H69.212a2.119,2.119,0,0,1,.477-1.3,3.258,3.258,0,0,1,1.295-.992,4.356,4.356,0,0,1,1.8-.365,3.551,3.551,0,0,1,2.432.776,2.8,2.8,0,0,1,.913,2.137V135.9a5.054,5.054,0,0,0,.315,1.967V138Zm-2.548-1.17a2.7,2.7,0,0,0,1.37-.374,2.259,2.259,0,0,0,.938-.971v-1.843h-1.2q-2.822,0-2.822,1.652a1.4,1.4,0,0,0,.481,1.129A1.85,1.85,0,0,0,72.283,136.83Zm5.877-3.4a5.261,5.261,0,0,1,.979-3.324,3.333,3.333,0,0,1,5.063-.178V125.25h1.536V138H84.328l-.075-.963a3.127,3.127,0,0,1-2.565,1.129,3.068,3.068,0,0,1-2.544-1.278,5.321,5.321,0,0,1-.984-3.337Zm1.536.174A3.984,3.984,0,0,0,80.327,136a2.039,2.039,0,0,0,1.743.863,2.24,2.24,0,0,0,2.133-1.312v-4.125a2.257,2.257,0,0,0-2.117-1.27,2.049,2.049,0,0,0-1.76.872A4.386,4.386,0,0,0,79.7,133.609Zm12.152,4.557a3.924,3.924,0,0,1-2.972-1.2,4.452,4.452,0,0,1-1.146-3.208v-.282a5.39,5.39,0,0,1,.51-2.386,3.982,3.982,0,0,1,1.428-1.644,3.59,3.59,0,0,1,1.988-.594,3.364,3.364,0,0,1,2.723,1.154,5,5,0,0,1,.971,3.3v.639H89.267a3.193,3.193,0,0,0,.776,2.146,2.44,2.44,0,0,0,1.888.818,2.675,2.675,0,0,0,1.378-.332,3.462,3.462,0,0,0,.988-.88l.938.73A3.772,3.772,0,0,1,91.848,138.166Zm-.191-8.052a2.048,2.048,0,0,0-1.561.677,3.288,3.288,0,0,0-.78,1.9h4.5v-.116a2.925,2.925,0,0,0-.631-1.814A1.928,1.928,0,0,0,91.657,130.114Zm10.7,5.5a1.131,1.131,0,0,0-.469-.967,4.514,4.514,0,0,0-1.635-.594,7.731,7.731,0,0,1-1.851-.6,2.633,2.633,0,0,1-1.013-.83,1.986,1.986,0,0,1-.328-1.146,2.33,2.33,0,0,1,.934-1.868,3.647,3.647,0,0,1,2.386-.764,3.753,3.753,0,0,1,2.478.789,2.5,2.5,0,0,1,.95,2.017h-1.544a1.386,1.386,0,0,0-.535-1.087,2.006,2.006,0,0,0-1.349-.457,2.1,2.1,0,0,0-1.312.365,1.15,1.15,0,0,0-.473.955.932.932,0,0,0,.44.838,5.413,5.413,0,0,0,1.59.54,8.283,8.283,0,0,1,1.864.614,2.718,2.718,0,0,1,1.058.859,2.112,2.112,0,0,1,.344,1.224,2.3,2.3,0,0,1-.963,1.93,4.039,4.039,0,0,1-2.5.726,4.523,4.523,0,0,1-1.909-.382,3.105,3.105,0,0,1-1.3-1.067,2.571,2.571,0,0,1-.469-1.482H98.29a1.59,1.59,0,0,0,.618,1.224,2.4,2.4,0,0,0,1.523.452,2.477,2.477,0,0,0,1.4-.353A1.084,1.084,0,0,0,102.357,135.618Zm10.708.3,2.225-6.9h1.569L113.638,138h-1.17l-3.254-8.981h1.569ZM120,138h-1.536v-8.981H120Zm-1.66-11.364a.917.917,0,0,1,.228-.631.857.857,0,0,1,.677-.257.87.87,0,0,1,.681.257.907.907,0,0,1,.232.631.877.877,0,0,1-.232.623.886.886,0,0,1-.681.249.872.872,0,0,1-.677-.249A.886.886,0,0,1,118.344,126.636Zm8.458,3.76a4.6,4.6,0,0,0-.755-.058,2.024,2.024,0,0,0-2.05,1.287V138h-1.536v-8.981h1.494l.025,1.038a2.391,2.391,0,0,1,2.142-1.2,1.569,1.569,0,0,1,.681.116Zm3.91-3.553v2.175h1.677v1.187h-1.677v5.577a1.247,1.247,0,0,0,.224.81.943.943,0,0,0,.764.27,3.718,3.718,0,0,0,.73-.1V138a4.478,4.478,0,0,1-1.179.165,1.912,1.912,0,0,1-1.552-.623,2.675,2.675,0,0,1-.523-1.768v-5.57h-1.635v-1.187h1.635v-2.175Zm9.015,10.268a3.262,3.262,0,0,1-2.631,1.054,2.792,2.792,0,0,1-2.187-.834,3.611,3.611,0,0,1-.76-2.469v-5.844h1.536v5.8q0,2.042,1.66,2.042a2.3,2.3,0,0,0,2.341-1.312v-6.533h1.536V138H139.76ZM149.1,138a3.226,3.226,0,0,1-.216-.946,3.426,3.426,0,0,1-2.557,1.112,3.17,3.17,0,0,1-2.179-.751,2.43,2.43,0,0,1-.851-1.905,2.539,2.539,0,0,1,1.067-2.179,5.029,5.029,0,0,1,3-.776h1.494v-.706a1.725,1.725,0,0,0-.481-1.282,1.935,1.935,0,0,0-1.419-.477,2.239,2.239,0,0,0-1.378.415,1.223,1.223,0,0,0-.556,1h-1.544a2.119,2.119,0,0,1,.477-1.3,3.258,3.258,0,0,1,1.295-.992,4.356,4.356,0,0,1,1.8-.365,3.551,3.551,0,0,1,2.432.776,2.8,2.8,0,0,1,.913,2.137V135.9a5.054,5.054,0,0,0,.315,1.967V138Zm-2.548-1.17a2.7,2.7,0,0,0,1.37-.374,2.259,2.259,0,0,0,.938-.971v-1.843h-1.2q-2.822,0-2.822,1.652a1.4,1.4,0,0,0,.481,1.129A1.85,1.85,0,0,0,146.55,136.83Zm7.919,1.17h-1.536V125.25h1.536Zm6.184.166a3.924,3.924,0,0,1-2.972-1.2,4.452,4.452,0,0,1-1.146-3.208v-.282a5.39,5.39,0,0,1,.51-2.386,3.982,3.982,0,0,1,1.428-1.644,3.59,3.59,0,0,1,1.988-.594,3.364,3.364,0,0,1,2.723,1.154,5,5,0,0,1,.971,3.3v.639h-6.084a3.193,3.193,0,0,0,.776,2.146,2.44,2.44,0,0,0,1.888.818,2.675,2.675,0,0,0,1.378-.332,3.462,3.462,0,0,0,.988-.88l.938.73A3.772,3.772,0,0,1,160.653,138.166Zm-.191-8.052a2.048,2.048,0,0,0-1.561.677,3.288,3.288,0,0,0-.78,1.9h4.5v-.116a2.925,2.925,0,0,0-.631-1.814A1.928,1.928,0,0,0,160.462,130.114Zm10.7,5.5a1.13,1.13,0,0,0-.469-.967,4.514,4.514,0,0,0-1.635-.594,7.731,7.731,0,0,1-1.851-.6,2.633,2.633,0,0,1-1.013-.83,1.986,1.986,0,0,1-.328-1.146,2.33,2.33,0,0,1,.934-1.868,3.647,3.647,0,0,1,2.386-.764,3.753,3.753,0,0,1,2.478.789,2.5,2.5,0,0,1,.95,2.017h-1.544a1.386,1.386,0,0,0-.535-1.087,2.006,2.006,0,0,0-1.349-.457,2.1,2.1,0,0,0-1.312.365,1.15,1.15,0,0,0-.473.955.932.932,0,0,0,.44.838,5.413,5.413,0,0,0,1.59.54,8.283,8.283,0,0,1,1.864.614,2.719,2.719,0,0,1,1.058.859,2.112,2.112,0,0,1,.344,1.224,2.3,2.3,0,0,1-.963,1.93,4.039,4.039,0,0,1-2.5.726,4.523,4.523,0,0,1-1.909-.382,3.105,3.105,0,0,1-1.3-1.067,2.571,2.571,0,0,1-.469-1.482h1.536a1.59,1.59,0,0,0,.618,1.224,2.4,2.4,0,0,0,1.523.452,2.476,2.476,0,0,0,1.4-.353A1.084,1.084,0,0,0,171.162,135.618Z" transform="translate(1044 608)" fill="#12263f"/>
      <path id="Path_841691" data-name="Path 841691" d="M.967,17V4.2H5.089a6.064,6.064,0,0,1,3.05.769,5.406,5.406,0,0,1,2.114,2.171,6.554,6.554,0,0,1,.769,3.142v.589a6.592,6.592,0,0,1-.743,3.151A5.429,5.429,0,0,1,8.187,16.2a5.93,5.93,0,0,1-3.01.8ZM4.052,6.585v8.042H5.124a2.4,2.4,0,0,0,2.039-.945,4.63,4.63,0,0,0,.712-2.808V10.32a4.592,4.592,0,0,0-.712-2.795,2.442,2.442,0,0,0-2.074-.94ZM15.592,17H12.621V7.49h2.971ZM12.445,5.038A1.322,1.322,0,0,1,12.9,4a1.724,1.724,0,0,1,1.187-.4,1.724,1.724,0,0,1,1.187.4,1.322,1.322,0,0,1,.457,1.037,1.322,1.322,0,0,1-.457,1.037,1.724,1.724,0,0,1-1.187.4,1.724,1.724,0,0,1-1.187-.4A1.322,1.322,0,0,1,12.445,5.038Zm4.623,7.137a6.421,6.421,0,0,1,.475-2.549,3.821,3.821,0,0,1,1.362-1.709,3.591,3.591,0,0,1,2.065-.6,2.855,2.855,0,0,1,2.32,1L23.4,7.49h2.689V16.64a4.009,4.009,0,0,1-.584,2.184,3.75,3.75,0,0,1-1.692,1.424,6.219,6.219,0,0,1-2.566.5,5.365,5.365,0,0,1-2.026-.4,3.657,3.657,0,0,1-1.5-1.028l1.239-1.74a2.716,2.716,0,0,0,2.18.976,1.764,1.764,0,0,0,1.969-2.021v-.3a2.781,2.781,0,0,1-2.153.94,3.437,3.437,0,0,1-2.812-1.332,5.517,5.517,0,0,1-1.072-3.564Zm2.971.185a3.383,3.383,0,0,0,.439,1.85,1.387,1.387,0,0,0,1.23.681,1.573,1.573,0,0,0,1.4-.642v-4a1.534,1.534,0,0,0-1.38-.65,1.4,1.4,0,0,0-1.239.708A3.858,3.858,0,0,0,20.039,12.359ZM30.894,17H27.923V7.49h2.971ZM27.747,5.038A1.322,1.322,0,0,1,28.2,4a1.943,1.943,0,0,1,2.373,0,1.322,1.322,0,0,1,.457,1.037,1.322,1.322,0,0,1-.457,1.037,1.943,1.943,0,0,1-2.373,0A1.322,1.322,0,0,1,27.747,5.038Zm8.42.088V7.49h1.564V9.547H36.167V13.9a1.111,1.111,0,0,0,.193.747,1.037,1.037,0,0,0,.765.211,4.345,4.345,0,0,0,.738-.053v2.118a5.466,5.466,0,0,1-1.67.255,3.1,3.1,0,0,1-2.259-.721,2.954,2.954,0,0,1-.729-2.188V9.547H31.992V7.49h1.213V5.126ZM44.253,17a3.344,3.344,0,0,1-.281-.853,2.754,2.754,0,0,1-2.285,1.028,3.374,3.374,0,0,1-2.285-.813,2.588,2.588,0,0,1-.94-2.043A2.66,2.66,0,0,1,39.6,11.981a5.821,5.821,0,0,1,3.322-.791h.914v-.5q0-1.316-1.134-1.316a.927.927,0,0,0-1.055,1.042H38.689a2.655,2.655,0,0,1,1.173-2.239,4.931,4.931,0,0,1,2.993-.86,4.323,4.323,0,0,1,2.874.888,3.086,3.086,0,0,1,1.081,2.435v4.21a4.311,4.311,0,0,0,.4,2V17ZM42.4,15.066a1.652,1.652,0,0,0,.918-.237,1.487,1.487,0,0,0,.523-.536V12.772h-.861q-1.547,0-1.547,1.389a.848.848,0,0,0,.272.655A.986.986,0,0,0,42.4,15.066ZM51.574,17H48.6V3.5h2.971ZM58,17.176a4.889,4.889,0,0,1-3.542-1.305,4.507,4.507,0,0,1-1.354-3.4v-.246a5.84,5.84,0,0,1,.541-2.575,3.955,3.955,0,0,1,1.578-1.727,4.763,4.763,0,0,1,2.461-.611,4.117,4.117,0,0,1,3.164,1.244,4.887,4.887,0,0,1,1.16,3.467v1.151H56.118a2.135,2.135,0,0,0,.694,1.257,2.066,2.066,0,0,0,1.389.457,2.662,2.662,0,0,0,2.2-.984l1.354,1.6a3.784,3.784,0,0,1-1.569,1.217A5.3,5.3,0,0,1,58,17.176ZM57.665,9.6q-1.3,0-1.547,1.723h2.988v-.229a1.467,1.467,0,0,0-.36-1.1A1.434,1.434,0,0,0,57.665,9.6Zm10.512,4.729a.684.684,0,0,0-.4-.606,6.016,6.016,0,0,0-1.5-.475A6.853,6.853,0,0,1,64.45,12.6a3.062,3.062,0,0,1-1.1-.971,2.319,2.319,0,0,1-.378-1.31,2.628,2.628,0,0,1,1.081-2.158,4.453,4.453,0,0,1,2.83-.848,4.934,4.934,0,0,1,3.023.853,2.666,2.666,0,0,1,1.143,2.241H68.08q0-1.143-1.2-1.143a1.194,1.194,0,0,0-.782.259.8.8,0,0,0-.316.646.737.737,0,0,0,.387.642,3.654,3.654,0,0,0,1.235.4,10.671,10.671,0,0,1,1.49.378,2.706,2.706,0,0,1,2.145,2.646,2.491,2.491,0,0,1-1.156,2.118,5.068,5.068,0,0,1-2.993.817,5.172,5.172,0,0,1-2.18-.439,3.645,3.645,0,0,1-1.494-1.2,2.707,2.707,0,0,1-.536-1.591h2.769a1.145,1.145,0,0,0,.439.962,1.808,1.808,0,0,0,1.081.3,1.422,1.422,0,0,0,.91-.246A.787.787,0,0,0,68.177,14.328Z" transform="translate(895 619)" fill="#12263f"/>
      <circle id="Ellipse_5875" data-name="Ellipse 5875" cx="67" cy="67" r="67" transform="translate(733 611)" fill="#fff"/>
      <path id="Path_841690" data-name="Path 841690" d="M11.013,6.585H7.172V17H4.087V6.585H.316V4.2h10.7Zm6.346,3.586-.976-.07a1.752,1.752,0,0,0-1.793.879V17H11.628V7.49h2.777l.1,1.222a2.294,2.294,0,0,1,2.083-1.4,2.888,2.888,0,0,1,.826.105ZM23.52,17a3.344,3.344,0,0,1-.281-.853,2.754,2.754,0,0,1-2.285,1.028,3.374,3.374,0,0,1-2.285-.813,2.588,2.588,0,0,1-.94-2.043,2.66,2.66,0,0,1,1.143-2.338,5.821,5.821,0,0,1,3.322-.791h.914v-.5q0-1.316-1.134-1.316a.927.927,0,0,0-1.055,1.042H17.956a2.655,2.655,0,0,1,1.173-2.239,4.931,4.931,0,0,1,2.993-.86A4.323,4.323,0,0,1,25,8.2a3.086,3.086,0,0,1,1.081,2.435v4.21a4.311,4.311,0,0,0,.4,2V17Zm-1.854-1.934a1.652,1.652,0,0,0,.918-.237,1.487,1.487,0,0,0,.523-.536V12.772h-.861q-1.547,0-1.547,1.389a.848.848,0,0,0,.272.655A.986.986,0,0,0,21.665,15.066Zm5.678-2.892a5.809,5.809,0,0,1,.976-3.56,3.211,3.211,0,0,1,2.725-1.3,2.731,2.731,0,0,1,2.145,1V3.5h2.971V17H33.5l-.149-1.02a2.8,2.8,0,0,1-2.32,1.2,3.205,3.205,0,0,1-2.689-1.3A5.993,5.993,0,0,1,27.343,12.175Zm2.962.185q0,2.531,1.477,2.531a1.458,1.458,0,0,0,1.406-.826V10.443A1.419,1.419,0,0,0,31.8,9.6q-1.371,0-1.485,2.215ZM40.966,17H38V7.49h2.971ZM37.819,5.038A1.322,1.322,0,0,1,38.276,4a1.943,1.943,0,0,1,2.373,0,1.322,1.322,0,0,1,.457,1.037,1.322,1.322,0,0,1-.457,1.037,1.943,1.943,0,0,1-2.373,0A1.322,1.322,0,0,1,37.819,5.038Zm8.991,9.853a1.317,1.317,0,0,0,.967-.338,1.241,1.241,0,0,0,.334-.945h2.777a3.288,3.288,0,0,1-1.121,2.566,4.168,4.168,0,0,1-2.887,1,4.22,4.22,0,0,1-3.27-1.3,5.125,5.125,0,0,1-1.2-3.6v-.123A5.792,5.792,0,0,1,42.948,9.6a3.872,3.872,0,0,1,1.534-1.7,4.573,4.573,0,0,1,2.373-.593A4.116,4.116,0,0,1,49.8,8.343a3.647,3.647,0,0,1,1.09,2.786H48.111A1.626,1.626,0,0,0,47.751,10a1.244,1.244,0,0,0-.967-.4q-1.151,0-1.345,1.468a10.357,10.357,0,0,0-.062,1.283,4.068,4.068,0,0,0,.343,1.986A1.187,1.187,0,0,0,46.811,14.891ZM55.266,17H52.295V7.49h2.971ZM52.119,5.038A1.322,1.322,0,0,1,52.576,4a1.943,1.943,0,0,1,2.373,0,1.322,1.322,0,0,1,.457,1.037,1.322,1.322,0,0,1-.457,1.037,1.943,1.943,0,0,1-2.373,0A1.322,1.322,0,0,1,52.119,5.038Zm4.6,7.119a5.613,5.613,0,0,1,.554-2.536A3.96,3.96,0,0,1,58.86,7.912a4.791,4.791,0,0,1,2.435-.6,4.373,4.373,0,0,1,3.366,1.323,5.076,5.076,0,0,1,1.23,3.6v.105a4.925,4.925,0,0,1-1.235,3.529,4.384,4.384,0,0,1-3.344,1.305,4.434,4.434,0,0,1-3.261-1.217,4.761,4.761,0,0,1-1.327-3.3Zm2.962.185a3.538,3.538,0,0,0,.413,1.934,1.376,1.376,0,0,0,1.222.615q1.582,0,1.617-2.435v-.3q0-2.558-1.635-2.558-1.485,0-1.608,2.206ZM69.917,7.49l.1,1.116a3.225,3.225,0,0,1,2.716-1.292,2.713,2.713,0,0,1,2.219.888,4.226,4.226,0,0,1,.76,2.672V17H72.738V11a1.6,1.6,0,0,0-.29-1.059A1.342,1.342,0,0,0,71.394,9.6a1.413,1.413,0,0,0-1.292.686V17H67.14V7.49ZM82.705,17a3.344,3.344,0,0,1-.281-.853,2.754,2.754,0,0,1-2.285,1.028,3.374,3.374,0,0,1-2.285-.813,2.588,2.588,0,0,1-.94-2.043,2.66,2.66,0,0,1,1.143-2.338,5.821,5.821,0,0,1,3.322-.791h.914v-.5q0-1.316-1.134-1.316A.927.927,0,0,0,80.1,10.413H77.142a2.655,2.655,0,0,1,1.173-2.239,4.931,4.931,0,0,1,2.993-.86,4.323,4.323,0,0,1,2.874.888,3.086,3.086,0,0,1,1.081,2.435v4.21a4.311,4.311,0,0,0,.4,2V17Zm-1.854-1.934a1.652,1.652,0,0,0,.918-.237,1.487,1.487,0,0,0,.523-.536V12.772h-.861q-1.547,0-1.547,1.389a.848.848,0,0,0,.272.655A.986.986,0,0,0,80.851,15.066ZM90.026,17H87.056V3.5h2.971Zm6.425.176a4.889,4.889,0,0,1-3.542-1.305,4.507,4.507,0,0,1-1.354-3.4v-.246A5.84,5.84,0,0,1,92.1,9.652a3.955,3.955,0,0,1,1.578-1.727,4.763,4.763,0,0,1,2.461-.611A4.117,4.117,0,0,1,99.3,8.558a4.887,4.887,0,0,1,1.16,3.467v1.151H94.57a2.135,2.135,0,0,0,.694,1.257,2.066,2.066,0,0,0,1.389.457,2.662,2.662,0,0,0,2.2-.984l1.354,1.6a3.784,3.784,0,0,1-1.569,1.217A5.3,5.3,0,0,1,96.451,17.176ZM96.117,9.6q-1.3,0-1.547,1.723h2.988v-.229a1.467,1.467,0,0,0-.36-1.1A1.434,1.434,0,0,0,96.117,9.6Zm10.512,4.729a.684.684,0,0,0-.4-.606,6.016,6.016,0,0,0-1.5-.475A6.853,6.853,0,0,1,102.9,12.6a3.062,3.062,0,0,1-1.1-.971,2.319,2.319,0,0,1-.378-1.31,2.628,2.628,0,0,1,1.081-2.158,4.453,4.453,0,0,1,2.83-.848,4.934,4.934,0,0,1,3.023.853,2.666,2.666,0,0,1,1.143,2.241h-2.971q0-1.143-1.2-1.143a1.194,1.194,0,0,0-.782.259.8.8,0,0,0-.316.646.737.737,0,0,0,.387.642,3.654,3.654,0,0,0,1.235.4,10.671,10.671,0,0,1,1.49.378,2.706,2.706,0,0,1,2.145,2.646,2.491,2.491,0,0,1-1.156,2.118,5.068,5.068,0,0,1-2.993.817,5.172,5.172,0,0,1-2.18-.439,3.645,3.645,0,0,1-1.494-1.2,2.707,2.707,0,0,1-.536-1.591H103.9a1.145,1.145,0,0,0,.439.962,1.808,1.808,0,0,0,1.081.3,1.422,1.422,0,0,0,.91-.246A.787.787,0,0,0,106.629,14.328Z" transform="translate(616 619)" fill="#12263f"/>
      <circle id="Ellipse_5876" data-name="Ellipse 5876" cx="48" cy="48" r="48" transform="translate(752 630)" fill="#fff198"/>
      <circle id="Ellipse_5877" data-name="Ellipse 5877" cx="4" cy="4" r="4" transform="translate(1030 615)" fill="#33ece0"/>
      <circle id="Ellipse_5878" data-name="Ellipse 5878" cx="4" cy="4" r="4" transform="translate(1030 644)" fill="#33ece0"/>
      <circle id="Ellipse_5879" data-name="Ellipse 5879" cx="4" cy="4" r="4" transform="translate(562 626)" fill="#33ece0"/>
      <circle id="Ellipse_5880" data-name="Ellipse 5880" cx="4" cy="4" r="4" transform="translate(562 656)" fill="#33ece0"/>
      <circle id="Ellipse_5881" data-name="Ellipse 5881" cx="4" cy="4" r="4" transform="translate(562 686)" fill="#33ece0"/>
      <circle id="Ellipse_5882" data-name="Ellipse 5882" cx="4" cy="4" r="4" transform="translate(562 716)" fill="#33ece0"/>
      <circle id="Ellipse_5883" data-name="Ellipse 5883" cx="4" cy="4" r="4" transform="translate(1030 674)" fill="#33ece0"/>
      <circle id="Ellipse_5884" data-name="Ellipse 5884" cx="4" cy="4" r="4" transform="translate(1030 704)" fill="#33ece0"/>
      <circle id="Ellipse_5885" data-name="Ellipse 5885" cx="4" cy="4" r="4" transform="translate(1030 735)" fill="#33ece0"/>
      <g id="Group_1071445" data-name="Group 1071445" transform="translate(619 656)">
        <g id="Group_1071445-2" data-name="Group 1071445" clip-path="url(#clip-path)">
          <path id="Path_608498" data-name="Path 608498" d="M87.16,3.313c0-.637-.034-1.254.009-1.866A1.5,1.5,0,0,1,88.313.056a1.415,1.415,0,0,1,1.6.568,1.912,1.912,0,0,1,.316,1c.031,2.043.023,4.087.02,6.13a1.544,1.544,0,1,1-3.084.14c-.031-.432-.007-.867-.007-1.387-.843.121-1.611.228-2.378.341-1.675.246-3.351.488-5.025.745-.811.124-1.616.291-2.427.416-2.04.314-4.083.612-6.124.924-1.876.286-3.749.595-5.626.87-1.549.228-3.1.41-4.653.636-2.031.3-4.06.607-6.088.922-1.685.262-3.368.543-5.052.811-1.8.286-3.6.58-5.4.844-2.5.367-5.006.7-7.506,1.066-1.37.2-2.731.467-4.1.678-1.737.268-3.479.5-5.217.765s-3.5.557-5.247.822c-1.5.227-3,.435-4.494.642-.313.043-.437.178-.407.506a7.942,7.942,0,0,1,.007,1.079c-.011.248.062.337.324.334q3.143-.028,6.286-.032,30.949,0,61.9,0a10.175,10.175,0,0,1,4.372.735,7.716,7.716,0,0,1,4.432,5.218,10.932,10.932,0,0,1,.286,2.75q.024,26.259,0,52.517a7.856,7.856,0,0,1-5.047,7.678,4.193,4.193,0,0,1-.886.252.433.433,0,0,0-.413.519,13.589,13.589,0,0,1-.04,1.885,4.624,4.624,0,0,1-4.169,4.131c-1.135.1-2.284.087-3.426.086-1.31,0-2.624.016-3.928-.083a4.681,4.681,0,0,1-4.226-4.493c-.014-.462-.021-.926-.009-1.388.007-.251-.073-.331-.33-.331q-5.823.012-11.647.006H23.8c-.036.675-.051,1.353-.113,2.026a4.587,4.587,0,0,1-4.152,4.175c-1.612.117-3.235.09-4.854.086A19.082,19.082,0,0,1,11.76,94.5,4.536,4.536,0,0,1,8.033,90.56a13.743,13.743,0,0,1-.077-1.806c0-.312-.071-.41-.394-.438A8.008,8.008,0,0,1,.01,80.158q-.017-26.567,0-53.134a7.912,7.912,0,0,1,5.868-7.805,10.975,10.975,0,0,1,1.709-.275c.293-.029.381-.1.382-.411,0-1.618-.032-3.241.068-4.854a4.408,4.408,0,0,1,2.735-3.8,4.722,4.722,0,0,1,6.583,3.754c.027.219.072.323.327.282,1.963-.315,3.927-.619,5.891-.926q3.841-.6,7.683-1.2c2.015-.31,4.031-.61,6.048-.913,2.067-.311,4.135-.616,6.2-.931,2.029-.31,4.056-.633,6.085-.943s4.033-.607,6.05-.906c2.119-.314,4.24-.614,6.357-.935,1.978-.3,3.952-.631,5.93-.929,1.522-.229,3.051-.41,4.571-.644,2.536-.39,5.067-.815,7.6-1.207,2.205-.341,4.414-.655,6.621-.982.113-.017.224-.045.443-.089M47.491,85.181v0q19.9,0,39.8.008a4.379,4.379,0,0,0,2.36-.706,4.787,4.787,0,0,0,2.279-4.175c.048-1.335.009-2.673.009-4.009q0-24.677-.011-49.353a4.818,4.818,0,0,0-1.3-3.409,4.673,4.673,0,0,0-3.547-1.5q-30.891,0-61.782.006c-5.772,0-11.544.013-17.316-.013a4.771,4.771,0,0,0-4.7,3.645A13.714,13.714,0,0,0,3.1,28.551q-.011,25.8,0,51.59a7.518,7.518,0,0,0,.3,1.811,4.678,4.678,0,0,0,4.169,3.235c.912-.019,1.825-.006,2.738-.006H47.491M11.075,88.363c0,.479.011.925,0,1.371a1.63,1.63,0,0,0,1.692,1.824q3.061.042,6.123,0a1.652,1.652,0,0,0,1.735-1.567c.054-.4.014-.82.045-1.229.023-.3-.071-.407-.382-.4-.9.017-1.8,0-2.7,0H11.075m64.955.029c0,.493-.007.953,0,1.414a1.633,1.633,0,0,0,1.723,1.755q3.085.039,6.17,0a1.53,1.53,0,0,0,1.548-1.674c-.008-.4-.006-.8.014-1.195.012-.245-.054-.338-.319-.337-2.905.01-5.81.008-8.715.01-.125,0-.25.015-.422.025M14.176,18.861a.516.516,0,0,0,.041-.114q-.009-2.467-.024-4.933a.781.781,0,0,0-.079-.331,1.739,1.739,0,0,0-1.93-.846,1.662,1.662,0,0,0-1.106,1.586c.038,1.4.014,2.8.016,4.2,0,.138,0,.275,0,.437Z" transform="translate(0 0)"/>
          <path id="Path_608499" data-name="Path 608499" d="M54.393,134.373H17.216c-.912,0-1.826-.013-2.738.006a4.678,4.678,0,0,1-4.168-3.236,7.5,7.5,0,0,1-.3-1.812Q9.983,103.537,10,77.742a13.714,13.714,0,0,1,.184-2.874,4.771,4.771,0,0,1,4.7-3.645c5.772.026,11.544.013,17.316.013q30.891,0,61.781-.006a4.674,4.674,0,0,1,3.547,1.5,4.82,4.82,0,0,1,1.3,3.409q.024,24.676.011,49.353c0,1.337.039,2.675-.008,4.01a4.788,4.788,0,0,1-2.279,4.176,4.385,4.385,0,0,1-2.36.706q-19.9-.017-39.8-.008Zm.032-41.084v0h13.5q11.009,0,22.018,0a9.619,9.619,0,0,0,1.919-.091,4.776,4.776,0,0,0,3.734-4.646q.034-4.684-.006-9.368a4.8,4.8,0,0,0-3.257-4.512,7.243,7.243,0,0,0-2.511-.287H18.867c-.347,0-.694.006-1.041.028a4.786,4.786,0,0,0-3.4,1.674,4.839,4.839,0,0,0-1.184,3.333c0,2.454,0,4.909,0,7.363,0,.758,0,1.518.053,2.272a4.7,4.7,0,0,0,4.53,4.223c.384-.017.771.01,1.157.01H54.426M34.676,131.2q8.214,0,16.429,0a6.314,6.314,0,0,0,1-.078,4.789,4.789,0,0,0,3.878-4.439q.017-12.7,0-25.41a4.62,4.62,0,0,0-2.856-4.345,4.859,4.859,0,0,0-2.175-.419q-10.162,0-20.324,0-6.286,0-12.573,0a4.559,4.559,0,0,0-2.649.8,4.927,4.927,0,0,0-2.163,4.355q.02,12.223.01,24.446a6.339,6.339,0,0,0,.1,1.189,4.782,4.782,0,0,0,4.745,3.892q8.292.006,16.584,0m24.535-17.342A17.386,17.386,0,1,0,76.849,96.524a17.449,17.449,0,0,0-17.638,17.335" transform="translate(-6.903 -49.192)" fill="#fff"/>
          <path id="Path_608500" data-name="Path 608500" d="M35.794,285.655h6.515c.9,0,1.8.013,2.7,0,.311-.006.4.1.382.4-.031.409.009.825-.045,1.229a1.652,1.652,0,0,1-1.735,1.567q-3.061.04-6.123,0a1.629,1.629,0,0,1-1.691-1.824c.013-.446,0-.892,0-1.371" transform="translate(-24.719 -197.293)" fill="#fff"/>
          <path id="Path_608501" data-name="Path 608501" d="M245.789,285.68c.172-.011.3-.025.422-.025,2.905,0,5.81,0,8.715-.011.265,0,.331.093.319.338-.019.4-.022.8-.014,1.195a1.53,1.53,0,0,1-1.548,1.674q-3.085.032-6.17,0a1.633,1.633,0,0,1-1.723-1.755c-.009-.461,0-.922,0-1.414" transform="translate(-169.759 -197.288)" fill="#fff"/>
          <path id="Path_608502" data-name="Path 608502" d="M38.909,46.978H35.827c0-.162,0-.3,0-.437,0-1.4.022-2.8-.016-4.2a1.661,1.661,0,0,1,1.106-1.586,1.739,1.739,0,0,1,1.93.846.781.781,0,0,1,.079.331q.018,2.467.024,4.933a.516.516,0,0,1-.041.114" transform="translate(-24.733 -28.118)" fill="#fff"/>
          <path id="Path_608503" data-name="Path 608503" d="M61.686,100.345H26.25c-.386,0-.772-.026-1.157-.01a4.7,4.7,0,0,1-4.53-4.223c-.057-.754-.051-1.514-.053-2.272-.006-2.454,0-4.909,0-7.364a4.84,4.84,0,0,1,1.185-3.333,4.787,4.787,0,0,1,3.4-1.674c.346-.022.694-.028,1.041-.028q35.476,0,70.952,0a7.241,7.241,0,0,1,2.51.287,4.8,4.8,0,0,1,3.257,4.512q.035,4.684.006,9.368a4.776,4.776,0,0,1-3.734,4.646,9.619,9.619,0,0,1-1.919.091q-11.009.005-22.018,0h-13.5Zm4.734-11.03c.03-.083.041-.106.047-.131.226-.908.714-1.351,1.509-1.37.831-.02,1.278.324,1.544,1.247.077.267.21.29.443.288,2.236-.017,4.472-.03,6.709-.027.76,0,.76.024,1.056-.644a1.532,1.532,0,0,1,1.654-.86,1.345,1.345,0,0,1,1.2,1.164c.043.287.156.367.452.365q3.412-.027,6.824-.012c.63,0,.63.032.9-.545a1.517,1.517,0,0,1,1.694-.981,1.465,1.465,0,0,1,1.287,1.282c.041.192.111.244.3.243,2.313-.013,4.627-.016,6.941-.022h.66c.006-.135.014-.222.014-.309,0-.951-.016-1.9-.011-2.852A1.47,1.47,0,0,0,98.191,84.6c-.282-.015-.565-.011-.848-.011q-30.327,0-60.655,0c-.3,0-.371.106-.369.379q.011,1.985-.007,3.971c0,.306.1.391.4.389,2.249-.011,4.5-.007,6.748-.007h.747c.182-.766.505-1.355,1.31-1.493a1.568,1.568,0,0,1,1.9,1.219c.064.2.131.286.364.285,2.236-.013,4.473-.01,6.709-.011h.835l.044-.2a1.486,1.486,0,0,1,1.355-1.31,1.435,1.435,0,0,1,1.654,1.012.9.9,0,0,0,.126.278c.1.1.234.241.354.241,2.275,0,4.549-.012,6.824-.023h.737M36.333,97.229h.423q30.368,0,60.735,0a6.276,6.276,0,0,0,.921-.056,1.372,1.372,0,0,0,1.23-1.462c0-.925-.015-1.851.011-2.775.01-.334-.058-.435-.414-.434q-3.605.013-7.21-.028c-.283,0-.306.128-.334.34a1.538,1.538,0,0,1-1.66,1.227A1.634,1.634,0,0,1,88.659,92.8a.393.393,0,0,0-.438-.32c-2.4.009-4.807,0-7.21-.009-.245,0-.4.007-.426.327a1.462,1.462,0,0,1-1.329,1.243,1.557,1.557,0,0,1-1.533-.887c-.274-.664-.274-.664-1.015-.649-.077,0-.154,0-.231,0-2.172-.012-4.344-.02-6.516-.041-.274,0-.407.048-.455.355a1.347,1.347,0,0,1-.745,1.018,1.525,1.525,0,0,1-2.246-1.029c-.048-.2-.076-.338-.356-.335-2.223.023-4.447.05-6.67.015-.613-.01-.989.065-1.2.721a1.423,1.423,0,0,1-1.505.836,1.545,1.545,0,0,1-1.37-1.221c-.047-.25-.129-.332-.393-.331q-3.625.017-7.249,0c-.2,0-.294.041-.346.25a1.676,1.676,0,0,1-1.567,1.307,1.567,1.567,0,0,1-1.544-1.308c-.049-.192-.122-.272-.337-.271-2.442.015-4.884.019-7.325.028-.1,0-.194.018-.315.03Zm-3.2-7.916V84.619c-.1-.01-.172-.024-.246-.024q-3.331-.007-6.663-.011c-.359,0-.72-.01-1.078.011A1.463,1.463,0,0,0,23.724,86.1c0,.95,0,1.9-.021,2.849-.007.287.075.37.367.369,2.785-.01,5.572,0,8.358,0h.7m-.006,7.9a.9.9,0,0,0,.033-.15c0-1.425-.009-2.849,0-4.274,0-.31-.177-.279-.374-.279l-8.319,0h-.739c0,1.108.016,2.17-.007,3.231a1.391,1.391,0,0,0,.472,1.086,1.63,1.63,0,0,0,1.213.389q3.736.015,7.472.013c.075,0,.15-.011.247-.019" transform="translate(-14.164 -56.248)"/>
          <path id="Path_608504" data-name="Path 608504" d="M41.924,187.658q-8.292,0-16.583,0a4.782,4.782,0,0,1-4.745-3.892,6.309,6.309,0,0,1-.1-1.189q-.008-12.223-.01-24.446a4.925,4.925,0,0,1,2.163-4.355,4.557,4.557,0,0,1,2.649-.8q6.286,0,12.572-.005,10.162,0,20.324,0a4.859,4.859,0,0,1,2.175.419,4.62,4.62,0,0,1,2.856,4.345q.035,12.7,0,25.41a4.79,4.79,0,0,1-3.878,4.439,6.314,6.314,0,0,1-1,.078q-8.215.007-16.429,0M41.8,156.146q-5.552,0-11.1,0c-1.927,0-3.855.009-5.782.04a1.32,1.32,0,0,0-1.2,1.277c0,1.259,0,2.519,0,3.778q0,10.911,0,21.821a1.626,1.626,0,0,0,.266.81,1.733,1.733,0,0,0,1.675.643l31.542,0c.424,0,.849.015,1.272,0a1.506,1.506,0,0,0,1.622-1.718c-.011-2.39-.027-4.78-.027-7.17q0-8.885.015-17.771a1.578,1.578,0,0,0-1.94-1.706H41.8" transform="translate(-14.151 -105.649)" fill="#727997"/>
          <path id="Path_608505" data-name="Path 608505" d="M169.1,170.351a17.387,17.387,0,1,1,17.055,17.333A17.427,17.427,0,0,1,169.1,170.351m23.073,13.055c-.031-.148-.061-.27-.082-.393a1.571,1.571,0,0,1,.781-1.736,1.532,1.532,0,0,1,1.8.3.359.359,0,0,0,.587,0c.821-.812,1.637-1.628,2.458-2.439a.393.393,0,0,0,.01-.644,1.431,1.431,0,0,1-.435-1.335,1.528,1.528,0,0,1,1.877-1.168c.143.024.4-.021.444-.11a12.409,12.409,0,0,0,1.041-3.925c-.124-.041-.235-.071-.34-.115a1.617,1.617,0,0,1-1.128-1.385,1.486,1.486,0,0,1,.907-1.483c.565-.293.6-.3.453-.912-.25-1.031-.548-2.05-.831-3.073-.078-.28-.239-.345-.524-.228a1.055,1.055,0,0,1-.593.049,1.6,1.6,0,0,1-1.3-1.177,1.389,1.389,0,0,1,.531-1.5c.157-.134.15-.234.019-.381-.334-.374-.63-.783-.986-1.133-.61-.6-1.254-1.165-1.9-1.759-.1.122-.152.18-.2.236a1.591,1.591,0,0,1-2.58-.279,2.043,2.043,0,0,1-.092-1.318.347.347,0,0,0-.153-.294c-1.155-.337-2.318-.647-3.474-.981-.334-.1-.451.022-.524.336a1.372,1.372,0,0,1-1.091,1.071,1.4,1.4,0,0,1-1.526-.476,4.933,4.933,0,0,1-.456-.941,3.543,3.543,0,0,0-.563.064c-.966.254-1.932.508-2.889.79-.62.183-.614.2-.552.841a1.485,1.485,0,0,1-.774,1.518,1.677,1.677,0,0,1-1.805-.227c-.1-.091-.2-.187-.3-.285a16.767,16.767,0,0,0-2.72,2.652c-.212.266-.228.414.026.659a1.47,1.47,0,0,1-.363,2.374,1.563,1.563,0,0,1-1.514.04,14.465,14.465,0,0,0-1.023,3.522.623.623,0,0,0,.449.812,1.434,1.434,0,0,1,.531,2.4,2,2,0,0,1-.74.463c-.269.1-.309.245-.279.491a13.621,13.621,0,0,0,.955,3.476c.1.242.2.293.46.213a1.47,1.47,0,0,1,1.76.666,1.362,1.362,0,0,1-.222,1.752.46.46,0,0,0,.007.749c.77.772,1.542,1.542,2.306,2.32.284.29.511.263.809-.009a1.493,1.493,0,0,1,2.308.386,1.515,1.515,0,0,1,.1,1.2c-.067.243-.019.373.241.45.8.237,1.582.523,2.386.737a13.936,13.936,0,0,0,1.494.238c.178-.938.643-1.43,1.352-1.5.887-.084,1.288.237,1.8,1.466a13.283,13.283,0,0,0,4.074-1.058" transform="translate(-116.796 -105.683)"/>
          <path id="Path_608506" data-name="Path 608506" d="M101.711,96.333c-.252,0-.494,0-.736,0-2.275.011-4.549.026-6.824.023-.12,0-.254-.14-.354-.241a.907.907,0,0,1-.126-.278,1.435,1.435,0,0,0-1.654-1.012,1.486,1.486,0,0,0-1.355,1.31l-.045.2h-.834c-2.236,0-4.473,0-6.709.011-.234,0-.3-.086-.364-.285a1.567,1.567,0,0,0-1.9-1.219c-.8.138-1.128.727-1.31,1.493h-.748c-2.249,0-4.5,0-6.748.007-.3,0-.407-.084-.4-.39.014-1.324.014-2.647.007-3.971,0-.272.068-.379.369-.379q30.327.008,60.655,0c.283,0,.566,0,.848.011a1.47,1.47,0,0,1,1.45,1.556c-.005.951.007,1.9.011,2.852,0,.087-.007.173-.014.308h-.66c-2.313.006-4.627.009-6.94.022-.194,0-.264-.051-.3-.243a1.466,1.466,0,0,0-1.287-1.282,1.518,1.518,0,0,0-1.694.981c-.265.577-.265.548-.895.545q-3.412-.016-6.824.012c-.3,0-.409-.078-.452-.365a1.345,1.345,0,0,0-1.2-1.164,1.531,1.531,0,0,0-1.654.86c-.3.668-.3.646-1.056.644-2.236,0-4.472.01-6.709.027-.233,0-.366-.022-.443-.288-.266-.924-.714-1.268-1.544-1.247-.795.019-1.283.462-1.509,1.37-.006.025-.017.048-.047.131" transform="translate(-49.455 -63.267)" fill="#fff"/>
          <path id="Path_608507" data-name="Path 608507" d="M71.67,121.854v-4.693c.12-.012.217-.03.314-.03,2.442-.009,4.884-.013,7.326-.028.214,0,.287.079.337.271a1.567,1.567,0,0,0,1.544,1.308,1.677,1.677,0,0,0,1.567-1.307c.053-.209.145-.251.346-.25q3.625.011,7.25,0c.263,0,.346.081.393.331a1.545,1.545,0,0,0,1.37,1.221,1.422,1.422,0,0,0,1.505-.836c.216-.656.592-.731,1.2-.721,2.223.036,4.447.008,6.67-.015.28,0,.308.138.356.335a1.525,1.525,0,0,0,2.246,1.029,1.345,1.345,0,0,0,.745-1.018c.048-.307.181-.358.455-.355,2.172.022,4.344.03,6.516.041.077,0,.154,0,.231,0,.74-.015.74-.015,1.014.649a1.557,1.557,0,0,0,1.533.887,1.462,1.462,0,0,0,1.329-1.243c.026-.32.181-.328.426-.327,2.4.011,4.807.018,7.209.009a.394.394,0,0,1,.438.32,1.634,1.634,0,0,0,1.375,1.237,1.539,1.539,0,0,0,1.66-1.227c.029-.212.052-.343.335-.34q3.6.035,7.21.028c.356,0,.423.1.414.434-.027.925-.014,1.85-.011,2.775a1.373,1.373,0,0,1-1.23,1.462,6.279,6.279,0,0,1-.921.056q-30.368,0-60.735,0H71.67" transform="translate(-49.501 -80.873)" fill="#fff"/>
          <path id="Path_608508" data-name="Path 608508" d="M40.264,96.329h-.7c-2.786,0-5.572-.006-8.358,0-.292,0-.374-.082-.367-.369.021-.949.02-1.9.021-2.849a1.463,1.463,0,0,1,1.417-1.505c.358-.021.719-.012,1.078-.011l6.663.011c.074,0,.149.014.246.024Z" transform="translate(-21.3 -63.264)" fill="#fff"/>
          <path id="Path_608509" data-name="Path 608509" d="M40.293,121.917c-.1.008-.173.019-.247.019q-3.736,0-7.472-.013a1.63,1.63,0,0,1-1.213-.389,1.391,1.391,0,0,1-.472-1.086c.023-1.062.007-2.124.007-3.231h.739l8.319,0c.2,0,.376-.032.374.279-.011,1.425,0,2.849,0,4.274a.9.9,0,0,1-.033.15" transform="translate(-21.334 -80.957)" fill="#fff"/>
          <path id="Path_608510" data-name="Path 608510" d="M49.007,163.249H65.353a1.578,1.578,0,0,1,1.94,1.706q-.01,8.886-.015,17.771c0,2.39.016,4.78.027,7.17a1.506,1.506,0,0,1-1.622,1.718c-.423.018-.848,0-1.272,0l-31.543,0a1.733,1.733,0,0,1-1.675-.643,1.629,1.629,0,0,1-.266-.81q-.017-10.911,0-21.821c0-1.26,0-2.519,0-3.778a1.32,1.32,0,0,1,1.2-1.276c1.927-.032,3.854-.038,5.782-.04q5.552-.008,11.1,0m11.9,10.146c.011.2.025.319.025.44q0,5.03.01,10.061a13.677,13.677,0,0,0,.075,1.577A1.5,1.5,0,0,0,62.1,186.8a1.428,1.428,0,0,0,1.669-.565,2.622,2.622,0,0,0,.32-1.27c.018-4.934.008-9.869,0-14.8,0-.282-.025-.564-.046-.845a1.526,1.526,0,0,0-1.061-1.3,1.309,1.309,0,0,0-1.444.362c-.137.116-.265.243-.393.37q-2.347,2.342-4.693,4.684c-.077.077-.164.144-.3.264-1.5-1.524-2.976-3.029-4.46-4.524a9.836,9.836,0,0,0-1.056-.953,1.216,1.216,0,0,0-1.568-.027,1.871,1.871,0,0,0-.863,1.668q-.011,7.478.008,14.957a3,3,0,0,0,.277,1.144,1.489,1.489,0,0,0,1.718.857,1.56,1.56,0,0,0,1.192-1.345,8.27,8.27,0,0,0,.026-.885q.009-5.359.017-10.716c0-.141.018-.282.033-.5.139.123.207.179.27.24q1.567,1.54,3.133,3.081a1.6,1.6,0,0,0,2.63.028c.683-.661,1.349-1.34,2.027-2.007.435-.428.878-.848,1.37-1.323M37.16,179.027h.407c1.928,0,3.856.009,5.783,0a1.654,1.654,0,0,0,1.71-1.455,1.516,1.516,0,0,0-1.151-1.646,3.66,3.66,0,0,0-.954-.09q-2.737-.008-5.474.009c-.228,0-.317-.043-.316-.294.007-1.336.01-2.673-.019-4.008-.008-.386.122-.458.48-.455q2.911.026,5.821,0a1.561,1.561,0,0,0,1.636-1.587,1.672,1.672,0,0,0-1.683-1.574q-3.894-.01-7.788,0a1.58,1.58,0,0,0-1.531,1.316,5.75,5.75,0,0,0-.071.843q-.006,7.266,0,14.532a6.96,6.96,0,0,0,.066.96,1.417,1.417,0,0,0,1.484,1.278,1.482,1.482,0,0,0,1.534-1.241,4.123,4.123,0,0,0,.066-.689c0-1.567,0-3.135,0-4.7,0-.383,0-.766,0-1.194" transform="translate(-21.356 -112.751)" fill="#fff"/>
          <path id="Path_608511" data-name="Path 608511" d="M199.4,190.494a13.284,13.284,0,0,1-4.074,1.058c-.512-1.228-.912-1.549-1.8-1.466-.708.067-1.173.559-1.351,1.5a13.906,13.906,0,0,1-1.494-.238c-.8-.215-1.588-.5-2.386-.737-.26-.077-.308-.207-.241-.45a1.514,1.514,0,0,0-.1-1.2,1.493,1.493,0,0,0-2.308-.386c-.3.272-.525.3-.809.009-.763-.778-1.536-1.548-2.306-2.32a.46.46,0,0,1-.007-.749,1.362,1.362,0,0,0,.222-1.752,1.471,1.471,0,0,0-1.76-.666c-.26.08-.361.029-.46-.213a13.611,13.611,0,0,1-.955-3.476c-.031-.246.009-.391.279-.492a2,2,0,0,0,.74-.463,1.434,1.434,0,0,0-.531-2.4.623.623,0,0,1-.449-.812,14.464,14.464,0,0,1,1.023-3.522,1.562,1.562,0,0,0,1.513-.04,1.469,1.469,0,0,0,.363-2.374c-.254-.245-.238-.393-.026-.659A16.77,16.77,0,0,1,185.209,166c.1.1.2.194.3.285a1.677,1.677,0,0,0,1.806.227,1.485,1.485,0,0,0,.774-1.518c-.062-.637-.068-.659.552-.841.958-.282,1.924-.537,2.889-.79a3.54,3.54,0,0,1,.563-.064,4.918,4.918,0,0,0,.456.941,1.4,1.4,0,0,0,1.526.476,1.372,1.372,0,0,0,1.09-1.071c.073-.314.19-.432.524-.336,1.156.334,2.319.644,3.474.981a.348.348,0,0,1,.152.294,2.042,2.042,0,0,0,.092,1.318,1.591,1.591,0,0,0,2.58.279c.049-.056.1-.114.2-.236.644.594,1.288,1.159,1.9,1.759.356.35.652.759.986,1.133.131.147.138.247-.019.381a1.389,1.389,0,0,0-.531,1.5,1.6,1.6,0,0,0,1.3,1.177,1.056,1.056,0,0,0,.593-.049c.285-.117.446-.052.524.228.283,1.023.581,2.042.831,3.073.149.616.112.62-.453.912a1.486,1.486,0,0,0-.907,1.483,1.617,1.617,0,0,0,1.127,1.385c.105.043.216.073.341.115a12.406,12.406,0,0,1-1.041,3.925c-.042.089-.3.135-.444.11a1.527,1.527,0,0,0-1.877,1.168,1.43,1.43,0,0,0,.435,1.335.393.393,0,0,1-.01.644c-.821.812-1.637,1.628-2.458,2.439a.359.359,0,0,1-.587,0,1.533,1.533,0,0,0-1.8-.3,1.571,1.571,0,0,0-.781,1.736c.021.123.051.246.082.393m2.192-12.7a7.9,7.9,0,1,0-8.356,7.48,7.855,7.855,0,0,0,8.356-7.48" transform="translate(-124.024 -112.772)" fill="#fff"/>
          <path id="Path_608512" data-name="Path 608512" d="M99.489,183.816c-.493.475-.935.895-1.371,1.322-.678.667-1.344,1.346-2.027,2.007a1.6,1.6,0,0,1-2.63-.028q-1.565-1.542-3.133-3.081c-.062-.062-.131-.117-.27-.241-.015.213-.032.354-.033.5q-.009,5.359-.017,10.716a8.191,8.191,0,0,1-.026.885,1.561,1.561,0,0,1-1.192,1.345,1.49,1.49,0,0,1-1.718-.857,2.989,2.989,0,0,1-.277-1.145q-.027-7.478-.008-14.957a1.873,1.873,0,0,1,.862-1.669,1.217,1.217,0,0,1,1.568.027,9.8,9.8,0,0,1,1.056.954c1.484,1.5,2.959,3,4.46,4.524.138-.12.225-.188.3-.264q2.348-2.341,4.694-4.684c.127-.127.256-.254.393-.37a1.308,1.308,0,0,1,1.444-.362,1.527,1.527,0,0,1,1.062,1.3c.021.281.045.563.045.845.006,4.934.016,9.869,0,14.8a2.614,2.614,0,0,1-.32,1.27,1.428,1.428,0,0,1-1.669.565,1.5,1.5,0,0,1-1.085-1.323,13.74,13.74,0,0,1-.074-1.577q-.012-5.031-.01-10.061c0-.122-.013-.244-.025-.44" transform="translate(-59.939 -123.173)"/>
          <path id="Path_608513" data-name="Path 608513" d="M44.055,189.46c0,.428,0,.811,0,1.194,0,1.568,0,3.135,0,4.7a4.123,4.123,0,0,1-.066.689,1.482,1.482,0,0,1-1.534,1.241,1.417,1.417,0,0,1-1.484-1.278,6.958,6.958,0,0,1-.066-.96q-.006-7.266,0-14.532a5.749,5.749,0,0,1,.071-.843,1.58,1.58,0,0,1,1.531-1.316q3.894-.007,7.788,0a1.672,1.672,0,0,1,1.683,1.574,1.561,1.561,0,0,1-1.636,1.587q-2.911.025-5.821,0c-.358,0-.489.068-.48.455.029,1.336.026,2.672.019,4.009,0,.251.088.3.316.294q2.737-.017,5.474-.009a3.66,3.66,0,0,1,.954.09A1.516,1.516,0,0,1,51.956,188a1.654,1.654,0,0,1-1.71,1.455c-1.928.012-3.856,0-5.783,0h-.407" transform="translate(-28.251 -123.184)"/>
          <path id="Path_608514" data-name="Path 608514" d="M215.526,191.883a7.9,7.9,0,1,1-15.762-.943,7.9,7.9,0,0,1,15.762.943m-3.213-.326a4.54,4.54,0,0,0-4.657-4.8,4.773,4.773,0,0,0-.053,9.546c2.413.042,4.974-2.042,4.71-4.75" transform="translate(-137.953 -126.858)"/>
          <path id="Path_608515" data-name="Path 608515" d="M219.3,198.451c.264,2.708-2.3,4.791-4.71,4.749a4.773,4.773,0,0,1,.053-9.547,4.541,4.541,0,0,1,4.657,4.8m-6.171-.028a1.468,1.468,0,0,0,1.5,1.547,1.554,1.554,0,0,0,.019-3.108,1.467,1.467,0,0,0-1.52,1.561" transform="translate(-144.937 -133.753)" fill="#fff"/>
          <path id="Path_608516" data-name="Path 608516" d="M220.446,205.587a1.467,1.467,0,0,1,1.52-1.561,1.554,1.554,0,0,1-.019,3.108,1.468,1.468,0,0,1-1.5-1.547" transform="translate(-152.257 -140.916)"/>
        </g>
      </g>
      <g id="Group_1071446" data-name="Group 1071446" transform="translate(890 668.854)">
        <g id="Group_1071447" data-name="Group 1071447" clip-path="url(#clip-path-2)">
          <path id="Path_608517" data-name="Path 608517" d="M85.567,77.819H9.834A3.922,3.922,0,0,1,5.913,73.9V13.2A3.922,3.922,0,0,1,9.834,9.275H85.567A3.921,3.921,0,0,1,89.488,13.2V73.9a3.921,3.921,0,0,1-3.921,3.921" transform="translate(-4.246 -6.66)" fill="#fff"/>
          <path id="Path_608518" data-name="Path 608518" d="M76.343,66.94c.437.764.854,1.482,1.26,2.206a.56.56,0,0,0,.562.316c1.1-.014,2.2,0,3.3,0a1.626,1.626,0,0,0,1.764-1.774q0-24.5,0-48.992V18.3H3.376v.367q0,24.531,0,49.062A1.627,1.627,0,0,0,5.116,69.46q6.89,0,13.778,0a1.9,1.9,0,0,1,1.868.942,1.592,1.592,0,0,1-.938,2.294,3.041,3.041,0,0,1-.862.131q-6.766.012-13.532.005A5.142,5.142,0,0,1,.462,69.791a5.4,5.4,0,0,1-.457-2.429Q0,45.009,0,22.657,0,14.064,0,5.471A5.065,5.065,0,0,1,3.182.431,9.878,9.878,0,0,1,5.405.009a1.665,1.665,0,0,1,.281,0H80.971a5.58,5.58,0,0,1,3.455.959A4.917,4.917,0,0,1,86.532,4.54c.049.488.072.981.073,1.472q.005,30.681,0,61.363A5.213,5.213,0,0,1,84.3,71.969a5.446,5.446,0,0,1-3.027.859c-.477.013-.955,0-1.512,0,.184.327.333.6.488.866.657,1.134,1.327,2.26,1.972,3.4a1.6,1.6,0,0,1-.656,2.44q-4.54,2.63-9.094,5.236c-.649.374-1.3.746-1.939,1.133a1.715,1.715,0,0,1-2.677-.636c-1.353-2.3-2.679-4.613-4.014-6.923q-.851-1.473-1.689-2.955c-.1-.177-.166-.231-.372-.107-1.042.628-2.084,1.259-3.151,1.841a1.644,1.644,0,0,1-2.53-1.407c-.047-.77-.027-1.545-.036-2.317,0-.173,0-.347,0-.572H55.6q-11.194,0-22.389,0a2.028,2.028,0,0,1-1.605-.562,1.624,1.624,0,0,1,.623-2.629,3.672,3.672,0,0,1,1.17-.175q11.089-.015,22.178-.007h.476c.01-.134.025-.236.025-.338q-.017-7.485-.037-14.971c0-.51.11-.506-.514-.507q-3.075-.005-6.151,0a2.135,2.135,0,0,1-1.261-.362,1.668,1.668,0,0,1-.681-1.785,1.588,1.588,0,0,1,1.538-1.206c.527-.015,1.054,0,1.582,0q11.212,0,22.424.01a2.568,2.568,0,0,1,1.206.25,1.479,1.479,0,0,1,.711,1.722,1.669,1.669,0,0,1-1.33,1.3,2.905,2.905,0,0,1-.731.072q-4.077.008-8.154.006a.937.937,0,0,0-.459.1c.2.12.405.243.61.361q5.461,3.143,10.922,6.285c1.165.671,2.33,1.343,3.488,2.027a1.581,1.581,0,0,1,.839,1.226,1.611,1.611,0,0,1-.889,1.657c-.835.495-1.682.97-2.524,1.455-.1.057-.2.117-.325.193m6.889-52.049V14.6q0-4.745,0-9.489A1.621,1.621,0,0,0,81.5,3.381H5.128A1.631,1.631,0,0,0,3.377,5.137q0,4.692,0,9.383v.37ZM59.452,54.813V72.8c.056,0,.07,0,.078,0,.706-.413,1.413-.824,2.116-1.242a1.67,1.67,0,0,1,2.308.432,5.524,5.524,0,0,1,.374.593q2.576,4.449,5.149,8.9c.174.3.354.6.537.905.96-.553,1.89-1.092,2.822-1.626q2.724-1.563,5.453-3.117c.222-.126.277-.247.142-.469-.188-.31-.355-.632-.537-.946q-2.61-4.51-5.219-9.02a1.583,1.583,0,0,1,.569-2.307c.4-.26.833-.474,1.248-.715.177-.1.344-.221.58-.375l-15.621-9" transform="translate(0 0)"/>
          <path id="Path_608519" data-name="Path 608519" d="M64.719,110.041a17.908,17.908,0,1,1-17.97-17.865,17.909,17.909,0,0,1,17.97,17.865m-6.471,8.945A13.251,13.251,0,0,0,60.67,114.5,14.53,14.53,0,0,0,46.736,95.5,14.535,14.535,0,0,0,32.91,114.378a13.226,13.226,0,0,0,2.438,4.581c1.81-2.1,1.166-2.338,6.313-5.29-.094-.12-.186-.238-.277-.357a7.094,7.094,0,0,1-1.411-4.464,8.48,8.48,0,0,1,.766-3.953,6.81,6.81,0,0,1,7.312-3.6,6.678,6.678,0,0,1,5.25,4.645,9.169,9.169,0,0,1,.361,3.049A7.2,7.2,0,0,1,52.3,113.23c-.1.151-.228.289-.377.478a13.631,13.631,0,0,1,6.32,5.278M46.8,124.6c.985-.117,1.979-.184,2.952-.362a13.713,13.713,0,0,0,5.862-2.64c.158-.12.246-.2.111-.416a11.2,11.2,0,0,0-2.313-2.758,10.017,10.017,0,0,0-8.513-2.2A9.71,9.71,0,0,0,38.032,121c-.25.414-.258.418.143.708A14.68,14.68,0,0,0,46.8,124.6m-3.432-16.008a4.365,4.365,0,0,0,.368,2.289,3.474,3.474,0,0,0,3.906,1.737,3.416,3.416,0,0,0,2.644-3.412c-.021-.456,0-.913,0-1.37a3.459,3.459,0,0,0-6.915.194c.011.187,0,.374,0,.562" transform="translate(-20.754 -66.188)"/>
          <path id="Path_608520" data-name="Path 608520" d="M183.58,92.019h13.563a1.713,1.713,0,0,1,1.9,1.888q.016,3.882,0,7.765a1.624,1.624,0,0,1-1.59,1.784,3.461,3.461,0,0,1-.456.019q-13.475,0-26.949,0a4.756,4.756,0,0,1-.8-.069,1.516,1.516,0,0,1-1.273-1.431c-.032-1.264-.026-2.529-.028-3.793,0-1.382.033-2.765,0-4.146a1.883,1.883,0,0,1,2.075-2.018c4.521.013,9.042.006,13.563.006Zm-12.245,8.057h24.311V95.367H171.335Z" transform="translate(-120.593 -66.074)"/>
          <path id="Path_608521" data-name="Path 608521" d="M183.638,149.608q6.763,0,13.526,0a1.912,1.912,0,0,1,1.634.645,1.634,1.634,0,0,1-.514,2.438,2.814,2.814,0,0,1-1.142.28q-13.508.023-27.017.011a1.9,1.9,0,0,1-1.989-1.346,1.6,1.6,0,0,1,1.21-1.949,4.443,4.443,0,0,1,.872-.077q6.71-.007,13.42,0" transform="translate(-120.698 -107.428)"/>
          <path id="Path_608522" data-name="Path 608522" d="M86.59,248.128a1.674,1.674,0,0,1,1.661-1.648,1.669,1.669,0,0,1,.152,3.333,1.7,1.7,0,0,1-1.813-1.685" transform="translate(-62.177 -176.988)"/>
          <path id="Path_608523" data-name="Path 608523" d="M91.831,23.5H11.976v-.37q0-4.691,0-9.383a1.631,1.631,0,0,1,1.752-1.756H90.1a1.621,1.621,0,0,1,1.733,1.735q0,4.745,0,9.489ZM64.489,19.331v.023q6.484,0,12.967,0c2.343,0,4.686.021,7.028.012a1.608,1.608,0,0,0,1.524-2.048A1.84,1.84,0,0,0,84.015,16q-19.328,0-38.657,0a7.021,7.021,0,0,0-.98.058,1.72,1.72,0,0,0-1.505,1.746,1.682,1.682,0,0,0,1.761,1.54c.246,0,.492-.017.738-.017H64.489m-44.1.033A1.653,1.653,0,0,0,22.1,17.7a1.676,1.676,0,0,0-1.63-1.683,1.767,1.767,0,0,0-1.691,1.652,1.7,1.7,0,0,0,1.615,1.7m9.1,0a1.656,1.656,0,0,0,1.693-1.646,1.654,1.654,0,1,0-3.308,0,1.637,1.637,0,0,0,1.615,1.647" transform="translate(-8.599 -8.609)" fill="#fff"/>
          <path id="Path_608524" data-name="Path 608524" d="M210.872,194.415l15.621,9c-.236.153-.4.272-.58.375-.414.241-.846.455-1.248.715a1.583,1.583,0,0,0-.569,2.307q2.6,4.517,5.219,9.02c.182.314.349.636.537.946.135.222.08.343-.142.469q-2.732,1.549-5.453,3.117c-.932.535-1.862,1.073-2.822,1.626-.183-.309-.363-.605-.537-.905q-2.575-4.449-5.149-8.9a5.524,5.524,0,0,0-.374-.593,1.67,1.67,0,0,0-2.308-.432c-.7.418-1.41.829-2.116,1.242-.009.005-.023,0-.078,0Z" transform="translate(-151.419 -139.602)" fill="#fff"/>
          <path id="Path_608525" data-name="Path 608525" d="M66.75,127.443a13.631,13.631,0,0,0-6.32-5.278c.15-.189.272-.327.377-.478a7.2,7.2,0,0,0,1.357-4.238A9.169,9.169,0,0,0,61.8,114.4a6.678,6.678,0,0,0-5.25-4.645,6.81,6.81,0,0,0-7.312,3.6,8.48,8.48,0,0,0-.766,3.953,7.1,7.1,0,0,0,1.411,4.464c.091.119.184.237.277.357-5.147,2.951-4.5,3.19-6.313,5.289a13.223,13.223,0,0,1-2.438-4.581,14.565,14.565,0,0,1,27.817-8.65,14.214,14.214,0,0,1-.057,8.773,13.251,13.251,0,0,1-2.423,4.484" transform="translate(-29.256 -74.645)" fill="#fff"/>
          <path id="Path_608526" data-name="Path 608526" d="M69.6,185.365a14.679,14.679,0,0,1-8.622-2.89c-.4-.29-.393-.294-.143-.708a9.711,9.711,0,0,1,6.865-4.781,10.017,10.017,0,0,1,8.513,2.2,11.2,11.2,0,0,1,2.313,2.758c.135.219.046.3-.111.416A13.715,13.715,0,0,1,72.557,185c-.974.178-1.968.244-2.952.362" transform="translate(-43.561 -126.956)" fill="#fff"/>
          <path id="Path_608527" data-name="Path 608527" d="M80.181,139.95c0-.187.01-.375,0-.562a3.459,3.459,0,0,1,6.915-.194c0,.457-.017.914,0,1.37a3.416,3.416,0,0,1-2.644,3.412,3.474,3.474,0,0,1-3.906-1.737,4.365,4.365,0,0,1-.368-2.289" transform="translate(-57.569 -97.55)" fill="#fff"/>
          <rect id="Rectangle_377366" data-name="Rectangle 377366" width="24.311" height="4.709" transform="translate(50.743 29.293)" fill="#fff"/>
          <path id="Path_608528" data-name="Path 608528" d="M143.171,29.554H124.054c-.246,0-.492.014-.738.017a1.682,1.682,0,0,1-1.761-1.54,1.72,1.72,0,0,1,1.505-1.746,7.065,7.065,0,0,1,.98-.058q19.328,0,38.657,0a1.84,1.84,0,0,1,1.994,1.317,1.608,1.608,0,0,1-1.524,2.048c-2.343.009-4.686-.011-7.028-.012q-6.484,0-12.967,0v-.023" transform="translate(-87.281 -18.831)"/>
          <path id="Path_608529" data-name="Path 608529" d="M37.712,29.609a1.7,1.7,0,0,1-1.615-1.7,1.767,1.767,0,0,1,1.692-1.652,1.676,1.676,0,0,1,1.63,1.683,1.653,1.653,0,0,1-1.707,1.669" transform="translate(-25.92 -18.854)"/>
          <path id="Path_608530" data-name="Path 608530" d="M69.973,29.711a1.637,1.637,0,0,1-1.615-1.647,1.654,1.654,0,1,1,3.308,0,1.656,1.656,0,0,1-1.693,1.646" transform="translate(-49.085 -18.956)"/>
        </g>
      </g>
      <g id="Mask_Group_80" data-name="Mask Group 80" transform="translate(0 -8)" clip-path="url(#clip-path-3)">
        <g id="Group_1071449" data-name="Group 1071449" transform="translate(766.208 645.617)">
          <g id="Group_1071448" data-name="Group 1071448" transform="translate(0 0)" clip-path="url(#clip-path-4)">
            <path id="Path_608531" data-name="Path 608531" d="M31.028,25.409s-9.983.778-16.82,7.971S2.26,53.6,1.673,55.413-2.6,66.289,4.834,71.024c0,0,3.129,1.455,10.041,2.093,0,0,.006,10.07-.365,14.845s-1.4,11.948-1.4,11.948H59.867s.422-10.9.377-15.912-.171-10.466-.171-10.466,5.021-4.082,4.8-9.979a83.4,83.4,0,0,0-3.516-21.437c-2.32-7-5.466-12.257-11.135-14.726a34.15,34.15,0,0,0-9.761-2.36Z" transform="translate(0.036 3.72)" fill="#b0c0d2"/>
            <path id="Path_608532" data-name="Path 608532" d="M24.759,47.481l-6.431-2.992s-3.618-.563-5.065,1.664c0,0-4.288.574-4.161,3.85,0,0,3.216-.308,4.913.593s4.716,2.927,4.716,2.927S22.2,48.7,24.759,47.481" transform="translate(1.352 6.603)" fill="#fff"/>
            <path id="Path_608533" data-name="Path 608533" d="M32.174,51.38s1.307-2.893,4.709-1.088c0,0,1.7-1.618,4.932,0a3.257,3.257,0,0,1,3.535.391,20.465,20.465,0,0,1,3.006,3.812,2.151,2.151,0,0,1-2.116,2.839,2.237,2.237,0,0,1-2.366,2.465,3.763,3.763,0,0,1-3.568-2.131s-.44,2.2-2.249,2.088a2.044,2.044,0,0,1-2.2-2,8.96,8.96,0,0,0,.026-2.589c-.278-.724-2.11-3.634-3.712-3.779" transform="translate(4.782 7.367)" fill="#fff"/>
            <path id="Path_608534" data-name="Path 608534" d="M39.485,49.607A7.266,7.266,0,0,0,34.418,47.6a4.986,4.986,0,0,0-4.343,3.014l2.412,1.232s.772-1.531,1.754-1.716a7.226,7.226,0,0,1,2.738.427,3.724,3.724,0,0,1,2.712-.835Z" transform="translate(4.47 7.074)" fill="#1a1a1a"/>
            <path id="Path_608535" data-name="Path 608535" d="M36.432,19.221s4.024,1.809,4.77-2.13-4.232-3.349-4.232-3.349L29.677,9.108a36.761,36.761,0,0,1-4.158-3.527L23.476,16.076s-1.787,8.129,4.306,8.35l-.17,3.873s-2.783,7.812.948,7.843,8.194-7.324,8.24-7.769.139-8.687.139-8.687Z" transform="translate(3.453 0.829)" fill="#fff"/>
            <path id="Path_608536" data-name="Path 608536" d="M51.262,33.609s1.035-3.09-1-4.893-5.589-2.394-6.06-4.884,1.51-6.532,2.989-9.872,1.394-6.843-.941-8.263S39.991,2.581,38.37,2.608c0,0-3.415-2.742-7-2.341s-6.19.706-7.68,3.523a10.149,10.149,0,0,0,.4,9.555L25.6,6.153s5.826,6.267,11.421,8.206a10.093,10.093,0,0,1,2.549.266,3.038,3.038,0,0,1,1.662,3.494,3.378,3.378,0,0,1-4.211,2.362l.08,7.988A31.724,31.724,0,0,1,44.73,30.1a53.261,53.261,0,0,1,6.532,3.507" transform="translate(3.371 0.034)" fill="#1a1a1a"/>
            <path id="Path_608537" data-name="Path 608537" d="M25.559,21.814s-1.92,2.362-.169,4.371l2.01-.3.3-3.707Z" transform="translate(3.664 3.242)" fill="#3a3a3a"/>
            <path id="Path_608538" data-name="Path 608538" d="M25.6,6.141s5.58,6,11.061,8.073c-1.6-1.291-7.643-6.3-8.8-9.1S30.054.682,30.955.3c-3.367.381-5.832.77-7.263,3.477a10.147,10.147,0,0,0,.4,9.554Z" transform="translate(3.371 0.045)" fill="#fff"/>
            <path id="Path_608539" data-name="Path 608539" d="M25.559,21.814s-1.92,2.362-.169,4.371l1.157-.171c-.853-1.2-.185-3.565-.038-4.036Z" transform="translate(3.664 3.242)" fill="#fff"/>
            <path id="Path_608540" data-name="Path 608540" d="M58.252,57.956a8.928,8.928,0,0,0-9.207,1.67c-4.482,3.842-5.179,9.167-2.506,11.933,0,0,5.757-.842,8.71-4.731a16.655,16.655,0,0,0,3-8.872" transform="translate(6.684 8.523)" fill="#fff"/>
            <path id="Path_608541" data-name="Path 608541" d="M29.637,24.764c-.609,0-1.192-.015-1.647-.033a6.609,6.609,0,0,1-2.548-.53,3.946,3.946,0,0,1-2.192-3.1,21.207,21.207,0,0,1,.229-6.994c.262-1.818,1.744-8.682,1.8-8.816.5.415-.937,6.976-1.169,8.577a21.7,21.7,0,0,0-.278,7.124,3.391,3.391,0,0,0,1.86,2.675,6.021,6.021,0,0,0,2.327.476,33.609,33.609,0,0,0,3.4-.02,2.015,2.015,0,0,1-1.779.641" transform="translate(3.424 0.786)" fill="#1a1a1a"/>
            <path id="Path_608542" data-name="Path 608542" d="M36.942,14.131c-10.006-5.3-12.265-9.02-12.357-9.176.528-.261,2.811,3.455,12.495,8.624.069.5-.033.552-.138.552" transform="translate(3.654 0.734)" fill="#1a1a1a"/>
            <path id="Path_608543" data-name="Path 608543" d="M30.894,11.329c-.227-.067-.4.014-.571.843-.2.926.026,1.121.238,1.139s.458-.242.533-.911.1-.984-.2-1.072" transform="translate(4.495 1.681)" fill="#1a1a1a"/>
            <path id="Path_608544" data-name="Path 608544" d="M25.515,10.469c-.226-.075-.4,0-.6.824-.226.918-.011,1.121.2,1.146s.465-.227.564-.894.132-.979-.163-1.076" transform="translate(3.689 1.552)" fill="#1a1a1a"/>
            <path id="Path_608545" data-name="Path 608545" d="M24.544,9.019c.245-.807.923-1.108,2.119-.626a4.717,4.717,0,0,0-1.957.577.291.291,0,0,1-.162.049" transform="translate(3.648 1.213)" fill="#1a1a1a"/>
            <path id="Path_608546" data-name="Path 608546" d="M36.492,18.985a3.543,3.543,0,0,1-1.914-.6,4.281,4.281,0,0,1,1.733,0,2.813,2.813,0,0,0,2.943-2.583,2.773,2.773,0,0,0-2.583-2.943,2.839,2.839,0,0,0-1.576.371,1.4,1.4,0,0,1,1.614-.957,3.356,3.356,0,0,1,3.131,3.568,3.362,3.362,0,0,1-3.348,3.137" transform="translate(5.139 1.824)" fill="#1a1a1a"/>
            <path id="Path_608547" data-name="Path 608547" d="M36.919,17.355c-.207-.085-2.053-1.931-2.053-1.931.063-.464,2.541-1.848,2.541-1.848.288.511-1.852,1.708-1.852,1.708l1.57,1.57c-.055.472-.132.5-.207.5" transform="translate(5.182 2.018)" fill="#1a1a1a"/>
            <path id="Path_608548" data-name="Path 608548" d="M28.347,34a5.018,5.018,0,0,1-.948-.091,1.643,1.643,0,0,1-1.153-.838c-1.121-1.961.507-6.754.686-7.268l.289-3.843c.585.045.294,3.926.294,3.926-.033.126-1.786,5.1-.76,6.9a1.065,1.065,0,0,0,.757.552c5.063.979,8.628-7.512,8.665-7.6.4.57-2.814,8.265-7.83,8.265" transform="translate(3.843 3.264)" fill="#1a1a1a"/>
            <path id="Path_608549" data-name="Path 608549" d="M28.27,18.382a3.067,3.067,0,0,1-1.175-.261c.861-.278,1.4-.26,1.83-.478a2.212,2.212,0,0,0,.955-1.331c.563.18.287,1.351-.681,1.852a2.012,2.012,0,0,1-.928.218" transform="translate(4.027 2.424)" fill="#1a1a1a"/>
            <path id="Path_608550" data-name="Path 608550" d="M35.1,26.742c-.294-.3-.093-8.816-.093-8.816.589.013.387,8.529.387,8.529a.3.3,0,0,1-.294.287" transform="translate(5.193 2.664)" fill="#1a1a1a"/>
            <path id="Path_608551" data-name="Path 608551" d="M25.55,16.69c-.448-.917-.759-2.565-.179-3.013.354-.272,1.1-.022,1.671.241l.667-3.662c.578.1-.159,4.15-.159,4.15-1.01-.1-1.688-.317-1.833-.258a4.246,4.246,0,0,0,.118,2.181c-.242.357-.264.361-.286.361" transform="translate(3.724 1.524)" fill="#1a1a1a"/>
            <path id="Path_608552" data-name="Path 608552" d="M41.688,51.457c-1.079-4.843-.434-11.511-.43-11.578.579.124-.056,6.715.718,11.235-.255.342-.272.343-.288.343" transform="translate(6.103 5.927)" fill="#1a1a1a"/>
            <path id="Path_608553" data-name="Path 608553" d="M42.729,60.18a3.209,3.209,0,0,1-2.455-1.154,3.246,3.246,0,0,1-.865-1.785c.508.252,1.247,2.43,3.32,2.43a2.442,2.442,0,0,0,2.181-.814c.69-1.085-.229-3.073-.779-4.259-.1-.218-.19-.409-.254-.564a5.863,5.863,0,0,0-2.951-3.529,5.638,5.638,0,0,0-4.732-.117c-.129-.5,2.257-1.68,4.96-.338a6.373,6.373,0,0,1,3.193,3.788c.062.149.147.334.246.546.594,1.282,1.585,3.426.749,4.745a2.876,2.876,0,0,1-2.59,1.051Z" transform="translate(5.379 7.346)" fill="#1a1a1a"/>
            <path id="Path_608554" data-name="Path 608554" d="M44.818,57.648c1.269-.779,2.033-1.281,2.219-1.991.338-1.3-1.267-3.261-2.744-4.544a4.2,4.2,0,0,0-3.808-.651c-.064-.515,2.324-1.317,4.143.266.806.7,3.4,3.139,2.9,5.057-.239.913-1.135,1.538-2.66,1.857a.278.278,0,0,1-.052,0" transform="translate(6.017 7.401)" fill="#1a1a1a"/>
            <path id="Path_608555" data-name="Path 608555" d="M30.019,51.094c.957-2.743,2.689-3.867,5.034-3.867,1.6.006,3.223.844,4.855,2.493-1.934-1.121-3.421-1.9-4.833-1.9a5.084,5.084,0,0,0-4.8,3.122.293.293,0,0,1-.258.157" transform="translate(4.461 7.019)" fill="#1a1a1a"/>
            <path id="Path_608556" data-name="Path 608556" d="M43.606,77.373c-4.21,0-9.032-1.031-14.7-3.14a61.467,61.467,0,0,1-14.273-7.613,23.8,23.8,0,0,1,2.118-8.7,18.869,18.869,0,0,1,7-7.843c.265-.014,12.188,5.276,12.188,5.276-.24.538-12.021-4.69-12.021-4.69a18.724,18.724,0,0,0-6.632,7.505,28.947,28.947,0,0,0-2.169,8.079,60.816,60.816,0,0,0,14,7.438c6.02,2.241,11.078,3.256,15.41,3.088a29.962,29.962,0,0,0,9.217-1.532,14.192,14.192,0,0,0,6.6-4.794c1.991-2.761,2.181-6.207,2.125-8.9A68.6,68.6,0,0,0,60.12,46.513c-.418-1.668-.891-3.379-1.407-5.091C55.625,31.185,48.949,25.906,38.3,25.285c10.956.052,17.8,5.467,20.973,15.967.519,1.719.995,3.441,1.414,5.117a69.4,69.4,0,0,1,2.362,15.157c.055,2.787-.146,6.356-2.238,9.259a14.776,14.776,0,0,1-6.875,5,30.546,30.546,0,0,1-9.4,1.57c-.308.011-.619.016-.935.016" transform="translate(2.172 3.758)" fill="#1a1a1a"/>
            <path id="Path_608557" data-name="Path 608557" d="M17.468,73.41c-5.305,0-11.238-.592-13.875-2.94-6.792-6.052-2.441-15.2.735-21.878.2-.428.416-.884.637-1.363,3.456-7.437,9.243-19.886,26.061-22.122C14.606,27.882,8.905,40.147,5.5,47.475c-.224.48-.436.938-.642,1.368-3.1,6.51-7.336,15.429-.873,21.187,5,4.457,23.324,2.216,23.5,2.19-.3.629-4.866,1.189-10.021,1.189" transform="translate(0 3.731)" fill="#1a1a1a"/>
            <path id="Path_608558" data-name="Path 608558" d="M11.486,93.981a.3.3,0,0,1-.287-.354c1.98-9.466,1.759-26.557,1.755-26.728.59.163.812,17.319-1.181,26.849a.293.293,0,0,1-.287.233" transform="translate(1.663 9.943)" fill="#1a1a1a"/>
            <path id="Path_608559" data-name="Path 608559" d="M52.163,93.927c.4-11.98-.083-26.516-.085-26.661.59.125,1.075,14.686.378,26.385a.293.293,0,0,1-.293.276" transform="translate(7.74 9.997)" fill="#1a1a1a"/>
            <path id="Path_608560" data-name="Path 608560" d="M24.216,48.072a106.916,106.916,0,0,1,11.717-.845c-.054.588-6.281.665-11.708.845Z" transform="translate(3.599 7.019)" fill="#1a1a1a"/>
            <path id="Path_608561" data-name="Path 608561" d="M2.952,58.9c-.218-.039-.32-.194-.286-.353,1.674-8.063,7.148-9.265,7.38-9.313,5.435-1.215,9.679,3.218,9.856,3.407-.47.358-4.636-3.974-9.732-2.831-.06.011-5.338,1.192-6.931,8.857a.292.292,0,0,1-.287.233" transform="translate(0.395 7.286)" fill="#1a1a1a"/>
            <path id="Path_608562" data-name="Path 608562" d="M9.176,50.291c-.307-.278-1.015-2.31,2.161-3.906,3.083-1.546,6.871.633,7.032.726-.334.487-3.975-1.606-6.767-.2-2.684,1.347-2.171,2.92-2.148,2.986-.211.387-.245.393-.278.393" transform="translate(1.321 6.811)" fill="#1a1a1a"/>
            <path id="Path_608563" data-name="Path 608563" d="M24.2,47.816A23.469,23.469,0,0,0,18.127,45a4.924,4.924,0,0,0-5.508,1.607c-.464-.363,1.67-3.379,5.679-2.17a20.424,20.424,0,0,1,6.079,2.849c0,.487-.092.527-.179.527" transform="translate(1.866 6.562)" fill="#1a1a1a"/>
            <path id="Path_608564" data-name="Path 608564" d="M14.446,45.7c-.231-.051-.326-.211-.284-.369l1.865-7.051c.566.149-1.3,7.2-1.3,7.2a.291.291,0,0,1-.284.218" transform="translate(2.103 5.689)" fill="#1a1a1a"/>
            <path id="Path_608565" data-name="Path 608565" d="M38.19,60.093A2.774,2.774,0,0,1,36.1,59.3a3.6,3.6,0,0,1-.5-2.733c.018-.209.036-.4.036-.558a5.512,5.512,0,0,0-2.58-3.736,4.341,4.341,0,0,1,3.168,3.741c0,.172-.02.378-.038.6a3.119,3.119,0,0,0,.358,2.3,2.088,2.088,0,0,0,1.538.589,1.426,1.426,0,0,0,1.367-.624c.928-1.317.5-4.245-.17-5.853a5.039,5.039,0,0,0-4.614-2.891,2.609,2.609,0,0,0-2.239,1.379c-.5-.331.369-2.045,2.265-1.968A5.608,5.608,0,0,1,39.816,52.8c.694,1.668,1.206,4.859.11,6.417a2.036,2.036,0,0,1-1.737.876" transform="translate(4.798 7.363)" fill="#1a1a1a"/>
            <path id="Path_608566" data-name="Path 608566" d="M51.213,34.292c-.241-.059-.329-.223-.283-.379,1.258-4.188-.928-5.271-3.241-6.417-1.707-.847-3.473-1.722-3.787-3.87-.362-2.481.847-5.01,2.014-7.457,1.141-2.386,2.318-4.854,2.024-7.244-.578-4.675-9.717-6.018-9.809-6.031C37.015,1.573,33.576.393,30.114.617c-2.823.19-4.945,1.288-5.973,3.09a10.058,10.058,0,0,0,0,9.54c-.534.252-3.426-4.71-.508-9.831C24.758,1.436,27.05.232,30.075.03c3.3-.225,7.009.827,8.253,2.3,1.149.179,9.593,1.649,10.194,6.523.316,2.561-.9,5.108-2.076,7.573s-2.3,4.812-1.962,7.119c.269,1.841,1.821,2.611,3.467,3.426,2.316,1.149,4.941,2.449,3.543,7.113a.3.3,0,0,1-.281.209" transform="translate(3.321 0)" fill="#1a1a1a"/>
            <path id="Path_608567" data-name="Path 608567" d="M25.325,26.557c-2.125-3.182.072-4.928.1-4.945.285.521-1.435,1.917.155,4.5-.145.433-.2.448-.25.448" transform="translate(3.626 3.212)" fill="#1a1a1a"/>
            <path id="Path_608568" data-name="Path 608568" d="M46.551,71.664c-2.953-3.5-1.835-8.765,2.312-12.1,2.993-2.4,6.526-3.077,9.452-1.823a10.8,10.8,0,0,0-9.082,2.282c-3.893,3.123-4.969,8.027-2.452,11.161-.1.455-.165.477-.23.477" transform="translate(6.672 8.49)" fill="#1a1a1a"/>
          </g>
        </g>
      </g>
    </g>
    <path id="Polygon_25" data-name="Polygon 25" d="M8.5,0,17,15H0Z" transform="translate(1008 620) rotate(90)" fill="#537095"/>
    <path id="Polygon_26" data-name="Polygon 26" d="M8.5,0,17,15H0Z" transform="translate(592 637) rotate(-90)" fill="#537095"/>
  </g>
</svg>
