<svg xmlns="http://www.w3.org/2000/svg" xmlns:xlink="http://www.w3.org/1999/xlink" width="505" height="1136" viewBox="0 0 505 1136">
  <defs>
    <clipPath id="clip-path">
      <rect id="Rectangle_380999" data-name="Rectangle 380999" width="72.773" height="107.218" transform="translate(0 0)" fill="#12263f"/>
    </clipPath>
    <clipPath id="clip-path-2">
      <rect id="Rectangle_380999-2" data-name="Rectangle 380999" width="72.905" height="107.413" transform="translate(0 0)" fill="#12263f"/>
    </clipPath>
  </defs>
  <g id="Group_1087056" data-name="Group 1087056" transform="translate(874 6980)">
    <g id="Group_1084160" data-name="Group 1084160" transform="translate(0 -123)">
      <path id="Path_841670" data-name="Path 841670" d="M0,0H505V1136H0Z" transform="translate(-874 -6857)" fill="#fff"/>
      <g id="Group_1084151" data-name="Group 1084151" transform="translate(-772.638 -563)">
        <rect id="Rectangle_380998" data-name="Rectangle 380998" width="381.15" height="378.598" transform="translate(341.416 -6273.524) rotate(90)" fill="#33ece0"/>
        <path id="Path_839413" data-name="Path 839413" d="M17.77,0,0,23.693S225.084,83.665,88.108,293.2s52.569-4.443,52.569-4.443S185.842,119.2,183.621,111.8,120.686,6.663,120.686,6.663Z" transform="translate(320.273 -6212.069) rotate(90)" fill="#1ab1a7"/>
        <path id="Subtraction_126" data-name="Subtraction 126" d="M507.84,464.909H0v-89.2A142.585,142.585,0,0,0,101.392,333.7a142.186,142.186,0,0,0,42.064-101.25C143.456,153.461,79.1,89.2,0,89.2V0H507.84V464.908Z" transform="translate(384.572 -6211.479) rotate(90)" fill="#ecf3fc"/>
        <path id="Subtraction_128" data-name="Subtraction 128" d="M507.035,233.429H0V143.857a142.283,142.283,0,0,0,101.391-42.182A143.084,143.084,0,0,0,143.456,0H507.035v233.43Z" transform="translate(151.133 -6211.477) rotate(90)" fill="#e3ecf7"/>
        <text id="Cliente_interno_Son_los_empleados_y_miembros_de_la_organización_que_interactúan_entre_sí_y_desempeñan_roles_específicos_para_entregar_productos_o_servicios_a_los_clientes_externos._El_servicio_al_cliente_interno_se_refiere_a_la_calidad_de_las_interaccione" data-name="Cliente interno

Son los empleados y miembros de la organización que interactúan entre sí y desempeñan roles específicos para entregar productos o servicios a los clientes externos. El servicio al cliente interno se refiere a la calidad de las interaccione" transform="translate(-37.182 -6044)" fill="#12263f" font-size="17" font-family="Roboto-Bold, Roboto" font-weight="700"><tspan x="0" y="16">Cliente interno</tspan><tspan font-family="Roboto-Regular, Roboto" font-weight="400"><tspan x="0" y="40"></tspan><tspan x="0" y="64">Son los empleados y miembros de la </tspan><tspan x="0" y="88">organización que interactúan entre sí y </tspan><tspan x="0" y="112">desempeñan roles específicos para entregar </tspan><tspan x="0" y="136">productos o servicios a los clientes externos. El </tspan><tspan x="0" y="160">servicio al cliente interno se refiere a la calidad de </tspan><tspan x="0" y="184">las interacciones y la comunicación entre los </tspan><tspan x="0" y="208">diferentes departamentos y equipos de la </tspan><tspan x="0" y="232">empresa. Un ambiente de trabajo positivo y </tspan><tspan x="0" y="256">colaborativo entre los empleados es fundamental </tspan><tspan x="0" y="280">para ofrecer un excelente servicio al cliente </tspan><tspan x="0" y="304">externo.</tspan></tspan></text>
      </g>
      <g id="Group_1084152" data-name="Group 1084152" transform="translate(-854.936 -6242.524)">
        <rect id="Rectangle_380998-2" data-name="Rectangle 380998" width="381.15" height="378.598" transform="translate(45.116 494.055) rotate(-90)" fill="#33ece0"/>
        <path id="Path_839413-2" data-name="Path 839413" d="M17.77,385.19,0,361.5S225.084,301.525,88.108,91.989s52.569,4.443,52.569,4.443,45.165,169.554,42.944,176.958-62.935,105.137-62.935,105.137Z" transform="translate(17.38 432.6) rotate(-90)" fill="#1ab1a7"/>
        <path id="Subtraction_126-2" data-name="Subtraction 126" d="M431.407,0H0V89.2a142.585,142.585,0,0,1,101.391,42.006,142.186,142.186,0,0,1,42.064,101.25C143.455,311.448,79.1,375.712,0,375.712v89.2H431.407V0Z" transform="translate(1.961 432.008) rotate(-90)" fill="#ecf3fc"/>
        <path id="Subtraction_128-2" data-name="Subtraction 128" d="M432.006,0H0V89.573a142.288,142.288,0,0,1,101.391,42.183,143.084,143.084,0,0,1,42.064,101.676h288.55V0h0Z" transform="translate(0 432.006) rotate(-90)" fill="#e3ecf7"/>
        <text id="Cliente_externo_Son_las_personas_empresas_u_organizaciones_que_adquieren_los_productos_o_servicios_de_la_empresa._Son_quienes_pagan_por_los_productos_o_servicios_y_por_lo_tanto_son_la_base_de_la_operación_comercial._Brindar_un_buen_servicio_a_estos_cli" data-name="Cliente externo

Son las personas, empresas u organizaciones que adquieren los productos o servicios de la empresa. Son quienes pagan por los productos o servicios y, por lo tanto, son la base de la operación comercial. Brindar un buen servicio a estos cli" transform="translate(45.116 36.899)" fill="#12263f" font-size="17" font-family="Roboto-Bold, Roboto" font-weight="700"><tspan x="0" y="16">Cliente externo</tspan><tspan x="0" y="40"></tspan><tspan font-family="Roboto-Regular, Roboto" font-weight="400"><tspan x="0" y="64">Son las personas, empresas u organizaciones que </tspan><tspan x="0" y="88">adquieren los productos o servicios de la </tspan><tspan x="0" y="112">empresa. Son quienes pagan por los productos o </tspan><tspan x="0" y="136">servicios y, por lo tanto, son la base de la </tspan><tspan x="0" y="160">operación comercial. Brindar un buen servicio a </tspan><tspan x="0" y="184">estos clientes externos es esencial para mantener </tspan><tspan x="0" y="208">su satisfacción y lealtad.</tspan></tspan></text>
      </g>
      <g id="Group_1084158" data-name="Group 1084158" transform="translate(-711.628 -5915.776)">
        <g id="Ellipse_5896" data-name="Ellipse 5896" transform="translate(-0.372 -0.224)" fill="none" stroke="#12263f" stroke-width="3">
          <circle cx="71" cy="71" r="71" stroke="none"/>
          <circle cx="71" cy="71" r="69.5" fill="none"/>
        </g>
        <g id="Group_1084154" data-name="Group 1084154" transform="translate(34.57 17.694)">
          <g id="Group_1084153" data-name="Group 1084153" transform="translate(0 0)" clip-path="url(#clip-path)">
            <path id="Path_839414" data-name="Path 839414" d="M14.7,96.966c-.293.318-.552.628-.84.909a5.333,5.333,0,0,0-1.7,3.628,5.253,5.253,0,0,0,2.023,4.515A5.519,5.519,0,0,0,17.8,107.21q18.528.02,37.056,0a5.448,5.448,0,0,0,5.186-2.992,5.28,5.28,0,0,0-.626-5.768c-.418-.5-.882-.957-1.428-1.545l.754-.074a24.517,24.517,0,0,0,3.37-.346A9.191,9.191,0,0,0,68.163,91.8,10.132,10.132,0,0,0,69.35,86.72c-.021-4.976.044-9.953-.024-14.928a19.627,19.627,0,0,0-6.514-14.667c-.616-.571-1.3-1.075-1.882-1.558.362-.926.767-1.822,1.059-2.752.282-.9.229-.928,1.17-1.035a10.615,10.615,0,0,0,6.627-3.264,10.595,10.595,0,0,0-1.272-15.861c-1.7-1.26-3.5-2.4-5.285-3.547a1.63,1.63,0,0,1-.851-1.613c.06-2.792.1-5.589.012-8.379A19.6,19.6,0,0,0,47.866.7,20.932,20.932,0,0,0,42.438.012C38.291,0,34.145-.008,30,.015a19.609,19.609,0,0,0-18.765,13.9,19.878,19.878,0,0,0-.872,5.838q0,4.19.024,8.381a.636.636,0,0,1-.338.6c-1.851,1.234-3.729,2.43-5.535,3.726A10.278,10.278,0,0,0,0,41.118a10.7,10.7,0,0,0,7.624,10.26,12.137,12.137,0,0,0,2.268.405.809.809,0,0,1,.829.721,20.9,20.9,0,0,0,.783,2.253,4.632,4.632,0,0,0,.4.694c-.968.862-1.977,1.656-2.863,2.568a19.469,19.469,0,0,0-5.153,9.723A24.574,24.574,0,0,0,3.431,72.9c0,4.569.018,9.138-.011,13.706a10.047,10.047,0,0,0,1.643,5.952,9.523,9.523,0,0,0,7.758,4.267c.58.029,1.162.028,1.743.044.023,0,.045.032.136.1M46.751,69.2c.623,0,1.173-.014,1.722.012a.406.406,0,0,1,.291.258c.308,2.318.6,4.638.893,6.958.166,1.3.316,2.6.522,3.886a1.007,1.007,0,0,1-.235.938A5.053,5.053,0,0,0,48.58,84.61c-.02,2.328-.029,4.656-.009,6.983a4.953,4.953,0,0,0,.565,2.4,5.3,5.3,0,0,0,4.383,2.832.7.7,0,0,1,.438.194c.906,1.115,1.785,2.251,2.69,3.368a1.99,1.99,0,0,1,.435,2.18,1.949,1.949,0,0,1-1.909,1.2c-.786.006-1.571,0-2.357,0l-35.31.021a1.951,1.951,0,0,1-1.871-2.558,4.381,4.381,0,0,1,.744-1.11c.764-.988,1.557-1.953,2.307-2.951a.689.689,0,0,1,.569-.361,5.07,5.07,0,0,0,4.893-4.829c.114-2.38.067-4.769.052-7.154a4.525,4.525,0,0,0-1.046-3.118,2.035,2.035,0,0,1-.5-1.881c.342-2.209.561-4.436.838-6.655q.233-1.859.509-3.712a.409.409,0,0,1,.3-.245c.434-.029.873.009,1.307-.022.323-.023.4.1.394.4-.011,1.077-.011,2.153.007,3.23a9.924,9.924,0,0,0,.492,2.954,10.4,10.4,0,0,0,11.68,7.049,9.966,9.966,0,0,0,5.9-3.309,9.666,9.666,0,0,0,2.555-5.479c.133-1.254.082-2.527.11-3.792.008-.344,0-.689,0-1.045m-12.72-42.15A17.742,17.742,0,0,0,44.552,18.8a7.868,7.868,0,0,0,7.423,3.6.827.827,0,0,1,.046.15Q52,29.114,51.978,35.681a10.147,10.147,0,0,1-.7,3.747,11.614,11.614,0,0,1-7.186,6.951,3.409,3.409,0,0,0-2.411,2.788,19.949,19.949,0,0,0-.083,2.35,5.886,5.886,0,0,1-.463,2.593,5.248,5.248,0,0,1-5.714,2.9,5,5,0,0,1-4.105-3.995,30.917,30.917,0,0,1-.149-3.261,3.581,3.581,0,0,0-2.546-3.393,11.507,11.507,0,0,1-7.812-10.474c-.047-3.854-.041-7.709-.055-11.563a.965.965,0,0,1,.1-.249,13.153,13.153,0,0,0,4.1,2.7,9.77,9.77,0,0,0-.682,4.319H27.7c0-.662-.046-1.288.011-1.906a1.759,1.759,0,0,1,1.794-1.567,1.716,1.716,0,0,1,1.67,1.782c0,.451.008.9-.018,1.352-.017.293.094.383.373.379.945-.013,1.89-.009,2.836-.015a1.5,1.5,0,0,0,.239-.038c.053-1.94.151-2.566-.576-4.032M43.39,10.382c-.011.218-.015.333-.022.447A13.375,13.375,0,0,1,42.2,15.935c-2.6,5.353-6.855,8.2-12.859,8.278a8.553,8.553,0,0,1-7.98-5.411c-.086-.219-.13-.455-.208-.733a1.577,1.577,0,0,1,.336.027,12.927,12.927,0,0,0,6.172.368,16.706,16.706,0,0,0,7.705-3.043c.251-.178.234-.3.059-.515-.509-.635-1.026-1.268-1.48-1.941-.246-.365-.407-.4-.772-.15a13.8,13.8,0,0,1-11,2.014,26.049,26.049,0,0,1-3.367-1.167c-.5-.179-.989-.376-1.519-.578,0,.444,0,.834,0,1.224,0,2.6,0,5.208.011,7.812,0,.293-.08.4-.382.432a7.214,7.214,0,0,0-2.836.784.92.92,0,0,1-.248.046c0-.828-.015-1.626,0-2.422a22.215,22.215,0,0,1,.525-5.665A15.9,15.9,0,0,1,22.541,5.2,13.613,13.613,0,0,1,28.7,3.507c4.885-.082,9.773-.024,14.659-.063a14.119,14.119,0,0,1,4.029.639,15.771,15.771,0,0,1,8.818,6.4,14.147,14.147,0,0,1,2.542,6.513c.221,2.03.131,4.095.176,6.144a2.141,2.141,0,0,1-.056.325,7.827,7.827,0,0,0-3.218-.959.275.275,0,0,1-.173-.111,1.927,1.927,0,0,1,.3-1.437c.867-.788,1.725-1.588,2.573-2.371L55.844,16.1c-.523.57-1.035,1.188-1.609,1.743a4.214,4.214,0,0,1-3.817,1.146,4.361,4.361,0,0,1-3.658-4.266c-.029-1.308,0-2.618.008-3.927,0-.223.013-.415-.289-.414-1.015,0-2.03,0-3.09,0M53.4,77.889l-.132-.006c-.051-.481-.1-.962-.154-1.441-.421-3.461-.85-6.92-1.259-10.383-.038-.323-.144-.4-.454-.4q-15.014.011-30.028,0c-.316,0-.421.087-.456.4-.2,1.819-.425,3.635-.64,5.453-.221,1.861-.437,3.723-.662,5.583-.033.275-.106.545-.171.873-.081-.093-.123-.12-.134-.156-.33-1.127-.646-2.259-.987-3.382a22.406,22.406,0,0,1-1.037-5.468,16.386,16.386,0,0,1,1.688-8.325c.882-1.727,2.019-3.323,3.031-4.985a1.288,1.288,0,0,1,.892-.628Q25.3,54.521,27.7,54c.238-.052.342.016.4.252a5.116,5.116,0,0,0,.317.948,8.5,8.5,0,0,0,8.037,5.269,7.791,7.791,0,0,0,3.889-.959,8.442,8.442,0,0,0,4.313-5.235c.033-.116.24-.285.333-.266q2.58.531,5.148,1.117a.95.95,0,0,1,.493.383c.629.908,1.23,1.836,1.849,2.751a17.766,17.766,0,0,1,2.224,15.186c-.215.753-.424,1.509-.645,2.26-.215.73-.444,1.457-.666,2.185M17.354,36.377c.131.787.218,1.6.407,2.385A14.9,14.9,0,0,0,23,47.043a13.951,13.951,0,0,0,4.43,2.465c.379.125.308.391.318.663s-.125.365-.388.4c-.357.051-.7.172-1.058.25-2.65.582-5.309,1.122-7.946,1.758a31.745,31.745,0,0,0-3.16,1.1c-.237.084-.425.141-.564-.168a6.9,6.9,0,0,1-.776-2.876c.01-2.312-.01-4.625.005-6.937,0-.371-.109-.478-.467-.469q-1.308.034-2.617.007c-.337-.008-.419.114-.416.43.014,1.454,0,2.909.014,4.363,0,.323-.066.42-.418.387A7.127,7.127,0,0,1,6.14,46.853,7.31,7.31,0,0,1,3.8,38.768a7.721,7.721,0,0,1,3.235-3.979c1-.654,1.986-1.316,2.981-1.972.311-.2.629-.4.976-.619a7.321,7.321,0,0,0,6.366,4.179M61.8,32.151c1.7,1.168,3.418,2.179,4.945,3.42a7.183,7.183,0,0,1,1.01,10.148,6.933,6.933,0,0,1-4.869,2.668c-.367.037-.482-.084-.477-.451.018-1.4-.014-2.793.024-4.188.012-.455-.147-.538-.544-.524-.77.027-1.541.016-2.312.018-.653,0-.648,0-.647.676,0,1.992,0,3.985.006,5.977a6.915,6.915,0,0,1-.7,3.376c-.288.538-.251.553-.841.334a22.7,22.7,0,0,0-2.616-.941c-3.092-.73-6.2-1.4-9.3-2.066-.369-.079-.468-.22-.465-.571,0-.312.084-.49.406-.555a3.425,3.425,0,0,0,.658-.223A15.182,15.182,0,0,0,52.022,44.8a14.434,14.434,0,0,0,3.1-6.636c.106-.608.2-1.218.286-1.788A7.344,7.344,0,0,0,61.8,32.151M11.129,93.218c-.358-.178-.591-.292-.821-.41a5.579,5.579,0,0,1-3.266-4.247,21.088,21.088,0,0,1-.126-3q-.019-6.5,0-13.007A17.685,17.685,0,0,1,8,65.8a16.618,16.618,0,0,1,8.337-8.936,9.97,9.97,0,0,1,.949-.355,2.124,2.124,0,0,1-.3.673A20.448,20.448,0,0,0,14.07,65.15a19.955,19.955,0,0,0,.543,8.556c.529,1.826,1.039,3.658,1.563,5.485.088.307.1.482-.316.568a6.818,6.818,0,0,0-5.39,5.858,26.384,26.384,0,0,0-.093,3.964,17.605,17.605,0,0,0,.434,2.605,10.3,10.3,0,0,0,.318,1.032m50.547.005a14.5,14.5,0,0,0,.618-2.461,34.235,34.235,0,0,0,.068-4.7,6.984,6.984,0,0,0-5.823-6.383,1.869,1.869,0,0,1,.027-.295q.413-1.512.834-3.022a29.586,29.586,0,0,0,1.47-6.971,21.757,21.757,0,0,0-.391-5.376A21.458,21.458,0,0,0,55.613,56.9a2.869,2.869,0,0,1-.17-.424,11.91,11.91,0,0,1,1.12.449c5.884,3.106,9.121,7.95,9.285,14.634.129,5.249.038,10.5.027,15.756a5.727,5.727,0,0,1-2.351,4.83,18.844,18.844,0,0,1-1.848,1.078M29.3,69.2H43.367c0,1.17,0,2.3,0,3.438a7.143,7.143,0,0,1-.655,2.911,6.908,6.908,0,0,1-7.669,3.889,6.448,6.448,0,0,1-5.4-5.259A36.576,36.576,0,0,1,29.3,69.2M13.784,88.181l.066,0c0-.654-.026-1.309,0-1.961A3.348,3.348,0,0,1,17.248,83c.552,0,1.1.007,1.657.006a1.756,1.756,0,0,1,1.912,1.925q-.025,2.18-.037,4.36c0,.843.024,1.686.005,2.529A1.618,1.618,0,0,1,19.3,93.356c-.812.028-1.627.028-2.44,0a3.286,3.286,0,0,1-2.9-2.489c-.135-.885-.12-1.793-.172-2.69m38.2.042h0c0-1.177,0-2.354,0-3.531a1.662,1.662,0,0,1,1.507-1.675,21.17,21.17,0,0,1,2.524.018,3.281,3.281,0,0,1,2.868,2.895c.069,1.507.076,3.023,0,4.53a3.246,3.246,0,0,1-3.034,2.9c-.7.028-1.4-.036-2.09.027a1.759,1.759,0,0,1-1.793-1.806c.07-1.114.017-2.237.017-3.356m3.544-55.409V25.885A3.485,3.485,0,0,1,58.9,30.032a3.274,3.274,0,0,1-3.368,2.782m-38.287.068a6.286,6.286,0,0,1-1.127-.2,3.51,3.51,0,0,1,.687-6.758c.459-.1.492-.076.491.4q0,3.074-.005,6.147c0,.111-.024.222-.046.409" transform="translate(0 -0.002)" fill="#12263f"/>
            <path id="Path_839415" data-name="Path 839415" d="M363.384,431.468h-3.427a3.528,3.528,0,0,1-3.638,3.466,3.488,3.488,0,0,1-3.386-3.456h-3.456a6.955,6.955,0,0,0,13.908-.011" transform="translate(-320.05 -395.122)" fill="#12263f"/>
            <path id="Path_839416" data-name="Path 839416" d="M287.423,294.8h3.4c0-.586-.012-1.161,0-1.736a1.739,1.739,0,0,1,1.154-1.625,1.814,1.814,0,0,1,2.276,1.234c.066.545.05,1.1.069,1.651,0,.142,0,.285,0,.468h3.461a7.642,7.642,0,0,0-.81-4.282,5.121,5.121,0,0,0-5.652-2.419,5.223,5.223,0,0,0-3.885,4.342,20.763,20.763,0,0,0-.015,2.368" transform="translate(-249.221 -263.706)" fill="#12263f"/>
          </g>
        </g>
        <path id="Path_839418" data-name="Path 839418" d="M-2176.258-6123h14.324l-45.453,37.883v-18.721h-45.645l.764-15.565Z" transform="translate(2367.223 6193.776)" fill="#1ca89f" opacity="0.65"/>
        <g id="Group_1084155" data-name="Group 1084155" transform="translate(205.058 46.004) rotate(90)">
          <path id="Polygon_35" data-name="Polygon 35" d="M24.772,0,49.543,42.466H0Z" fill="#fff"/>
          <rect id="Rectangle_381000" data-name="Rectangle 381000" width="23.592" height="60.159" transform="translate(12.975 30.67)" fill="#fff"/>
        </g>
      </g>
      <g id="Group_1084159" data-name="Group 1084159" transform="translate(-1025.298 -12330.811)">
        <g id="Ellipse_5896-2" data-name="Ellipse 5896" transform="translate(364.82 5517.002)" fill="none" stroke="#12263f" stroke-width="3">
          <circle cx="70.904" cy="70.904" r="70.904" stroke="none"/>
          <circle cx="70.904" cy="70.904" r="69.404" fill="none"/>
        </g>
        <g id="Group_1084154-2" data-name="Group 1084154" transform="translate(399.09 5534.728)">
          <g id="Group_1084153-2" data-name="Group 1084153" transform="translate(0 0)" clip-path="url(#clip-path-2)">
            <path id="Path_839414-2" data-name="Path 839414" d="M58.179,97.142c.293.319.553.629.842.911a5.342,5.342,0,0,1,1.7,3.635A5.263,5.263,0,0,1,58.7,106.21a5.529,5.529,0,0,1-3.621,1.194q-18.562.02-37.123,0a5.458,5.458,0,0,1-5.2-3,5.289,5.289,0,0,1,.627-5.779c.419-.5.883-.959,1.43-1.548l-.756-.075a24.561,24.561,0,0,1-3.377-.347,9.207,9.207,0,0,1-6.063-4.7A10.15,10.15,0,0,1,3.43,86.877c.021-4.985-.044-9.971.024-14.955A19.662,19.662,0,0,1,9.979,57.228c.617-.572,1.3-1.077,1.886-1.561-.363-.928-.768-1.825-1.061-2.757-.282-.9-.229-.93-1.172-1.037A10.635,10.635,0,0,1,2.992,48.6a10.614,10.614,0,0,1,1.274-15.89c1.708-1.262,3.5-2.408,5.295-3.554a1.633,1.633,0,0,0,.853-1.616c-.06-2.8-.1-5.6-.012-8.395A19.639,19.639,0,0,1,24.952.706,20.97,20.97,0,0,1,30.39.012C34.544,0,38.7-.008,42.852.015a19.645,19.645,0,0,1,18.8,13.923,19.914,19.914,0,0,1,.873,5.849q0,4.2-.024,8.4a.638.638,0,0,0,.339.6c1.854,1.236,3.736,2.434,5.545,3.732a10.3,10.3,0,0,1,4.52,8.68,10.716,10.716,0,0,1-7.638,10.278,12.159,12.159,0,0,1-2.272.406.81.81,0,0,0-.831.723,20.94,20.94,0,0,1-.784,2.257,4.64,4.64,0,0,1-.4.695c.97.864,1.98,1.659,2.868,2.573a19.5,19.5,0,0,1,5.162,9.741,24.618,24.618,0,0,1,.458,5.164c0,4.577-.018,9.154.011,13.731a10.065,10.065,0,0,1-1.646,5.962A9.54,9.54,0,0,1,60.061,97c-.581.029-1.164.029-1.746.045-.023,0-.045.032-.137.1M26.069,69.323c-.624,0-1.175-.014-1.725.012a.407.407,0,0,0-.292.259c-.309,2.322-.6,4.647-.895,6.97-.166,1.3-.317,2.6-.523,3.893a1.009,1.009,0,0,0,.236.94,5.062,5.062,0,0,1,1.365,3.367c.02,2.332.029,4.664.009,7a4.962,4.962,0,0,1-.566,2.4A5.312,5.312,0,0,1,19.289,97a.7.7,0,0,0-.439.194c-.907,1.117-1.789,2.255-2.695,3.374a1.994,1.994,0,0,0-.436,2.184,1.953,1.953,0,0,0,1.912,1.205c.787.006,1.574,0,2.361,0l35.374.021a1.954,1.954,0,0,0,1.874-2.563A4.389,4.389,0,0,0,56.5,100.3c-.765-.989-1.559-1.957-2.311-2.956a.69.69,0,0,0-.57-.361,5.08,5.08,0,0,1-4.9-4.838c-.115-2.384-.067-4.778-.052-7.167a4.533,4.533,0,0,1,1.048-3.124,2.039,2.039,0,0,0,.5-1.884c-.343-2.213-.562-4.444-.84-6.667q-.233-1.862-.51-3.719a.409.409,0,0,0-.3-.245c-.435-.029-.875.009-1.31-.022-.324-.023-.4.1-.395.4.011,1.079.011,2.157-.007,3.236a9.942,9.942,0,0,1-.493,2.959,10.42,10.42,0,0,1-11.7,7.062,9.984,9.984,0,0,1-5.909-3.315,9.684,9.684,0,0,1-2.56-5.489c-.134-1.256-.082-2.532-.11-3.8-.008-.345,0-.69,0-1.047M38.812,27.1a17.774,17.774,0,0,1-10.54-8.266,7.882,7.882,0,0,1-7.437,3.607.829.829,0,0,0-.046.15q.022,6.579.043,13.158a10.166,10.166,0,0,0,.7,3.754,11.635,11.635,0,0,0,7.2,6.964,3.416,3.416,0,0,1,2.416,2.793,19.984,19.984,0,0,1,.083,2.354,5.9,5.9,0,0,0,.463,2.6,5.257,5.257,0,0,0,5.724,2.905,5,5,0,0,0,4.113-4,30.973,30.973,0,0,0,.149-3.267,3.588,3.588,0,0,1,2.55-3.4,11.528,11.528,0,0,0,7.826-10.493c.047-3.861.041-7.723.055-11.584a.967.967,0,0,0-.1-.249,13.177,13.177,0,0,1-4.109,2.7,9.788,9.788,0,0,1,.683,4.326H45.152c0-.663.046-1.291-.011-1.909a1.762,1.762,0,0,0-1.8-1.57,1.72,1.72,0,0,0-1.673,1.786c0,.452-.008.9.018,1.355.017.294-.094.384-.374.38-.947-.013-1.894-.009-2.841-.015a1.5,1.5,0,0,1-.239-.038c-.053-1.943-.151-2.57.577-4.039M29.437,10.4c.011.218.015.333.022.448a13.4,13.4,0,0,0,1.173,5.115c2.606,5.363,6.868,8.213,12.883,8.293a8.569,8.569,0,0,0,7.994-5.42c.086-.22.131-.455.208-.734a1.58,1.58,0,0,0-.336.027A12.95,12.95,0,0,1,45.2,18.5a16.737,16.737,0,0,1-7.719-3.049c-.251-.179-.234-.3-.059-.516.51-.636,1.028-1.27,1.483-1.945.247-.366.407-.4.773-.15a13.821,13.821,0,0,0,11.016,2.017,26.1,26.1,0,0,0,3.373-1.169c.5-.179.991-.376,1.522-.579,0,.445,0,.836,0,1.227,0,2.609,0,5.217-.011,7.826,0,.294.08.4.383.433a7.227,7.227,0,0,1,2.841.786.922.922,0,0,0,.248.046c0-.83.015-1.629,0-2.426a22.255,22.255,0,0,0-.526-5.675,15.927,15.927,0,0,0-8.2-10.112,13.638,13.638,0,0,0-6.174-1.7c-4.894-.082-9.79-.024-14.686-.063a14.145,14.145,0,0,0-4.036.641A15.8,15.8,0,0,0,16.593,10.5a14.172,14.172,0,0,0-2.547,6.525c-.222,2.034-.132,4.1-.177,6.155a2.145,2.145,0,0,0,.056.326,7.841,7.841,0,0,1,3.224-.961.276.276,0,0,0,.173-.111,1.93,1.93,0,0,0-.3-1.44c-.869-.79-1.728-1.591-2.577-2.375l2.517-2.489c.524.571,1.037,1.191,1.612,1.746A4.222,4.222,0,0,0,22.4,19.023a4.369,4.369,0,0,0,3.665-4.274c.029-1.311,0-2.623-.008-3.934,0-.224-.013-.416.29-.415,1.017,0,2.033,0,3.1,0M19.412,78.03l.132-.006c.051-.481.1-.964.154-1.444.422-3.467.852-6.933,1.261-10.4.038-.324.144-.4.455-.4q15.041.011,30.082,0c.316,0,.422.087.457.405.2,1.822.426,3.642.641,5.463.221,1.864.438,3.729.664,5.593.033.275.106.546.171.874.082-.093.123-.12.134-.156.331-1.129.647-2.263.989-3.388a22.447,22.447,0,0,0,1.039-5.478,16.416,16.416,0,0,0-1.691-8.34c-.884-1.73-2.023-3.329-3.036-4.994a1.29,1.29,0,0,0-.893-.629q-2.412-.5-4.819-1.029c-.239-.052-.342.016-.4.252a5.126,5.126,0,0,1-.317.95,8.519,8.519,0,0,1-8.051,5.278,7.8,7.8,0,0,1-3.9-.961,8.457,8.457,0,0,1-4.321-5.244c-.033-.116-.241-.285-.333-.266q-2.585.532-5.157,1.119a.952.952,0,0,0-.494.384c-.63.91-1.232,1.839-1.852,2.756A17.8,17.8,0,0,0,18.1,73.577c.216.755.424,1.512.646,2.264.216.732.445,1.46.668,2.189M55.519,36.443c-.132.789-.218,1.6-.408,2.389a14.924,14.924,0,0,1-5.248,8.3A13.976,13.976,0,0,1,45.426,49.6c-.379.125-.309.392-.318.664s.125.366.389.4c.358.052.705.172,1.06.25,2.655.583,5.319,1.125,7.961,1.761a31.8,31.8,0,0,1,3.166,1.1c.237.085.426.141.565-.168a6.913,6.913,0,0,0,.777-2.881c-.01-2.316.01-4.633-.005-6.949,0-.372.109-.479.468-.47q1.31.034,2.622.007c.338-.008.42.114.417.431-.014,1.457,0,2.914-.014,4.371,0,.324.066.421.419.387a7.14,7.14,0,0,0,3.823-1.564,7.323,7.323,0,0,0,2.349-8.1,7.736,7.736,0,0,0-3.241-3.986c-1-.655-1.99-1.319-2.987-1.976-.312-.205-.63-.4-.978-.62a7.334,7.334,0,0,1-6.377,4.186M10.994,32.21c-1.708,1.17-3.424,2.183-4.954,3.427A7.2,7.2,0,0,0,5.029,45.8a6.946,6.946,0,0,0,4.878,2.673c.368.037.483-.084.478-.452-.018-1.4.014-2.8-.024-4.2-.012-.455.147-.539.545-.525.771.027,1.544.016,2.316.018.654,0,.649,0,.648.678,0,2,0,3.992-.006,5.988a6.927,6.927,0,0,0,.7,3.382c.289.539.252.554.843.335a22.745,22.745,0,0,1,2.621-.943c3.1-.731,6.209-1.4,9.321-2.07.369-.079.469-.221.465-.572,0-.313-.084-.49-.406-.556a3.431,3.431,0,0,1-.659-.223,15.21,15.21,0,0,1-5.958-4.453,14.461,14.461,0,0,1-3.106-6.648c-.106-.609-.2-1.22-.287-1.791a7.357,7.357,0,0,1-6.4-4.237M61.756,93.387c.358-.179.592-.292.823-.411a5.589,5.589,0,0,0,3.272-4.255,21.126,21.126,0,0,0,.126-3.005q.019-6.515,0-13.031a17.717,17.717,0,0,0-1.085-6.766,16.648,16.648,0,0,0-8.352-8.952,9.988,9.988,0,0,0-.951-.356,2.128,2.128,0,0,0,.3.674,20.485,20.485,0,0,1,2.913,7.982,19.991,19.991,0,0,1-.544,8.572c-.53,1.83-1.041,3.664-1.566,5.5-.088.308-.1.483.317.569a6.831,6.831,0,0,1,5.4,5.869,26.432,26.432,0,0,1,.093,3.971,17.637,17.637,0,0,1-.435,2.61,10.322,10.322,0,0,1-.319,1.034m-50.639.005a14.525,14.525,0,0,1-.619-2.466,34.3,34.3,0,0,1-.068-4.713,7,7,0,0,1,5.833-6.395,1.872,1.872,0,0,0-.027-.3q-.414-1.515-.836-3.028a29.639,29.639,0,0,1-1.473-6.983,21.8,21.8,0,0,1,.392-5.386A21.5,21.5,0,0,1,17.191,57a2.874,2.874,0,0,0,.171-.425,11.932,11.932,0,0,0-1.122.449c-5.895,3.112-9.137,7.965-9.3,14.661C6.81,76.947,6.9,82.211,6.911,87.473a5.738,5.738,0,0,0,2.355,4.839,18.88,18.88,0,0,0,1.851,1.08m32.43-24.071H29.459c0,1.172,0,2.308,0,3.444a7.156,7.156,0,0,0,.656,2.917,6.921,6.921,0,0,0,7.683,3.9A6.46,6.46,0,0,0,43.2,74.309a36.642,36.642,0,0,0,.342-4.988M59.1,88.341l-.066,0c0-.655.026-1.311,0-1.965a3.354,3.354,0,0,0-3.4-3.226c-.553,0-1.106.007-1.66.006a1.759,1.759,0,0,0-1.915,1.929q.025,2.184.037,4.367c0,.844-.024,1.689-.005,2.533a1.621,1.621,0,0,0,1.491,1.542c.814.028,1.63.028,2.444,0a3.292,3.292,0,0,0,2.906-2.493c.136-.886.12-1.8.172-2.695m-38.268.043h0c0-1.179,0-2.358,0-3.538a1.665,1.665,0,0,0-1.51-1.678,21.205,21.205,0,0,0-2.529.018,3.287,3.287,0,0,0-2.873,2.9c-.069,1.51-.076,3.029,0,4.538a3.252,3.252,0,0,0,3.04,2.9c.7.028,1.4-.036,2.094.027a1.762,1.762,0,0,0,1.8-1.81c-.071-1.116-.017-2.241-.017-3.362m-3.55-55.51V25.932A3.491,3.491,0,0,0,13.9,30.086a3.28,3.28,0,0,0,3.374,2.787m38.356.068a6.3,6.3,0,0,0,1.129-.2,3.517,3.517,0,0,0-.688-6.771c-.46-.1-.493-.076-.492.4q0,3.079.005,6.158c0,.111.024.223.046.41" transform="translate(0 -0.002)" fill="#12263f"/>
            <path id="Path_839415-2" data-name="Path 839415" d="M349.476,431.468h3.433a3.535,3.535,0,0,0,3.645,3.473,3.494,3.494,0,0,0,3.392-3.462h3.463a6.967,6.967,0,0,1-13.933-.011" transform="translate(-319.983 -395.056)" fill="#12263f"/>
            <path id="Path_839416-2" data-name="Path 839416" d="M297.774,294.811h-3.405c0-.587.012-1.163,0-1.739a1.743,1.743,0,0,0-1.156-1.628,1.818,1.818,0,0,0-2.28,1.236c-.067.546-.05,1.1-.069,1.654,0,.142,0,.285,0,.469h-3.467a7.656,7.656,0,0,1,.812-4.289,5.13,5.13,0,0,1,5.662-2.423,5.232,5.232,0,0,1,3.892,4.349,20.8,20.8,0,0,1,.015,2.372" transform="translate(-263.139 -263.662)" fill="#12263f"/>
          </g>
        </g>
        <path id="Path_839418-2" data-name="Path 839418" d="M-2176.119-6123h14.35l-45.536,37.952V-6103.8h-45.727l.766-15.594Z" transform="translate(2554 11710.906)" fill="#1ca89f" opacity="0.65"/>
        <g id="Group_1084155-2" data-name="Group 1084155" transform="translate(392 5563.09) rotate(90)">
          <path id="Polygon_35-2" data-name="Polygon 35" d="M24.816,0,49.633,42.543H0Z" fill="#fff"/>
          <rect id="Rectangle_381000-2" data-name="Rectangle 381000" width="23.635" height="60.269" transform="translate(12.999 30.725)" fill="#fff"/>
        </g>
      </g>
    </g>
  </g>
</svg>
