<svg xmlns="http://www.w3.org/2000/svg" xmlns:xlink="http://www.w3.org/1999/xlink" width="295" height="283" viewBox="0 0 295 283">
  <defs>
    <clipPath id="clip-path">
      <rect id="Rectangle_380811" data-name="Rectangle 380811" width="295" height="263.285" fill="none"/>
    </clipPath>
    <clipPath id="clip-path-3">
      <rect id="Rectangle_380784" data-name="Rectangle 380784" width="274.598" height="31.579" fill="#636363"/>
    </clipPath>
    <clipPath id="clip-path-4">
      <rect id="Rectangle_380787" data-name="Rectangle 380787" width="14.548" height="10.151" fill="#ffc2c2"/>
    </clipPath>
    <clipPath id="clip-path-5">
      <rect id="Rectangle_380788" data-name="Rectangle 380788" width="6.807" height="16.807" fill="none"/>
    </clipPath>
    <clipPath id="clip-path-6">
      <rect id="Rectangle_380789" data-name="Rectangle 380789" width="14.73" height="18.29" fill="none"/>
    </clipPath>
    <clipPath id="clip-path-7">
      <rect id="Rectangle_380790" data-name="Rectangle 380790" width="7.948" height="7.668" fill="none"/>
    </clipPath>
    <clipPath id="clip-path-8">
      <rect id="Rectangle_380791" data-name="Rectangle 380791" width="5.217" height="34.352" fill="none"/>
    </clipPath>
    <clipPath id="clip-path-9">
      <rect id="Rectangle_380792" data-name="Rectangle 380792" width="5.59" height="4.464" fill="none"/>
    </clipPath>
    <clipPath id="clip-path-10">
      <rect id="Rectangle_380793" data-name="Rectangle 380793" width="5.759" height="8.241" fill="none"/>
    </clipPath>
    <clipPath id="clip-path-11">
      <rect id="Rectangle_380794" data-name="Rectangle 380794" width="5.225" height="8.247" fill="none"/>
    </clipPath>
    <clipPath id="clip-path-12">
      <rect id="Rectangle_380795" data-name="Rectangle 380795" width="7.359" height="5.027" fill="none"/>
    </clipPath>
    <clipPath id="clip-path-13">
      <rect id="Rectangle_380796" data-name="Rectangle 380796" width="12.114" height="21.459" fill="none"/>
    </clipPath>
    <clipPath id="clip-path-14">
      <rect id="Rectangle_380797" data-name="Rectangle 380797" width="7.583" height="22.524" fill="none"/>
    </clipPath>
    <clipPath id="clip-path-15">
      <rect id="Rectangle_380798" data-name="Rectangle 380798" width="5.025" height="17.722" fill="none"/>
    </clipPath>
    <clipPath id="clip-path-16">
      <rect id="Rectangle_380799" data-name="Rectangle 380799" width="9.803" height="8.092" fill="none"/>
    </clipPath>
    <clipPath id="clip-path-17">
      <rect id="Rectangle_380800" data-name="Rectangle 380800" width="5.65" height="17.107" fill="none"/>
    </clipPath>
    <clipPath id="clip-path-18">
      <rect id="Rectangle_380801" data-name="Rectangle 380801" width="17.34" height="6.777" fill="none"/>
    </clipPath>
    <clipPath id="clip-path-19">
      <rect id="Rectangle_380802" data-name="Rectangle 380802" width="15.188" height="12.523" fill="none"/>
    </clipPath>
    <clipPath id="clip-path-20">
      <rect id="Rectangle_380803" data-name="Rectangle 380803" width="4.135" height="7.839" fill="none"/>
    </clipPath>
    <clipPath id="clip-path-21">
      <rect id="Rectangle_380804" data-name="Rectangle 380804" width="34.353" height="25.272" fill="none"/>
    </clipPath>
    <clipPath id="clip-path-22">
      <rect id="Rectangle_380805" data-name="Rectangle 380805" width="21.73" height="21.438" fill="none"/>
    </clipPath>
    <clipPath id="clip-path-23">
      <rect id="Rectangle_380806" data-name="Rectangle 380806" width="10.262" height="12.502" fill="none"/>
    </clipPath>
    <clipPath id="clip-path-24">
      <rect id="Rectangle_380807" data-name="Rectangle 380807" width="9.364" height="14.2" fill="none"/>
    </clipPath>
    <clipPath id="clip-path-25">
      <rect id="Rectangle_380808" data-name="Rectangle 380808" width="21.279" height="6.34" fill="none"/>
    </clipPath>
    <clipPath id="clip-path-26">
      <rect id="Rectangle_380809" data-name="Rectangle 380809" width="5.071" height="5.666" fill="none"/>
    </clipPath>
    <clipPath id="clip-path-27">
      <rect id="Rectangle_380812" data-name="Rectangle 380812" width="75.022" height="79.599" transform="translate(0 0)" fill="#983333"/>
    </clipPath>
  </defs>
  <g id="Group_1083918" data-name="Group 1083918" transform="translate(-285 -13029)">
    <rect id="Rectangle_380776" data-name="Rectangle 380776" width="295" height="283" transform="translate(285 13029)" fill="none"/>
    <g id="Group_1083915" data-name="Group 1083915" transform="translate(285 13044.837)">
      <g id="Group_1083914" data-name="Group 1083914" clip-path="url(#clip-path)">
        <g id="Group_1083913" data-name="Group 1083913">
          <g id="Group_1083912" data-name="Group 1083912" clip-path="url(#clip-path)">
            <g id="Group_1083842" data-name="Group 1083842" transform="translate(0 231.706)" opacity="0.13" style="mix-blend-mode: multiply;isolation: isolate">
              <g id="Group_1083841" data-name="Group 1083841">
                <g id="Group_1083840" data-name="Group 1083840" clip-path="url(#clip-path-3)">
                  <path id="Path_838432" data-name="Path 838432" d="M274.6,290.235c0,8.72-61.471,15.79-137.3,15.79S0,298.955,0,290.235s61.471-15.79,137.3-15.79,137.3,7.069,137.3,15.79" transform="translate(0 -274.446)" fill="#636363"/>
                </g>
              </g>
            </g>
            <path id="Path_838433" data-name="Path 838433" d="M173.231,192.518s1.761,44.2.621,48.015c.611.016-1.369.521-3.356.091-.794-.172-8-43.2-8.146-46.3s10.882-1.81,10.882-1.81" transform="translate(-25.282 -29.94)" fill="#258fb9"/>
            <path id="Path_838434" data-name="Path 838434" d="M178.175,192.685s-1.564,41.9-.551,45.513a10.29,10.29,0,0,0,2.814.1c.685-.226,7.273-40.963,7.4-43.9s-9.666-1.716-9.666-1.716" transform="translate(-27.608 -29.968)" fill="#258fb9"/>
            <rect id="Rectangle_380785" data-name="Rectangle 380785" width="14.548" height="10.152" transform="translate(141.666 130.044)" fill="#fbf4db"/>
            <g id="Group_1083845" data-name="Group 1083845" transform="translate(141.666 130.044)" style="mix-blend-mode: multiply;isolation: isolate">
              <g id="Group_1083844" data-name="Group 1083844">
                <g id="Group_1083843" data-name="Group 1083843" clip-path="url(#clip-path-4)">
                  <rect id="Rectangle_380786" data-name="Rectangle 380786" width="14.548" height="10.152" transform="translate(0 0)" fill="#ffc2c2"/>
                </g>
              </g>
            </g>
            <path id="Path_838435" data-name="Path 838435" d="M191.188,164.358c-.283-3.567-6.752-7.7-10.855-9.2-1.2,7.988-6.272,8-7.274,8s-6.074-.008-7.273-8c-4.1,1.5-10.573,5.632-10.856,9.2a27.762,27.762,0,0,0,1.721,10.584,5.3,5.3,0,0,0,4.244-.432l2.025,10.947s2.3,1.285,10.138,1.285,10.139-1.285,10.139-1.285l2.025-10.947a5.305,5.305,0,0,0,4.245.432,27.751,27.751,0,0,0,1.721-10.584" transform="translate(-24.119 -24.163)" fill="#47b2e7"/>
            <path id="Path_838436" data-name="Path 838436" d="M183.666,147.237c1.439-11.7-9.208-11.7-9.208-11.7s-10.648,0-9.209,11.7c0,0-1.564.1-1.106,2.351.51,2.507,1.841,3.342,2.72,3.109,0,0,2.812,5.348,7.6,5.348s7.594-5.348,7.594-5.348c.879.234,2.21-.6,2.72-3.109.458-2.247-1.106-2.351-1.106-2.351" transform="translate(-25.549 -21.108)" fill="#f8cfcf"/>
            <path id="Path_838437" data-name="Path 838437" d="M167.226,140.511a22.957,22.957,0,0,1-1.333,7.419s-2.789-1.47-1.938,2.068a25.364,25.364,0,0,1-2.123-2.936c-2.4-3.944-1.434-8.238-.3-10.9,1.769-4.155,5.414-2.318,5.414-2.318s5.05-5.927,11.233-3.386,5,7.52,7.273,8.823c2.114,1.212,3,8.959-1.776,11.683-4.061-7.214-11.558-.453-16.447-10.458" transform="translate(-24.97 -20.218)" fill="#8a6cc8"/>
            <path id="Path_838438" data-name="Path 838438" d="M177.9,173.133H173.95l-.676-7.864h5.3Z" transform="translate(-26.984 -25.737)" fill="#c74373"/>
            <path id="Path_838439" data-name="Path 838439" d="M178.072,164.943h-4.3l-.5.275h5.3Z" transform="translate(-26.984 -25.686)" fill="#ea6d73"/>
            <path id="Path_838440" data-name="Path 838440" d="M176.885,167.467a.551.551,0,1,1-.55-.577.558.558,0,0,1,.55.577" transform="translate(-27.375 -25.99)" fill="#ea6d73"/>
            <g id="Group_1083848" data-name="Group 1083848" transform="translate(153.427 143.035)" opacity="0.4" style="mix-blend-mode: multiply;isolation: isolate">
              <g id="Group_1083847" data-name="Group 1083847">
                <g id="Group_1083846" data-name="Group 1083846" clip-path="url(#clip-path-5)">
                  <path id="Path_838441" data-name="Path 838441" d="M187.646,186.225c1.686-8.363.453-10.034.453-10.034a51.476,51.476,0,0,1,0-6.773s-1.015,5.671-.815,6.416-.4,5.508-.9,5.859-4.654-3.872-4.654-3.872,2.834,6.557,5.919,8.4" transform="translate(-181.727 -169.418)" fill="#47b2e7"/>
                </g>
              </g>
            </g>
            <g id="Group_1083851" data-name="Group 1083851" transform="translate(137.757 143.035)" opacity="0.4" style="mix-blend-mode: multiply;isolation: isolate">
              <g id="Group_1083850" data-name="Group 1083850">
                <g id="Group_1083849" data-name="Group 1083849" clip-path="url(#clip-path-6)">
                  <path id="Path_838442" data-name="Path 838442" d="M163.489,176.191s-.051-4.925-.312-6.63c-.193-1.263,2.074,6.233,2.216,7.048s.9,1.282,2.507,0,5.473-2.142,7.62-1.934a4.891,4.891,0,0,1,2.307,1.159c.551.4-2.261,1.19-4.888,1.309-1.654.075-3.183,2.556-4.135,4.211s-4.174,6.8-4.593,6.323a34.188,34.188,0,0,1-.727-4.791,62.1,62.1,0,0,1,.006-6.7" transform="translate(-163.167 -169.418)" fill="#47b2e7"/>
                </g>
              </g>
            </g>
            <path id="Path_838443" data-name="Path 838443" d="M191.287,176.928s-2.421,7.907-4.583,7.891c-1.184-.008-7.748-9-8.164-9.223a8.881,8.881,0,0,0-3.158,0c-.623.153-2.782-2.356-2.782-2.356s-1.109-2.605-.626-3.058,2.582.728,3.2.725,2.356.009,2.494-.292-.055-2.442.36-2.669,1.917,2.889,2.464,5.294c2.164,2.047,5.355,5.423,5.436,5.136.162-.572.629-2.416.629-2.416a9.421,9.421,0,0,0,4.726.968" transform="translate(-26.762 -26.152)" fill="#f8cfcf"/>
            <g id="Group_1083854" data-name="Group 1083854" transform="translate(145.09 141.783)" style="mix-blend-mode: multiply;isolation: isolate">
              <g id="Group_1083853" data-name="Group 1083853">
                <g id="Group_1083852" data-name="Group 1083852" clip-path="url(#clip-path-7)">
                  <path id="Path_838444" data-name="Path 838444" d="M178.358,174.6c1.193-1.051,1.824-3.665,1.193-4.231-.394-.355-1.373-.946-1.383-1.89a1.129,1.129,0,0,1,.084-.45c-.089-.079-.164-.111-.22-.081-.415.227-.222,2.367-.36,2.669s-1.87.29-2.494.292-2.722-1.179-3.2-.726.626,3.059.626,3.059,2.16,2.508,2.782,2.355a10.889,10.889,0,0,1,2.829-.086c0-.3-.095-.7.147-.911" transform="translate(-171.852 -167.936)" fill="#fbf4db"/>
                </g>
              </g>
            </g>
            <path id="Path_838445" data-name="Path 838445" d="M157.951,176.928s2.421,7.907,4.583,7.891c1.184-.008,7.748-9,8.164-9.223a8.881,8.881,0,0,1,3.158,0c.623.153,2.782-2.356,2.782-2.356s1.109-2.605.626-3.058-2.582.728-3.2.725-2.356.009-2.494-.292.055-2.442-.36-2.669-1.917,2.889-2.464,5.294c-2.163,2.047-5.355,5.423-5.436,5.136-.162-.572-.629-2.416-.629-2.416a9.421,9.421,0,0,1-4.726.968" transform="translate(-24.598 -26.152)" fill="#f8cfcf"/>
            <path id="Path_838446" data-name="Path 838446" d="M171.678,249.472c-.058-.969,2.1.173,3.355-.09.458.474,1.233,2.938.358,4.023-1.065,1.321-3.565,7.432-4.784,6.928-2.079-.859,1.384-5.612,1.071-10.861" transform="translate(-26.464 -38.788)" fill="#1a3360"/>
            <path id="Path_838447" data-name="Path 838447" d="M177.611,246.526s2.887.092,3.023-.452-.137.544-.137.544,1.245,6.2.935,9.078-3.532-5.283-4.052-6.013.23-3.157.23-3.157" transform="translate(-27.595 -38.297)" fill="#1a3360"/>
            <path id="Path_838448" data-name="Path 838448" d="M217.822,160.945H260.96v36.169H213.507l-6.636,53.094h-37.5l6.637-53.094H127.231l-6.637,53.094H83.429l6.637-53.094H46.6V160.945H94.379l6.969-53.757H57.878V71.018h47.784L112.3,17.924h37.166l-6.637,53.094h48.779l6.638-53.094h37.165l-6.637,53.094h43.471v36.17H224.458Zm-37.5,0,6.969-53.757h-48.78l-6.968,53.757Z" transform="translate(-7.256 -2.791)" fill="#a3bfe4"/>
            <path id="Path_838449" data-name="Path 838449" d="M266.287,33.619l-4.981,39.843H295.75s-8.3,25.967-7.571,28.394,3,7.887,3,7.887h-4.614s-5.754-4.4-5.045-8.039,2.433-23.661,2.433-23.661-26.6,5.46-28.266-.607,8.639-28.944,5.836-31.763-3.485-7.832,4.759-12.054" transform="translate(-39.79 -5.235)" fill="#7c98be"/>
            <path id="Path_838450" data-name="Path 838450" d="M76.266,187.313l17.139-.068s-13.723,12.627-13.459,13.878-1.215,2.682-1.442,4.526-3.982,9.807-3.868,10.831-2.286,7-2.286,7H65.762s-.341-21.986,0-23.2,10.5-12.973,10.5-12.973" transform="translate(-10.217 -29.16)" fill="#7c98be"/>
            <path id="Path_838451" data-name="Path 838451" d="M157.951,187.245h31.171s-3.861,2.647-6.032,2.275c-4.123-.706-3.538,2.217-9.429,3.754-1.64.428-6.4-.475-11.307-1.648-3.212-.768-3.266-2.625-4.4-4.381" transform="translate(-24.598 -29.16)" fill="#7c98be"/>
            <path id="Path_838452" data-name="Path 838452" d="M264.654,214.93s-.21,5.529,5.131,5.311S274.1,225.9,274.1,225.9l-33.117-.011L236,265.071s-2.346-3.672-2.32-11.547-4.025-1.992-8.373-8.283c-7.28-10.536,4.951-33.659,7.508-36.189,15.073-14.908,28.071.355,31.844,5.878" transform="translate(-34.731 -31.566)" fill="#7c98be"/>
            <path id="Path_838453" data-name="Path 838453" d="M45.776,216.467s-4.663,23.294-4.432,25.121S66.719,279.7,66.719,279.7a29.422,29.422,0,0,1,2.343-2.553c.694-.562-5.224-19.458-14.591-32.793,0,0,2.422-26.247,2.229-28.033s-10.924.144-10.924.144" transform="translate(-6.437 -33.57)" fill="#6379c6"/>
            <path id="Path_838454" data-name="Path 838454" d="M69.008,214.817s1.7,5.219-7.394,31.054c-2.535,12.388-10.785,33.5-13.062,40.875l-3.585-.752c3.787-73.305,8.96-73.258,8.143-69.928.69-2.811,15.9-1.25,15.9-1.25" transform="translate(-7.003 -33.386)" fill="#6379c6"/>
            <g id="Group_1083857" data-name="Group 1083857" transform="translate(40.317 182.827)" opacity="0.5" style="mix-blend-mode: multiply;isolation: isolate">
              <g id="Group_1083856" data-name="Group 1083856">
                <g id="Group_1083855" data-name="Group 1083855" clip-path="url(#clip-path-8)">
                  <path id="Path_838455" data-name="Path 838455" d="M52.971,216.551s-4.93,30.8-5.217,34.353c0,0,3.283-32.689,3.738-34.353Z" transform="translate(-47.754 -216.551)" fill="#6379c6"/>
                </g>
              </g>
            </g>
            <path id="Path_838456" data-name="Path 838456" d="M27.178,175.339l3.844,13.536,6.036-.836-2.675-14.517Z" transform="translate(-4.232 -27.022)" fill="#332751"/>
            <path id="Path_838457" data-name="Path 838457" d="M36.77,173.522l2.125,13.329-.507,1.189-2.675-14.517Z" transform="translate(-5.561 -27.022)" fill="#2f4c69"/>
            <path id="Path_838458" data-name="Path 838458" d="M32.518,177.942a.7.7,0,1,1-.7-.7.705.705,0,0,1,.7.7" transform="translate(-4.845 -27.601)" fill="#2f4c69"/>
            <path id="Path_838459" data-name="Path 838459" d="M28.972,184.095s.7-.114.873.87.565,1.076.538.838c-.291-2.564.684-4.618,1.088-4.791s3.429,1.293,3.578,1.478a14.6,14.6,0,0,1,1.393,3.185c.51,1.144-.2,1.393-.977,3.641-.162.467,4.144,6.323,4.144,6.323l.654-2.872,5.1,1.71-1.019,7.04s-1.754,4.615-4.967,2.692c-4.514-2.7-11.161-18.494-10.41-20.113" transform="translate(-4.503 -28.187)" fill="#f8cfcf"/>
            <g id="Group_1083860" data-name="Group 1083860" transform="translate(28.248 161.129)" style="mix-blend-mode: multiply;isolation: isolate">
              <g id="Group_1083859" data-name="Group 1083859">
                <g id="Group_1083858" data-name="Group 1083858" clip-path="url(#clip-path-9)">
                  <path id="Path_838460" data-name="Path 838460" d="M36.173,190.85c-.465.1-.812,1.128-2.681,1.165-.5.01,4.712,3.3,5.557,3.3-2.68-3.569-3.078-4.421-2.876-4.464" transform="translate(-33.459 -190.85)" fill="#fbf4db"/>
                </g>
              </g>
            </g>
            <g id="Group_1083863" data-name="Group 1083863" transform="translate(35.107 165.088)" style="mix-blend-mode: multiply;isolation: isolate">
              <g id="Group_1083862" data-name="Group 1083862">
                <g id="Group_1083861" data-name="Group 1083861" clip-path="url(#clip-path-10)">
                  <path id="Path_838461" data-name="Path 838461" d="M41.582,197.9s2.61,1.413,3.337,2.616a14.941,14.941,0,0,1,1.4,3.261l1.019-7.205-3.427-1.037a11.845,11.845,0,0,1,.548,3.03,7.99,7.99,0,0,0-2.88-.666" transform="translate(-41.582 -195.539)" fill="#fbf4db"/>
                </g>
              </g>
            </g>
            <path id="Path_838462" data-name="Path 838462" d="M45.295,155.684s2.162,9.2,4.9,10.72,3.778.7,4.388,1.009c.236.118.2,1.039-.115,2.48-.459,2.1-.736,4.921-.736,4.921s8.162-2.679,8.467-4.354,0-10.358,0-10.358,2.133-4.874,1.218-6.855-5.94-6.093-5.94-6.093-11.272.914-12.186,8.531" transform="translate(-7.054 -22.916)" fill="#f8cfcf"/>
            <path id="Path_838463" data-name="Path 838463" d="M37.6,149.682s.711,5.077,3.96,5.89c2.106.527,4.062,1.422,8.124-.913s4.774-5.281,6.4-4.875.914,4.19,2.336,6.36h.71s-1.015-3.11,0-4.024,2.235,1.727,2.235,2.945-1.019,2.928-.306,5.679a16.68,16.68,0,0,1,1.4-3.647c1.074-1.727,1.319-6.6,1.116-8.328s-.684-6.092-3.012-6.816c-1.946-.6-3.055-.608-4.456.565,0,0-4.894-2.851-7.027-.991s-8.632,8.867-11.475,8.156" transform="translate(-5.855 -21.942)" fill="#ad7150"/>
            <path id="Path_838464" data-name="Path 838464" d="M53.989,172.1s-1.141,5.323,1.461,4.282,5.856-3.527,6.158-7.128c0,0,9.23.328,11.225,1.2s10.778,4.834,12.513,6.915c0,0-4.83,4.837-6.825,7.266l-6.142-.122s-4.39,21.8-4.043,23.277-22.61,2.407-22.87,2.494.509-18.165.335-18.1-5.153-1.741-5.153-1.741S44.274,176.949,45.228,176s8.761-3.892,8.761-3.892" transform="translate(-6.33 -26.358)" fill="#ff5d72"/>
            <path id="Path_838465" data-name="Path 838465" d="M43.106,299.2s-8.3,1.023-9.949,2.151,11.828,2.735,13.476,1.867.058-3.267.058-3.267Z" transform="translate(-5.142 -46.595)" fill="#1a3360"/>
            <path id="Path_838466" data-name="Path 838466" d="M70.8,291.061s.407,5.494,0,6.476-3.7,1.5-3.182,2.151,5.268.648,5.583,0,4.018-9.358,3.064-10.138a7.764,7.764,0,0,0-3.122-1.041Z" transform="translate(-10.522 -44.929)" fill="#1a3360"/>
            <g id="Group_1083866" data-name="Group 1083866" transform="translate(47.418 139.658)" style="mix-blend-mode: multiply;isolation: isolate">
              <g id="Group_1083865" data-name="Group 1083865">
                <g id="Group_1083864" data-name="Group 1083864" clip-path="url(#clip-path-11)">
                  <path id="Path_838467" data-name="Path 838467" d="M56.28,170.257s3.973-1.255,5.111-4.839c0,4.379-3.228,7.166-5.226,8.247Z" transform="translate(-56.165 -165.418)" fill="#fbf4db"/>
                </g>
              </g>
            </g>
            <g id="Group_1083869" data-name="Group 1083869" transform="translate(66.048 153.127)" opacity="0.5" style="mix-blend-mode: multiply;isolation: isolate">
              <g id="Group_1083868" data-name="Group 1083868">
                <g id="Group_1083867" data-name="Group 1083867" clip-path="url(#clip-path-12)">
                  <path id="Path_838468" data-name="Path 838468" d="M85.59,181.372s-5.008,1.906-6.3,0L78.23,186.4h5.1Z" transform="translate(-78.231 -181.372)" fill="#ff5d72"/>
                </g>
              </g>
            </g>
            <g id="Group_1083872" data-name="Group 1083872" transform="translate(53.562 159.54)" opacity="0.5" style="mix-blend-mode: multiply;isolation: isolate">
              <g id="Group_1083871" data-name="Group 1083871">
                <g id="Group_1083870" data-name="Group 1083870" clip-path="url(#clip-path-13)">
                  <path id="Path_838469" data-name="Path 838469" d="M75.556,188.968s-2.845,10.351-10.7,11.7c-4.3.74,2.326,1.38,4.946,0s-1.176,3.413-3.326,4.1.731,1.316,1.717,1.152-1.44,1.958-.227,2.564,3.906,1.944,3.906,1.944Z" transform="translate(-63.442 -188.968)" fill="#ff5d72"/>
                </g>
              </g>
            </g>
            <path id="Path_838470" data-name="Path 838470" d="M86.866,178.669c-4.974,3.556-12.05,16.639-13.2,18.9s-2.5,3.2-2.222,6.363c.018.2,1.026.372,1.125.763.328,1.29,1.716,3.884,2.27,4,.721.153,2.483-2.658,2.466-3.135s-.279-3.153.693-3.979c.761-.647.4-3.456.4-3.456S90.059,187.065,91.63,186c3.727-2.519-.139-10.64-4.764-7.333" transform="translate(-11.119 -27.703)" fill="#f8cfcf"/>
            <g id="Group_1083875" data-name="Group 1083875" transform="translate(49.476 218.919)" opacity="0.5" style="mix-blend-mode: multiply;isolation: isolate">
              <g id="Group_1083874" data-name="Group 1083874">
                <g id="Group_1083873" data-name="Group 1083873" clip-path="url(#clip-path-14)">
                  <path id="Path_838471" data-name="Path 838471" d="M62.155,259.3,58.6,270.779l7.568,11.044s.484-15.5-4.015-22.523" transform="translate(-58.602 -259.299)" fill="#6379c6"/>
                </g>
              </g>
            </g>
            <path id="Path_838472" data-name="Path 838472" d="M311.772,76.754s6.942,3.335,6.556,4.285-10.968-1.193-10.968-1.193l-.764-3.092Z" transform="translate(-47.746 -11.953)" fill="#1b374b"/>
            <path id="Path_838473" data-name="Path 838473" d="M288.319,48.6s15-5.8,18.533-2.771S308.743,71.8,308.743,71.8H304.96s-4.281-14.246-4.284-16.894c-3.154,2.773-9.71,9.2-12.358,8.951s0-15.258,0-15.258" transform="translate(-44.716 -7.001)" fill="#3b2e76"/>
            <path id="Path_838474" data-name="Path 838474" d="M283.243,62.5s21.852,9.078,22.02,12.019-12.736,29.567-12.736,29.567-2.589,1.008-3.69-.673l4.66-23.618s-20.424,1.363-22.315-8.807S283.243,62.5,283.243,62.5" transform="translate(-42.203 -9.717)" fill="#3b2e76"/>
            <path id="Path_838475" data-name="Path 838475" d="M289.418,31.591s13.469,3.647,15.234,5.16,10.968,8.007,10.968,8.007l-1.807,3.614L302.124,42.96S291.666,44,291.162,44.128s-2.627-11.067-1.744-12.537" transform="translate(-45.038 -4.92)" fill="#ffb15f"/>
            <path id="Path_838476" data-name="Path 838476" d="M298.864,9.643c1.059,2.472,1.305,11.346.8,11.6s-1.513-.168-1.933.5-2.146,4.875-4.5,4.2A19.1,19.1,0,0,1,289.5,24.5l.793,5.31-7.9-3.109a73.492,73.492,0,0,0,0-7.9c-.556-3.968.633-10.271,4.454-12.714a8.1,8.1,0,0,1,12.019,3.553" transform="translate(-43.956 -0.734)" fill="#f8cfcf"/>
            <path id="Path_838477" data-name="Path 838477" d="M304.84,3.323c.181,1.885.339,5.16-2.1,7.259s-1.849,2.357-7.4,1.834-6.725-1.659-7.985-2.969c0,0,.588,3.056,0,4.454s-.588,1.824-.42,2.44-1.009.091-1.261-.868S284,12.1,282.9,14.624c-.756,1.747.6,2.783.231,5.359-.189,1.324-1.189,2.405-1.209,2.041-.244-4.373-2.153-4.261-3.057-8.156-1.092-4.706.588-9.486,4.371-11.32,0,0,6.892-4.367,10.927-1.309s4.707.011,4.958-1.086,2.1,4.12,2.942,3.17,2.453-3.34,2.773,0" transform="translate(-43.377 0)" fill="#788fff"/>
            <path id="Path_838478" data-name="Path 838478" d="M286.394,31.631a10.083,10.083,0,0,1,2.865,6.052c.286,3.656-1.58,17.717-2.427,17.717a33.024,33.024,0,0,0-11.288,4.159c-4.421,2.774-3.824,4.672-5.841,3.969-1.487-.518-1.429-5.682-1.218-11.136s1.217-9.968,1.217-11.242c-5.092.6-8.424-5.994-6.523-8.378,3.783-4.745,10.6-7.834,16.27-6.727-.545,3.673,4.23,3.557,6.945,5.587" transform="translate(-40.9 -4.021)" fill="#ffb15f"/>
            <path id="Path_838479" data-name="Path 838479" d="M277.1,46.383s4.49,15.288,7.012,16.8,17.271,5.294,17.271,5.294l1.387-2.4-13.112-9.014L287.532,42.34S277.6,41.214,277.1,46.383" transform="translate(-43.152 -6.577)" fill="#ffb15f"/>
            <path id="Path_838480" data-name="Path 838480" d="M307.245,70.482a28.933,28.933,0,0,1,3.448.882c.362.225.5,1.513.5,1.513s1.6,1.345,1.6,2.605-1.057,2.8-1.765,3.867c-.334.5-1.909.981-2.017.536-.25-1.023.8-3.31-.084-4.158-.293-.281-3.068-2.85-3.068-2.85Z" transform="translate(-47.631 -10.976)" fill="#f8cfcf"/>
            <path id="Path_838481" data-name="Path 838481" d="M320.159,46.687,318.352,50.3s1.618.294,2.122.294,3.846-5.232,3.846-5.232-.127-1.386-.882-1.386-3.278,2.71-3.278,2.71" transform="translate(-49.577 -6.849)" fill="#f8cfcf"/>
            <path id="Path_838482" data-name="Path 838482" d="M330.8,40.447l-4.35-1.324-6.934,12.671,2.543,2.669Z" transform="translate(-49.759 -6.093)" fill="#7fc9ff"/>
            <path id="Path_838483" data-name="Path 838483" d="M331.274,40.692l.84,1.3-8.446,13.122-1.135-.409Z" transform="translate(-50.228 -6.337)" fill="#7f9aff"/>
            <path id="Path_838484" data-name="Path 838484" d="M328.122,51.111s-1.731-1.943-3.446-1.933-1.26,1.933-1.26,1.933a12.962,12.962,0,0,0-.882,2.731c0,.673,1.807,2.227,2.143,2.186s3.657-3.11,3.446-4.917" transform="translate(-50.228 -7.658)" fill="#f8cfcf"/>
            <path id="Path_838485" data-name="Path 838485" d="M295.672,111.651l-3.69-.672a5.781,5.781,0,0,0-.772,2.167c-.252,1.429,3.782,8.7,5.72,9.259,1.972.574.095-2.919-1.258-10.754" transform="translate(-45.348 -17.283)" fill="#1b374b"/>
            <g id="Group_1083878" data-name="Group 1083878" transform="translate(233.813 36.183)" opacity="0.6" style="mix-blend-mode: multiply;isolation: isolate">
              <g id="Group_1083877" data-name="Group 1083877">
                <g id="Group_1083876" data-name="Group 1083876" clip-path="url(#clip-path-15)">
                  <path id="Path_838486" data-name="Path 838486" d="M281.966,60.105s-5.714-12.9-4.569-17.248c0,0-2.309,9.448,3.467,17.722Z" transform="translate(-276.941 -42.857)" fill="#ffb15f"/>
                </g>
              </g>
            </g>
            <g id="Group_1083881" data-name="Group 1083881" transform="translate(247.429 30.872)" opacity="0.6" style="mix-blend-mode: multiply;isolation: isolate">
              <g id="Group_1083880" data-name="Group 1083880">
                <g id="Group_1083879" data-name="Group 1083879" clip-path="url(#clip-path-16)">
                  <path id="Path_838487" data-name="Path 838487" d="M302.726,43.735a14.242,14.242,0,0,1,.145-4.32c-.5-.094-1.211,3.726-2.085,3.71-4.057-.076-4.474-2.806-7.717-6.558.93,1.26,1.754,6.113.7,8.092Z" transform="translate(-293.068 -36.566)" fill="#ffb15f"/>
                </g>
              </g>
            </g>
            <g id="Group_1083884" data-name="Group 1083884" transform="translate(240.81 33.087)" opacity="0.6" style="mix-blend-mode: multiply;isolation: isolate">
              <g id="Group_1083883" data-name="Group 1083883">
                <g id="Group_1083882" data-name="Group 1083882" clip-path="url(#clip-path-17)">
                  <path id="Path_838488" data-name="Path 838488" d="M290.35,54.4s-2.71-11.53-5.121-15.213c0,0,5.272,8.185,5.649,17.107Z" transform="translate(-285.228 -39.19)" fill="#ffb15f"/>
                </g>
              </g>
            </g>
            <g id="Group_1083887" data-name="Group 1083887" transform="translate(223.27 22.578)" opacity="0.6" style="mix-blend-mode: multiply;isolation: isolate">
              <g id="Group_1083886" data-name="Group 1083886">
                <g id="Group_1083885" data-name="Group 1083885" clip-path="url(#clip-path-18)">
                  <path id="Path_838489" data-name="Path 838489" d="M279.691,26.754s-6.874-.335-11.138,2.671c-3.79,2.672-4.854,4.2-3.6,4.09s7.322-6.99,16.838-4.011c0,0-2.306-.87-2.1-2.75" transform="translate(-264.453 -26.743)" fill="#ffb15f"/>
                </g>
              </g>
            </g>
            <g id="Group_1083890" data-name="Group 1083890" transform="translate(228.446 27.459)" opacity="0.6" style="mix-blend-mode: multiply;isolation: isolate">
              <g id="Group_1083889" data-name="Group 1083889">
                <g id="Group_1083888" data-name="Group 1083888" clip-path="url(#clip-path-19)">
                  <path id="Path_838490" data-name="Path 838490" d="M270.939,42.193s3.754-2.434,5.142-4.888,4.252-6.208,9.691-4.222c0,0-5.331-1.347-8.085,3.514a32.459,32.459,0,0,1-7.1,8.45Z" transform="translate(-270.584 -32.524)" fill="#ffb15f"/>
                </g>
              </g>
            </g>
            <g id="Group_1083893" data-name="Group 1083893" transform="translate(241.734 18.127)" style="mix-blend-mode: multiply;isolation: isolate">
              <g id="Group_1083892" data-name="Group 1083892">
                <g id="Group_1083891" data-name="Group 1083891" clip-path="url(#clip-path-20)">
                  <path id="Path_838491" data-name="Path 838491" d="M290.131,27.113s-2.871-1.47-3.326-3.441a7.174,7.174,0,0,1-.366-2.2,10.2,10.2,0,0,0,.176,3.968c.208.829,3.842,3.872,3.842,3.872Z" transform="translate(-286.323 -21.471)" fill="#fbf4db"/>
                </g>
              </g>
            </g>
            <path id="Path_838492" data-name="Path 838492" d="M253.423,276.513s-.244,11.353,5.131,12.749c10.52,2.733,30.606-9.4,33.082-9.022s27.435,6.357,27.435,6.357l.909-3.1s-29.2-11.812-29.678-11.818-26.605.078-29.84,1.41-7.04,3.425-7.04,3.425" transform="translate(-39.465 -42.308)" fill="#727997"/>
            <path id="Path_838493" data-name="Path 838493" d="M261.105,274.978s1.88,8.187,7.024,10.281,17.292,1.083,19.768,1.465S316.628,299.5,316.628,299.5l3.068-4.156s-28.258-17.065-28.733-17.071-16.221-9.065-19.455-7.734-10.4,4.439-10.4,4.439" transform="translate(-40.662 -42.11)" fill="#727997"/>
            <path id="Path_838494" data-name="Path 838494" d="M268.767,211.473s-4.289,9.99-.812,12.369,15.084,2.188,10.326,7.8-31.02,5.461-32.923-2.912,4.551-22.865,23.409-17.259" transform="translate(-38.16 -32.737)" fill="#ffd54e"/>
            <g id="Group_1083896" data-name="Group 1083896" transform="translate(206.879 177.487)" opacity="0.5" style="mix-blend-mode: multiply;isolation: isolate">
              <g id="Group_1083895" data-name="Group 1083895">
                <g id="Group_1083894" data-name="Group 1083894" clip-path="url(#clip-path-21)">
                  <path id="Path_838495" data-name="Path 838495" d="M255.906,224.632c-.893-4.472.482-10.823,4.745-14.407-12.591.132-16.891,11.476-15.293,18.509,1.9,8.372,28.166,8.525,32.923,2.911a4.158,4.158,0,0,0,1.111-2.15c-7.249,2.761-22.2,1.576-23.486-4.863" transform="translate(-245.039 -210.225)" fill="#ffd54e"/>
                </g>
              </g>
            </g>
            <path id="Path_838496" data-name="Path 838496" d="M266.465,218.067c-2.235,4.134-5.1,7.11-6.32,7.533a6.447,6.447,0,0,1-3.109.284l1.39,3.518s5.771.5,5.961,1.453-9.895,10.193-11.512,10.669-2.391-8.314-2.962-12.216l1.947-.055a21.7,21.7,0,0,0-.456-6.9c-4.778-3.3,3.127-14.3,5.316-15.248s13.665,3.713,9.746,10.961" transform="translate(-38.916 -32.233)" fill="#f8cfcf"/>
            <path id="Path_838497" data-name="Path 838497" d="M249.236,213.508c-7,16.737.564,17.154-.62,21.757-2.752,10.7-8.893,8.811-13.378,4.48-14.257-13.766,3.986-41.357,14.706-38.07,13.151-6.131,23.667,2.795,20.172,9.4-2.163,4.093-7.7,4.07-9.874,3.723-9.514-1.522-9.09-5.876-11.006-1.294" transform="translate(-35.818 -31.087)" fill="#ffd54e"/>
            <path id="Path_838498" data-name="Path 838498" d="M248.925,233.361s2.086,6.705,7.919,6.483c3.409-.129,2.509-3.337,1.118-6.238,0,0,3.729-.245,6.118,1.723,2.118,1.746,8.357,9.584,8.357,9.584s.648,7.717-.895,8.089c-.588.143-6.763-6.523-6.237-5.878,2.738,3.356-3,3.868,3.653,16.857.718,1.4-16.658,7.093-17.372,8.663s-3.465-16-4.38-16.536c-.987.834-5.676-.527-5.676-.527s-3.754-19.378,7.393-22.22" transform="translate(-37.519 -36.341)" fill="#fb85d1"/>
            <g id="Group_1083899" data-name="Group 1083899" transform="translate(209.739 214.964)" opacity="0.5" style="mix-blend-mode: multiply;isolation: isolate">
              <g id="Group_1083898" data-name="Group 1083898">
                <g id="Group_1083897" data-name="Group 1083897" clip-path="url(#clip-path-22)">
                  <path id="Path_838499" data-name="Path 838499" d="M270.129,267.291c-2.866-4.742-3.785-10.4-3.2-12.676-.639,1.7-1.976,1.7-3.45,1.7-1.027,0-2.941.566-4.7.718,4.7,1.026,7.03,3.328,7.735,5,2.155,5.131-.084,6.467-.8,6.6a3.309,3.309,0,0,1-.805.333,1.52,1.52,0,0,1-1.6-.434c-.2-.035-.4-.089-.6-.133a1.447,1.447,0,0,1-1.586,1.31,15.037,15.037,0,0,1-5.929-1.443,1.681,1.681,0,0,1-.444-.324,1.854,1.854,0,0,1-2.68-1.879,2.887,2.887,0,0,1,2.176-2.389,30.778,30.778,0,0,1-2.827-2.006,10.264,10.264,0,0,1-2.945-3.408c0,.407-.02.81-.052,1.212.96,1.087,3.629,18.024,4.329,16.481.714-1.57,18.188-7.313,17.373-8.662" transform="translate(-248.426 -254.615)" fill="#fb85d1"/>
                </g>
              </g>
            </g>
            <g id="Group_1083902" data-name="Group 1083902" transform="translate(224.792 204.161)" opacity="0.5" style="mix-blend-mode: multiply;isolation: isolate">
              <g id="Group_1083901" data-name="Group 1083901">
                <g id="Group_1083900" data-name="Group 1083900" clip-path="url(#clip-path-23)">
                  <path id="Path_838500" data-name="Path 838500" d="M276.383,246.23s-1.694-2.127-3.614-4.41a7.207,7.207,0,0,1,.554,3.361,1.707,1.707,0,0,1-2.128,1.621,9.219,9.219,0,0,1-4.938-3.955c.235.317,1.9,3.774,2.566,5.142.073.1,1.217,1.264,2.605,2.692,1.673,1.7,3.734,3.717,4.062,3.639,1.543-.373.894-8.09.894-8.09" transform="translate(-266.256 -241.82)" fill="#fb85d1"/>
                </g>
              </g>
            </g>
            <path id="Path_838501" data-name="Path 838501" d="M332.039,293.015c-2.138,1.889-7.3,6.645-6.184,9.578s4.612,1.806,5.381.935c2.291-2.6,5.561-10.349,5.276-12.416s-2.483.144-4.472,1.9" transform="translate(-50.721 -45.205)" fill="#fb85d1"/>
            <g id="Group_1083905" data-name="Group 1083905" transform="translate(276.444 245.082)" opacity="0.5" style="mix-blend-mode: multiply;isolation: isolate">
              <g id="Group_1083904" data-name="Group 1083904">
                <g id="Group_1083903" data-name="Group 1083903" clip-path="url(#clip-path-24)">
                  <path id="Path_838502" data-name="Path 838502" d="M331.506,303.531c2.29-2.6,5.56-10.349,5.275-12.416-.081-.588-.32-.821-.661-.826a26.9,26.9,0,0,0-2.772,2.825c-2.049,2.226-6.991,7.82-5.7,11.057.015.04.035.07.052.108a3.97,3.97,0,0,0,3.808-.749" transform="translate(-327.435 -290.288)" fill="#fb85d1"/>
                </g>
              </g>
            </g>
            <path id="Path_838503" data-name="Path 838503" d="M331.143,286.8s-1.047-1.945,1.618-5.492,3.49-6.293,3.49-7.72,1.73-.317,2.188,2.855c.615,4.263-3.2,14.257-7.3,10.357" transform="translate(-51.537 -42.51)" fill="#fb85d1"/>
            <path id="Path_838504" data-name="Path 838504" d="M241.644,259.68s1.758,7.332,2.186,7.618,21.129,6.309,22.159,5.528c2.3-1.746,5.668-2.252,8.074-2.857s-3.213-3.192-5.046-2.671a10.046,10.046,0,0,0-3.093,2.143l-17.3-5.315-1.238-4.446a17.738,17.738,0,0,1-5.744,0" transform="translate(-37.631 -40.44)" fill="#f8cfcf"/>
            <path id="Path_838505" data-name="Path 838505" d="M272.448,223.478l6.358,3.353L274,237.818l-4.8-1.186Z" transform="translate(-41.922 -34.802)" fill="#a52a87"/>
            <path id="Path_838506" data-name="Path 838506" d="M272.327,223.478l-.9.009-3,12.148.653,1Z" transform="translate(-41.802 -34.802)" fill="#fb85d1"/>
            <path id="Path_838507" data-name="Path 838507" d="M276.292,229.029c-.136.549-.575.913-.982.812a.921.921,0,0,1-.491-1.176c.136-.549.575-.913.982-.812a.922.922,0,0,1,.491,1.176" transform="translate(-42.791 -35.481)" fill="#fb85d1"/>
            <path id="Path_838508" data-name="Path 838508" d="M275.492,233.7s2.6-3.521,2.031-.809.714,7.5.714,7.5,7.63,17.453,3.545,17.671a5.347,5.347,0,0,1-5.128-2.848,16.449,16.449,0,0,1-1.475-7.253c.281-5.023-.951-7.078-1.873-8.219s-2.493-2.215-3.214-3.236c-.7-.986-1.378-3.187-2.04-4.186s5.25,2.41,5.25,2.41Z" transform="translate(-41.736 -36.107)" fill="#f8cfcf"/>
            <g id="Group_1083908" data-name="Group 1083908" transform="translate(235.698 238.273)" opacity="0.5" style="mix-blend-mode: multiply;isolation: isolate">
              <g id="Group_1083907" data-name="Group 1083907">
                <g id="Group_1083906" data-name="Group 1083906" clip-path="url(#clip-path-25)">
                  <path id="Path_838509" data-name="Path 838509" d="M279.174,288.4s14.727-5.883,16.092-6.085a8.527,8.527,0,0,1,2.486,0l2.7,1.644s-3.519-.405-5.187.884-4.554,3.722-4.554,3.722Z" transform="translate(-279.174 -282.223)" fill="#a52a87"/>
                </g>
              </g>
            </g>
            <path id="Path_838510" data-name="Path 838510" d="M248.431,221.453s-3.627,8.346.621,14.413,1.2,11.452-2.06,12.134-7.81-.768-10.877-4.856,9.647-20.634,12.316-21.691" transform="translate(-36.696 -34.487)" fill="#ffd54e"/>
            <g id="Group_1083911" data-name="Group 1083911" transform="translate(214.438 191.502)" style="mix-blend-mode: multiply;isolation: isolate">
              <g id="Group_1083910" data-name="Group 1083910">
                <g id="Group_1083909" data-name="Group 1083909" clip-path="url(#clip-path-26)">
                  <path id="Path_838511" data-name="Path 838511" d="M257.673,228.974s-3.211-1.125-3.681-2.149l5.071,5.667Z" transform="translate(-253.992 -226.825)" fill="#fbf4db"/>
                </g>
              </g>
            </g>
            <path id="Path_838512" data-name="Path 838512" d="M327.092,26.831s1.244-3.825.554-4.784c-1.714-2.383-5.28-10.393,3.911-13.891,9.7-3.692,17.661,5.363,12.522,13.173-2.246,3.413-8.01,3.97-11.919,3.209-1.219-.237-5.069,2.292-5.069,2.292" transform="translate(-50.692 -1.138)" fill="#ffb15f"/>
            <path id="Path_838513" data-name="Path 838513" d="M338.828,17.76H340.4v1.314h-1.724L338.43,21h-1.362l.241-1.928h-1.771L335.3,21h-1.35l.241-1.928H332.61V17.76h1.735l.253-1.952h-1.579V14.494h1.735L335,12.566h1.349l-.241,1.928h1.771l.241-1.928h1.35l-.241,1.928H340.8v1.314h-1.736Zm-1.362,0,.253-1.952h-1.772l-.252,1.952Z" transform="translate(-51.797 -1.957)" fill="#ebffff"/>
            <path id="Path_838514" data-name="Path 838514" d="M200.7,137.791s1.244-3.825.554-4.784c-1.714-2.383-5.28-10.392,3.912-13.891,9.7-3.692,17.661,5.363,12.522,13.173-2.246,3.413-8.01,3.97-11.919,3.209-1.219-.237-5.069,2.292-5.069,2.292" transform="translate(-31.008 -18.417)" fill="#47b2e7"/>
            <path id="Path_838515" data-name="Path 838515" d="M212.433,128.72H214v1.314h-1.724l-.241,1.928h-1.362l.241-1.928h-1.771l-.241,1.928h-1.35l.241-1.928h-1.578V128.72h1.735l.253-1.952h-1.579v-1.314h1.735l.241-1.928h1.35l-.241,1.928h1.771l.241-1.928h1.35l-.241,1.928h1.579v1.314h-1.736Zm-1.362,0,.253-1.952h-1.772l-.252,1.952Z" transform="translate(-32.114 -19.237)" fill="#ebffff"/>
            <path id="Path_838516" data-name="Path 838516" d="M21.875,148.858s-1.244-3.825-.554-4.784c1.714-2.383,5.28-10.392-3.912-13.891-9.7-3.692-17.661,5.363-12.522,13.173,2.246,3.413,8.01,3.97,11.919,3.209,1.219-.237,5.069,2.292,5.069,2.292" transform="translate(-0.51 -20.141)" fill="#ff5d72"/>
            <path id="Path_838517" data-name="Path 838517" d="M16.593,139.787H18.16V141.1H16.436l-.241,1.928H14.833l.241-1.928H13.3l-.241,1.928h-1.35l.241-1.928H10.374v-1.314H12.11l.253-1.952H10.784v-1.314h1.735l.241-1.928h1.35l-.241,1.928h1.771l.241-1.928h1.35l-.241,1.928h1.579v1.314H16.834Zm-1.362,0,.253-1.952H13.712l-.252,1.952Z" transform="translate(-1.616 -20.96)" fill="#ebffff"/>
            <path id="Path_838518" data-name="Path 838518" d="M292.8,217.006s1.244-3.825.553-4.784c-1.714-2.383-5.28-10.393,3.911-13.891,9.7-3.692,17.661,5.363,12.522,13.173-2.245,3.413-8.01,3.97-11.918,3.209-1.219-.237-5.069,2.292-5.069,2.292" transform="translate(-45.352 -30.754)" fill="#fb85d1"/>
            <path id="Path_838519" data-name="Path 838519" d="M304.538,207.936h1.567v1.314h-1.724l-.241,1.928h-1.362l.241-1.928h-1.771l-.241,1.928h-1.35l.241-1.928H298.32v-1.314h1.735l.253-1.952h-1.579V204.67h1.735l.241-1.928h1.349l-.241,1.928h1.771l.241-1.928h1.349l-.241,1.928h1.579v1.314h-1.736Zm-1.362,0,.253-1.952h-1.772l-.252,1.952Z" transform="translate(-46.457 -31.573)" fill="#ebffff"/>
          </g>
        </g>
      </g>
    </g>
    <g id="Group_1083917" data-name="Group 1083917" transform="translate(370 13215)">
      <g id="Group_1083916" data-name="Group 1083916" clip-path="url(#clip-path-27)">
        <path id="Path_838520" data-name="Path 838520" d="M55.009,75.023C48.719,78.34,42.315,79.6,34.653,79.6,15.9,79.6,0,65.874,0,43.916,0,20.357,16.354,0,41.743,0c19.9,0,33.28,13.952,33.28,33.052,0,17.154-9.607,27.218-20.357,27.218-4.574,0-8.805-3.088-8.463-10.064h-.458c-4,6.748-9.262,10.064-16.125,10.064-6.632,0-12.351-5.375-12.351-14.41a27.007,27.007,0,0,1,27.1-27.1,30.148,30.148,0,0,1,12.238,2.4l-3.889,20.7c-1.716,8.691-.343,12.694,3.431,12.809C61.986,54.78,68.5,47,68.5,33.738c0-16.583-9.949-28.477-27.676-28.477C22.187,5.261,6.519,20.014,6.519,43.23c0,19.1,12.466,30.878,29.391,30.878a35.684,35.684,0,0,0,17.27-4Zm-6.29-49.405a19.771,19.771,0,0,0-5.718-.8c-10.064,0-18.184,9.492-18.184,20.586,0,5.032,2.516,8.692,7.548,8.692C39,54.1,45.06,45.632,46.318,38.541Z" fill="#983333"/>
      </g>
    </g>
  </g>
</svg>
