<svg xmlns="http://www.w3.org/2000/svg" xmlns:xlink="http://www.w3.org/1999/xlink" width="252" height="270.481" viewBox="0 0 252 270.481">
  <defs>
    <clipPath id="clip-path">
      <rect id="Rectangle_382488" data-name="Rectangle 382488" width="238.145" height="228.981" fill="none"/>
    </clipPath>
  </defs>
  <g id="Group_1087071" data-name="Group 1087071" transform="translate(-328 -11136.519)">
    <rect id="Rectangle_382481" data-name="Rectangle 382481" width="252" height="82" rx="18" transform="translate(328 11325)" fill="#a3bfe4"/>
    <g id="Group_1087070" data-name="Group 1087070" transform="translate(341.855 11136.519)">
      <g id="Group_1087069" data-name="Group 1087069" clip-path="url(#clip-path)">
        <path id="Path_841641" data-name="Path 841641" d="M23.409,24.92a11.513,11.513,0,0,0-2.693,9.517c.8,6.151,4.965,12.278.868,17.639-3.117,4.076,10.455,2.682,15.9-3.611,3.336-3.852-.691-12.654-.8-14.028-.293-3.62-2.478-9.008-5.782-9.81a18.157,18.157,0,0,0-7.492.293" transform="translate(15.968 18.864)" fill="#333"/>
        <path id="Path_841642" data-name="Path 841642" d="M21.688,18.957s-2.917,11.562,4.522,12.86c6.116,1.067,4.282-8.516,4.282-8.516Z" transform="translate(16.377 14.697)" fill="#ff8500"/>
        <path id="Path_841643" data-name="Path 841643" d="M28.472,32.778V28.121a13.749,13.749,0,0,0,6.554,1.688,13.393,13.393,0,0,0,2.224-.208V33.33c-1.408.623-4.463,1.4-8.779-.552" transform="translate(22.073 21.801)" fill="#e59553"/>
        <path id="Path_841644" data-name="Path 841644" d="M32.86,39.247a4.389,4.389,0,0,1-4.388-4.388V30.745c4.314,1.955,7.371,1.173,8.777.552v3.561a4.389,4.389,0,0,1-4.388,4.388" transform="translate(22.073 23.836)" fill="#f9c38a"/>
        <path id="Path_841645" data-name="Path 841645" d="M39.422,5.6c9.178,0,16.62,9.327,16.62,20.833S48.6,47.269,39.422,47.269,22.8,37.942,22.8,26.435,30.244,5.6,39.422,5.6" transform="translate(17.678 4.343)" fill="#f9c38a"/>
        <path id="Path_841646" data-name="Path 841646" d="M35.625,18.155a1.725,1.725,0,0,0,1.521,1.873,1.725,1.725,0,0,0,1.521-1.873,1.725,1.725,0,0,0-1.521-1.873,1.725,1.725,0,0,0-1.521,1.873" transform="translate(27.619 12.623)" fill="#96281b"/>
        <path id="Path_841647" data-name="Path 841647" d="M28.505,18.155a1.725,1.725,0,0,0,1.521,1.873,1.725,1.725,0,0,0,1.521-1.873,1.725,1.725,0,0,0-1.521-1.873,1.725,1.725,0,0,0-1.521,1.873" transform="translate(22.099 12.623)" fill="#96281b"/>
        <path id="Path_841648" data-name="Path 841648" d="M28.9,23.4c.589,2.171,2.3,5.072,6.929,4.973a6.118,6.118,0,0,0,5.738-4.481,25.506,25.506,0,0,1-3.751.353c-2.848.138-6.18.186-8.915-.845" transform="translate(22.408 18.141)" fill="#96281b"/>
        <path id="Path_841649" data-name="Path 841649" d="M28.793,22.887a8.453,8.453,0,0,0,.2.907c2.736,1.031,6.068.983,8.914.845a25.559,25.559,0,0,0,3.753-.352,7.4,7.4,0,0,0,.5-1.344s-3.053.282-6.5.282c-3.279,0-6.861-.339-6.861-.339" transform="translate(22.322 17.744)" fill="#fff"/>
        <path id="Path_841650" data-name="Path 841650" d="M22.2,12.806c4.4-8.278,11.607-6.251,11.607-6.251S36.3,1.8,43.986,2.71,60.541,10.035,59.1,26.117c-5.09-1.335-18.3-5.093-21.926-12.01,0,0-11.044,9.357-10.92,13.5-.265,5.118.994,9.3,3.206,13.868-4.275-.762-8.306-2.842-9.817-8.518A26.381,26.381,0,0,1,22.2,12.806" transform="translate(14.484 2.012)" fill="#333"/>
        <path id="Path_841651" data-name="Path 841651" d="M22.909,88.051c1.2-7.943,2.42-15.791,3.567-21.069.822-3.772,3.394-13.694,3.394-13.694l4.1,17.321L57.61,66.63l.818-14.163S63.8,71.773,65.35,75.516A140.009,140.009,0,0,0,71.6,88.051h7.74c-2.544-5.532-4.712-13.494-6.237-17.115-1.772-4.207-5.2-18.935-6.955-23.5-.8-2.089-1.461-4.4-2.308-6.421-1-2.4-2.269-4.4-4.364-5.166A107.558,107.558,0,0,0,47.72,32.9v.316a4.389,4.389,0,1,1-8.779,0v-.352h-.176A51.127,51.127,0,0,0,27.12,36.14a7.936,7.936,0,0,0-3.274,3.171c-3.391,5.5-3.831,15.679-4.919,20.941-1.173,5.677-2.881,18.962-3.959,27.8Z" transform="translate(11.604 25.478)" fill="#f9c38a"/>
        <path id="Path_841652" data-name="Path 841652" d="M58.1,53.413A48.7,48.7,0,0,0,56.96,41.419s.05-.623,1.2,5.539a77.1,77.1,0,0,0,2.429,10.179l7.964-5.253s-4.813-12.292-7.374-14.539-8.4-3.091-8.406-3.091l-5.947-1.4s.016,2.721-3.613,2.721a5.63,5.63,0,0,1-5.3-2.808,19.865,19.865,0,0,0-2.684.463l0-.005S25,34.728,22.46,38.357c-2.963,4.23-4.264,8.436-6.281,16.276l10.783,4.852a24.285,24.285,0,0,0,2.919-9.956c.039-4.717,4.646,22.8,5.175,29.011l21.562.1c.218-4.012.687-12.707,1.007-19.659-.007-.479.447-4.912.479-5.573" transform="translate(12.543 25.402)" fill="#ff9cad"/>
        <path id="Path_841653" data-name="Path 841653" d="M41.757,56.437l2.45-1.615a44.271,44.271,0,0,1-2.024-9.542c-1.017-8.15-4.058-10.064-4.058-10.064s.616,2.878,1.378,7.959A58.932,58.932,0,0,1,40.641,55.4c-.025.66-.037,1.209-.03,1.69.032-.682.062-1.353.091-2Z" transform="translate(29.557 27.301)" fill="#fc7e99"/>
        <path id="Path_841654" data-name="Path 841654" d="M22.655,35.534s2.01,7.458,1.969,12.175a20.779,20.779,0,0,1-2.864,9.237l2.072.932s1.495-2.826,1.608-2.343c.032.14.188.726.387,1.477l2.464,19.37,2.285.012h.153C30.2,70.185,31.989,57.551,28.8,47c-2.384-7.886-6.146-11.466-6.146-11.466" transform="translate(16.87 27.548)" fill="#fc7e99"/>
        <path id="Path_841655" data-name="Path 841655" d="M25.922,16.892s-2.9-2.352-4.523,0-.724,8.505,4.523,7.962,0-7.962,0-7.962" transform="translate(16.021 12.285)" fill="#f9c38a"/>
        <path id="Path_841656" data-name="Path 841656" d="M24.333,17.976c.881,1.033,1.679-1.163,1.36-1.74s-3.561-4.191-3.561-4.191-.7,2.528,2.2,5.931" transform="translate(17.1 9.338)" fill="#ff8500"/>
        <path id="Path_841657" data-name="Path 841657" d="M34.826,39.843A6.249,6.249,0,0,0,39.5,38.121c-.625-2.565-1.578-5.844-1.578-5.844H29.465a2.288,2.288,0,0,0-1.676,2.079,6.156,6.156,0,0,0,.373,1.473,7.9,7.9,0,0,0,6.664,4.014" transform="translate(21.544 25.023)" fill="#f9c38a"/>
        <path id="Path_841658" data-name="Path 841658" d="M38.019,50.712s1.239-3.146,1.422-3.835a33.566,33.566,0,0,0,.291-8.567c-.094-.492-.233-2.6-.391-3.245a7.113,7.113,0,0,1-5.384,2.626A6.261,6.261,0,0,1,28,34.277c1.1,3.281,4.381,10.439,5.5,11.948a36.709,36.709,0,0,0,4.522,4.488" transform="translate(21.707 26.574)" fill="#fff"/>
        <path id="Path_841659" data-name="Path 841659" d="M23.323,34.3s6.1,20.355,5.219,26.485A15.451,15.451,0,0,1,25.2,68.555c-.353,7.327-2.1,18.113-2.1,18.113H53.542s1.037-24.5.307-32.791c-.46-5.237-4.543-19.72-4.543-19.72l-3.884-.794L49.4,52.237,32.991,53.449,26.753,33.364s-1.2.289-1.55.385c-.506.138-1.88.554-1.88.554" transform="translate(17.909 25.866)" fill="#dc4437"/>
        <path id="Path_841660" data-name="Path 841660" d="M30.6,31.446l-4.214,3.006-.662,8.937L31.369,44.9,27.5,48.364l12.28,4.543s-6.792-8.642-8.61-16.558a29.548,29.548,0,0,1-.57-4.9" transform="translate(19.944 24.379)" fill="#fc7e99"/>
        <path id="Path_841661" data-name="Path 841661" d="M33.426,31.446s-.046,1.708,0,2.553c.618,3.556,1.349,16.208.4,18.908a48.159,48.159,0,0,0,7-6.311l-4.594-2.7,4.4-1.72-2.755-7.224s-.515-2.1-4.451-3.508" transform="translate(25.898 24.379)" fill="#fc7e99"/>
        <path id="Path_841662" data-name="Path 841662" d="M203.5,64.33H2.333A10.117,10.117,0,0,0,0,70.808v81.964a10.125,10.125,0,0,0,2.345,6.492H203.492a10.126,10.126,0,0,0,2.345-6.492V70.808A10.127,10.127,0,0,0,203.5,64.33" transform="translate(0 49.873)" fill="#97c8f7"/>
        <path id="Path_841663" data-name="Path 841663" d="M7.772,121.376H196.015a10.138,10.138,0,0,0,6.451-3.57H1.321a10.138,10.138,0,0,0,6.451,3.57" transform="translate(1.024 91.331)" fill="#4f90de"/>
        <path id="Path_841664" data-name="Path 841664" d="M197.265,62.451H6.535a10.167,10.167,0,0,0-5.221,3.336H202.486a10.167,10.167,0,0,0-5.221-3.336" transform="translate(1.019 48.416)" fill="#4f90de"/>
        <path id="Path_841665" data-name="Path 841665" d="M196.436,127.954a8.136,8.136,0,0,1-8.136,8.136H11.792a8.136,8.136,0,1,1,0-16.272H188.3a8.136,8.136,0,0,1,8.136,8.136" transform="translate(2.834 92.891)" fill="#c1d62b"/>
        <path id="Path_841666" data-name="Path 841666" d="M89.881,40.343,88.106,40.3c0-.1.188-9.973-4.527-14.806a8.653,8.653,0,0,0-6.439-2.624,7.532,7.532,0,0,0-5.651,2.342c-4.42,4.6-4.076,14.362-4.072,14.46l-1.773.073c-.018-.431-.375-10.618,4.564-15.763a9.253,9.253,0,0,1,6.932-2.887,10.373,10.373,0,0,1,7.714,3.164c5.239,5.372,5.038,15.651,5.028,16.086" transform="translate(50.882 16.354)" fill="#ef6060"/>
        <path id="Path_841667" data-name="Path 841667" d="M95.863,40.343,94.088,40.3c0-.1.188-9.973-4.527-14.806a8.653,8.653,0,0,0-6.439-2.624,7.532,7.532,0,0,0-5.651,2.342c-4.42,4.6-4.076,14.362-4.072,14.46l-1.773.073c-.018-.431-.375-10.618,4.564-15.763a9.253,9.253,0,0,1,6.932-2.887,10.373,10.373,0,0,1,7.714,3.164c5.239,5.372,5.038,15.651,5.028,16.086" transform="translate(55.52 16.354)" fill="#ef6060"/>
        <rect id="Rectangle_382482" data-name="Rectangle 382482" width="27.664" height="56.288" transform="translate(114.191 54.579)" fill="#e08d53"/>
        <rect id="Rectangle_382483" data-name="Rectangle 382483" width="11.055" height="56.287" transform="translate(141.855 54.579)" fill="#c16b30"/>
        <path id="Path_841668" data-name="Path 841668" d="M92.692,35.471V24.947h10.341v9.011c-1.747,1.131-6.047,3.366-10.341,1.513" transform="translate(71.861 19.341)" fill="#e59553"/>
        <path id="Path_841669" data-name="Path 841669" d="M92.692,40.415v-8.88c4.294,1.853,8.594-.382,10.341-1.511V40.415Z" transform="translate(71.861 23.277)" fill="#e59553"/>
        <path id="Path_841670" data-name="Path 841670" d="M84.443,26.922c0,12.338,7.117,20.646,16.941,20.646s18.635-8.308,18.635-20.646S112.056,4.58,102.231,4.58c-6.377,0-12.954-.4-16.095,5.929-1.7,3.423-1.694,12.084-1.694,16.412" transform="translate(65.466 3.547)" fill="#f9c38a"/>
        <path id="Path_841671" data-name="Path 841671" d="M91.262,17.424a1.554,1.554,0,1,1-3.043,0,1.554,1.554,0,1,1,3.043,0" transform="translate(68.393 12.056)" fill="#96281b"/>
        <path id="Path_841672" data-name="Path 841672" d="M98.382,17.424a1.554,1.554,0,1,1-3.043,0,1.554,1.554,0,1,1,3.043,0" transform="translate(73.913 12.056)" fill="#96281b"/>
        <path id="Path_841673" data-name="Path 841673" d="M102.186,22.667c-.589,2.173-2.3,5.072-6.929,4.973a6.118,6.118,0,0,1-5.738-4.481,25.479,25.479,0,0,0,3.751.355c2.848.137,6.18.185,8.915-.847" transform="translate(69.401 17.573)" fill="#96281b"/>
        <path id="Path_841674" data-name="Path 841674" d="M102.6,22.156a8.363,8.363,0,0,1-.2.907c-2.736,1.031-6.068.985-8.914.845a25.558,25.558,0,0,1-3.753-.352,7.4,7.4,0,0,1-.5-1.344s3.053.282,6.5.282c3.279,0,6.861-.339,6.861-.339" transform="translate(69.183 17.177)" fill="#fff"/>
        <path id="Path_841675" data-name="Path 841675" d="M103.5,24.514s8.761-.609,6.354-8.894c-1.236-4.246-7.2-.847-7.2-.847Z" transform="translate(79.581 10.455)" fill="#f9c38a"/>
        <path id="Path_841676" data-name="Path 841676" d="M119.7,24.991c-1.383,1.351-.7,5.209-1.111,6.909a2.333,2.333,0,0,1-2.542,1.747s1.108-14.5-5.478-17.153c-6.512-2.622-10.323,1.667-19.721-.107-5.473-1.033-5.612,3.6-5.612,3.6s-2.945-7.035-.318-12.553C85.8,5.582,88.3,3.059,91.558,4.3c.792-7.589,10.147-2.867,12.716-2.693,11.7.792,12.965,2.871,15.644,6.043,3.7,4.381,3.277,10.428,2.8,16.384a4.922,4.922,0,0,0-3.018.953" transform="translate(64.989 0)" fill="#c66d30"/>
        <path id="Path_841677" data-name="Path 841677" d="M84.983,25.069a14.132,14.132,0,0,0,14.47,10.808c11.8-.147,15.1-10.428,15.75-16.008s2.523-2.741,2.551-2.018c.114,2.865,1.509,3.906,1.509,3.906S118.63,34.565,109,41.126c-6.98,4.756-12.223,2.787-18.273-2.3s-5.747-13.762-5.747-13.762" transform="translate(65.883 12.782)" fill="#c66d30"/>
        <path id="Path_841678" data-name="Path 841678" d="M91.07,21.7s1.537.2,5.3.273a28.749,28.749,0,0,0,5.171-.383,13.056,13.056,0,0,0,3.762,2.033c-1.944,1.36-7.042,1.876-8.933.964-2.214,1.193-7.57.3-8.2-.426A16.861,16.861,0,0,0,91.07,21.7" transform="translate(68.36 16.741)" fill="#c66d30"/>
        <path id="Path_841679" data-name="Path 841679" d="M93.492,127.472a27.509,27.509,0,0,0,3.03-1.832,2.9,2.9,0,0,0,1.363.614c2.111.462,4.925,0,9.688-2.54s4.131-6.036,4.131-6.036-.185-.075-.488-.185a59.935,59.935,0,0,1,8.322.82s1.372,5.9-.659,7.932-10.735,5.32-14.323,6.2c-6.671,1.642-10.6.508-12.123,0s-3-2.945,1.058-4.976" transform="translate(70.446 91.089)" fill="#96281b"/>
        <path id="Path_841680" data-name="Path 841680" d="M105.1,123.713c-4.765,2.542-7.577,3-9.688,2.542a2.9,2.9,0,0,1-1.363-.614c3.558-2.42,7.536-5.834,9.94-7.382.937-.6,2.762-.785,4.754-.767.3.11.486.185.486.185s.636,3.5-4.129,6.036" transform="translate(72.916 91.087)" fill="#cc5248"/>
        <path id="Path_841681" data-name="Path 841681" d="M75.062,127.472a27.51,27.51,0,0,0,3.03-1.832,2.9,2.9,0,0,0,1.363.614c2.111.462,4.925,0,9.689-2.54s4.129-6.036,4.129-6.036-.185-.075-.488-.185a59.935,59.935,0,0,1,8.322.82s1.371,5.9-.659,7.932-10.735,5.32-14.323,6.2c-6.671,1.642-10.6.508-12.123,0s-3-2.945,1.058-4.976" transform="translate(56.157 91.089)" fill="#96281b"/>
        <path id="Path_841682" data-name="Path 841682" d="M86.674,123.713c-4.765,2.542-7.579,3-9.688,2.542a2.9,2.9,0,0,1-1.363-.614c3.558-2.42,7.536-5.834,9.94-7.382.937-.6,2.762-.785,4.752-.767.3.11.488.185.488.185s.636,3.5-4.129,6.036" transform="translate(58.628 91.087)" fill="#cc5248"/>
        <path id="Path_841683" data-name="Path 841683" d="M94,155.66H80.292l6.414-86.136,42.3,5.983-.03,2.89-3.256.833-1.372,76.431H112.716l-5.7-69.031c.041-1.264.073-2.558.073-3.393C102.305,86.9,94.592,150.693,94,155.66" transform="translate(62.248 53.9)" fill="#595959"/>
        <path id="Path_841684" data-name="Path 841684" d="M90.4,149.672H88.012C88.607,144.7,96.32,80.91,101.1,77.248c0,.834-.032,2.129-.073,3.393l0-.036Z" transform="translate(68.233 59.888)" fill="#424242"/>
        <path id="Path_841685" data-name="Path 841685" d="M109.767,73.806l-.82,78.62H105.11l.277-78.73Z" transform="translate(81.489 57.134)" fill="#424242"/>
        <path id="Path_841686" data-name="Path 841686" d="M135.57,38.941c-2.927-3.641-7.7-5.056-9.32-5.349-5.294-.953-9.728-1.667-9.728-1.667-5.956,6.036-10.291.1-10.291.1A33.744,33.744,0,0,0,93.219,35.74C87.144,38.889,75.227,58.29,75.227,58.29l10.8,7.625L91.268,60.2l-1.5,47h43.267l-1.2-49.47,5.384,7.339.982-.462,8.088-3.8S141.247,46,135.57,38.941" transform="translate(58.321 24.75)" fill="#ffd800"/>
        <path id="Path_841687" data-name="Path 841687" d="M121.092,76.571h9.526a9.83,9.83,0,0,1,9.821,9.819v13.3h-3.5V86.39a6.326,6.326,0,0,0-6.32-6.318H120.384a12.082,12.082,0,0,0,.708-3.5" transform="translate(93.33 59.363)" fill="#96281b"/>
        <path id="Path_841688" data-name="Path 841688" d="M116.293,76.571h8.227a34.385,34.385,0,0,0-.394,3.5h-7.833a6.326,6.326,0,0,0-6.32,6.318v13.3h-3.5V86.39a9.831,9.831,0,0,1,9.821-9.819" transform="translate(82.544 59.363)" fill="#96281b"/>
        <path id="Path_841689" data-name="Path 841689" d="M124.327,73.867s2.816,6.434,2.844,8.45c.041,2.892-5.489,5.173-8.97,4.161-4.376-1.269-1.733-10.978-1.733-10.978Z" transform="translate(89.68 57.267)" fill="#e59553"/>
        <path id="Path_841690" data-name="Path 841690" d="M72.218,51s-8.209,2.278-15.754,0c-5.688-1.717-8.969,1.271-5.1,4.314,3.249,2.551,6.189,3.391,11.223,4.367,4.305.834,10.939,0,10.939,0Z" transform="translate(38.52 39.149)" fill="#f9c38a"/>
        <path id="Path_841691" data-name="Path 841691" d="M149.526,111.433H110.582l-4.646-21.222h47.79Z" transform="translate(82.129 69.938)" fill="#83af44"/>
        <path id="Path_841692" data-name="Path 841692" d="M154.635,88.466l-.612,3.1h-47.79l-.678-3.1Z" transform="translate(81.833 68.585)" fill="#748828"/>
        <rect id="Rectangle_382484" data-name="Rectangle 382484" width="52.662" height="5.58" transform="translate(185.485 152.162)" fill="#83af44"/>
        <path id="Path_841693" data-name="Path 841693" d="M127.943,105.121a1.039,1.039,0,0,0,2.079,0V92.1a1.039,1.039,0,0,0-2.079,0Z" transform="translate(99.19 70.599)" fill="#fff"/>
        <path id="Path_841694" data-name="Path 841694" d="M124.308,105.121a1.039,1.039,0,0,0,2.079,0V92.1a1.039,1.039,0,0,0-2.079,0Z" transform="translate(96.372 70.599)" fill="#fff"/>
        <path id="Path_841695" data-name="Path 841695" d="M120.61,105.121a1.039,1.039,0,0,0,2.079,0V92.1a1.039,1.039,0,0,0-2.079,0Z" transform="translate(93.505 70.599)" fill="#fff"/>
        <path id="Path_841696" data-name="Path 841696" d="M116.975,105.121a1.039,1.039,0,0,0,2.079,0V92.1a1.039,1.039,0,0,0-2.079,0Z" transform="translate(90.687 70.599)" fill="#fff"/>
        <path id="Path_841697" data-name="Path 841697" d="M113.154,105.121a1.039,1.039,0,0,0,2.079,0V92.1a1.039,1.039,0,0,0-2.079,0Z" transform="translate(87.725 70.599)" fill="#fff"/>
        <path id="Path_841698" data-name="Path 841698" d="M109.457,105.121a1.039,1.039,0,0,0,2.079,0V92.1a1.039,1.039,0,0,0-2.079,0Z" transform="translate(84.859 70.599)" fill="#fff"/>
        <path id="Path_841699" data-name="Path 841699" d="M99.782,32.077c1.1,0,8.567.282,13.128,2.888,6.7,3.829,12.833,16.586,14.767,23.229,1.172,4.017,4.041,10.7,5.251,17.888,1.482,8.784,5.015,31,5.015,31l-9.024,1.573-5.4-31.351s-6.345-14.222-8.1-19.473-2.936-19.006-2.936-19.006c-2.5,3.748-2.567,8.953-3.146,15.527-.506,5.768,0,43.54.133,52.731H99.782Z" transform="translate(77.358 24.868)" fill="#d32424"/>
        <path id="Path_841700" data-name="Path 841700" d="M105.264,51.4c.579-6.574.648-11.781,3.146-15.527,0,0,1.186,13.755,2.936,19.006s8.1,19.473,8.1,19.473l5.4,31.351-2.555.446-5.146-31.328-7.692-18.17.728,18.17.4,29.308H105.4c-.131-9.189-.641-46.961-.133-52.729" transform="translate(81.437 27.814)" fill="#9b1919"/>
        <path id="Path_841701" data-name="Path 841701" d="M95.174,60.149C90.3,67.881,87.815,71.58,85.268,73.46c-4.873.091-19.51.126-23.629-.488V63.549l19.91.066S87.537,53.8,93.91,44.58C100.036,35.718,100.8,34.3,114.8,32.093v74.973h-15.1l2.02-45.3,2.246-21.781c-4.376,3.609-5.615,15.111-8.8,20.164" transform="translate(47.787 24.881)" fill="#d32424"/>
        <path id="Path_841702" data-name="Path 841702" d="M90.737,71.352c-.712.82-2.247,2.979-4.974,2.927-8.638-.163-24.124-1.656-24.124-1.656V67.935c4.119.614,18.756,2.171,23.629,2.079,2.548-1.88,5.033-5.58,9.906-13.311,3.185-5.052,4.424-16.554,8.8-20.164L101.728,58.32l.076-1.7s-6.063,8.965-11.067,14.735" transform="translate(47.787 28.328)" fill="#9b1919"/>
        <path id="Path_841703" data-name="Path 841703" d="M66.178,64.049l-4.539-.492V49.172h4.539Z" transform="translate(47.787 38.121)" fill="#ef6060"/>
        <path id="Path_841704" data-name="Path 841704" d="M114.884,78.659l13.451-2.405-.421-4.341-14.17,2.464Z" transform="translate(88.183 55.752)" fill="#ef6060"/>
        <path id="Path_841705" data-name="Path 841705" d="M93.737,107.651l-4.5-.328V32.35l4.5-.586Z" transform="translate(69.182 24.626)" fill="#ef6060"/>
        <path id="Path_841706" data-name="Path 841706" d="M103.509,107.466H99.352V31.579l4.158.557Z" transform="translate(77.024 24.482)" fill="#ef6060"/>
        <rect id="Rectangle_382485" data-name="Rectangle 382485" width="44.524" height="1.775" transform="translate(147.495 131.059)" fill="#fff"/>
        <rect id="Rectangle_382486" data-name="Rectangle 382486" width="72.614" height="19.927" transform="translate(60.668 121.169)" fill="#fff"/>
        <path id="Path_841707" data-name="Path 841707" d="M36.871,52.206S29.3,53.93,29.3,71.45c0,8,1.555,32.479,1.555,32.479l29.455-7.17s5.1-30.059.991-38.715c-2.693-5.674-24.433-5.837-24.433-5.837" transform="translate(22.718 40.474)" fill="#96281b"/>
        <rect id="Rectangle_382487" data-name="Rectangle 382487" width="6.918" height="14.703" transform="translate(67.157 120.571)" fill="#e59553"/>
        <path id="Path_841708" data-name="Path 841708" d="M62.075,68.671A14.759,14.759,0,1,1,47.317,54.185,14.624,14.624,0,0,1,62.075,68.671" transform="translate(25.244 42.008)" fill="#f9c38a"/>
        <path id="Path_841709" data-name="Path 841709" d="M40.609,61.365A1.435,1.435,0,1,1,39.2,59.636a1.593,1.593,0,0,1,1.406,1.729" transform="translate(29.304 46.234)" fill="#96281b"/>
        <path id="Path_841710" data-name="Path 841710" d="M47.185,61.365a1.435,1.435,0,1,1-1.406-1.729,1.592,1.592,0,0,1,1.406,1.729" transform="translate(34.403 46.234)" fill="#96281b"/>
        <path id="Path_841711" data-name="Path 841711" d="M38.476,65.66c.545,2,2.125,4.685,6.4,4.593a5.652,5.652,0,0,0,5.3-4.138,23.569,23.569,0,0,1-3.467.327c-2.629.128-5.707.17-8.234-.781" transform="translate(29.829 50.904)" fill="#96281b"/>
        <path id="Path_841712" data-name="Path 841712" d="M38.373,65.188a8.178,8.178,0,0,0,.181.838c2.528.953,5.606.909,8.235.781a23.545,23.545,0,0,0,3.465-.327,6.792,6.792,0,0,0,.462-1.241s-2.819.261-6.006.261c-3.029,0-6.338-.312-6.338-.312" transform="translate(29.749 50.538)" fill="#fff"/>
        <path id="Path_841713" data-name="Path 841713" d="M48.393,59.151a16.026,16.026,0,0,1-15.408,9.405c-4.7-.178-2.929-6.268-1.619-9.405C34.61,51.367,41.1,50.39,45.8,49.908c12.649-1.3,19.352,9.569,19.136,14.108s-9.622,3.135-16.538-4.864" transform="translate(23.196 38.609)" fill="#96281b"/>
        <path id="Path_841714" data-name="Path 841714" d="M35.309,61.228s-2.432-2.919-4.055-.162.486,6.81,3.407,6.81.648-6.648.648-6.648" transform="translate(23.794 46.424)" fill="#f9c38a"/>
        <path id="Path_841715" data-name="Path 841715" d="M33.591,68.754S32.537,49.416,50.7,50.632C49,49.5,38.33,47.132,34,54.93c-3.851,6.932-.4,13.824-.4,13.824" transform="translate(24.943 38.291)" fill="#ef5a6e"/>
        <path id="Path_841716" data-name="Path 841716" d="M33.678,61.836c-.476-1.832-3.066-.71-1.727,2.4a2.644,2.644,0,0,0,1.727,1.209Z" transform="translate(24.476 47.254)" fill="#e59553"/>
        <path id="Path_841717" data-name="Path 841717" d="M44.263,72.412s-5.874,2.418-8.983,5.182-5.171,10.552-5.874,17.162c-.575,5.413,1.727,8.408,6.909,8.061s13.476-3.455,13.476-3.455,10.712,3.11,14.511,2.074,2.879-5.99,2.42-10.827a32.513,32.513,0,0,0-4.147-11.285c-2.533-4.147-6.219-6.221-11.056-6.911-1.45-.208-7.256,0-7.256,0" transform="translate(22.73 56.067)" fill="#ef5a6e"/>
        <path id="Path_841718" data-name="Path 841718" d="M42.856,105.634l-8.99.391s1.2,23.483.739,25.816a28.626,28.626,0,0,0-.739,4.543c0,1.3.414,6.3,2.867,5.993,1.063-.133,3.2-1.811,3.574-7.685.778-12.267,2.549-29.058,2.549-29.058" transform="translate(26.255 81.895)" fill="#f9c38a"/>
        <path id="Path_841719" data-name="Path 841719" d="M55.433,137.947c-3.171-2.114-5.548-2.824-5.548-7.057,0-2.207.492-7.907,1.118-24.866l-8.992-.391s1.74,17.224,2,25.342c.053,1.678-.3,6.45-.3,6.45a51.05,51.05,0,0,0,8.338,4.17c5.993,2.345,8.86,0,3.387-3.648" transform="translate(32.571 81.895)" fill="#f9c38a"/>
        <path id="Path_841720" data-name="Path 841720" d="M43.246,122.707s-.962,3.371-.131,3.827c3.8,2.089,9.088,4.61,14.3,4.465,4.621-.13.918-3.966-1.166-5.269-.431.605-1.486,2.514-6.176.95a16.547,16.547,0,0,1-6.824-3.973" transform="translate(33.163 95.131)" fill="#d73d33"/>
        <path id="Path_841721" data-name="Path 841721" d="M34.6,121.634s-1.25,6.959,2.294,6.785c2.862-.138,3.884-6.348,3.884-6.348s.74,4.811-.863,7.818c-1.381,2.59-5.7,3.565-6.48-.605a12.462,12.462,0,0,1,1.165-7.65" transform="translate(25.78 94.299)" fill="#d73d33"/>
        <path id="Path_841722" data-name="Path 841722" d="M35.22,85.2l-2.727,39.478H60.637L56.589,84.937Z" transform="translate(25.191 65.849)" fill="#ef5a6e"/>
        <path id="Path_841723" data-name="Path 841723" d="M59.126,90.727s-7.14-2.995-9.675-3.11L38.222,88.771a4.265,4.265,0,0,1-3.167,2.187L30.2,122.6H40.23c.009-1.12.035-18.749.238-22.2.231-3.916,1.033-5.491,2.189-5.415,12.209.806,16.929-.344,16.929-.344Z" transform="translate(23.415 67.927)" fill="#dd405b"/>
        <path id="Path_841724" data-name="Path 841724" d="M35.715,75.358s2.936,2.361,2.879,7.946c-.05,4.788-.921,6.393-2.649,6.8-1.323.309-4.376-.518-5.068,1.612-.366,1.129,1.786-.978,7.142.865,1.143.394,4.607-1.786,4.607-1.786s-1.344-3.316-1.268-4.376c.231-3.224-.346-11.287-5.644-11.056" transform="translate(23.908 58.419)" fill="#dd405b"/>
        <path id="Path_841725" data-name="Path 841725" d="M62.467,91.405c-.4-.08-.788-.133-1.177-.192.407-1.733.595-2.908.595-2.908l-3.916-3.788L54.2,80.581s-.982.154-2.452.478c-.023-.3-.035-.6-.071-.9-.543-4.708-2.391-8.362-4.129-8.161s-2.707,4.179-2.164,8.887c.078.664.186,1.3.311,1.916-2.9,1.058-5.805,2.528-7.392,4.5-3.923,4.877-1.324,7.653.218,9.2l3.3,3.314,4.062,4.081c1.543,1.552,4.305,4.165,9.2.27,1.892-1.505,3.334-4.216,4.4-6.975.557.158,1.138.3,1.742.423,4.646.934,8.692.3,9.036-1.413s-3.142-3.863-7.788-4.8" transform="translate(28.096 55.809)" fill="#e08745"/>
        <path id="Path_841726" data-name="Path 841726" d="M52.8,89.163c-3.913,4.515-8.793,6.691-10.9,4.864s-.646-6.968,3.266-11.482,8.793-6.691,10.9-4.864.648,6.968-3.265,11.482" transform="translate(31.731 59.722)" fill="#f2a672"/>
        <path id="Path_841727" data-name="Path 841727" d="M58.822,71.063A5.266,5.266,0,1,1,53.874,65.5a5.266,5.266,0,0,1,4.948,5.565" transform="translate(37.445 50.771)" fill="#e08745"/>
        <path id="Path_841728" data-name="Path 841728" d="M66.546,78.146A5.266,5.266,0,1,1,61.6,72.581a5.266,5.266,0,0,1,4.948,5.565" transform="translate(43.434 56.263)" fill="#e08745"/>
        <path id="Path_841729" data-name="Path 841729" d="M56.256,70.337a3.485,3.485,0,1,1-3.279-3.611,3.45,3.45,0,0,1,3.279,3.611" transform="translate(38.215 51.726)" fill="#f2a672"/>
        <path id="Path_841730" data-name="Path 841730" d="M63.789,77.311A3.484,3.484,0,1,1,60.512,73.7a3.449,3.449,0,0,1,3.277,3.611" transform="translate(44.057 57.132)" fill="#f2a672"/>
        <path id="Path_841731" data-name="Path 841731" d="M67.881,81.315A11.182,11.182,0,1,1,57.375,69.5a11.183,11.183,0,0,1,10.506,11.82" transform="translate(35.303 53.863)" fill="#e08745"/>
        <path id="Path_841732" data-name="Path 841732" d="M58.873,79.571a5.645,5.645,0,1,1-5.31-5.85,5.587,5.587,0,0,1,5.31,5.85" transform="translate(36.899 57.146)" fill="#f2a672"/>
        <path id="Path_841733" data-name="Path 841733" d="M53.335,73.1a.957.957,0,1,1-.9-1.012.955.955,0,0,1,.9,1.012" transform="translate(39.867 55.889)" fill="#96281b"/>
        <path id="Path_841734" data-name="Path 841734" d="M56.129,75.755a.957.957,0,1,1-.9-1.012.957.957,0,0,1,.9,1.012" transform="translate(42.033 57.944)" fill="#96281b"/>
        <path id="Path_841735" data-name="Path 841735" d="M55.935,75.739c-1.314-1.317-2.954-1.811-3.664-1.1-.657.655-.273,2.109.831,3.368a4.076,4.076,0,0,1-2.752,1.143,1.506,1.506,0,0,1-1.264-.472,2.362,2.362,0,0,1-.176-1.77.346.346,0,0,0-.238-.426.342.342,0,0,0-.426.236,3.006,3.006,0,0,0,.289,2.377,2.01,2.01,0,0,0,1.571.74c.08.005.163.007.249.005a4.571,4.571,0,0,0,1.726-.352,5.869,5.869,0,0,0-.494,1.22,1.9,1.9,0,0,0,.266,1.793,3.09,3.09,0,0,0,2.168.868,4.732,4.732,0,0,0,.515,0A.346.346,0,0,0,54.859,83a.339.339,0,0,0-.367-.321,2.893,2.893,0,0,1-2.1-.62,1.248,1.248,0,0,1-.137-1.175,5.457,5.457,0,0,1,1.363-2.361c1.266,1.138,2.75,1.543,3.414.879.71-.708.218-2.349-1.1-3.666" transform="translate(37.306 57.612)" fill="#96281b"/>
        <path id="Path_841736" data-name="Path 841736" d="M45.069,85.086a5.04,5.04,0,1,1-4.728-5.441,5.1,5.1,0,0,1,4.728,5.441" transform="translate(27.134 61.739)" fill="#f2a672"/>
        <path id="Path_841737" data-name="Path 841737" d="M41.032,84.195A2.591,2.591,0,1,1,38.6,81.427a2.607,2.607,0,0,1,2.432,2.768" transform="translate(27.797 63.124)" fill="#e08745"/>
        <path id="Path_841738" data-name="Path 841738" d="M38.9,80.935a.806.806,0,1,1-.758-.852.809.809,0,0,1,.758.852" transform="translate(28.911 62.084)" fill="#e08745"/>
        <path id="Path_841739" data-name="Path 841739" d="M40.411,81.8a.806.806,0,1,1-.758-.852.809.809,0,0,1,.758.852" transform="translate(30.08 62.758)" fill="#e08745"/>
        <path id="Path_841740" data-name="Path 841740" d="M40.838,83.388a.806.806,0,1,1-.758-.852.809.809,0,0,1,.758.852" transform="translate(30.411 63.986)" fill="#e08745"/>
        <path id="Path_841741" data-name="Path 841741" d="M51.9,92.766a5.04,5.04,0,1,1-4.728-5.441A5.1,5.1,0,0,1,51.9,92.766" transform="translate(32.427 67.694)" fill="#f2a672"/>
        <path id="Path_841742" data-name="Path 841742" d="M47.859,91.875a2.591,2.591,0,1,1-2.432-2.768,2.607,2.607,0,0,1,2.432,2.768" transform="translate(33.09 69.078)" fill="#e08745"/>
        <path id="Path_841743" data-name="Path 841743" d="M45.73,88.615a.806.806,0,1,1-.758-.852.809.809,0,0,1,.758.852" transform="translate(34.204 68.039)" fill="#e08745"/>
        <path id="Path_841744" data-name="Path 841744" d="M47.238,89.484a.806.806,0,1,1-.758-.852.809.809,0,0,1,.758.852" transform="translate(35.373 68.712)" fill="#e08745"/>
        <path id="Path_841745" data-name="Path 841745" d="M47.665,91.069a.806.806,0,1,1-.758-.852.809.809,0,0,1,.758.852" transform="translate(35.704 69.941)" fill="#e08745"/>
        <path id="Path_841746" data-name="Path 841746" d="M48.54,88.061c-2.592-2.074-7.083-2.074-7.083-2.074s3.8-1.727,1.383-2.074-4.032.808-6.047,1.555a17.389,17.389,0,0,1-2.074.46V91.69a63.645,63.645,0,0,0,9.157.518c4.145-.174,7.256-2.074,4.664-4.147" transform="translate(26.917 65.008)" fill="#f9c38a"/>
      </g>
    </g>
  </g>
</svg>
