<svg xmlns="http://www.w3.org/2000/svg" xmlns:xlink="http://www.w3.org/1999/xlink" width="252" height="120" viewBox="0 0 252 120">
  <defs>
    <clipPath id="clip-path">
      <rect id="Rectangle_380604" data-name="Rectangle 380604" width="185.543" height="116.419" fill="none"/>
    </clipPath>
  </defs>
  <g id="Group_1083550" data-name="Group 1083550" transform="translate(-223 -2091)">
    <rect id="Rectangle_380603" data-name="Rectangle 380603" width="252" height="120" transform="translate(223 2091)" fill="none"/>
    <rect id="Rectangle_380605" data-name="Rectangle 380605" width="212" height="43" rx="21.5" transform="translate(243 2168)" fill="#a3bfe4"/>
    <g id="Group_1083549" data-name="Group 1083549" transform="translate(256.229 2094.58)">
      <g id="Group_1083548" data-name="Group 1083548" clip-path="url(#clip-path)">
        <path id="Path_838118" data-name="Path 838118" d="M215.1,64.126H200.867l-6.317,3.944V53.238a3.838,3.838,0,0,1,3.838-3.838H215.1a3.838,3.838,0,0,1,3.838,3.838v7.049a3.838,3.838,0,0,1-3.838,3.839" transform="translate(-36.585 -9.29)" fill="#fff"/>
        <path id="Path_838119" data-name="Path 838119" d="M56.8,55.437a4.64,4.64,0,0,0-3.775-2.057c-2.524,0-2.455.639-4.113.639s-4.967-.546-6.311,2.55.518,4.87,2.852,4.614l-.3.5a13.063,13.063,0,0,0-.847,1.563c.082.022-.48,3.608,1.876,4.842l.27.6L45.5,69.951l-.341,1.258.248,1.049.78.827.633.274,1.19.173,1.464-.132s1.288-.49,1.388-.052,1.027,2.662.017,3.134-1.108,5.553-.665,5.71,2.3.693,3.282.914,1.3.284,2.021-.883,1.64-2.228,1.924-2.723,1.181-3.854,1.181-3.854l-.757-3.171,1.558-.2,3.184-.859,1.165-1.033.261-.936-.328-2.066-.547-1.147-.8-.982-.527-.7-.282-.786.171-1.234.069-1.918-.352-1.6-.706-1.424-1-1.013-1.151-.421-.794.047-.555-.058Z" transform="translate(-7.926 -10.038)" fill="#fff"/>
        <path id="Path_838120" data-name="Path 838120" d="M171.891,51.8V45.57l-5.467-2.357-2.359-5.53,2.536-5.6-4.29-4.444-5.556,2.4-5.547-2.084-2.338-5.7h-6.276l-2.312,5.711-5.537,2.184-5.708-2.472L124.693,32l2.41,5.574-2.41,5.479-6.133,2.485V51.7l5.791,2.239,2.753,5.579-2.433,5.793,2.677,2.637,2.5-.936.971,2.01,3.827-1.758,5.659,2.532,2.321,5.8h6.141l2.157-5.784,5.615-2.553,5.822,2.626,4.293-4.662-2.343-5.781,2.227-5.433Zm-26.185,6.836a9.955,9.955,0,1,1,9.955-9.955,9.955,9.955,0,0,1-9.955,9.955" transform="translate(-22.295 -4.184)" fill="#1a1a1a"/>
        <path id="Path_838121" data-name="Path 838121" d="M190.121,130.458a58.491,58.491,0,0,1-1.735-11.2c-.237-5.659-.261-8.774-.261-8.774s6.077-.132,7.64-1.8,3.029-3.084,2.964-6.185-3.5-8.913-4.915-11.3-4.893-8.176-7.516-10.527-5.721-4.86-8.371-4.618-12.083.191-12.083.191a16.105,16.105,0,0,0-8.786,4.061c-3.591,3.557-3.821,5.886-3.821,5.886l.035,35.219s.035,8.266.015,9.049Z" transform="translate(-28.816 -14.298)" fill="#fff198"/>
        <path id="Path_838122" data-name="Path 838122" d="M31.617,64.627A15.809,15.809,0,1,1,15.81,48.819,15.809,15.809,0,0,1,31.617,64.627" transform="translate(0 -9.18)" fill="#fff"/>
        <path id="Path_838123" data-name="Path 838123" d="M107.8,73.97a46.907,46.907,0,0,0-9.926,1.694,18.106,18.106,0,0,0-7.062,4.251l-1.034-2.972s-1.405,2.888-6.824,3.308-6.582-.336-6.582-.336,1.473,9.346,1.8,11.341,1.458,8.907,2.148,10.783,3.111,9.335,10.01,8.064c0,0,4.985-.8,5.942-5.728l.613-3.728a79.169,79.169,0,0,1-.311,9.457c-.468,3.725-2.391,16.271-3.566,19.64l-.146.372,37.831-.045s-2.457-11.392-3.024-14.3-.944-9.954-1.12-11.573a30.061,30.061,0,0,1,.518-5.475,31.869,31.869,0,0,0,.045-6.251,44.882,44.882,0,0,1,3.713,4.009c1.666,2.082,3.475,4.573,3.9,6.321s.067,3.853-3.153,6.253c0,0,1.992.05,3.3,3.792s1.848,4.871,1.779,6.56a7.151,7.151,0,0,1-.371,2.364s3.574-1.66,5.283-2.589a18.607,18.607,0,0,0,5.653-5.822,14.147,14.147,0,0,0,.857-9.556,34.922,34.922,0,0,0-3.977-10.5c-1.468-2.4-4.561-6.953-6.779-8.753a62.367,62.367,0,0,1-4.731-4.635c-.775-.7-3.941-3.283-6.415-4.061a42.031,42.031,0,0,0-6.65-1.622c-1.5-.162-4.016-.262-4.016-.262Z" transform="translate(-14.362 -13.91)" fill="#33ece0"/>
        <path id="Path_838124" data-name="Path 838124" d="M111.924,57.462a2.363,2.363,0,0,0-3.046,1.928s0,1.772,1.312,2.126a2.908,2.908,0,0,0,2.074-.076s.5,3.327,2.229,4.215a19.749,19.749,0,0,1-.449,4.166c-.394.97-.989,3.538,3.506,4.156,0,0,2.842.04,3.579-.862s1.09-1.5.9-1.98a22.9,22.9,0,0,1-.706-3.583c-.06-.824-.113-1.9-.113-1.9a3.319,3.319,0,0,0,1.545-1.824c.3-1.172.684-2.379.684-2.379s1.595.729,2.46-.11a2.646,2.646,0,0,0,.931-2.394A2.918,2.918,0,0,0,124.8,57.3a2.767,2.767,0,0,0-1.216.178l-.093-.624a12.487,12.487,0,0,1-5.195-1.609c-2.044-1.381-4.4-3.347-4.4-3.347s-1.11,3.435-1.777,4.054Z" transform="translate(-20.474 -9.76)" fill="#fff"/>
        <path id="Path_838125" data-name="Path 838125" d="M171.606,63.176l-.414,6.038,6.546,7.04,1.94-6.969-.17-1.116a2.958,2.958,0,0,0,2.969-2.839,81.041,81.041,0,0,0,.038-9.939l-7.356-2.834-5.274,5.76a3.074,3.074,0,0,0-1.916,2.246c-.415,1.785,1.918,3.764,3.638,2.613" transform="translate(-31.577 -9.883)" fill="#fff"/>
        <path id="Path_838126" data-name="Path 838126" d="M172.862,58.588l-.39,3.673s-.265,3.067,1.094,3.747a11.442,11.442,0,0,0,4.96.831c1.154-.109,2.633.058,3.319-1.2a7.188,7.188,0,0,0,.694-3.147,8.119,8.119,0,0,0-.1-.935,5.6,5.6,0,0,0-1.591-.2c-.7.051-1.736-.047-1.975-.028a2.384,2.384,0,0,1-1.191-.486,6.246,6.246,0,0,0-2.144-.507c-.507-.061-1.151.011-1.416-.768a29.111,29.111,0,0,1-.62-2.874,6.71,6.71,0,0,0,1.54-2.246c.3-1.049.538-2.4.538-2.4a7.614,7.614,0,0,0,3.478,2.049,5.483,5.483,0,0,0,3.383-.037l.124,2.772s1.586-1.25,1.677-2.148.1-2.293-.951-2.487a4.15,4.15,0,0,0,.259-3.675,5.1,5.1,0,0,0-3.712-3.032,6.371,6.371,0,0,0-3.663.854,7.816,7.816,0,0,0-2.427,2.86,19.929,19.929,0,0,0-3.4.242,3.568,3.568,0,0,0-2.56,2.036,8.261,8.261,0,0,0,.16,4.736c.343.9.527,1.322.527,1.322a2.97,2.97,0,0,1,2.388-.505,3.7,3.7,0,0,1,2,1.553" transform="translate(-31.497 -8.553)" fill="#ffce26"/>
        <path id="Path_838127" data-name="Path 838127" d="M174.017,86.6l-5.253-10.915,2.587-2.613,6.546,7.04,1.941-6.969,1.525,2.424L181.486,85l-.343-.382.488,4.866.239,4.019-.384-.352-1.286.7h-2.473l-2.988-8.457Z" transform="translate(-31.736 -13.741)" fill="#fff"/>
        <path id="Path_838128" data-name="Path 838128" d="M78.163,78.451l1.494,2.923s-3.18-.075-3.391-.978,1.9-1.945,1.9-1.945" transform="translate(-14.339 -14.752)" fill="#1a1a1a"/>
        <path id="Path_838129" data-name="Path 838129" d="M90.708,76.631,89.556,79.57s2.191-.71,2.434-1.9c0,0,.248-.815-1.282-1.035" transform="translate(-16.841 -14.41)" fill="#1a1a1a"/>
        <path id="Path_838130" data-name="Path 838130" d="M177.148,65.047s1.118.588,1.169,1.352a2.8,2.8,0,0,1-.225,1.319,3,3,0,0,0,2.07.107c.915-.4.848-1.241.322-1.427s-1.475.248-1.682-.243-.054-1.35-.723-1.482a.833.833,0,0,0-.931.373" transform="translate(-33.312 -12.158)" fill="#1a1a1a"/>
        <path id="Path_838131" data-name="Path 838131" d="M145.814,118.228l-1.65-.7s.109-.442.448-.334a5.883,5.883,0,0,1,1.2,1.038" transform="translate(-27.11 -22.034)" fill="#3a3a3a"/>
        <path id="Path_838132" data-name="Path 838132" d="M146.9,130.383a9.824,9.824,0,0,0,2.938-.852s.395,2.9-.658,2.8-2.2-1.661-2.279-1.947" transform="translate(-27.625 -24.358)" fill="#1a1a1a"/>
        <path id="Path_838133" data-name="Path 838133" d="M169.187,100.273s1.2.125,1.423.586a3.047,3.047,0,0,1,1.862-.586,2.124,2.124,0,0,1,2.065,1.3l.969-.477s-1.373-2.145-2.933-2.065a4.226,4.226,0,0,0-3.387,1.239" transform="translate(-31.815 -18.623)" fill="#1a1a1a"/>
        <path id="Path_838134" data-name="Path 838134" d="M177.148,85.8l1.863,2.412-.31,5.218.6,2.047h2.474l1.146-.538c.333.08.312-3.69.312-3.69l-1.713-3.265.365-3.047-2.412-3.2Z" transform="translate(-33.312 -15.372)" fill="#1a1a1a"/>
        <path id="Path_838135" data-name="Path 838135" d="M177,65.138s-.147,2.191,1,2.558c.19,0,.41-.884.19-1.434S177,65.138,177,65.138" transform="translate(-33.284 -12.249)" fill="#fff"/>
        <path id="Path_838136" data-name="Path 838136" d="M110.161,63.96s.431,1.109-.365,1.112-3.091.2-3.993,1.571a5.063,5.063,0,0,0-1.158,3.625,4.019,4.019,0,0,0,1.629,2.58,29.748,29.748,0,0,1,6.84-.817,3,3,0,0,0,.344-1.479c.1-1.194.146-2.739.146-2.739a4.875,4.875,0,0,1-1.7-2.42c-.387-1.477-.436-1.744-.436-1.744a1.768,1.768,0,0,1-1.3.311" transform="translate(-19.675 -11.969)" fill="#1a1a1a"/>
        <path id="Path_838137" data-name="Path 838137" d="M127.365,63.96s-.238,1.109.558,1.112,3.058.328,3.961,1.7a4.374,4.374,0,0,1,.97,3.4,4.321,4.321,0,0,1-1.583,2.658,28,28,0,0,0-6.666-.8,2.994,2.994,0,0,1-.343-1.479c-.1-1.194-.146-2.739-.146-2.739a4.875,4.875,0,0,0,1.7-2.42c.387-1.477.435-1.744.435-1.744a1.2,1.2,0,0,0,1.111.311" transform="translate(-23.34 -11.969)" fill="#1a1a1a"/>
        <path id="Path_838138" data-name="Path 838138" d="M111.21,56.278l1.215.178.04-1.526a20.845,20.845,0,0,0,1.777-4.054s2.992,2.837,4.916,3.634,4,1.45,4.683,1.322l.067.447.868-.11s.318-2.875.366-4.27-.663-3.787-2.583-4.5a12.823,12.823,0,0,0-6.169-.872,4.891,4.891,0,0,0-3.459,2.2,2.683,2.683,0,0,0-2.079,2.347,16.959,16.959,0,0,0,.358,5.208" transform="translate(-20.827 -8.734)" fill="#1a1a1a"/>
        <path id="Path_838139" data-name="Path 838139" d="M173.189,101.862a2.456,2.456,0,0,0-1.958-1.3,4.7,4.7,0,0,0-1.893.33,5.518,5.518,0,0,0-2.623-.109c-.979.35-1.462.494-1.462.494s-2.239-.349-3.236.7a40.472,40.472,0,0,1,1.474,4.083c.493,1.776.853,3.5.853,3.5a2.949,2.949,0,0,0,1.482-.751,7.215,7.215,0,0,0,.889-1.684s.286,2.038,2.117,1.734a2.1,2.1,0,0,0,1.582-2.056c0-.473.157-2.908.966-3.759a4.953,4.953,0,0,1,1.809-1.181" transform="translate(-30.467 -18.91)" fill="#fff"/>
        <path id="Path_838140" data-name="Path 838140" d="M189.079,101.265a11.463,11.463,0,0,1,4.094-2.367,13.934,13.934,0,0,1,3.854-.234,1.991,1.991,0,0,0-.7-1.972,6.591,6.591,0,0,0-2.554-1.189,3.915,3.915,0,0,0-3.279-1.388c-2.366-.012-6.06,3.186-6.06,3.186a20.707,20.707,0,0,1,4.648,3.963" transform="translate(-34.682 -17.698)" fill="#fff"/>
        <path id="Path_838141" data-name="Path 838141" d="M87.291,77.482s1.231-2.977,1.765-4.519,1.263-3.4.507-4.48a8.846,8.846,0,0,0-4.027-2.677c-1.476-.479-2.237-.425-2.369.844s1.3,2.778,3.24,3.857l-8.895,3.569a39.905,39.905,0,0,0,2.51,4.868s5.671-.312,7.269-1.462" transform="translate(-14.576 -12.322)" fill="#fff"/>
        <path id="Path_838142" data-name="Path 838142" d="M72.123,70.88l17.069-6.356L81.046,42.873,64.061,49.229Z" transform="translate(-12.046 -8.062)" fill="#fff"/>
        <path id="Path_838143" data-name="Path 838143" d="M143.724,118.387a14.071,14.071,0,0,0-5.008-2.17c-2.917-.612-5.784.235-6.365.736s-1.5,1.336-.578,2.407c0,0-1.824,1.341-.693,2.947,0,0-.791.859-.367,1.477a3.135,3.135,0,0,0,2.713,1.1c1.345-.026,4.153-.567,5.476-.188a3.755,3.755,0,0,0,3.012,2.944,6.472,6.472,0,0,0,4.861-.652,32.717,32.717,0,0,0-1.432-5.584c-.736-1.569-1.617-3.017-1.617-3.017" transform="translate(-24.557 -21.814)" fill="#fff"/>
        <path id="Path_838144" data-name="Path 838144" d="M124.511,88.58a.861.861,0,1,1-.862-.861.862.862,0,0,1,.862.861" transform="translate(-23.09 -16.495)" fill="#fff"/>
        <path id="Path_838145" data-name="Path 838145" d="M124.511,101.79a.861.861,0,1,1-.862-.861.862.862,0,0,1,.862.861" transform="translate(-23.09 -18.979)" fill="#fff"/>
        <path id="Path_838146" data-name="Path 838146" d="M124.511,115.037a.861.861,0,1,1-.862-.862.862.862,0,0,1,.862.862" transform="translate(-23.09 -21.47)" fill="#fff"/>
        <path id="Path_838147" data-name="Path 838147" d="M124.511,128.246a.861.861,0,1,1-.862-.861.863.863,0,0,1,.862.861" transform="translate(-23.09 -23.954)" fill="#fff"/>
        <path id="Path_838148" data-name="Path 838148" d="M131.11,126.212s.774,1.726,4.017,1.562l3.243-.163-.115-1.053a14.941,14.941,0,0,0-2.744.074c-1.988.172-4.1.087-4.4-.42" transform="translate(-24.655 -23.734)" fill="#1a1a1a"/>
        <path id="Path_838149" data-name="Path 838149" d="M84.45,66.544a4.31,4.31,0,0,0,2.106,4.815l1.331-.478s-3.237-1.869-3.437-4.337" transform="translate(-15.857 -12.513)" fill="#b5b5b5"/>
        <path id="Path_838150" data-name="Path 838150" d="M47.55,80.2s-9.2,1.115-12.232,6.052a11.8,11.8,0,0,0-2.07,4.2l20.081,1.882,1.252.939,9.671,20.253-.233,1.666-2.473,2.345-.671.2-6.123-.561L34.6,115.43a5.382,5.382,0,0,1-2.213-.7c-.65-.538-3.581-7.5-3.581-7.5a10.427,10.427,0,0,1-2.458.324c-1-.049-3-.258-3-.258a37.19,37.19,0,0,0,2.016,5.194c.962,1.762,3.493,6.028,5.917,7.076a8.909,8.909,0,0,0,4.029.887s-.08,3.346-.305,4.981a28.1,28.1,0,0,1-1.31,5.646l36.885.1v-8.646a11.2,11.2,0,0,0,3.511-4.684A24.241,24.241,0,0,0,74.9,111.2c-.022-.512-.054-1.034-.054-1.034a14.031,14.031,0,0,1-4.392-6.665c-.987-3.948-1.885-8.776-2.084-10.024S67,85.3,67,85.3a10.471,10.471,0,0,0-5.7-4.6c-3.961-1.277-6.116-.52-6.116-.52a8.567,8.567,0,0,1-2.295,2.8c-1.593,1.267-3.262,3.7-4.276,3.251s-.851-3.2-.8-3.575.1-1.544.1-1.544Z" transform="translate(-4.392 -15.036)" fill="#1a1a1a"/>
        <path id="Path_838151" data-name="Path 838151" d="M116.6,21.716V17.139l-4.016-1.734-1.734-4.064,1.863-4.118-3.153-3.265-4.083,1.764L101.4,4.191,99.681,0H95.069l-1.7,4.2L89.3,5.8l-4.2-1.816L81.914,7.165l1.772,4.1-1.772,4.026-4.508,1.828v4.532l4.256,1.645,2.023,4.1L81.9,31.648l1.968,1.938L85.7,32.9l.714,1.477,2.813-1.292,4.158,1.861,1.705,4.267h4.513l1.586-4.251,4.127-1.876,4.278,1.93,3.155-3.426-1.722-4.248,1.637-3.992ZM97.356,26.74a7.316,7.316,0,1,1,7.316-7.317,7.317,7.317,0,0,1-7.316,7.317" transform="translate(-14.556)" fill="#636363"/>
        <path id="Path_838152" data-name="Path 838152" d="M27.345,69.986c-.322,2.312-2.168,4.02-4.869,4.511-.291.053-.581.122-.936.2v2.53H19.231V74.683c-3.323-.368-5.211-2.1-5.912-5.084l3.62-.874c.095.245.189.467.267.693a3.435,3.435,0,0,0,4.562,1.97,1.975,1.975,0,0,0,1.35-1.816,1.609,1.609,0,0,0-1.052-1.694c-.984-.415-2-.766-3-1.142-.53-.2-1.073-.369-1.591-.592-2.6-1.115-3.75-2.982-3.424-5.544.318-2.5,1.9-4.038,4.7-4.585.114-.022.224-.059.405-.108V53.965h2.282l.053,1.918A9.842,9.842,0,0,1,23.3,56.4a5.453,5.453,0,0,1,3.505,3.742l-3.2,1.22a17.4,17.4,0,0,0-1.165-1.691,2.571,2.571,0,0,0-2.7-.742,1.839,1.839,0,0,0-1.47,1.526,1.562,1.562,0,0,0,.974,1.867c.841.368,1.712.68,2.571,1.015.72.28,1.458.529,2.162.84,2.7,1.192,3.757,3.038,3.37,5.814" transform="translate(-2.505 -10.148)" fill="#ffce26"/>
        <path id="Path_838153" data-name="Path 838153" d="M129.851,65.495s2.711,1.831,1.929,4.56c-.689,2.4-1.93,2.616-1.93,2.616l2.639.384a4.124,4.124,0,0,0,1.444-2.541,4.375,4.375,0,0,0-.97-3.4,4.625,4.625,0,0,0-3.111-1.62" transform="translate(-24.418 -12.316)" fill="#fefefe"/>
        <path id="Path_838154" data-name="Path 838154" d="M185.155,52.24a4.149,4.149,0,0,0,.259-3.674,5.594,5.594,0,0,0-2.935-2.855c.014.015,3.227,4.447,1.082,6.285a4.466,4.466,0,0,1-6.116.095,7.614,7.614,0,0,0,3.478,2.049,5.49,5.49,0,0,0,3.383-.036l.124,2.771s1.586-1.25,1.677-2.148.1-2.293-.952-2.487" transform="translate(-33.368 -8.596)" fill="#fff"/>
        <path id="Path_838155" data-name="Path 838155" d="M184.514,65.242a6.774,6.774,0,0,0-.933-.178c0,.563.475,6.336-5.028,5.386a8.021,8.021,0,0,0,2.053.072c1.153-.109,2.633.059,3.319-1.2a7.192,7.192,0,0,0,.694-3.148,8.313,8.313,0,0,0-.1-.935" transform="translate(-33.576 -12.235)" fill="#fff"/>
        <path id="Path_838156" data-name="Path 838156" d="M178.4,71.676c-.14-.015-.286-.036-.434-.062.145.023.291.044.434.062" transform="translate(-33.466 -13.467)" fill="#fff"/>
        <path id="Path_838157" data-name="Path 838157" d="M124.672,55.937l.066.447.868-.11s.318-2.875.366-4.27-.663-3.787-2.583-4.5c-.508-.19-1.017-.356-1.534-.5,1.189,1.456,2.921,4.1,1.356,5.707-2.241,2.3-8.04-1.728-8.04-1.728a19.594,19.594,0,0,0,4.816,3.634c1.924.8,4,1.45,4.684,1.322" transform="translate(-21.658 -8.838)" fill="#fefefe"/>
        <path id="Path_838158" data-name="Path 838158" d="M178.9,83.114l1.629,2.455.151,2.616,2.788,6.354.094-3.15-1.714-3.4.365-3.048-2.583-3.2Z" transform="translate(-33.642 -15.372)" fill="#fff"/>
        <path id="Path_838159" data-name="Path 838159" d="M47.122,71.165a2.664,2.664,0,0,0,1.293-.816l-.524-.6a2.767,2.767,0,0,1-.77,1.411" transform="translate(-8.861 -13.117)" fill="#ccc"/>
        <path id="Path_838160" data-name="Path 838160" d="M48.032,69.209v.407a1,1,0,0,0,.1-.4Z" transform="translate(-9.032 -13.015)" fill="#ccc"/>
        <path id="Path_838161" data-name="Path 838161" d="M56.038,103.464l6.026,12.753s1.069,2.088.14,3.1a2.8,2.8,0,0,1-2.045.955L33.239,118s-.783-.184-1.737-1.811-2.882-6.368-2.882-6.368L22.374,96.9s-.43-2.443,1.545-3.14l27.438,2.329s1.056-.036,1.877,1.444,2.8,5.935,2.8,5.935" transform="translate(-4.2 -17.631)" fill="#d2e1f1"/>
        <path id="Path_838162" data-name="Path 838162" d="M21.678,97.8l1.518,2.856s.384.418,2.252.382,2.578-.157,3.086.3a2.26,2.26,0,0,1,.436,3.015,1.673,1.673,0,0,1,.844,1.466,1.914,1.914,0,0,1-.553,1.4,1.631,1.631,0,0,1,.707,1.57c-.224.935-1.344,1.589-2.174,1.882a13.951,13.951,0,0,1-5.224-.024,3.953,3.953,0,0,1-2.512-2.515,15.111,15.111,0,0,1-.873-5.207,10.392,10.392,0,0,1,.671-3A9.353,9.353,0,0,1,21.678,97.8" transform="translate(-3.607 -18.392)" fill="#fff"/>
        <path id="Path_838163" data-name="Path 838163" d="M44.866,109.282c.674,1.166.6,2.472-.17,2.915s-1.937-.143-2.61-1.31-.6-2.472.17-2.915,1.937.143,2.61,1.31" transform="translate(-7.828 -20.276)" fill="#fff"/>
        <path id="Path_838164" data-name="Path 838164" d="M24.178,93.3l1.263-1.008,23.845,1.926,4.2.43A3.64,3.64,0,0,1,55.2,96.52l9.2,19.319s.279,1.275-.341,1.816l-1.135,1.029s.483-.241,0-1.579L53.309,96.766a4.182,4.182,0,0,0-1.409-.961Z" transform="translate(-4.547 -17.355)" fill="#fff"/>
        <path id="Path_838165" data-name="Path 838165" d="M74.58,117.808a71.8,71.8,0,0,0-5.844-6.3,27.991,27.991,0,0,1,6.02,5.962c-.092.322-.134.335-.176.335" transform="translate(-12.926 -20.969)" fill="#1a1a1a"/>
        <path id="Path_838166" data-name="Path 838166" d="M74.04,130.495c-3.6,0-7.909-2.073-12.391-6.005,5.6,4.346,10.641,6.351,14.463,5.312,5.679-1.535,6.024-8.565,5.724-12.619.736,4.153.362,11.415-5.613,13.032a8.364,8.364,0,0,1-2.183.28" transform="translate(-11.593 -22.036)" fill="#1a1a1a"/>
        <path id="Path_838167" data-name="Path 838167" d="M34.815,127a8.567,8.567,0,0,1-1.8-.195c-4.536-.978-8.269-7.359-9.955-13.249,2.062,5.65,5.682,11.89,10.045,12.83a8.07,8.07,0,0,0,2.143.174c-.128.435-.281.439-.434.439" transform="translate(-4.337 -21.353)" fill="#1a1a1a"/>
        <path id="Path_838168" data-name="Path 838168" d="M74.35,85.825c-2.876-5.765-9.3-5.688-11.932-5.391,2.68-.732,9.322-.806,12.124,5.087-.131.3-.162.3-.192.3" transform="translate(-11.738 -15.06)" fill="#1a1a1a"/>
        <path id="Path_838169" data-name="Path 838169" d="M35.49,90.467c-.176-.045-.24-.165-.2-.279,2.085-6.673,7.155-8.612,11.337-9.554.1-.02,2.269-.463,3.372-.547a18.718,18.718,0,0,1-3.283.964c-4.067.918-9,2.8-11.02,9.266a.213.213,0,0,1-.2.15" transform="translate(-6.634 -15.06)" fill="#1a1a1a"/>
        <path id="Path_838170" data-name="Path 838170" d="M50.666,76.143a3.481,3.481,0,0,1-.465-.031,2.863,2.863,0,0,1-2.187-1.682,10.959,10.959,0,0,1-1-2.964c.661,1.079.967,1.984,1.382,2.764a2.462,2.462,0,0,0,1.866,1.459,4.372,4.372,0,0,0,1.718-.17c.684-.181,1.679-.481,2.357-.745a4.334,4.334,0,0,1-2.248,1.157,5.609,5.609,0,0,1-1.418.211" transform="translate(-8.84 -13.439)" fill="#1a1a1a"/>
        <path id="Path_838171" data-name="Path 838171" d="M59.013,69.4a2.422,2.422,0,0,1-.734-.113,3.126,3.126,0,0,1,1.2-.369A2.012,2.012,0,1,0,57.533,65.6a1.013,1.013,0,0,1,.913-1.012,2.439,2.439,0,1,1,.567,4.811" transform="translate(-10.819 -12.133)" fill="#1a1a1a"/>
        <path id="Path_838172" data-name="Path 838172" d="M59.78,68.419C59.68,68.395,58,67.51,58,67.51c-.054-.338,1.368-1.831,1.368-1.831.31.3-.919,1.584-.919,1.584l1.429.754c.051.361-.023.4-.1.4" transform="translate(-10.907 -12.351)" fill="#1a1a1a"/>
        <path id="Path_838173" data-name="Path 838173" d="M81.477,141.261c-.071-3.157-.212-8.8-.214-8.855.429.046.57,5.7.427,8.652a.213.213,0,0,1-.214.2" transform="translate(-15.281 -24.899)" fill="#1a1a1a"/>
        <path id="Path_838174" data-name="Path 838174" d="M68.326,107.863c-1.79-5.754-1.651-14.065-1.65-14.147.426.091.288,8.339,1.856,13.875-.167.27-.187.272-.206.272" transform="translate(-12.538 -17.623)" fill="#1a1a1a"/>
        <path id="Path_838175" data-name="Path 838175" d="M49.051,70.387a2.763,2.763,0,0,1-1.377-1.317.6.6,0,0,1,.042-.5c.248-.414.834-.275,1.223-.181A11.106,11.106,0,0,0,49,66c.443.389.518,2.419.5,2.628a.525.525,0,0,1-.659.175c-.235-.055-.669-.159-.758-.015a2.17,2.17,0,0,0,1.057,1.194c.07.361-.008.408-.089.408" transform="translate(-8.958 -12.41)" fill="#1a1a1a"/>
        <path id="Path_838176" data-name="Path 838176" d="M51.319,72.773c.267-.389.646-.493.9-.74a1.591,1.591,0,0,0,.376-1.128c.429,0,.489.877-.076,1.432a1.642,1.642,0,0,1-1.2.435" transform="translate(-9.65 -13.334)" fill="#1a1a1a"/>
        <path id="Path_838177" data-name="Path 838177" d="M18.957,77.389H16.649a11.312,11.312,0,0,1-.214-2.566A6.323,6.323,0,0,1,10.529,69.6a25.843,25.843,0,0,1,3.777-1.13,2.64,2.64,0,0,1,.52.831,3.028,3.028,0,0,0,1.594,1.768,3.428,3.428,0,0,0,2.69.071,1.765,1.765,0,0,0,1.212-1.631,1.389,1.389,0,0,0-.922-1.482c-.7-.294-1.427-.561-2.132-.819-.287-.106-.576-.211-.863-.319-.182-.068-.366-.133-.551-.2-.347-.123-.7-.249-1.049-.4-2.7-1.155-3.892-3.1-3.551-5.767.33-2.6,1.97-4.2,4.869-4.768.233-.06.233-1.843.233-1.843a10.723,10.723,0,0,1,2.494-.214,7,7,0,0,1,.261,1.951,13.29,13.29,0,0,1,1.678.493,5.628,5.628,0,0,1,3.638,3.876A23.066,23.066,0,0,1,21.1,61.51a1.932,1.932,0,0,1-.615-.64,9.117,9.117,0,0,0-.786-1.112,2.374,2.374,0,0,0-2.487-.675A1.624,1.624,0,0,0,15.9,60.437a1.349,1.349,0,0,0,.849,1.636c.6.263,1.228.5,1.835.733q.364.138.727.278c.242.094.487.184.732.275.476.176.967.358,1.44.568,2.787,1.232,3.9,3.151,3.5,6.039-.333,2.389-2.265,4.186-5.043,4.692-.192.035-.382.077-.591.123a11.555,11.555,0,0,0-.17,2.394.214.214,0,0,1-.214.214m-2.095-.427h1.881V74.646a4.217,4.217,0,0,1,1.112-.408c2.629-.478,4.385-2.1,4.7-4.331.373-2.67-.659-4.445-3.245-5.589-.46-.2-.946-.383-1.416-.558-.247-.091-.493-.183-.736-.278s-.483-.186-.724-.277c-.612-.233-1.246-.475-1.855-.741a1.769,1.769,0,0,1-1.1-2.1,2.043,2.043,0,0,1,1.629-1.7,2.777,2.777,0,0,1,2.912.807,9.556,9.556,0,0,1,.825,1.164c.085.136.172.272.262.408l2.851-1.087a5.174,5.174,0,0,0-3.305-3.413,10.109,10.109,0,0,0-1.771-.5,7.622,7.622,0,0,1-.236-1.917H16.783v1.731c-3.277.845-4.8,2.326-5.106,4.72-.313,2.46.8,4.251,3.3,5.321.331.142.683.267,1.023.387.187.066.373.132.559.2.286.107.573.213.86.317.71.26,1.443.529,2.151.827A1.831,1.831,0,0,1,20.75,69.54a2.192,2.192,0,0,1-1.487,2,3.844,3.844,0,0,1-3.024-.084,3.45,3.45,0,0,1-1.816-2.014c-.054-.157-.116-.31-.18-.472-.017-.041-3.247.739-3.247.739.733,2.83,2.592,4.373,5.676,4.714a12.436,12.436,0,0,1,.19,2.541" transform="translate(-1.98 -10.098)" fill="#1a1a1a"/>
        <path id="Path_838178" data-name="Path 838178" d="M16.211,79.222A14.312,14.312,0,0,1,2.142,67.134,14.683,14.683,0,0,0,16.211,78.795,13.8,13.8,0,1,0,5.275,56.571a12.657,12.657,0,0,1,10.935-5.808,14.229,14.229,0,1,1,0,28.459" transform="translate(-0.403 -9.546)" fill="#1a1a1a"/>
        <path id="Path_838179" data-name="Path 838179" d="M88.538,77.717c-.175-.044-.239-.163-.2-.277a31.6,31.6,0,0,1,2-5.006c1.038-1.851.831-3.507.11-4.124-.966-.828-4.147-3.082-5.312-2.619a.743.743,0,0,0-.421.69c-.249,2.321,3.883,4.419,3.924,4.44-.373.291-4.63-1.87-4.348-4.486a1.135,1.135,0,0,1,.687-1.04c1.677-.661,5.708,2.656,5.748,2.69,1.017.87,1.011,2.829-.015,4.658a31.565,31.565,0,0,0-1.968,4.922.214.214,0,0,1-.2.151" transform="translate(-15.848 -12.262)" fill="#1a1a1a"/>
        <path id="Path_838180" data-name="Path 838180" d="M79.916,81.156a34.766,34.766,0,0,1-2.644-5c.405-.137,1.785,3.045,2.823,4.669-.1.318-.14.329-.179.329" transform="translate(-14.531 -14.32)" fill="#1a1a1a"/>
        <path id="Path_838181" data-name="Path 838181" d="M84.534,76.844a9.222,9.222,0,0,0-1.617-2.7c.36-.241,1.413.912,1.824,2.433-.17.266-.188.269-.207.269" transform="translate(-15.592 -13.936)" fill="#1a1a1a"/>
        <path id="Path_838182" data-name="Path 838182" d="M145.035,122.134C159.693,116.167,158.5,106.966,155.4,98.7c-3.3-8.785-8.113-13.2-11.626-16.417-.6-.55-1.16-1.063-1.668-1.557-4.184-4.07-10.739-6.5-17.537-6.5A23.844,23.844,0,0,1,142.4,80.416c.5.491,1.063,1,1.658,1.549,3.546,3.25,8.4,7.7,11.738,16.581,3.18,8.466,4.4,17.887-10.688,23.573a.217.217,0,0,1-.075.014" transform="translate(-23.424 -13.948)" fill="#1a1a1a"/>
        <path id="Path_838183" data-name="Path 838183" d="M94.157,80.08a24.4,24.4,0,0,1,17.118-6.372c-4.619.427-11.314,1.449-16.98,6.321a.215.215,0,0,1-.139.051" transform="translate(-17.706 -13.861)" fill="#1a1a1a"/>
        <path id="Path_838184" data-name="Path 838184" d="M153.188,86.4c-.176-.045-.24-.165-.2-.278,2.1-6.671,8.971-9.968,12.952-10.1-3.845.55-10.505,3.75-12.545,10.224a.213.213,0,0,1-.2.149" transform="translate(-28.766 -14.297)" fill="#1a1a1a"/>
        <path id="Path_838185" data-name="Path 838185" d="M185.417,143.282H0c0-.427,185.417-.427,185.417-.427.214.331.118.427,0,.427" transform="translate(0 -26.863)" fill="#1a1a1a"/>
        <path id="Path_838186" data-name="Path 838186" d="M164.952,99.431a.218.218,0,0,1-.212-.238,32.16,32.16,0,0,0-.322-7.527c.428-.029,1.136,4.206.745,7.576a.213.213,0,0,1-.212.189" transform="translate(-30.918 -17.237)" fill="#1a1a1a"/>
        <path id="Path_838187" data-name="Path 838187" d="M188.514,33.908a25.476,25.476,0,0,1-.407-2.637,4.179,4.179,0,0,1,.62,2.419c-.21.218-.212.218-.214.218m-.65-4.868c-.4-.949-.629-1.734-.9-2.5a4.2,4.2,0,0,1,1.1,2.235c-.174.262-.191.265-.207.265m-1.621-4.633c-.535-.858-.917-1.583-1.327-2.281a4.217,4.217,0,0,1,1.521,1.977c-.133.3-.163.3-.194.3m-2.486-4.23c-.641-.737-1.151-1.38-1.688-2a4.3,4.3,0,0,1,1.861,1.659c-.086.326-.13.339-.173.339m-3.214-3.708c-.723-.619-1.333-1.167-1.963-1.69a4.375,4.375,0,0,1,2.111,1.324c-.037.344-.093.366-.149.366m-3.772-3.14c-.771-.5-1.456-.956-2.157-1.391a4.478,4.478,0,0,1,2.281,1c.008.356-.058.387-.124.387m-48.382-.339c-.1-.4.6-.963,1.924-1.781a17.239,17.239,0,0,1-1.79,1.735.214.214,0,0,1-.133.046M172.6,10.744c-.8-.4-1.534-.771-2.285-1.123a4.571,4.571,0,0,1,2.385.721c.049.361-.025.4-.1.4m-40.043-.369a5.227,5.227,0,0,1,2.112-1.505,5.687,5.687,0,0,1-2.011,1.479.216.216,0,0,1-.1.026m35.6-1.721c-.691-.266-1.323-.511-1.955-.743l-.41-.148c.282-.353.42-.3.558-.253.637.233,1.272.48,1.889.732.082.361,0,.412-.081.412M137.019,8.31a5.03,5.03,0,0,1,2.243-1.254A5.633,5.633,0,0,1,137.1,8.3a.2.2,0,0,1-.078.015m26.507-1.291c-.841-.237-1.637-.446-2.424-.626a4.482,4.482,0,0,1,2.485.207c.119.359.033.419-.06.419m-21.84-.249a4.831,4.831,0,0,1,2.35-.987,5.646,5.646,0,0,1-2.295.979.221.221,0,0,1-.055.008m17.052-.849c-.836-.136-1.649-.247-2.457-.332a4.481,4.481,0,0,1,2.493-.092c.158.351.067.424-.036.424M146.5,5.783a4.652,4.652,0,0,1,2.425-.7,5.663,5.663,0,0,1-2.394.7l-.031,0m7.354-.373c-.84-.036-1.655-.045-2.453-.027a4.4,4.4,0,0,1,2.462-.4c.2.337.1.427-.009.427" transform="translate(-24.141 -0.934)" fill="#1a1a1a"/>
        <path id="Path_838188" data-name="Path 838188" d="M21.97,41.1A7.179,7.179,0,0,1,21.9,38.4a7.891,7.891,0,0,1,.281,2.262c-.209.433-.21.433-.212.433m.551-4.883a.222.222,0,0,1-.209-.257c.172-.8.385-1.6.632-2.4a6.114,6.114,0,0,1-.214,2.485.213.213,0,0,1-.209.168m1.456-4.689a6.882,6.882,0,0,1,.836-2.545,6.023,6.023,0,0,1-.638,2.412.215.215,0,0,1-.2.132m2.237-4.372a6.3,6.3,0,0,1,1.212-2.371,5.974,5.974,0,0,1-1.031,2.27.21.21,0,0,1-.181.1m2.927-3.942a5.868,5.868,0,0,1,1.537-2.149A5.876,5.876,0,0,1,29.3,23.14a.212.212,0,0,1-.161.073m3.5-3.436a5.571,5.571,0,0,1,1.8-1.906,5.806,5.806,0,0,1-1.665,1.855.207.207,0,0,1-.138.051M36.6,16.867a5.326,5.326,0,0,1,2-1.66,5.727,5.727,0,0,1-1.888,1.627.213.213,0,0,1-.115.033M66.713,14.8c-.137-.05-.872-.6-2.215-1.269a5.867,5.867,0,0,1,2.345.886c0,.355-.066.383-.13.383m-25.831-.33a5.113,5.113,0,0,1,2.164-1.411,5.694,5.694,0,0,1-2.07,1.39.214.214,0,0,1-.093.021m4.552-1.841a4.763,4.763,0,0,1,2.318-1.084A5.846,5.846,0,0,1,45.5,12.618a.237.237,0,0,1-.067.011m16.9-.032c-.828-.283-1.613-.517-2.4-.71a4.174,4.174,0,0,1,2.476.295c.1.361.016.415-.072.415M50.213,11.5a4.447,4.447,0,0,1,2.432-.68.2.2,0,0,1,.226.2,20.446,20.446,0,0,1-2.625.477l-.032,0m7.348-.065c-.827-.111-1.643-.183-2.456-.214a4.214,4.214,0,0,1,2.485-.212c.169.348.077.425-.028.425" transform="translate(-4.101 -2.034)" fill="#1a1a1a"/>
        <path id="Path_838189" data-name="Path 838189" d="M116.171,58.778c.171-.026.284.047.334.661.054.686-.123.806-.276.8s-.308-.217-.3-.706.02-.717.244-.753" transform="translate(-21.8 -11.052)" fill="#1a1a1a"/>
        <path id="Path_838190" data-name="Path 838190" d="M123.373,58.848c.171-.022.283.054.316.669.037.687-.144.8-.3.792s-.3-.225-.282-.714.038-.718.263-.747" transform="translate(-23.15 -11.066)" fill="#1a1a1a"/>
        <path id="Path_838191" data-name="Path 838191" d="M178.059,59.716c.17-.027.285.046.335.661.054.684-.123.805-.277.8s-.308-.218-.3-.707.02-.717.243-.753" transform="translate(-33.438 -11.229)" fill="#1a1a1a"/>
        <path id="Path_838192" data-name="Path 838192" d="M184.2,59.785c.171-.022.283.054.316.669.037.686-.144.8-.3.792s-.3-.225-.282-.714.038-.718.263-.747" transform="translate(-34.588 -11.242)" fill="#1a1a1a"/>
        <path id="Path_838193" data-name="Path 838193" d="M111.05,63.17a2.471,2.471,0,0,1-2.435-2.592,2.441,2.441,0,0,1,3.338-2.113.844.844,0,0,1-.778.258,1.966,1.966,0,0,0-1.457.5,2.012,2.012,0,0,0,1.2,3.517,2.021,2.021,0,0,0,1.052-.222.825.825,0,0,1-.925.653" transform="translate(-20.424 -10.962)" fill="#1a1a1a"/>
        <path id="Path_838194" data-name="Path 838194" d="M110.945,62.373c-.131-.382,1.148-1.37,1.148-1.37l-1.432-1.06c.254-.343,1.914.884,1.914.884,0,.341-1.5,1.5-1.5,1.5a.209.209,0,0,1-.131.045" transform="translate(-20.809 -11.261)" fill="#1a1a1a"/>
        <path id="Path_838195" data-name="Path 838195" d="M127.986,63.17a2.441,2.441,0,0,1-1.122-.273,3.156,3.156,0,0,1,1.25-.158,2.012,2.012,0,0,0,1.2-3.517,1.971,1.971,0,0,0-1.457-.5,2,2,0,0,0-.66.155c.087-.5.356-.565.634-.581a2.389,2.389,0,0,1,1.765.6,2.438,2.438,0,0,1-1.46,4.263c-.052,0-.1,0-.154,0" transform="translate(-23.856 -10.961)" fill="#1a1a1a"/>
        <path id="Path_838196" data-name="Path 838196" d="M128.473,62.308c-.131-.045-1.632-1.2-1.632-1.2,0-.341,1.662-1.568,1.662-1.568.254.343-1.178,1.4-1.178,1.4l1.279.987c0,.354-.067.382-.131.382" transform="translate(-23.852 -11.196)" fill="#1a1a1a"/>
        <path id="Path_838197" data-name="Path 838197" d="M172.062,72a62.444,62.444,0,0,1,.1-6.374c.427.021.117,6.171.117,6.171a.214.214,0,0,1-.213.2" transform="translate(-32.342 -12.34)" fill="#1a1a1a"/>
        <path id="Path_838198" data-name="Path 838198" d="M178.96,69.053c-.185,0-.369,0-.55-.007-.157,0-.313-.006-.468-.006a12.851,12.851,0,0,1-2.795-.279,3.217,3.217,0,0,1-2.168-1.143,5.041,5.041,0,0,1-.675-2.584,10.128,10.128,0,0,1,.037-1.509c.128-1.05.3-2.615.339-2.919a2.365,2.365,0,0,0-4.02-.615,2.365,2.365,0,0,0,3.266,3.379,2.121,2.121,0,0,1-3.21.279A2.791,2.791,0,1,1,173.1,60.5c.013.1-.19,1.9-.332,3.072a9.643,9.643,0,0,0-.035,1.44,4.68,4.68,0,0,0,.6,2.364,2.855,2.855,0,0,0,1.908.965,12.384,12.384,0,0,0,2.7.269c.156,0,.313,0,.473.006,1.244.024,2.528.049,3.256-1.059a6.828,6.828,0,0,0,.694-3.743c0-.292,0-.579.01-.857.028-.888-.119-6.845-.12-6.9.434.235.576,6.018.547,6.919-.008.273-.009.556-.01.844a7.244,7.244,0,0,1-.764,3.975,3.3,3.3,0,0,1-3.072,1.259" transform="translate(-31.535 -10.541)" fill="#1a1a1a"/>
        <path id="Path_838199" data-name="Path 838199" d="M185.446,58.617a1.536,1.536,0,0,0-1.735-.573c1.41-.814,1.923.258,1.928.27-.133.3-.162.3-.193.3" transform="translate(-34.546 -10.858)" fill="#1a1a1a"/>
        <path id="Path_838200" data-name="Path 838200" d="M176.782,58.674c1.069-1.925,2.41-1.095,2.424-1.086-.271.335-1.263-.263-2.256,1a.213.213,0,0,1-.168.082" transform="translate(-33.243 -10.794)" fill="#1a1a1a"/>
        <path id="Path_838201" data-name="Path 838201" d="M182.213,73.114C182,72.9,182,71.786,182,71.786c.427,0,.427,1.115.427,1.115a.214.214,0,0,1-.214.214" transform="translate(-34.224 -13.499)" fill="#1a1a1a"/>
        <path id="Path_838202" data-name="Path 838202" d="M168.553,57.692c-.226-.072-.966-.542-1.384-4.248a3.67,3.67,0,0,1,2.26-4.071,11.564,11.564,0,0,1,4.057-.33,6.827,6.827,0,0,1,4.067-3.688,5.013,5.013,0,0,1,3.991.5,4.669,4.669,0,0,1,2.348,2.868,4.929,4.929,0,0,1-.391,3.2,1.149,1.149,0,0,1,.706.663,3.45,3.45,0,0,1-1.647,4.393,3.733,3.733,0,0,0,1.265-4.2c-.066-.132-.3-.553-.606-.419-.258-.322.674-1.87.258-3.536a4.268,4.268,0,0,0-2.15-2.6,4.589,4.589,0,0,0-3.653-.457,6.476,6.476,0,0,0-3.875,3.6,19.827,19.827,0,0,0-4.244.414,3.24,3.24,0,0,0-1.962,3.616c.388,3.444,1.045,3.886,1.052,3.89.08.356,0,.405-.093.405" transform="translate(-31.43 -8.49)" fill="#1a1a1a"/>
        <path id="Path_838203" data-name="Path 838203" d="M181.5,64.078c.458-.427,1.266-.516,1.487-.752a2.2,2.2,0,0,0-.221-.922,5.94,5.94,0,0,1-.52-3.448,13.582,13.582,0,0,0,.918,3.3,3.99,3.99,0,0,1,.288.951.548.548,0,0,1-.154.416c-.419.447-1.658.46-1.8.46" transform="translate(-34.131 -11.086)" fill="#1a1a1a"/>
        <path id="Path_838204" data-name="Path 838204" d="M179.151,68.184a2.452,2.452,0,0,1-1.458-.486,2.486,2.486,0,0,1-.964-1.993,1.493,1.493,0,0,1,.431-1.2.833.833,0,0,1,.827-.139,1.209,1.209,0,0,1,.687.94c.1.568.154.608.271.693s.167.125.742.054a1.213,1.213,0,0,1,1.1.378.83.83,0,0,1,.112.831,1.562,1.562,0,0,1-1.052.819,2.391,2.391,0,0,1-.7.1M177.7,64.738a.935.935,0,0,0-.539.962,2.059,2.059,0,0,0,.79,1.653,2,2,0,0,0,1.778.319,1.189,1.189,0,0,0,.775-.557.41.41,0,0,0-.046-.419.791.791,0,0,0-.714-.22c-.679.084-.827.03-1.049-.135s-.317-.288-.438-.961a.793.793,0,0,0-.422-.616.36.36,0,0,0-.136-.027" transform="translate(-33.233 -12.093)" fill="#1a1a1a"/>
        <path id="Path_838205" data-name="Path 838205" d="M178.125,68.1a2.321,2.321,0,0,0-1.108-2.734,1.711,1.711,0,0,1,1.3,2.624.215.215,0,0,1-.187.11" transform="translate(-33.288 -12.292)" fill="#1a1a1a"/>
        <path id="Path_838206" data-name="Path 838206" d="M170.129,63.982c-.094-.405,1.644-1.266,1.644-1.266l-1.615-1.65c.306-.3,2.126,1.561,2.126,1.561-.058.341-2.061,1.333-2.061,1.333a.209.209,0,0,1-.095.022" transform="translate(-31.992 -11.477)" fill="#1a1a1a"/>
        <path id="Path_838207" data-name="Path 838207" d="M176.116,51.762a15.614,15.614,0,0,1-1.214-1.381c.332-.268,1.38,1.034,1.38,1.034-.072.332-.119.348-.166.348" transform="translate(-32.89 -9.467)" fill="#1a1a1a"/>
        <path id="Path_838208" data-name="Path 838208" d="M194.641,68.233c-.214-.214-.214-7.587-.214-7.587V53.118a4,4,0,0,1,4-4h16.708a4,4,0,0,1,4,4v7.136a4,4,0,0,1-4,4,4.3,4.3,0,0,0,3.571-4V53.118a3.575,3.575,0,0,0-3.571-3.571H198.424a3.575,3.575,0,0,0-3.57,3.571v7.136a3.492,3.492,0,0,0,.021.382c-.021.117-.021,6.991-.021,6.991l5.875-3.768c.115-.033,9.543-.033,9.543-.033,0,.427-9.366.427-9.366.427L194.756,68.2a.212.212,0,0,1-.115.034" transform="translate(-36.561 -9.237)" fill="#1a1a1a"/>
        <path id="Path_838209" data-name="Path 838209" d="M217.839,56.11h-3.9c0-.427,3.9-.427,3.9-.427.214.331.118.427,0,.427" transform="translate(-40.231 -10.471)" fill="#1a1a1a"/>
        <path id="Path_838210" data-name="Path 838210" d="M206.7,56.11h-6.3c0-.427,6.3-.427,6.3-.427.214.331.118.427,0,.427" transform="translate(-37.685 -10.471)" fill="#1a1a1a"/>
        <path id="Path_838211" data-name="Path 838211" d="M215.294,61.054H200.4c0-.427,14.89-.427,14.89-.427.214.331.118.427,0,.427" transform="translate(-37.685 -11.401)" fill="#1a1a1a"/>
        <path id="Path_838212" data-name="Path 838212" d="M88.769,111.725c-7.59,0-9.35-10.127-9.94-13.521-.865-4.964-2.79-17.343-2.809-17.467.441.058,2.367,12.433,3.229,17.394.592,3.4,2.371,13.73,10.184,13.141,3.475-.271,7.164-3,7.094-9.851.5,7.139-3.393,9.99-7.062,10.278-.237.018-.47.028-.7.028" transform="translate(-14.295 -15.182)" fill="#1a1a1a"/>
        <path id="Path_838213" data-name="Path 838213" d="M97.56,97.889c-.481-3.172-1.037-5.936-1.455-7.73a108.2,108.2,0,0,0-3.8-12.7c.42-.1,2.55,5.473,4.212,12.6a57.383,57.383,0,0,1,1.252,7.6c-.2.232-.207.232-.214.232" transform="translate(-17.358 -14.565)" fill="#1a1a1a"/>
        <path id="Path_838214" data-name="Path 838214" d="M118.54,67.7a6.17,6.17,0,0,1-3.827-1.176,5.935,5.935,0,0,1-1.906-3.675,47.692,47.692,0,0,1-.255-5.909c.406,1.268.465,4.768.675,5.826a5.532,5.532,0,0,0,1.752,3.423,5.753,5.753,0,0,0,3.561,1.083c.214.332.119.427,0,.427" transform="translate(-21.164 -10.708)" fill="#1a1a1a"/>
        <path id="Path_838215" data-name="Path 838215" d="M119.928,67.9c1-.427,2.435-.615,3.561-1.51a5.529,5.529,0,0,0,1.754-3.423,35.129,35.129,0,0,0,.214-4.96,12.6,12.6,0,0,1,.205,5.043,5.938,5.938,0,0,1-1.907,3.675,6.171,6.171,0,0,1-3.828,1.176" transform="translate(-22.552 -10.909)" fill="#1a1a1a"/>
        <path id="Path_838216" data-name="Path 838216" d="M124.083,57.045c-4.059,0-8.227-3.806-9.294-4.851a13.862,13.862,0,0,1-1.777,3.914c.553-1.269,1.463-4.345,1.472-4.376.408-.036,5.18,4.887,9.6,4.887.185.425.09.426,0,.426" transform="translate(-21.252 -9.728)" fill="#1a1a1a"/>
        <path id="Path_838217" data-name="Path 838217" d="M118.968,77.383a4.866,4.866,0,0,1-4.04-1.821,1.749,1.749,0,0,1-.241-1.673,22.334,22.334,0,0,0,.663-5.058c.422.171.305,3.869-.27,5.226a1.339,1.339,0,0,0,.2,1.27,4.465,4.465,0,0,0,3.685,1.63c1.723,0,3.045-.5,3.625-1.38a1.593,1.593,0,0,0,.169-1.52,22,22,0,0,1-.7-5.212c.428.024.546,3.763,1.09,5.045a2.008,2.008,0,0,1-.206,1.922c-.388.587-1.423,1.572-3.981,1.572" transform="translate(-21.544 -12.943)" fill="#1a1a1a"/>
        <path id="Path_838218" data-name="Path 838218" d="M111.254,56.43c-.259-.33-1.529-4.534-.231-6.74a2.53,2.53,0,0,1,1.642-1.218,5.841,5.841,0,0,1,3.529-2.205c2.939-.516,7.588.213,8.726,3.446.51,1.451.512,3.107.009,6.33.069-3.21.071-4.812-.412-6.189-1.055-3-5.46-3.656-8.249-3.167a5.5,5.5,0,0,0-3.3,2.095,2.448,2.448,0,0,0-1.577,1.125c-1.2,2.042.055,6.2.067,6.247-.162.273-.183.276-.2.276" transform="translate(-20.769 -8.672)" fill="#1a1a1a"/>
        <path id="Path_838219" data-name="Path 838219" d="M142.609,140.3c-.7-1.151-1.993-7.317-2.96-13.314,1.454,6.341,2.716,12.12,3.153,13.007-.128.3-.161.308-.192.308" transform="translate(-26.261 -23.879)" fill="#1a1a1a"/>
        <path id="Path_838220" data-name="Path 838220" d="M138.241,111.442c-.582-4.149-.574-6.816-.184-8.584a25.518,25.518,0,0,0-.856-12.506c.425-.081,2.672,6.245,1.272,12.6a29.248,29.248,0,0,0-.02,8.258c-.2.233-.205.233-.213.233" transform="translate(-25.8 -16.99)" fill="#1a1a1a"/>
        <path id="Path_838221" data-name="Path 838221" d="M96.678,133.376c.885-2.491,5.049-24.227,3.676-30.458a26.01,26.01,0,0,1,.871-12.743c.379.207-1.827,6.422-.455,12.65,1.386,6.291-2.815,28.228-3.9,30.431a.215.215,0,0,1-.192.119" transform="translate(-18.18 -16.957)" fill="#1a1a1a"/>
        <path id="Path_838222" data-name="Path 838222" d="M79.683,81.275c-1.958,0-3.5-.375-3.662-1.27-.127-.7.548-1.4,2.007-2.061-1.046.947-1.673,1.513-1.587,1.984.149.827,2.963,1.268,6.76.583a17.413,17.413,0,0,0,4.544-1.4c1.066-.535,1.659-1.1,1.585-1.508-.046-.255-.227-.542-1.21-.729,1.064-.232,1.528.089,1.63.652.114.635-.512,1.314-1.812,1.967a17.9,17.9,0,0,1-4.66,1.444,20.762,20.762,0,0,1-3.595.343" transform="translate(-14.293 -14.441)" fill="#1a1a1a"/>
        <path id="Path_838223" data-name="Path 838223" d="M148.593,130.271c-.745,0-1.662-.982-2.316-1.98,1.228,1.094,2.054,1.659,2.428,1.535.794-.274.8-3.121-.451-6.77s-3.021-5.882-3.811-5.615c1.212-.87,3.115,2.28,4.214,5.477s1.539,6.847.185,7.313a.764.764,0,0,1-.249.041" transform="translate(-27.162 -22.057)" fill="#1a1a1a"/>
        <path id="Path_838224" data-name="Path 838224" d="M72.077,71.048c-.2-.139-8.262-21.791-8.262-21.791.125-.274,17.194-6.63,17.194-6.63.275.127,8.338,21.777,8.338,21.777a7.486,7.486,0,0,1-1.855.919c-.149-.4,1.38-.97,1.38-.97L80.958,43.1,64.29,49.308,72.2,70.56l11.742-4.373c.149.4-11.794,4.848-11.794,4.848a.228.228,0,0,1-.074.013" transform="translate(-12 -8.016)" fill="#1a1a1a"/>
        <path id="Path_838225" data-name="Path 838225" d="M114.409,57.622a1.989,1.989,0,0,1,2.512-1.45c-.805.257-2.026.525-2.312,1.31a.213.213,0,0,1-.2.14" transform="translate(-21.514 -10.553)" fill="#1a1a1a"/>
        <path id="Path_838226" data-name="Path 838226" d="M120.079,66.093a3.268,3.268,0,0,1-.932-.139c.144-.4,1.177-.073,1.846-.53a1.552,1.552,0,0,0,.585-1.265,1.157,1.157,0,0,1-.347,1.62,2.048,2.048,0,0,1-1.152.314" transform="translate(-22.405 -12.065)" fill="#1a1a1a"/>
        <path id="Path_838227" data-name="Path 838227" d="M106.2,73.1a4.022,4.022,0,0,1-1.694-4.688,5.166,5.166,0,0,1,4.877-3.433c.472.031.475.018.509-.094a1.3,1.3,0,0,0,.009-.477c.443.161.465.389.4.6-.139.451-.5.424-.735.405a4.9,4.9,0,0,0-2.675.7,4.71,4.71,0,0,0-1.98,2.439,3.628,3.628,0,0,0,1.409,4.16c.017.359-.05.391-.119.391" transform="translate(-19.613 -12.112)" fill="#1a1a1a"/>
        <path id="Path_838228" data-name="Path 838228" d="M131.9,73.094a4.588,4.588,0,0,0,1.289-4.551,4.707,4.707,0,0,0-1.979-2.439,4.813,4.813,0,0,0-2.494-.7c-.422.028-.779.056-.918-.4a1.685,1.685,0,0,1-.025-.641c.41.209.393.385.434.516.035.113.038.125.293.1a5.308,5.308,0,0,1,2.934.756,5.138,5.138,0,0,1,2.158,2.666,4.058,4.058,0,0,1-1.574,4.652.218.218,0,0,1-.119.036" transform="translate(-24.025 -12.103)" fill="#1a1a1a"/>
        <path id="Path_838229" data-name="Path 838229" d="M164.949,111.214a3.494,3.494,0,0,0,2.1-2.542c.463.136.3.759-.1,1.33a2.862,2.862,0,0,1-1.972,1.21l-.03,0" transform="translate(-31.018 -20.435)" fill="#1a1a1a"/>
        <path id="Path_838230" data-name="Path 838230" d="M163.155,104.7c-.164-.032-.235-.149-.207-.263a5.213,5.213,0,0,1,6.67-3.767c-.187.384-1.94-.344-3.951.8a4.456,4.456,0,0,0-2.305,3.069.212.212,0,0,1-.207.164" transform="translate(-30.641 -18.879)" fill="#1a1a1a"/>
        <path id="Path_838231" data-name="Path 838231" d="M162.018,102.39a2.959,2.959,0,0,1,3.436-1.189c-.152.4-2.145-.227-3.272,1.113a.216.216,0,0,1-.164.076" transform="translate(-30.467 -19.003)" fill="#1a1a1a"/>
        <path id="Path_838232" data-name="Path 838232" d="M131.059,123.054a1.9,1.9,0,0,1-.483-1.932c.192-.582.779-1.383,2.472-1.893,3.052-.92,6.937.086,7.1.129-.148.4-4.044-.607-6.976.279a3.013,3.013,0,0,0-2.191,1.62,1.636,1.636,0,0,0,.249,1.457c-.083.327-.127.34-.171.34" transform="translate(-24.537 -22.348)" fill="#1a1a1a"/>
        <path id="Path_838233" data-name="Path 838233" d="M131.905,119.536a1.458,1.458,0,0,1-.518-1.664c.349-.962,1.6-1.693,3.261-1.907a13.148,13.148,0,0,1,3.772-.05,14.523,14.523,0,0,1,4.178,1.412c.551.271.857.421,1.225.641a1.513,1.513,0,0,1-1.248-.176,14.5,14.5,0,0,0-4.225-1.455,12.672,12.672,0,0,0-3.646.05c-1.481.192-2.624.831-2.915,1.63a1.09,1.09,0,0,0,.274,1.159c-.053.339-.1.358-.157.358" transform="translate(-24.69 -21.776)" fill="#1a1a1a"/>
        <path id="Path_838234" data-name="Path 838234" d="M143.392,129.105a5.571,5.571,0,0,1-1.726-.257,4.614,4.614,0,0,1-3.088-2.833,4.454,4.454,0,0,0-2.123-.046c-.209.028-.418.056-.626.076a19.985,19.985,0,0,1-3.247.054,2.357,2.357,0,0,1-1.91-.792,1.738,1.738,0,0,1,.208-2.082,3.5,3.5,0,0,1,1.811-1.042,11.607,11.607,0,0,1,7.947.214,14.745,14.745,0,0,0-7.8.188,3.162,3.162,0,0,0-1.621.905,1.327,1.327,0,0,0-.19,1.574,2.013,2.013,0,0,0,1.586.61,20.063,20.063,0,0,0,3.178-.053c.2-.021.407-.048.611-.075a4.636,4.636,0,0,1,2.433.11,4.6,4.6,0,0,0,2.966,2.787,6.745,6.745,0,0,0,4.851-.546,4.485,4.485,0,0,1-3.256,1.21" transform="translate(-24.524 -22.864)" fill="#1a1a1a"/>
        <path id="Path_838235" data-name="Path 838235" d="M143.1,113.641c1.938-1.863,3.032-3.351,3.219-4.936.345-2.917-2.311-5.978-5.672-9.855-.664-.766-1.354-1.559-2.047-2.386a8.53,8.53,0,0,1,2.369,2.106c3.431,3.957,6.142,7.081,5.775,10.186-.2,1.712-1.354,3.3-3.52,4.845a.207.207,0,0,1-.124.041" transform="translate(-26.064 -18.14)" fill="#1a1a1a"/>
        <path id="Path_838236" data-name="Path 838236" d="M79.683,81.275c-1.958,0-3.5-.375-3.662-1.27-.127-.7.548-1.4,2.007-2.061-1.046.947-1.673,1.513-1.587,1.984.149.827,2.963,1.268,6.76.583a17.413,17.413,0,0,0,4.544-1.4c1.066-.535,1.659-1.1,1.585-1.508-.046-.255-.227-.542-1.21-.729,1.064-.232,1.528.089,1.63.652.114.635-.512,1.314-1.812,1.967a17.9,17.9,0,0,1-4.66,1.444,20.762,20.762,0,0,1-3.595.343" transform="translate(-14.293 -14.441)" fill="#1a1a1a"/>
        <path id="Path_838237" data-name="Path 838237" d="M175.582,101.346c-1.086-1.609-2.231-2.262-3.787-2.179a3.181,3.181,0,0,0-2.5,1.276,2.457,2.457,0,0,1,2.476-1.7,4.108,4.108,0,0,1,3.994,2.282c-.108.313-.145.323-.183.323" transform="translate(-31.835 -18.566)" fill="#1a1a1a"/>
        <path id="Path_838238" data-name="Path 838238" d="M162.948,120.194q-.529,0-1.044-.033c8.136.1,18.663-5.814,25.253-11.066a21.158,21.158,0,0,0-1.9-5.777,13.569,13.569,0,0,0-5.112-5.183l-8.344,4.262c-.194-.382,8.249-4.694,8.249-4.694a12.543,12.543,0,0,1,5.583,5.414,21.71,21.71,0,0,1,1.961,6.035c-6.445,5.3-16.535,11.042-24.652,11.042" transform="translate(-30.446 -18.373)" fill="#1a1a1a"/>
        <path id="Path_838239" data-name="Path 838239" d="M192.09,110.7a65.409,65.409,0,0,1-7.677-.486c.195-.4,13.988,1.357,17.433-2.07,4.388-4.363,2.075-8.613-.6-13.534l-.184-.34C198.281,89.166,191.78,77.2,183.97,76c8.084.806,14.657,12.9,17.463,18.064l.186.341c2.645,4.86,5.145,9.451.529,14.04-1.806,1.8-6.13,2.252-10.058,2.252" transform="translate(-34.595 -14.292)" fill="#1a1a1a"/>
        <path id="Path_838240" data-name="Path 838240" d="M117.87,62.8a2.033,2.033,0,0,1-.9-1.358.831.831,0,0,1,.244-.619.921.921,0,0,1,.674-.294,1.375,1.375,0,0,1,.726.246,8.826,8.826,0,0,0-.015-3.186c.785.417.463,3.089.395,3.619-.467.018-.8-.252-1.105-.252a.5.5,0,0,0-.369.166,1.478,1.478,0,0,0,.49,1.306c-.026.348-.084.372-.142.372" transform="translate(-21.997 -10.829)" fill="#1a1a1a"/>
        <path id="Path_838241" data-name="Path 838241" d="M114.081,50.655a7.926,7.926,0,0,1-.862-1.061c.348-.247,1.036.724,1.036.724-.089.325-.131.337-.174.337" transform="translate(-21.29 -9.318)" fill="#1a1a1a"/>
        <path id="Path_838242" data-name="Path 838242" d="M179.2,62.694a5.3,5.3,0,0,0-2.6-.719,6.41,6.41,0,0,1-.824-.116c-.71-.186-.924-2.193-.973-2.805l-.174-.68a8.646,8.646,0,0,0,2.079-4.931c.477.006,2.679,2.918,7.019,1.908a6.062,6.062,0,0,1-6.64-1.393,8.287,8.287,0,0,1-2.016,4.425l.152.6c.1,1.261.409,2.4.661,2.461a6.559,6.559,0,0,0,.76.1,5.1,5.1,0,0,1,2.7.774c-.03.348-.087.371-.145.371" transform="translate(-32.839 -10.05)" fill="#1a1a1a"/>
        <path id="Path_838243" data-name="Path 838243" d="M185.642,65.391A2.418,2.418,0,0,0,184,65.184c-.066-.425.973-.69,1.758-.187.024.358-.046.394-.116.394" transform="translate(-34.6 -12.171)" fill="#1a1a1a"/>
        <path id="Path_838244" data-name="Path 838244" d="M198.151,138.649c-2.347-6.546-2.211-20.053-2.209-20.188.425.14.29,13.575,2.411,19.907-.157.279-.18.282-.2.282" transform="translate(-36.846 -22.276)" fill="#1a1a1a"/>
        <path id="Path_838245" data-name="Path 838245" d="M153.232,141.1a72.941,72.941,0,0,1-.214-9.625c.425.076.173,5.816.426,9.4-.2.229-.209.229-.213.229" transform="translate(-28.761 -24.723)" fill="#1a1a1a"/>
        <path id="Path_838246" data-name="Path 838246" d="M173.949,86.875c-.194-.124-5.241-11.134-5.241-11.134a37.718,37.718,0,0,1,2.476-2.848c.313,0,6.594,6.756,6.594,6.756l1.729-6.593c.382-.065,2.1,2.477,2.1,2.477.037.119.037,9.469.037,9.469-.387.125-3.743-4.535-3.743-4.535l-3.771,6.3a.213.213,0,0,1-.183.1m-4.794-11.182L173.974,86.2l3.646-6.1-6.28-6.755Zm8.963,4.343,3.1,4.3V75.717l-1.418-2.1Z" transform="translate(-31.725 -13.707)" fill="#1a1a1a"/>
        <path id="Path_838247" data-name="Path 838247" d="M179.065,96.935c-1.556-4.559-3.171-8.551-3.186-8.59.412-.121,2.034,3.888,3.39,8.314-.162.274-.184.276-.2.276" transform="translate(-33.074 -16.613)" fill="#1a1a1a"/>
        <path id="Path_838248" data-name="Path 838248" d="M184.6,95.8a79.622,79.622,0,0,0-.848-8.463c.425-.048.945,2.837,1.062,8.245-.21.218-.212.218-.214.218" transform="translate(-34.554 -16.424)" fill="#1a1a1a"/>
        <path id="Path_838249" data-name="Path 838249" d="M69.824,54.28c-.074-.414,11.444-4.7,11.444-4.7.149.4-11.369,4.691-11.369,4.691a.237.237,0,0,1-.075.013" transform="translate(-13.13 -9.323)" fill="#1a1a1a"/>
        <path id="Path_838250" data-name="Path 838250" d="M71.926,60.37c-.074-.414,11.444-4.7,11.444-4.7.149.4-11.37,4.69-11.37,4.69a.237.237,0,0,1-.075.013" transform="translate(-13.525 -10.468)" fill="#1a1a1a"/>
        <path id="Path_838251" data-name="Path 838251" d="M74.03,66.462c-.074-.414,11.444-4.7,11.444-4.7.149.4-11.37,4.69-11.37,4.69a.213.213,0,0,1-.075.013" transform="translate(-13.921 -11.614)" fill="#1a1a1a"/>
        <path id="Path_838252" data-name="Path 838252" d="M172.359,99.1c.036-.429,4.562-.62,8.512-.706-3.936.512-8.457.7-8.5.706Z" transform="translate(-32.412 -18.504)" fill="#1a1a1a"/>
        <path id="Path_838253" data-name="Path 838253" d="M202.43,106.083c-1.171-3.345-2.55-5.2-4.669-6.157l-.413-.067c-3.771-.63-7.11,2.612-7.143,2.645-.159-.445,3.222-3.739,7.213-3.066l.439.071c2.312,1.027,3.767,2.964,4.776,6.3-.163.274-.183.276-.2.276" transform="translate(-35.766 -18.682)" fill="#1a1a1a"/>
        <path id="Path_838254" data-name="Path 838254" d="M198.236,99.162c-.176-.045-.24-.165-.2-.277.018-.061.424-1.525-1.864-2.52-2.374-1.033-5.271.853-5.3.871-.11-.44,2.883-2.39,5.47-1.263,2.654,1.155,2.108,3.02,2.1,3.039a.214.214,0,0,1-.2.15" transform="translate(-35.892 -17.982)" fill="#1a1a1a"/>
        <path id="Path_838255" data-name="Path 838255" d="M184.528,97.346c-.107-.418,1.257-2.03,4.386-3.169a4.5,4.5,0,0,1,5.1,1.22c-.407.173-2.04-1.883-4.958-.82a10.787,10.787,0,0,0-4.368,2.692.213.213,0,0,1-.164.077" transform="translate(-34.699 -17.648)" fill="#1a1a1a"/>
        <path id="Path_838256" data-name="Path 838256" d="M119.852,125.28c-.214-.214-.214-43.228-.214-43.228.427,0,.427,43.015.427,43.015a.214.214,0,0,1-.214.214" transform="translate(-22.498 -15.43)" fill="#1a1a1a"/>
        <path id="Path_838257" data-name="Path 838257" d="M123.606,89.618a1.05,1.05,0,1,1,1.05-1.05,1.052,1.052,0,0,1-1.05,1.05m0-1.673a.623.623,0,1,0,.623.624.624.624,0,0,0-.623-.624" transform="translate(-23.046 -16.457)" fill="#1a1a1a"/>
        <path id="Path_838258" data-name="Path 838258" d="M123.606,102.828a1.049,1.049,0,1,1,1.05-1.049,1.051,1.051,0,0,1-1.05,1.049m0-1.672a.622.622,0,1,0,.623.623.623.623,0,0,0-.623-.623" transform="translate(-23.046 -18.942)" fill="#1a1a1a"/>
        <path id="Path_838259" data-name="Path 838259" d="M123.606,116.044a1.05,1.05,0,1,1,1.05-1.05,1.052,1.052,0,0,1-1.05,1.05m0-1.673a.623.623,0,1,0,.623.624.624.624,0,0,0-.623-.624" transform="translate(-23.046 -21.427)" fill="#1a1a1a"/>
        <path id="Path_838260" data-name="Path 838260" d="M123.606,116.044a1.05,1.05,0,1,1,1.05-1.05,1.052,1.052,0,0,1-1.05,1.05m0-1.673a.623.623,0,1,0,.623.624.624.624,0,0,0-.623-.624" transform="translate(-23.046 -21.427)" fill="#1a1a1a"/>
        <path id="Path_838261" data-name="Path 838261" d="M123.606,129.253a1.05,1.05,0,1,1,1.05-1.05,1.052,1.052,0,0,1-1.05,1.05m0-1.673a.623.623,0,1,0,.623.623.623.623,0,0,0-.623-.623" transform="translate(-23.046 -23.911)" fill="#1a1a1a"/>
        <path id="Path_838262" data-name="Path 838262" d="M179.051,89.275c-.174-.088-2.117-2.781-2.117-2.781.347-.251,2.218,2.343,2.218,2.343l2.131-.2.24-2.977c.426.035.171,3.189.171,3.189a14.412,14.412,0,0,1-2.623.426h-.02" transform="translate(-33.272 -16.108)" fill="#1a1a1a"/>
        <path id="Path_838263" data-name="Path 838263" d="M179,95.292a.216.216,0,0,1-.213-.23l.4-5.232c.425.032.026,5.265.026,5.265a.213.213,0,0,1-.213.2" transform="translate(-33.62 -16.892)" fill="#1a1a1a"/>
        <path id="Path_838264" data-name="Path 838264" d="M184.224,93.279c-.192-.119-1.925-3.6-1.925-3.6.382-.19,2.116,3.289,2.116,3.289-.127.3-.159.309-.191.309" transform="translate(-34.281 -16.863)" fill="#1a1a1a"/>
        <path id="Path_838265" data-name="Path 838265" d="M46.869,69.976a1.847,1.847,0,0,1-1.44-.906,5.594,5.594,0,0,1-.568-4.838A1.763,1.763,0,0,1,46.2,62.99c1.137-.123,2.194,1.3,2.424,3.252a4.748,4.748,0,0,1-.053,1.738,4.169,4.169,0,0,1-.371-1.688c-.2-1.661-1.094-3-1.95-2.878-.4.047-.752.394-.989.978a5.168,5.168,0,0,0,.52,4.428,1.365,1.365,0,0,0,1.188.722.866.866,0,0,0,.7-.456c.088.641-.2.828-.652.88a1.076,1.076,0,0,1-.145.008" transform="translate(-8.377 -11.844)" fill="#1a1a1a"/>
        <path id="Path_838266" data-name="Path 838266" d="M53.146,68.854c-1.073,0-2.058-1.388-2.279-3.261a5.168,5.168,0,0,1,.27-2.485,1.542,1.542,0,0,1,2.921-.343A5.141,5.141,0,0,1,54.9,65.12c.23,1.956-.476,3.592-1.6,3.725a1.272,1.272,0,0,1-.146.009m-.529-6.567a1.359,1.359,0,0,0-1.083.983,4.722,4.722,0,0,0-.242,2.273c.195,1.66,1.085,2.972,1.95,2.878s1.427-1.591,1.231-3.25a4.7,4.7,0,0,0-.762-2.156,1.449,1.449,0,0,0-1.094-.728" transform="translate(-9.557 -11.633)" fill="#1a1a1a"/>
        <path id="Path_838267" data-name="Path 838267" d="M49.312,67.189c.022-.676.667-1.211,1.63-.681a1.464,1.464,0,0,0-1.445.576.214.214,0,0,1-.184.1" transform="translate(-9.273 -12.466)" fill="#1a1a1a"/>
        <path id="Path_838268" data-name="Path 838268" d="M61.778,123.916c-.234-.011-26.814-2.394-26.814-2.394a2.533,2.533,0,0,1-2.057-1.436l-3.12-6.6c.386-.182,3.506,6.42,3.506,6.42A2.1,2.1,0,0,0,35,121.1l26.58,2.384a2.1,2.1,0,0,0,2.083-2.985l-4.2-8.879c.386-.183,4.583,8.7,4.583,8.7a2.525,2.525,0,0,1-2.273,3.6" transform="translate(-5.602 -20.989)" fill="#1a1a1a"/>
        <path id="Path_838269" data-name="Path 838269" d="M55.954,103.61c-.192-.123-3.063-6.194-3.063-6.194a2.1,2.1,0,0,0-1.708-1.192L24.6,93.84a2.1,2.1,0,0,0-2.083,2.985L23.9,99.741c-.386.182-1.765-2.735-1.765-2.735a2.525,2.525,0,0,1,2.508-3.593L51.221,95.8a2.534,2.534,0,0,1,2.057,1.436l2.869,6.072c-.132.3-.162.3-.193.3" transform="translate(-4.116 -17.564)" fill="#1a1a1a"/>
        <path id="Path_838270" data-name="Path 838270" d="M62.121,119.618c-.15-.365,1.674-2.17,1.674-2.17a2.065,2.065,0,0,0,.063-1.917L54.571,95.877a2.1,2.1,0,0,0-1.708-1.192L26.282,92.3a2.105,2.105,0,0,0-.866.1l-1.9,1.517c-.266-.334,1.664-1.874,1.664-1.874a2.444,2.444,0,0,1,1.143-.17L52.9,94.259a2.531,2.531,0,0,1,2.056,1.436l9.289,19.655a2.489,2.489,0,0,1-.094,2.338c-.035.044-1.88,1.868-1.88,1.868a.21.21,0,0,1-.149.063" transform="translate(-4.417 -17.275)" fill="#1a1a1a"/>
        <path id="Path_838271" data-name="Path 838271" d="M57.919,72.553A3.71,3.71,0,0,1,54.937,71.5a2.561,2.561,0,0,1-.654-1.962,4.209,4.209,0,0,1,1.526-2.5c.25.347-.971,1.311-1.1,2.542a2.146,2.146,0,0,0,.557,1.639c.678.81,2.062,1.073,4.11.785,1.708-.238,3.739-.68,4.3-1.987a2.221,2.221,0,0,0,.131-1,5.534,5.534,0,0,0-1.3-3.346c-.84-.944-1.431-1.607-1.094-2.848a6.63,6.63,0,0,0-.991-5.351A2.687,2.687,0,0,0,58.33,56.3H57.216a4.09,4.09,0,0,1-.617-.8c-1.74-2.481-3.809-2.06-6-1.615a11.97,11.97,0,0,1-3.1.352,5.157,5.157,0,0,0-3.956,1.192,4.023,4.023,0,0,0-1.064,3.2,2.279,2.279,0,0,0,1.01,1.857c.748.481,2.245.81,5.136-.349,2.861-1.146,4.616-1.683,4.944-1.523.119.2.54,3.427,1.293,4.337-1.06-.612-1.477-3.232-1.578-3.944a24.092,24.092,0,0,0-4.5,1.527c-3.063,1.226-4.695.845-5.525.311a2.666,2.666,0,0,1-1.207-2.2,4.433,4.433,0,0,1,1.192-3.523,5.652,5.652,0,0,1,4.283-1.312,11.827,11.827,0,0,0,2.982-.345c2.227-.453,4.532-.922,6.439,1.8l.38.609h1a3.05,3.05,0,0,1,2.424,1.345,6.987,6.987,0,0,1,1.064,5.721c-.276,1.018.192,1.546.843,2.275A6.127,6.127,0,0,1,64.229,69a2.749,2.749,0,0,1-.165,1.19c-.641,1.5-2.811,1.988-4.629,2.243a11.082,11.082,0,0,1-1.516.115" transform="translate(-7.907 -9.989)" fill="#1a1a1a"/>
        <path id="Path_838272" data-name="Path 838272" d="M36.1,139.644c1.711-4.454,1.593-15.782,1.591-15.9.434.464.546,11.534-1.4,15.771a.21.21,0,0,1-.193.124" transform="translate(-6.788 -23.27)" fill="#1a1a1a"/>
        <path id="Path_838273" data-name="Path 838273" d="M48.792,77.3a3.067,3.067,0,0,1-2.929-1.395c-.953-1.888.927-3.612.946-3.63.218.378-1.37,1.843-.566,3.437.817,1.613,3.7,1.24,4.985.693a2.958,2.958,0,0,1-2.436.9" transform="translate(-8.574 -13.592)" fill="#1a1a1a"/>
        <path id="Path_838274" data-name="Path 838274" d="M25.36,111.082c-2.226,0-4-.529-4.732-1.469a7.33,7.33,0,0,1-1.25-2.784,15.382,15.382,0,0,1-.356-5.447c.235-2,2.55-3.719,2.65-3.79.229.36-2.014,2.025-2.225,3.841a14.913,14.913,0,0,0,.344,5.292,6.921,6.921,0,0,0,1.172,2.626c.684.87,2.844,1.582,6.132,1.2.984-.114,2.765-.864,2.623-2.162a1.15,1.15,0,0,0-.61-.894.841.841,0,0,1,1.034.848c.167,1.541-1.69,2.482-3,2.632a15.569,15.569,0,0,1-1.785.106" transform="translate(-3.558 -18.352)" fill="#1a1a1a"/>
        <path id="Path_838275" data-name="Path 838275" d="M27.544,105.341a31.392,31.392,0,0,1-5-.5c.512-.26,4.579.183,5.5.045.556-.074,1.155-.153,1.362-.488a1.714,1.714,0,0,0,.2-1.482,1.84,1.84,0,0,0-.916-.968,2.274,2.274,0,0,0-1.251-.153c-.116.007-.233.013-.348.016-4.4.1-5.218-.866-5.295-.978.368-.224,1.162.654,5.284.551a3.285,3.285,0,0,1,1.814.188,2.241,2.241,0,0,1,1.113,1.2,2.135,2.135,0,0,1-.239,1.851,2.008,2.008,0,0,1-1.508.663,4.555,4.555,0,0,1-.717.05" transform="translate(-4.099 -18.955)" fill="#1a1a1a"/>
        <path id="Path_838276" data-name="Path 838276" d="M40.887,93.412c-.214-.214-.214-1.055-.214-1.055.427,0,.427.841.427.841a.214.214,0,0,1-.214.214" transform="translate(-7.648 -17.367)" fill="#1a1a1a"/>
        <path id="Path_838277" data-name="Path 838277" d="M26.932,109.592a35.42,35.42,0,0,1-4.315-.305c.095-.418,3.477.054,5.93-.195a1.677,1.677,0,0,0,1.7-1.72,2.106,2.106,0,0,0-.92-1.435,1.462,1.462,0,0,1,1.345,1.4,2.083,2.083,0,0,1-2.083,2.183,16.344,16.344,0,0,1-1.659.076" transform="translate(-4.253 -19.921)" fill="#1a1a1a"/>
        <path id="Path_838278" data-name="Path 838278" d="M45.194,111.864a1.931,1.931,0,0,1-.862-.222,3.382,3.382,0,0,1-1.36-1.343c-.731-1.266-.619-2.7.25-3.207s2.17.123,2.9,1.388.62,2.705-.248,3.208a1.352,1.352,0,0,1-.68.176m-1.285-4.524a.933.933,0,0,0-.473.122c-.664.384-.706,1.561-.093,2.623a2.948,2.948,0,0,0,1.181,1.175,1.181,1.181,0,0,0,1.138.057c.664-.383.706-1.561.092-2.623a2.423,2.423,0,0,0-1.844-1.354" transform="translate(-7.99 -20.106)" fill="#1a1a1a"/>
        <path id="Path_838279" data-name="Path 838279" d="M54.235,85.881c-1.62-.507-1.177-4.559-1.06-5.472l-.794-3.47c.417-.094,1.22,3.413,1.22,3.413-.249,2-.269,4.82.476,5.079,1.134.386,4.368-3.142,6.2-5.514l-.706-3.091c.417-.1,1.145,3.094,1.145,3.094-.514.8-4.536,5.961-6.481,5.961" transform="translate(-9.85 -14.446)" fill="#1a1a1a"/>
        <path id="Path_838280" data-name="Path 838280" d="M58.122,58.205c-.093-.406,1.4-1.133,1.4-1.133.188.383-1.307,1.112-1.307,1.112a.212.212,0,0,1-.093.021" transform="translate(-10.929 -10.732)" fill="#1a1a1a"/>
        <path id="Path_838281" data-name="Path 838281" d="M163.812,45.811a14.53,14.53,0,0,1-1.1-2.466l-.243-.663a1.606,1.606,0,0,1,.006-1.115c.346-.771.709-1.534,1.072-2.3.386-.811.772-1.623,1.138-2.442a.806.806,0,0,0-.079-.651c-.677-.723-1.388-1.44-2.075-2.135-.529-.535-1.059-1.069-1.579-1.613a.512.512,0,0,0-.743-.116c-1.737.861-3.19,1.549-4.572,2.167a1.74,1.74,0,0,1-1.2.054c-1.477-.533-2.948-1.108-4.375-1.712a1.817,1.817,0,0,1-.939-.877c-.52-1.29-1.03-2.679-1.652-4.5-.144-.422-.271-.581-.718-.559-1.62.039-3.278.039-5.069,0-.4,0-.587.114-.736.55-.247.721-.509,1.435-.772,2.15-.277.753-.554,1.507-.812,2.267a1.516,1.516,0,0,1-1.077,1.037c-1.43.5-2.805,1.047-4.087,1.635a1.533,1.533,0,0,1-1.49-.015c-.758-.381-1.524-.747-2.29-1.113-.728-.348-1.453-.7-2.173-1.055a.57.57,0,0,0-.82.142c-1.292,1.349-2.465,2.521-3.586,3.584-.324.307-.312.493-.112.9.65,1.313,1.409,2.874,2.122,4.5a1.747,1.747,0,0,1-.028,1.267c-.212.494-.271.633-.438,1-.224-.542-.166-.679-.041-.97a1.508,1.508,0,0,0,.116-1.129c-.709-1.617-1.466-3.172-2.112-4.48a1.021,1.021,0,0,1,.2-1.4c1.116-1.058,2.285-2.225,3.572-3.569a.986.986,0,0,1,1.319-.229c.718.36,1.441.706,2.166,1.052.768.366,1.537.735,2.3,1.117a1.113,1.113,0,0,0,1.118.009c1.294-.594,2.682-1.15,4.126-1.652a1.1,1.1,0,0,0,.813-.771c.259-.763.537-1.52.816-2.277.261-.712.522-1.424.769-2.141a1.066,1.066,0,0,1,1.149-.839c1.785.04,3.437.037,5.05,0a1.019,1.019,0,0,1,1.133.848c.62,1.815,1.128,3.2,1.644,4.48a1.419,1.419,0,0,0,.709.642c1.42.6,2.885,1.175,4.354,1.7a1.3,1.3,0,0,0,.879-.042c1.378-.615,2.826-1.3,4.557-2.16a.924.924,0,0,1,1.241.2c.52.541,1.047,1.074,1.575,1.608.689.7,1.4,1.416,2.082,2.144A1.192,1.192,0,0,1,165.071,37c-.368.823-.755,1.638-1.142,2.452-.361.759-.723,1.519-1.069,2.287a1.183,1.183,0,0,0,.007.792l.243.665c.3.824.482,1.322.9,2.315-.141.291-.17.3-.2.3" transform="translate(-23.16 -4.976)" fill="#1a1a1a"/>
        <path id="Path_838282" data-name="Path 838282" d="M146.742,66.707A10.1,10.1,0,0,1,139.613,49.5a10.083,10.083,0,1,1,7.132,17.208Zm.083-19.722a9.7,9.7,0,0,0-6.91,2.818,9.652,9.652,0,0,0,6.827,16.477,9.648,9.648,0,0,0,.1-19.3Z" transform="translate(-25.703 -8.755)" fill="#1a1a1a"/>
        <path id="Path_838283" data-name="Path 838283" d="M147,73.018a12.153,12.153,0,0,1-8.936-3.916A14.09,14.09,0,0,0,147,72.591a12.069,12.069,0,0,0,1.859-.145,2.515,2.515,0,0,1-1.857.572Z" transform="translate(-25.963 -12.994)" fill="#1a1a1a"/>
        <path id="Path_838284" data-name="Path 838284" d="M158.584,69.534a26.545,26.545,0,0,0,2.747-4.017,7.234,7.234,0,0,1-2.609,3.967.217.217,0,0,1-.138.05" transform="translate(-29.821 -12.32)" fill="#1a1a1a"/>
        <path id="Path_838285" data-name="Path 838285" d="M154.315,46.2a11.947,11.947,0,0,0-10.82-.854,7.419,7.419,0,0,1,4.626-1.337,11.994,11.994,0,0,1,6.307,1.8c.028.36-.041.4-.113.4" transform="translate(-26.984 -8.275)" fill="#1a1a1a"/>
        <path id="Path_838286" data-name="Path 838286" d="M96.554,41.8c-1.182-.025-2.407-.026-3.782,0a.8.8,0,0,1-.866-.621c-.46-1.4-.859-2.54-1.251-3.592a.92.92,0,0,0-.425-.439c-.464-.219-.935-.425-1.406-.63-.582-.253-1.185-.516-1.765-.8a.744.744,0,0,0-.778-.024c-.534.266-1.023.5-1.524.732-.3.145-.615.291-.942.448a1.148,1.148,0,0,1,.759-.834c.5-.236.985-.466,1.517-.73a1.163,1.163,0,0,1,1.157.024c.571.283,1.169.543,1.747.795.476.206.95.414,1.418.634a1.344,1.344,0,0,1,.644.677c.395,1.056.794,2.2,1.257,3.608a.387.387,0,0,0,.453.327c1.38-.024,2.611-.024,3.763,0,.294,0,.382-.062.48-.365.412-1.285.817-2.446,1.236-3.547a1.432,1.432,0,0,1,.7-.713c1.022-.477,2.119-.953,3.26-1.414a1.3,1.3,0,0,1,.931-.012c.952.422,1.873.861,2.849,1.323l.87.412.606-.613c.773-.779,1.572-1.583,2.332-2.392a.576.576,0,0,0,.021-.432c-.269-.6-.553-1.2-.836-1.791-.253-.533-.507-1.064-.751-1.6a1.286,1.286,0,0,1-.058-.88c.423-1.215.832-2.3,1.251-3.325a1.4,1.4,0,0,1,.7-.715c1.2-.487,2.417-.917,3.339-1.236.259-.09.322-.18.316-.46-.024-1.342-.024-2.573,0-3.763.006-.291-.069-.392-.367-.5-.91-.314-2.106-.736-3.277-1.215a1.51,1.51,0,0,1-.729-.755c-.394-.909-.793-1.921-1.256-3.183a1.238,1.238,0,0,1,0-.87c.258-.574.528-1.141.8-1.709.285-.6.571-1.2.84-1.806a.548.548,0,0,0-.048-.422c-.5-.537-1.02-1.059-1.538-1.582-.393-.4-.786-.794-1.173-1.2-.167-.175-.257-.188-.486-.076-1.258.624-2.368,1.151-3.395,1.61a1.342,1.342,0,0,1-.931.041c-1.092-.393-2.186-.821-3.249-1.272a1.4,1.4,0,0,1-.725-.68c-.388-.965-.766-1.995-1.228-3.342-.107-.317-.179-.391-.479-.378-1.2.029-2.43.029-3.763,0-.289,0-.389.07-.493.371-.182.529-.374,1.055-.568,1.579-.206.564-.415,1.129-.607,1.7a1.181,1.181,0,0,1-.834.8c-1.055.366-2.073.774-3.029,1.211A1.186,1.186,0,0,1,86.1,8.172c-.568-.286-1.141-.56-1.714-.834-.533-.255-1.069-.511-1.6-.775a.369.369,0,0,0-.544.094c-.97,1.013-1.842,1.884-2.662,2.661-.218.207-.211.32-.072.6.482.975,1.047,2.134,1.575,3.34a1.345,1.345,0,0,1-.019.984c-.46,1.072-.954,2.136-1.47,3.166a1.551,1.551,0,0,1-.748.731c-1.187.451-2.408.859-3.55,1.23-.306.1-.38.195-.373.483.026,1.155.026,2.386,0,3.763-.006.279.055.361.318.447,1.084.35,2.361.771,3.615,1.249a1.53,1.53,0,0,1,.735.753c.214.448.411.905.608,1.362.24.558.49,1.134.765,1.682a1.288,1.288,0,0,1,.024,1.285c-.266.535-.52,1.074-.775,1.614-.24.512-.482,1.023-.733,1.53-.138.28-.121.4.091.6.56.535,1.029.988,1.628,1.6a4.6,4.6,0,0,1-1.924-1.287.817.817,0,0,1-.177-1.1c.249-.5.489-1.012.728-1.521.256-.543.512-1.086.779-1.622a.87.87,0,0,0-.023-.9c-.282-.559-.533-1.141-.776-1.705-.195-.451-.39-.9-.6-1.349a1.121,1.121,0,0,0-.5-.537c-1.245-.474-2.515-.893-3.594-1.241a.774.774,0,0,1-.615-.861c.024-1.371.024-2.6,0-3.746a.822.822,0,0,1,.668-.9c1.137-.37,2.351-.775,3.53-1.224a1.135,1.135,0,0,0,.517-.522c.512-1.021,1-2.079,1.459-3.143a.937.937,0,0,0,.021-.645c-.525-1.2-1.086-2.352-1.565-3.321a.814.814,0,0,1,.16-1.1c.816-.772,1.682-1.639,2.648-2.645a.778.778,0,0,1,1.043-.182c.528.264,1.06.518,1.591.772.576.275,1.151.551,1.721.839a.773.773,0,0,0,.783,0c.968-.443,2-.857,3.067-1.227a.762.762,0,0,0,.568-.538c.193-.572.4-1.14.611-1.708.192-.522.385-1.045.565-1.571a.833.833,0,0,1,.905-.659c1.327.029,2.551.029,3.744,0a.829.829,0,0,1,.894.667c.458,1.34.834,2.364,1.22,3.321a.988.988,0,0,0,.5.447c1.056.447,2.141.872,3.227,1.263a.9.9,0,0,0,.611-.029c1.021-.457,2.127-.981,3.379-1.6a.741.741,0,0,1,.984.163c.385.4.777.8,1.168,1.191.52.526,1.04,1.053,1.546,1.592a.934.934,0,0,1,.127.888c-.272.61-.559,1.212-.845,1.815-.269.565-.538,1.13-.794,1.7a.835.835,0,0,0,.006.546c.46,1.254.858,2.259,1.247,3.162a1.088,1.088,0,0,0,.5.529c1.162.477,2.35.895,3.255,1.207a.832.832,0,0,1,.654.909c-.024,1.185-.024,2.411,0,3.746a.8.8,0,0,1-.6.872c-.917.317-2.122.745-3.318,1.228a.977.977,0,0,0-.468.481c-.417,1.014-.823,2.095-1.243,3.3a.862.862,0,0,0,.044.564c.242.534.5,1.064.748,1.594.285.6.571,1.2.84,1.8a.949.949,0,0,1-.1.9c-.764.813-1.566,1.62-2.34,2.4l-.712.719a4.805,4.805,0,0,1-1.25-.434c-.974-.462-1.893-.9-2.839-1.319a.869.869,0,0,0-.6.017c-1.135.459-2.224.932-3.241,1.406a1.017,1.017,0,0,0-.482.477c-.417,1.1-.818,2.249-1.23,3.526a.8.8,0,0,1-.859.662" transform="translate(-14.009 -0.393)" fill="#1a1a1a"/>
        <path id="Path_838287" data-name="Path 838287" d="M97.575,32.063A7.544,7.544,0,0,1,92.246,19.2a7.535,7.535,0,1,1,5.33,12.859Zm.058-14.632a7.148,7.148,0,0,0-5.086,2.074,7.107,7.107,0,0,0,5.028,12.131,7.1,7.1,0,0,0,.076-14.205Z" transform="translate(-16.935 -3.198)" fill="#1a1a1a"/>
        <path id="Path_838288" data-name="Path 838288" d="M88.241,27.88a6.4,6.4,0,0,1-.551-2.718,9.5,9.5,0,0,1,1.265-4.749,18.7,18.7,0,0,0-.838,4.749,9.155,9.155,0,0,0,.33,2.448c-.167.267-.188.27-.205.27" transform="translate(-16.49 -3.839)" fill="#1a1a1a"/>
        <path id="Path_838289" data-name="Path 838289" d="M98.782,36.292a9.5,9.5,0,0,1-2.3-.281,7.71,7.71,0,0,1,2.3-.146,9.047,9.047,0,0,0,8.706-6.589,8.65,8.65,0,0,1-8.706,7.016" transform="translate(-18.143 -5.505)" fill="#1a1a1a"/>
        <path id="Path_838290" data-name="Path 838290" d="M103.24,15.962a9.221,9.221,0,0,0-3.809-.844,5.3,5.3,0,0,1,3.9.437c.067.361-.01.407-.09.407" transform="translate(-18.698 -2.805)" fill="#1a1a1a"/>
        <path id="Path_838291" data-name="Path 838291" d="M192.41,93.214c-.215-.2-.816-3.263-1.92-5.373a14.1,14.1,0,0,1,2.131,5.119c-.184.253-.2.254-.21.254" transform="translate(-35.821 -16.518)" fill="#1a1a1a"/>
        <path id="Path_838292" data-name="Path 838292" d="M169.414,109.1a1.757,1.757,0,0,1-.889-.216,2.175,2.175,0,0,1-.925-1.468,6.144,6.144,0,0,1-.154-1.06,6.271,6.271,0,0,1,1.054-4.221,4.469,4.469,0,0,1,3.437-1.836,2.579,2.579,0,0,1,2.467,1.433c-.415.116-.907-1.006-2.466-1.006a4.042,4.042,0,0,0-3.1,1.669,6.042,6.042,0,0,0-.966,3.933,5.794,5.794,0,0,0,.144.988,1.772,1.772,0,0,0,.723,1.2,1.444,1.444,0,0,0,.846.153,1.852,1.852,0,0,0,1.486-.86,2.512,2.512,0,0,0,.24-1.246,5.865,5.865,0,0,1,.188-2.174,6.6,6.6,0,0,1,1.082-1.82,6.724,6.724,0,0,1-.68,1.963,4.544,4.544,0,0,0-.17,1.7,3.436,3.436,0,0,1-.287,1.79,2.288,2.288,0,0,1-1.824,1.077c-.07,0-.139.008-.205.008" transform="translate(-31.484 -18.861)" fill="#1a1a1a"/>
      </g>
    </g>
  </g>
</svg>
