<svg xmlns="http://www.w3.org/2000/svg" xmlns:xlink="http://www.w3.org/1999/xlink" width="218" height="157.397" viewBox="0 0 218 157.397">
  <defs>
    <clipPath id="clip-path">
      <rect id="Rectangle_377359" data-name="Rectangle 377359" width="190" height="157.397" fill="none"/>
    </clipPath>
  </defs>
  <g id="Group_1071443" data-name="Group 1071443" transform="translate(-864.333 -157.944)">
    <g id="Ellipse_5874" data-name="Ellipse 5874" transform="translate(864.333 166)" fill="none" stroke="#1a1a1a" stroke-width="1" stroke-dasharray="4">
      <ellipse cx="109" cy="68.5" rx="109" ry="68.5" stroke="none"/>
      <ellipse cx="109" cy="68.5" rx="108.5" ry="68" fill="none"/>
    </g>
    <g id="Group_1071442" data-name="Group 1071442" transform="translate(882 157.944)">
      <g id="Group_1071441" data-name="Group 1071441" clip-path="url(#clip-path)">
        <path id="Path_608381" data-name="Path 608381" d="M107.649,89.8H9.459a6.789,6.789,0,0,1-6.79-6.788V22.831a6.79,6.79,0,0,1,6.79-6.79h98.191a6.789,6.789,0,0,1,6.788,6.79V83.014a6.788,6.788,0,0,1-6.788,6.788" transform="translate(0.458 2.753)" fill="#fff"/>
        <path id="Path_608382" data-name="Path 608382" d="M165.694,81.21a17.3,17.3,0,0,0-7.059-2.279h-43.96c-3.946,0-7.437,2.114-8.632,5.223l-11.58,30.163a6.307,6.307,0,0,0,.718,5.911L99.5,123.4s2.906,1.829,4.692,1.829h10l43.591-26.441Z" transform="translate(16.137 13.546)" fill="#fff"/>
        <path id="Path_608383" data-name="Path 608383" d="M114.242,125.537h-10c-1.845,0-4.717-1.791-4.838-1.868l-4.341-3.181a6.539,6.539,0,0,1-.813-6.231l11.579-30.164c1.243-3.228,4.814-5.4,8.89-5.4h43.958a17.654,17.654,0,0,1,7.2,2.317c.105.344-7.8,17.92-7.8,17.92-.107.122-43.7,26.562-43.7,26.562a.283.283,0,0,1-.143.04m-18.82-5.462,4.286,3.141c.012.006,2.842,1.773,4.531,1.773h9.927l43.452-26.356,7.767-17.277a16.985,16.985,0,0,0-6.71-2.111H114.716c-3.85,0-7.217,2.028-8.378,5.046l-11.58,30.164a6.011,6.011,0,0,0,.664,5.619" transform="translate(16.097 13.506)" fill="#1a1a1a"/>
        <path id="Path_608384" data-name="Path 608384" d="M61.447,81.907S55.41,83.586,49.324,95.075s-7.542,18.389-8.477,23.567.1,12.172,1.558,14.414H70.529a3.862,3.862,0,0,1,2.776-1.6c1.921-.213,34.3,0,34.3,0s-.487-5.614,2.105-7.381l-4.107-3.038-4,.079s-.642-10.043-1.256-16.031a35.939,35.939,0,0,0-6-16.336c-3.24-4.868-8.383-8.942-14.8-9.269s-18.114,2.423-18.114,2.423" transform="translate(6.949 13.636)" fill="#1a1a1a"/>
        <path id="Path_608385" data-name="Path 608385" d="M75.289,82.626l.095-4.684s2.7.234,3.7-1.754,1.005-5.857.969-8.286-.33-6.746-.33-6.746-.3,1.514-3.068,1.531-6.3-.173-7.582,1.488l-.79,2.362A3.175,3.175,0,0,0,64.135,68.7c-1.022,3.23,2.735,3.805,3.981,3.188,0,0,2.9,2.824,3.357,5.6s-.3,6.761-1.718,7.632c0,0,2.619,3.848,4.073,3.718s1.461-6.21,1.461-6.21" transform="translate(10.977 10.495)" fill="#fff"/>
        <path id="Path_608386" data-name="Path 608386" d="M118.819,124.925a4.975,4.975,0,0,0-1.141-3.368,22.368,22.368,0,0,0-3.018-2.849H103.645s-3.595-.619-3.755-1.163c0,0-2.6,1.518-2.105,7.381h10.91s.332-1.175-1.251-1.641-3.627-1.069-3.627-1.069a2.148,2.148,0,0,1,1.316-.439,6.262,6.262,0,0,1,3.406,1.013,6.359,6.359,0,0,1,1.61,2.136Z" transform="translate(16.771 20.173)" fill="#fff"/>
        <path id="Path_608387" data-name="Path 608387" d="M88.356,118.411s-1.624-4.435-5.487-4.4l3.46,4.056s-2.862.192-3.568-.231l-3.408-3.4a34.24,34.24,0,0,0-4.083,1.691c-1.482.8-2.957,1.03-6.54.733a7.4,7.4,0,0,0-2.96,4.34,15.807,15.807,0,0,0,.443,5.924,2.665,2.665,0,0,1,2.412-1.48c1.766,0,14.815-.3,14.815-.3a4.233,4.233,0,0,0,2.874-1.434s1.859-.4,2.349-1.238a3.22,3.22,0,0,0,.506-1.367,1.4,1.4,0,0,0,.665-1.292c-.152-.778-1.48-1.606-1.48-1.606" transform="translate(11.264 19.567)" fill="#fff"/>
        <path id="Path_608388" data-name="Path 608388" d="M26.661,130.165s5.788-12.632,7.316-16.406,5.182-12.671,6.65-18.369,2.96-10.821,2.128-15.047-5.543-3.953-7.118-3.19-5.141,4.36-5.141,4.36.586-7.994.917-13.966.267-12.735-1.754-17.558S23.627,45.005,21.5,46.8s-5.237,6.524-5.99,17.946a238.415,238.415,0,0,0,.445,30.685c.445,5.1,1.447,14.28,1.447,14.28s-2.032-6.719-4.832-10.654S7.762,94.766,5.86,95.49s-2.1,5.252-.552,9.819a207.168,207.168,0,0,0,8.9,20.392c2.153,3.962,2.4,4.392,2.4,4.392a52.569,52.569,0,0,0,10.056.071" transform="translate(0.734 7.851)" fill="#33ece0"/>
        <path id="Path_608389" data-name="Path 608389" d="M81.521,64.089s1.759-1.29.839-4.383-3.892-3.545-7.79-3.961S65.4,55.9,62.946,58.191a7.728,7.728,0,0,0-2.554,4.874s1.527,7.649,1.9,10.259,1.077,5.106-1.077,5.911-6.113,1.059-6.582,4.677.639,4.165.639,4.165L59.04,86s5.655,2.784,9.666,1.55a6.647,6.647,0,0,0,4.631-6.842,10.44,10.44,0,0,0-2.175-6.219c-1.425-1.646-1.579-1.554-1.579-1.554a2.889,2.889,0,0,1-3.722-2.025c-1.107-2.978,2.531-3.926,4-3.262l.847-2.722a4.556,4.556,0,0,1,3.255-1.254,25.865,25.865,0,0,0,5.088-.241c1.108-.313,2.274-.867,2.47-1.715Z" transform="translate(9.355 9.545)" fill="#ffce26"/>
        <path id="Path_608390" data-name="Path 608390" d="M73.874,75.554l-.244,4.679L76.6,80.8a3.877,3.877,0,0,0,.984-2.477,7.433,7.433,0,0,0-1.267-3.231s-1.977.7-2.443.46" transform="translate(12.636 12.887)" fill="#ffce26"/>
        <path id="Path_608391" data-name="Path 608391" d="M0,31.527H111.792V18.906s-.871-5.723-6.208-5.723H6.579S.82,13.2.056,18.906Z" transform="translate(0 2.262)" fill="#1a1a1a"/>
        <path id="Path_608392" data-name="Path 608392" d="M134.069,125.149H108.354c-6.128,0-10.486-4.925-8.631-9.755L111.3,85.231c1.194-3.111,4.685-5.224,8.631-5.224H163.9c6.128,0,10.486,4.927,8.631,9.756l-11.58,30.163c-1.2,3.111-4.685,5.223-8.632,5.223H134.069Z" transform="translate(17.04 13.731)" fill="#b0c0d2"/>
        <path id="Path_608393" data-name="Path 608393" d="M87.187,123.587,86.1,120.646s-.875,1.687-1.805,1.74Z" transform="translate(14.467 20.705)" fill="#ffce26"/>
        <path id="Path_608394" data-name="Path 608394" d="M84.906,118.785,77.117,110.5l-1.947,1.61,5.5,6.179Z" transform="translate(12.9 18.963)" fill="#ffce26"/>
        <path id="Path_608395" data-name="Path 608395" d="M117.07,129.4H68.679a2.545,2.545,0,0,1-2.551-2.731,2.46,2.46,0,0,1,2.412-2.73h67.989v1.7H118.291a1.985,1.985,0,0,0-1.167,2.223Z" transform="translate(11.349 21.271)" fill="#b0c0d2"/>
        <path id="Path_608396" data-name="Path 608396" d="M135.919,106.051l3.22-8.275s.762-1.626-1.766-2.561l-13.363-.069a2.451,2.451,0,0,0-2.095,1.7c-.726,1.713-3.366,8.413-3.366,8.413a2.438,2.438,0,0,0,2.2,2.563,22.994,22.994,0,0,0,4.99,0s-1.367-4.845-1.323-4.951.1-2.883.1-2.883l8.541-.012a14.588,14.588,0,0,1,2.866,6.07" transform="translate(20.345 16.329)" fill="#1a1a1a"/>
        <path id="Path_608397" data-name="Path 608397" d="M109.6,127.586l7.666,4.99,40.244-.015s1.206-.539,1.479-1.092v2.5s-.282,1.142-1.25,1.2H117.2l-7.3-4.6a1.526,1.526,0,0,1-.3-.97c.054-.519-.006-2.014-.006-2.014" transform="translate(18.81 21.896)" fill="#ffce26"/>
        <path id="Path_608398" data-name="Path 608398" d="M151.577,125.414l7.134,4.692s.859,1.342,0,2.164a1.912,1.912,0,0,1-1.534.695l-39.91.007-7.362-4.793s-1.05-1.913.819-2.64l18.343-.125.094,3.943,2.1,1.3,8.236-.026.123-5.348Z" transform="translate(18.811 21.5)" fill="#1a1a1a"/>
        <path id="Path_608399" data-name="Path 608399" d="M15.641,115.086,17.2,118.07s-4.648-.444-4.88-1.3,3.322-1.685,3.322-1.685" transform="translate(2.112 19.751)" fill="#1a1a1a"/>
        <path id="Path_608400" data-name="Path 608400" d="M26.692,115.086l-1.411,2.984s5.661-.341,5.817-1.468-4.406-1.516-4.406-1.516" transform="translate(4.339 19.751)" fill="#1a1a1a"/>
        <path id="Path_608401" data-name="Path 608401" d="M12.186,116.524l1.166,10.112H32.284l1.066-10.03s-2.6,1.6-10.582,1.6-10.582-1.684-10.582-1.684" transform="translate(2.091 19.998)" fill="#1a1a1a"/>
        <path id="Path_608402" data-name="Path 608402" d="M90.283,24.008a3,3,0,1,1-3-3,3,3,0,0,1,3,3" transform="translate(14.466 3.606)" fill="#fff"/>
        <path id="Path_608403" data-name="Path 608403" d="M80.389,24.008a3,3,0,1,1-3-3,3,3,0,0,1,3,3" transform="translate(12.768 3.606)" fill="#ffce26"/>
        <path id="Path_608404" data-name="Path 608404" d="M70.495,24.008a3,3,0,1,1-3-3,3,3,0,0,1,3,3" transform="translate(11.07 3.606)" fill="#fff"/>
        <path id="Path_608405" data-name="Path 608405" d="M123.638,99.285s2.919,1.421,4.394,15.516.819,20.316.819,20.316l8.236-.026s.118-8.663-.443-17.366-1.72-15.67-4.464-18.452Z" transform="translate(21.218 17.037)" fill="#fff"/>
        <path id="Path_608406" data-name="Path 608406" d="M123.638,99.283v2.883s1.09,2.58,1.764,8.76,1.132,12.412,1.138,15.891.213,7,.213,7l2.1,1.3s.049-8.388-.375-14.548-.962-12.2-2.1-15.56-1.229-4.333-2.735-5.723" transform="translate(21.218 17.039)" fill="#1a1a1a"/>
        <path id="Path_608407" data-name="Path 608407" d="M28.9,81.513s.586-7.994.915-13.966.268-12.735-1.752-17.558-6.033-4.984-8.154-3.19-5.238,6.524-5.992,17.947a238.155,238.155,0,0,0,.446,30.685c.444,5.1,1.447,14.28,1.447,14.28l4.1,15.991s.319-6.627.579-10.47a127.97,127.97,0,0,1,3.05-20.1C25.652,85.935,28.9,81.513,28.9,81.513" transform="translate(2.333 7.851)" fill="#33ece0"/>
        <path id="Path_608408" data-name="Path 608408" d="M109,124.3a5.317,5.317,0,0,0-2.189-2.67,4.874,4.874,0,0,0-3.742-.162s.054.318,1.795.628,3.384.637,2.963,2.319Z" transform="translate(17.688 20.793)" fill="#1a1a1a"/>
        <path id="Path_608409" data-name="Path 608409" d="M79.1,61.7V64.07s1.759-1.29.839-4.384-3.893-3.544-7.79-3.96c2.418.32,5.036,3.721,4.759,5.228s-3.012,1.6-5.263,1.88a4.71,4.71,0,0,0-3.032,1.786,4.82,4.82,0,0,1,2.929-.965,25.865,25.865,0,0,0,5.088-.241c1.108-.313,2.274-.868,2.47-1.715" transform="translate(11.775 9.564)" fill="#fff"/>
        <path id="Path_608410" data-name="Path 608410" d="M72.158,78.148a10.44,10.44,0,0,0-2.175-6.219,13.312,13.312,0,0,0-1.331-1.4c.685,1.857,4.706,13.933-6.463,14.172-.288.007-.553.016-.806.028a11.527,11.527,0,0,0,6.143.26,6.647,6.647,0,0,0,4.631-6.842" transform="translate(10.535 12.104)" fill="#fff"/>
        <path id="Path_608411" data-name="Path 608411" d="M74.969,80.514c-.018.018,1.4.288,1.4.288a3.879,3.879,0,0,0,.983-2.477,7.433,7.433,0,0,0-1.267-3.231l-1.117.528s1.869,3.305,0,4.892" transform="translate(12.866 12.887)" fill="#fff"/>
        <path id="Path_608412" data-name="Path 608412" d="M76.508,125.518H5.654c0-.547,70.854-.547,70.854-.547.274.426.151.547,0,.547" transform="translate(0.97 21.447)" fill="#1a1a1a"/>
        <path id="Path_608413" data-name="Path 608413" d="M149.223,125.465h-7.571c0-.548,7.571-.548,7.571-.548,3.852,0,7.218-2.027,8.374-5.048L169.178,89.7a6.009,6.009,0,0,0-.719-5.7,9.148,9.148,0,0,0-7.654-3.679H116.843c-3.852,0-7.217,2.027-8.374,5.049L96.887,115.533a6.019,6.019,0,0,0,.721,5.706,9.156,9.156,0,0,0,7.655,3.678h25.713c0,.548-25.713.548-25.713.548a9.7,9.7,0,0,1-8.106-3.917,6.553,6.553,0,0,1-.781-6.213l11.581-30.162c1.24-3.229,4.809-5.4,8.887-5.4H160.8a9.7,9.7,0,0,1,8.105,3.917,6.545,6.545,0,0,1,.781,6.211l-11.58,30.164c-1.241,3.229-4.811,5.4-8.888,5.4" transform="translate(16.462 13.691)" fill="#1a1a1a"/>
        <path id="Path_608414" data-name="Path 608414" d="M125.7,108.142h-4.56a2.919,2.919,0,0,1-2.442-1.188,2.062,2.062,0,0,1-.243-1.927l3.257-8.481a2.811,2.811,0,0,1,2.684-1.644h12.361A2.923,2.923,0,0,1,139.2,96.09a2.053,2.053,0,0,1,.237,1.928l-3.252,8.48c-.513-.2,2.742-8.678,2.742-8.678a1.5,1.5,0,0,0-.179-1.42,2.4,2.4,0,0,0-1.989-.95H124.393a2.266,2.266,0,0,0-2.173,1.293l-3.255,8.48a1.5,1.5,0,0,0,.182,1.421,2.406,2.406,0,0,0,1.989.949h4.56c.273.426.152.548,0,.548" transform="translate(20.305 16.287)" fill="#1a1a1a"/>
        <path id="Path_608415" data-name="Path 608415" d="M128.868,135.338c-.274-34.066-5.273-35.814-5.323-35.827.33-.5,5.6.825,5.6,35.553a.272.272,0,0,1-.273.274" transform="translate(21.202 17.066)" fill="#1a1a1a"/>
        <path id="Path_608416" data-name="Path 608416" d="M126.711,133.631c-.409-21.152-2.275-28.988-3.374-31.8,1.624,2.648,3.514,10.556,3.648,31.526-.272.277-.274.277-.274.277" transform="translate(21.167 17.476)" fill="#1a1a1a"/>
        <path id="Path_608417" data-name="Path 608417" d="M136.788,135.338h-8.515c-.148-.045-2.18-1.342-2.18-1.342.293-.46,2.259.793,2.259.793h8.164c-.027-33.529-5-35.266-5.047-35.279.332-.5,5.594.825,5.594,35.553a.273.273,0,0,1-.274.274" transform="translate(21.64 17.066)" fill="#1a1a1a"/>
        <path id="Path_608418" data-name="Path 608418" d="M123.635,102.588c-.274-.273-.274-3.275-.274-3.275.274-.274,8.635-.274,8.635-.274,0,.547-8.087.547-8.087.547v2.729a.272.272,0,0,1-.274.273" transform="translate(21.171 16.997)" fill="#1a1a1a"/>
        <path id="Path_608419" data-name="Path 608419" d="M157.336,133.266H117.68a2.042,2.042,0,0,1-1.108-.326l-6.248-4a2.051,2.051,0,0,1,1.106-3.78h17.526c0,.548-17.526.548-17.526.548a1.5,1.5,0,0,0-.808,2.771l6.248,4a1.5,1.5,0,0,0,.811.237h39.656a1.505,1.505,0,0,0,.811-2.773l-6.248-4a1.516,1.516,0,0,0-.811-.234h-11.43c0-.548,11.43-.548,11.43-.548a2.064,2.064,0,0,1,1.1.321l6.251,4a2.052,2.052,0,0,1-1.107,3.781" transform="translate(18.77 21.48)" fill="#1a1a1a"/>
        <path id="Path_608420" data-name="Path 608420" d="M157.327,135.154H117.671a2.076,2.076,0,0,1-1.106-.321l-6.251-4a2.018,2.018,0,0,1-.89-1.22,4.684,4.684,0,0,1,1.188.759l6.248,4a1.5,1.5,0,0,0,.811.237h39.656a1.47,1.47,0,0,0,1.459-1.143c.3,1.065-.5,1.691-1.459,1.691" transform="translate(18.779 22.243)" fill="#1a1a1a"/>
        <path id="Path_608421" data-name="Path 608421" d="M109.7,130.191a10.358,10.358,0,0,1-.274-2.752c.547,0,.547,2.478.547,2.478a.272.272,0,0,1-.273.274" transform="translate(18.779 21.871)" fill="#1a1a1a"/>
        <path id="Path_608422" data-name="Path 608422" d="M151.8,133.575a9.822,9.822,0,0,1-.274-2.675c.548,0,.548,2.4.548,2.4a.273.273,0,0,1-.274.274" transform="translate(26.004 22.465)" fill="#1a1a1a"/>
        <path id="Path_608423" data-name="Path 608423" d="M66.966,71.644a3.213,3.213,0,0,1-3.107-3.538,3.144,3.144,0,0,1,3.511-2.695,3.1,3.1,0,0,1,1.665.757,6.263,6.263,0,0,1-1.736-.213,2.581,2.581,0,1,0-.673,5.119,2.5,2.5,0,0,0,1.367-.192.909.909,0,0,1-1.028.763" transform="translate(10.955 11.222)" fill="#1a1a1a"/>
        <path id="Path_608424" data-name="Path 608424" d="M65.91,69.957c-.152-.5,1.571-1.655,1.571-1.655l-1.742-1.48c.355-.418,2.374,1.3,2.374,1.3-.026.438-2.05,1.793-2.05,1.793a.282.282,0,0,1-.152.046" transform="translate(11.282 11.456)" fill="#1a1a1a"/>
        <path id="Path_608425" data-name="Path 608425" d="M55.61,88.387c-1.133-.614-1.558-1.927-1.333-3.73a5.069,5.069,0,0,1,2.134-3.866,5.463,5.463,0,0,1,.873-.444,12.779,12.779,0,0,1,1.606-.5,6.187,6.187,0,0,0,2.787-1.227,2.957,2.957,0,0,0,.759-2.617,127.376,127.376,0,0,0-2.259-12.835,6.68,6.68,0,0,1,3.1-5.481c4.647-3.125,11.319-2.31,13.975-1.816,1.869.349,4.439,1.05,5.208,3.1A5.871,5.871,0,0,1,82,64.314a8.4,8.4,0,0,0-.052-5.147c-.671-1.79-3.058-2.43-4.794-2.753-2.588-.486-9.092-1.286-13.569,1.733a6.138,6.138,0,0,0-2.862,4.929c.116.473,1.19,4.921,2.261,12.857a3.5,3.5,0,0,1-.931,3.093,6.7,6.7,0,0,1-3.02,1.354,12.465,12.465,0,0,0-1.54.472,4.985,4.985,0,0,0-.784.4,4.55,4.55,0,0,0-1.885,3.473c-.112.91-.143,2.531.928,3.152.049.462-.045.511-.138.511" transform="translate(9.305 9.507)" fill="#1a1a1a"/>
        <path id="Path_608426" data-name="Path 608426" d="M47.354,120.091c9.471-8.35,28.726-5.239,28.92-5.206-.281.508-19.3-2.565-28.747,5.146a.288.288,0,0,1-.173.06" transform="translate(8.127 19.614)" fill="#1a1a1a"/>
        <path id="Path_608427" data-name="Path 608427" d="M42.433,133.006c-5.873-11.033,1.773-30.653,7.915-40.463a56.1,56.1,0,0,1,4.736-6.691,20.539,20.539,0,0,1,6.368-4.511c-2.191,1.767-4.344,2.981-5.951,4.863a56.214,56.214,0,0,0-4.689,6.628c-6.077,9.709-13.66,29.091-8.137,39.774-.157.39-.2.4-.243.4" transform="translate(6.921 13.96)" fill="#1a1a1a"/>
        <path id="Path_608428" data-name="Path 608428" d="M95.927,121.352a40.875,40.875,0,0,1-.593-5.009c-.1-1.322-.2-2.643-.278-3.972-.4-6.811-1.175-14.639-5.255-21.38-2.5-4.139-6.955-9.368-13.931-10.788-.568-.116-2.281-.412-2.281-.412l.094-.54s1.723.3,2.3.416c7.169,1.459,11.728,6.809,14.29,11.04,4.145,6.848,4.925,14.755,5.333,21.629.079,1.327.177,2.647.277,3.965.116,1.559.235,3.168.32,4.761a2.607,2.607,0,0,1-.273.289" transform="translate(12.629 13.601)" fill="#1a1a1a"/>
        <path id="Path_608429" data-name="Path 608429" d="M74.573,78.243c-.252,0-.519-.014-.8-.037-.919-.08-2.265-.24-3.2-.431a8.412,8.412,0,0,1,3.251-.116,5.5,5.5,0,0,0,2.209-.162,3.165,3.165,0,0,0,2.04-2.259,19.265,19.265,0,0,0,.593-6.322l-.012-.8c-.026-1.839-.082-5.664-.124-7.08.592,1.4.647,5.231.673,7.073l.012.8a19.728,19.728,0,0,1-.62,6.5,3.676,3.676,0,0,1-2.395,2.608,5.311,5.311,0,0,1-1.617.225" transform="translate(12.11 10.475)" fill="#1a1a1a"/>
        <path id="Path_608430" data-name="Path 608430" d="M72.243,65.625c.218-.035.366.059.428.847.07.879-.157,1.033-.355,1.026s-.395-.28-.385-.907.026-.922.313-.967" transform="translate(12.344 11.261)" fill="#1a1a1a"/>
        <path id="Path_608431" data-name="Path 608431" d="M76.921,65.319c.217-.042.367.046.456.832.1.878-.122,1.039-.319,1.038s-.4-.266-.416-.894-.006-.922.279-.976" transform="translate(13.153 11.208)" fill="#1a1a1a"/>
        <path id="Path_608432" data-name="Path 608432" d="M77.826,64.088a1.871,1.871,0,0,0-1.782-.3c1.032-.831,1.619-.473,1.962-.177-.027.45-.1.482-.18.482" transform="translate(13.05 10.858)" fill="#1a1a1a"/>
        <path id="Path_608433" data-name="Path 608433" d="M73.153,86.64c-1.523,0-4.006-3.026-4.521-3.675,1.711,1.274,3.859,3.392,4.67,3.1.927-.36,1.051-3.8.912-5.89l.245-4.648c.547.03.3,4.644.3,4.644.066.935.308,5.8-1.261,6.4a.954.954,0,0,1-.347.063" transform="translate(11.778 12.962)" fill="#1a1a1a"/>
        <path id="Path_608434" data-name="Path 608434" d="M76.45,80.817a4.967,4.967,0,0,0-.828-5.556c.422-.353,3.133,2.51,1.052,5.44a.271.271,0,0,1-.224.116" transform="translate(12.978 12.911)" fill="#1a1a1a"/>
        <path id="Path_608435" data-name="Path 608435" d="M67.615,67.147a5.614,5.614,0,0,1,.639-3c1.521-1.472,3.876-1.524,5.953-1.57,2.5-.057,4.665-.105,4.977-2.422.17,2.854-2.44,2.911-4.964,2.969-2.074.046-4.218.094-5.585,1.418a11.83,11.83,0,0,0-.752,2.394.275.275,0,0,1-.267.209" transform="translate(11.601 10.324)" fill="#1a1a1a"/>
        <path id="Path_608436" data-name="Path 608436" d="M65.855,85.515a19.76,19.76,0,0,1-7.49-1.838c.306-.46,7.129,2.774,11.128.426,1.745-1.022,2.718-2.977,2.894-5.814a9.768,9.768,0,0,0-3.626-7.7c1.682.54,4.417,3.836,4.173,7.736-.189,3.031-1.252,5.135-3.165,6.253a7.674,7.674,0,0,1-3.914.938" transform="translate(10.016 12.114)" fill="#1a1a1a"/>
        <path id="Path_608437" data-name="Path 608437" d="M56.884,118.983C55.663,109.121,61,93.216,61.055,93.057c.465.333-4.835,16.127-3.9,25.626-.255.3-.264.3-.273.3" transform="translate(9.731 15.97)" fill="#1a1a1a"/>
        <path id="Path_608438" data-name="Path 608438" d="M74.1,72.262a1.929,1.929,0,0,1-1.121-.332,2.6,2.6,0,0,1-.958-1.741c.548-.043.644.862,1.271,1.292a1.744,1.744,0,0,0,1.49.131c-.148.609-.425.649-.682.649" transform="translate(12.36 12.045)" fill="#1a1a1a"/>
        <path id="Path_608439" data-name="Path 608439" d="M66.248,127.267a11.282,11.282,0,0,1-.7-5.692,7.658,7.658,0,0,1,7.409-6.79,5.042,5.042,0,0,1,2.66.848c-1.378-.153-1.928-.276-2.676-.3a7.08,7.08,0,0,0-6.85,6.329,13.126,13.126,0,0,0,.421,5.268c-.224.334-.245.336-.266.336" transform="translate(11.229 19.699)" fill="#1a1a1a"/>
        <path id="Path_608440" data-name="Path 608440" d="M85.462,117c3.429-1.619,7.6-2.183,12.3-2.217a74.189,74.189,0,0,0-12.222,2.206.319.319,0,0,1-.081.011" transform="translate(14.667 19.699)" fill="#1a1a1a"/>
        <path id="Path_608441" data-name="Path 608441" d="M97.827,125.244a7.157,7.157,0,0,1-.261-3.456,7.71,7.71,0,0,1,2.176-4.5,15.745,15.745,0,0,0-1.633,4.589,10.322,10.322,0,0,0-.009,3.06c-.248.31-.261.31-.272.31" transform="translate(16.726 20.128)" fill="#1a1a1a"/>
        <path id="Path_608442" data-name="Path 608442" d="M82.3,118.766c4.319-16.942.7-26.955.66-27.053.551-.095,4.239,10.069-.4,26.851a.274.274,0,0,1-.264.2" transform="translate(14.124 15.739)" fill="#1a1a1a"/>
        <path id="Path_608443" data-name="Path 608443" d="M117.111,129.716H68.9a3,3,0,1,1,0-6.009h67.383c0,.548-67.383.548-67.383.548a2.457,2.457,0,1,0,0,4.914h48.212c.274.426.152.547,0,.547" transform="translate(11.309 21.23)" fill="#1a1a1a"/>
        <path id="Path_608444" data-name="Path 608444" d="M76.177,71.613c.216-.721.969-2.025.874-2.507a9.916,9.916,0,0,0-1.493-.2c-.264-.26-.469-4.732-.469-4.732.548-.027.74,4.2.74,4.2.267.019.724.057,1.254.138a.584.584,0,0,1,.5.5,3.644,3.644,0,0,1-1.272,2.573.254.254,0,0,1-.139.039" transform="translate(12.887 11.013)" fill="#1a1a1a"/>
        <path id="Path_608445" data-name="Path 608445" d="M84.708,119.1c-.2-.091-7.518-8.224-7.518-8.224l-1.6,1.413,5.27,5.817c-.408.369-5.865-5.653-5.865-5.653.022-.39,2.036-2.168,2.036-2.168.385.023,7.88,8.357,7.88,8.357-.071.434-.138.457-.2.457" transform="translate(12.87 18.926)" fill="#1a1a1a"/>
        <path id="Path_608446" data-name="Path 608446" d="M87.255,124.051c-.112-.023-3.067-1.344-3.067-1.344.223-.5,2.629.575,2.629.575l-.86-2.827c.525-.159,1.561,3.242,1.561,3.242-.132.33-.2.354-.262.354" transform="translate(14.448 20.671)" fill="#1a1a1a"/>
        <path id="Path_608447" data-name="Path 608447" d="M84.319,121.772a18.32,18.32,0,0,1-5.678-1.117c5.238,1.175,7.368.47,8.051.093a1.384,1.384,0,0,0,.733-.851c.239-1.017-1.283-1.569-1.522-1.648-.558-.021-5.99-.262-7.919-1.509,2.163.745,7.918.962,7.975.964.164.04,2.373.726,2,2.317a1.908,1.908,0,0,1-1,1.2,5.389,5.389,0,0,1-2.641.547" transform="translate(13.384 20.035)" fill="#1a1a1a"/>
        <path id="Path_608448" data-name="Path 608448" d="M81.745,123.385a21,21,0,0,1-3.924-.4c.17-.524,5.662.613,8.062-1.1a2.446,2.446,0,0,0,1.06-1.77,1.691,1.691,0,0,1-.743,2.218,7.962,7.962,0,0,1-4.456,1.047" transform="translate(13.355 20.615)" fill="#1a1a1a"/>
        <path id="Path_608449" data-name="Path 608449" d="M85.976,118.877c-.253-.168-1.573-2.569-2.72-3.517a6.67,6.67,0,0,0-3.148-1.091c.131-.541,2.241-.368,3.5.669a15.215,15.215,0,0,1,2.613,3.534c-.151.395-.2.405-.241.405" transform="translate(13.748 19.559)" fill="#1a1a1a"/>
        <path id="Path_608450" data-name="Path 608450" d="M71.329,117.34A29.543,29.543,0,0,1,68,117.124c1.486-.364,5.351-.067,6.2-.822a9.521,9.521,0,0,1,4.531-2.158c.054.546-2.3.9-4.165,2.568-.552.493-1.9.629-3.229.629" transform="translate(11.669 19.589)" fill="#1a1a1a"/>
        <path id="Path_608451" data-name="Path 608451" d="M75.854,124.507c.023-.552,1.117-.64,1.838-.656,4.04.048,6.294-.476,7.081-1.613-.9,2.264-5.277,2.191-6.72,2.165-1.053.013-2.166.1-2.177.1Z" transform="translate(13.018 20.978)" fill="#1a1a1a"/>
        <path id="Path_608452" data-name="Path 608452" d="M70.826,64.895a2.516,2.516,0,0,1,3.464-1.448c-.321.455-2.076-.4-3.237,1.329a.277.277,0,0,1-.227.12" transform="translate(12.155 10.847)" fill="#1a1a1a"/>
        <path id="Path_608453" data-name="Path 608453" d="M17.808,111.007c-.559-2.355-7.2-52.231,2.58-63.283a5.869,5.869,0,0,1,4.5-2.165,4.855,4.855,0,0,1,3.757,1.756C32.3,51.482,33.01,63.12,30.762,81.907c1.654-18.43.969-30.244-2.525-34.231a4.246,4.246,0,0,0-3.275-1.569,5.375,5.375,0,0,0-4.164,1.98C11.184,58.951,18.011,110.18,18.08,110.7c-.247.31-.259.31-.272.31" transform="translate(2.589 7.819)" fill="#1a1a1a"/>
        <path id="Path_608454" data-name="Path 608454" d="M25.934,125.941c-.045-.808,19.884-41.908,15.383-51.426a2.991,2.991,0,0,0-2.078-1.771,7.371,7.371,0,0,0-6.517,1.436c-11,8.556-11.665,47.088-11.672,47.476-.526-1.6.13-39.189,11.334-47.91a7.921,7.921,0,0,1,6.983-1.536,3.547,3.547,0,0,1,2.446,2.07c4.61,9.755-14.8,49.805-15.633,51.505a.276.276,0,0,1-.247.155" transform="translate(3.591 12.351)" fill="#1a1a1a"/>
        <path id="Path_608455" data-name="Path 608455" d="M24.13,123.435c-.33-.587-6.178-35.225-14.878-35.225a3.383,3.383,0,0,0-.53.042,2.4,2.4,0,0,0-1.911,1.409C3.629,96.329,18.554,122.5,18.7,122.763c-1.1-.813-15.693-26.413-12.39-33.338a2.947,2.947,0,0,1,2.319-1.713c9.552-1.515,15.517,33.9,15.766,35.4-.241.316-.257.319-.271.319" transform="translate(1 15.045)" fill="#1a1a1a"/>
        <path id="Path_608456" data-name="Path 608456" d="M57.349,79.245H40.462c0-.547,16.887-.547,16.887-.547.274.425.151.547,0,.547" transform="translate(6.944 13.506)" fill="#1a1a1a"/>
        <path id="Path_608457" data-name="Path 608457" d="M95.122,82.515H76.96c0-.547,18.162-.547,18.162-.547a6.312,6.312,0,0,0,6.3-6.3V59.646c.547,0,.547,16.017.547,16.017a6.859,6.859,0,0,1-6.852,6.852" transform="translate(13.208 10.236)" fill="#1a1a1a"/>
        <path id="Path_608458" data-name="Path 608458" d="M16.6,90.025H9.278a6.86,6.86,0,0,1-6.852-6.852V22.735a6.86,6.86,0,0,1,6.852-6.852h98.636a6.859,6.859,0,0,1,6.852,6.852V41.875c-.547,0-.547-19.141-.547-19.141a6.311,6.311,0,0,0-6.3-6.3H9.278a6.311,6.311,0,0,0-6.3,6.3V83.174a6.312,6.312,0,0,0,6.3,6.3H16.6c.274.425.151.547,0,.547" transform="translate(0.416 2.726)" fill="#1a1a1a"/>
        <path id="Path_608459" data-name="Path 608459" d="M103.18,32.1H9.141c0-.547,94.039-.547,94.039-.547.274.425.152.547,0,.547" transform="translate(1.569 5.415)" fill="#1a1a1a"/>
        <path id="Path_608460" data-name="Path 608460" d="M87.327,27.318a3.27,3.27,0,1,1,3.27-3.27,3.273,3.273,0,0,1-3.27,3.27m0-5.992a2.722,2.722,0,1,0,2.723,2.722,2.726,2.726,0,0,0-2.723-2.722" transform="translate(14.426 3.566)" fill="#1a1a1a"/>
        <path id="Path_608461" data-name="Path 608461" d="M77.433,27.318a3.27,3.27,0,1,1,3.27-3.27,3.273,3.273,0,0,1-3.27,3.27m0-5.992a2.722,2.722,0,1,0,2.723,2.722,2.725,2.725,0,0,0-2.723-2.722" transform="translate(12.728 3.566)" fill="#1a1a1a"/>
        <path id="Path_608462" data-name="Path 608462" d="M67.539,27.318a3.27,3.27,0,1,1,3.269-3.27,3.273,3.273,0,0,1-3.269,3.27m0-5.992a2.722,2.722,0,1,0,2.722,2.722,2.725,2.725,0,0,0-2.722-2.722" transform="translate(11.03 3.566)" fill="#1a1a1a"/>
        <path id="Path_608463" data-name="Path 608463" d="M25.818,46.1c-.274-.274-.274-14.315-.274-14.315.548,0,.548,14.041.548,14.041a.274.274,0,0,1-.274.274" transform="translate(4.384 5.455)" fill="#1a1a1a"/>
        <path id="Path_608464" data-name="Path 608464" d="M13.392,126.931c-.272-.244-1.438-10.525-1.438-10.525.544-.061,1.709,10.22,1.709,10.22-.252.3-.262.3-.272.3" transform="translate(2.052 19.977)" fill="#1a1a1a"/>
        <path id="Path_608465" data-name="Path 608465" d="M29.346,126.94c-.271-.3.894-10.586.894-10.586.544.061-.622,10.342-.622,10.342a.273.273,0,0,1-.272.244" transform="translate(5.029 19.968)" fill="#1a1a1a"/>
        <path id="Path_608466" data-name="Path 608466" d="M22.857,118.753c-3.773,0-10.905-.445-10.905-2.128,0-.887,2.627-1.472,3.755-1.68-2.1.947-3.14,1.493-3.209,1.694,0,.539,3.558,1.566,10.359,1.566s10.358-1.028,10.358-1.581c0-.26-.893-.853-4.268-1.243,4.817,0,4.817.937,4.817,1.243,0,1.682-7.135,2.128-10.907,2.128" transform="translate(2.051 19.727)" fill="#1a1a1a"/>
        <path id="Path_608467" data-name="Path 608467" d="M19.3,118.67c-.257-.175-10.372-26.4-10.372-26.4.511-.2,10.629,26.023,10.629,26.023-.19.368-.224.373-.257.373" transform="translate(1.531 15.836)" fill="#1a1a1a"/>
        <path id="Path_608468" data-name="Path 608468" d="M23.8,120.294c1.237-13.321,10.587-41.158,10.682-41.438.424.455-8.908,28.235-10.41,41.2a.273.273,0,0,1-.272.243" transform="translate(4.085 13.533)" fill="#1a1a1a"/>
        <path id="Path_608469" data-name="Path 608469" d="M20.8,107.619c-.274-.284,1.517-55.388,1.517-55.388.548.019-1.243,55.123-1.243,55.123a.273.273,0,0,1-.274.265" transform="translate(3.565 8.964)" fill="#1a1a1a"/>
        <path id="Path_608470" data-name="Path 608470" d="M112.639,124.82c-.7-1.263-1.759-3.816-4.6-5.081a7.218,7.218,0,0,1,4.858,4.7c-.183.374-.218.382-.254.382" transform="translate(18.541 20.549)" fill="#1a1a1a"/>
        <path id="Path_608471" data-name="Path 608471" d="M109.255,124.61a5.93,5.93,0,0,0-1.6-2.041c-1.161-1.009-3.771-1.51-4.746-.827.907-1.3,3.757-.76,4.915.251a4.934,4.934,0,0,1,1.682,2.239c-.183.373-.219.378-.253.378" transform="translate(17.661 20.762)" fill="#1a1a1a"/>
        <path id="Path_608472" data-name="Path 608472" d="M107.877,124.7c-.237-.07-.31-.228-.257-.369a.79.79,0,0,0-.015-.683c-.355-.664-1.742-.989-2.569-1.181-1.45-.327-2.576-.573-2.757-1.353a10.345,10.345,0,0,0,2.167.651c1.693.4,3.17.742,3.641,1.624a1.312,1.312,0,0,1,.046,1.132.274.274,0,0,1-.257.179" transform="translate(17.553 20.785)" fill="#1a1a1a"/>
        <path id="Path_608473" data-name="Path 608473" d="M114.861,124.874c-.667-1.656-2.429-4.649-4.515-5.437,2.38.313,4.292,3.324,4.778,5.092-.217.342-.239.346-.262.346" transform="translate(18.937 20.497)" fill="#1a1a1a"/>
        <path id="Path_608474" data-name="Path 608474" d="M116.375,124.767a9.72,9.72,0,0,0-1.1-2.879,7.9,7.9,0,0,0-3.4-3.139,5.641,5.641,0,0,1,3.87,2.849,5.808,5.808,0,0,1,.906,2.936.274.274,0,0,1-.271.232" transform="translate(19.199 20.38)" fill="#1a1a1a"/>
        <path id="Path_608475" data-name="Path 608475" d="M60.147,37.285h-27c0-.547,27-.547,27-.547.273.426.151.547,0,.547" transform="translate(5.688 6.305)" fill="#1a1a1a"/>
        <path id="Path_608476" data-name="Path 608476" d="M60.147,42.339h-27c0-.548,27-.548,27-.548.273.426.151.548,0,.548" transform="translate(5.688 7.172)" fill="#1a1a1a"/>
        <path id="Path_608477" data-name="Path 608477" d="M60.147,53.863h-27c0-.548,27-.548,27-.548.273.426.151.548,0,.548" transform="translate(5.688 9.15)" fill="#1a1a1a"/>
        <path id="Path_608478" data-name="Path 608478" d="M60.147,58.916h-27c0-.547,27-.547,27-.547.273.426.151.547,0,.547" transform="translate(5.688 10.017)" fill="#1a1a1a"/>
        <path id="Path_608479" data-name="Path 608479" d="M143.63,43.823l15.527,24.533a6.049,6.049,0,0,1-5.112,9.283H112.131a6.051,6.051,0,0,1-5.112-2.814L89.4,46.98A6.048,6.048,0,0,1,94.507,37.7h41.916a6.048,6.048,0,0,1,5.109,2.814Z" transform="translate(15.179 6.469)" fill="#fff198"/>
        <path id="Path_608480" data-name="Path 608480" d="M93.166,42.262H149l-3.67-5.563a6.581,6.581,0,0,0-3.46-1.852c-2.576-.692-43.381.026-43.381.026a6,6,0,0,0-5.326,7.389" transform="translate(15.969 5.929)" fill="#1a1a1a"/>
        <path id="Path_608481" data-name="Path 608481" d="M135.664,39.383c-.681.565-1.879.243-2.677-.721s-.9-2.2-.216-2.763,1.879-.243,2.677.719.9,2.2.216,2.764" transform="translate(22.708 6.113)" fill="#3a3a3a"/>
        <path id="Path_608482" data-name="Path 608482" d="M130.271,39.383c-.68.565-1.878.243-2.677-.721s-.894-2.2-.214-2.763,1.878-.243,2.676.719.9,2.2.216,2.764" transform="translate(21.783 6.113)" fill="#fff"/>
        <path id="Path_608483" data-name="Path 608483" d="M125.007,39.383c-.68.565-1.878.243-2.676-.721s-.9-2.2-.216-2.763,1.878-.243,2.677.719.894,2.2.214,2.764" transform="translate(20.879 6.113)" fill="#fff"/>
        <path id="Path_608484" data-name="Path 608484" d="M158.655,75.108H116.741a6.329,6.329,0,0,1-5.38-2.962L93.738,44.3a6.365,6.365,0,0,1,5.38-9.77h41.915a6.332,6.332,0,0,1,5.379,2.961l2.1,3.313,15.526,24.531a6.368,6.368,0,0,1-5.38,9.771M99.119,35.167a5.729,5.729,0,0,0-4.841,8.8L111.9,71.807a5.7,5.7,0,0,0,4.841,2.663h41.915a5.729,5.729,0,0,0,4.841-8.794L145.874,37.833a5.7,5.7,0,0,0-4.841-2.665Z" transform="translate(15.916 5.926)" fill="#1a1a1a"/>
        <path id="Path_608485" data-name="Path 608485" d="M144.584,41.5H97.74a.318.318,0,0,1,0-.636h46.845a.318.318,0,1,1,0,.636" transform="translate(16.719 7.012)" fill="#1a1a1a"/>
        <path id="Path_608486" data-name="Path 608486" d="M145.053,48.524H124.883a.318.318,0,0,1,0-.636h20.171a.318.318,0,0,1,0,.636" transform="translate(21.377 8.218)" fill="#1a1a1a"/>
        <path id="Path_608487" data-name="Path 608487" d="M148.7,54.14H128.535a.318.318,0,1,1,0-.636H148.7a.318.318,0,1,1,0,.636" transform="translate(22.004 9.182)" fill="#1a1a1a"/>
        <path id="Path_608488" data-name="Path 608488" d="M152.156,59.757H131.986a.319.319,0,0,1,0-.637h20.171a.319.319,0,0,1,0,.637" transform="translate(22.596 10.146)" fill="#1a1a1a"/>
        <path id="Path_608489" data-name="Path 608489" d="M135.664,39.383c-.681.565-1.879.243-2.677-.721s-.9-2.2-.216-2.763,1.879-.243,2.677.719.9,2.2.216,2.764" transform="translate(22.708 6.113)" fill="#ffce26"/>
        <path id="Path_608490" data-name="Path 608490" d="M129.5,40.027a3.008,3.008,0,0,1-2.1-1.112c-.908-1.1-.987-2.538-.173-3.214s2.2-.351,3.126.763a3.12,3.12,0,0,1,.735,1.711,1.715,1.715,0,0,1-.561,1.5,1.569,1.569,0,0,1-1.023.351m-1.257-4.036a.944.944,0,0,0-.614.2c-.532.444-.415,1.506.258,2.316a2.325,2.325,0,0,0,1.487.876,1.014,1.014,0,0,0,.74-.2,1.1,1.1,0,0,0,.335-.963,2.468,2.468,0,0,0-.589-1.351,2.26,2.26,0,0,0-1.617-.881" transform="translate(21.737 6.066)" fill="#1a1a1a"/>
        <path id="Path_608491" data-name="Path 608491" d="M124.237,40.026a2.116,2.116,0,0,1-.56-.076,3.109,3.109,0,0,1-1.544-1.036,2.977,2.977,0,0,1-.733-2.089,1.615,1.615,0,0,1,.56-1.125,1.706,1.706,0,0,1,1.579-.274,3.109,3.109,0,0,1,1.545,1.037,2.975,2.975,0,0,1,.733,2.087,1.611,1.611,0,0,1-.559,1.125,1.575,1.575,0,0,1-1.022.351m-1.255-4.04a.94.94,0,0,0-.615.2,1.009,1.009,0,0,0-.334.694,2.329,2.329,0,0,0,.59,1.623,2.468,2.468,0,0,0,1.22.828,1.1,1.1,0,0,0,1.008-.151,1.008,1.008,0,0,0,.333-.692,2.329,2.329,0,0,0-.589-1.62,2.463,2.463,0,0,0-1.221-.828,1.435,1.435,0,0,0-.391-.056" transform="translate(20.833 6.066)" fill="#1a1a1a"/>
        <path id="Path_608492" data-name="Path 608492" d="M122.3,65.71c-.268-.149-13.69-21.353-13.69-21.353a.318.318,0,0,1,.1-.439.321.321,0,0,1,.439.1l13.421,21.2a.319.319,0,0,1-.269.489" transform="translate(18.631 7.529)" fill="#1a1a1a"/>
        <path id="Path_608493" data-name="Path 608493" d="M140.206,31.522H115.867A11.6,11.6,0,0,1,104.3,19.959V11.75A11.6,11.6,0,0,1,115.867.188H140.2A11.6,11.6,0,0,1,151.767,11.75V19.96a11.6,11.6,0,0,1-11.562,11.562" transform="translate(17.9 0.032)" fill="#a3bfe4"/>
        <path id="Path_608494" data-name="Path 608494" d="M130.5,6.442c-.845-1.446-2.228-1.446-3.073,0L120.937,17.56c-.845,1.447-.165,2.631,1.51,2.631h13.044c1.675,0,2.355-1.183,1.509-2.63Z" transform="translate(20.693 0.919)" fill="#fff"/>
        <path id="Path_608495" data-name="Path 608495" d="M143.075,31.774H112.809a8.7,8.7,0,0,1-8.693-8.693V8.692A8.7,8.7,0,0,1,112.809,0h30.517a8.7,8.7,0,0,1,8.692,8.692V23.081a8.439,8.439,0,0,1-5.14,7.826,9.222,9.222,0,0,0,4.7-7.826V8.692A8.263,8.263,0,0,0,143.327.439H112.809a8.263,8.263,0,0,0-8.254,8.253V23.081a8.264,8.264,0,0,0,8.254,8.254h30.265c.22.341.122.439,0,.439" transform="translate(17.868)" fill="#1a1a1a"/>
        <path id="Path_608496" data-name="Path 608496" d="M132.245,22.031H119.359a2.027,2.027,0,0,1-1.87-.873,2.025,2.025,0,0,1,.187-2.057l6.416-10.985a1.824,1.824,0,0,1,3.414,0L133.928,19.1a2.02,2.02,0,0,1,.189,2.053,2.024,2.024,0,0,1-1.871.875M125.8,7.374a1.635,1.635,0,0,0-1.327.963l-6.415,10.985a1.617,1.617,0,0,0-.186,1.617,1.616,1.616,0,0,0,1.488.653h12.887a1.617,1.617,0,0,0,1.49-.654,1.621,1.621,0,0,0-.187-1.614L127.126,8.337a1.638,1.638,0,0,0-1.327-.963" transform="translate(20.128 1.19)" fill="#1a1a1a"/>
      </g>
    </g>
  </g>
</svg>
